<?xml version="1.0" encoding="utf-8" standalone="no"?>
<!DOCTYPE svg PUBLIC "-//W3C//DTD SVG 1.1//EN"
  "http://www.w3.org/Graphics/SVG/1.1/DTD/svg11.dtd">
<svg xmlns:xlink="http://www.w3.org/1999/xlink" width="720pt" height="576pt" viewBox="0 0 720 576" xmlns="http://www.w3.org/2000/svg" version="1.1">
 <metadata>
  <rdf:RDF xmlns:dc="http://purl.org/dc/elements/1.1/" xmlns:cc="http://creativecommons.org/ns#" xmlns:rdf="http://www.w3.org/1999/02/22-rdf-syntax-ns#">
   <cc:Work>
    <dc:type rdf:resource="http://purl.org/dc/dcmitype/StillImage"/>
    <dc:date>2023-04-11T20:51:18.748845</dc:date>
    <dc:format>image/svg+xml</dc:format>
    <dc:creator>
     <cc:Agent>
      <dc:title>Matplotlib v3.7.1, https://matplotlib.org/</dc:title>
     </cc:Agent>
    </dc:creator>
   </cc:Work>
  </rdf:RDF>
 </metadata>
 <defs>
  <style type="text/css">*{stroke-linejoin: round; stroke-linecap: butt}</style>
 </defs>
 <g id="figure_1">
  <g id="patch_1">
   <path d="M 0 576 
L 720 576 
L 720 0 
L 0 0 
z
" style="fill: #ffffff"/>
  </g>
  <g id="axes_1">
   <g id="patch_2">
    <path d="M 90 512.64 
L 648 512.64 
L 648 69.12 
L 90 69.12 
z
" style="fill: #e5e5e5"/>
   </g>
   <g id="line2d_1">
    <path d="M 113.25 455.86944 
L 113.25 493.12512 
" clip-path="url(#p0ca2e7925f)" style="fill: none; stroke: #464646; stroke-width: 1.5; stroke-linecap: square"/>
   </g>
   <g id="line2d_2">
    <path d="M 113.25 420.38784 
L 113.25 367.16544 
" clip-path="url(#p0ca2e7925f)" style="fill: none; stroke: #464646; stroke-width: 1.5; stroke-linecap: square"/>
   </g>
   <g id="line2d_3">
    <path d="M 103.95 493.12512 
L 122.55 493.12512 
" clip-path="url(#p0ca2e7925f)" style="fill: none; stroke: #464646; stroke-width: 1.5; stroke-linecap: square"/>
   </g>
   <g id="line2d_4">
    <path d="M 103.95 367.16544 
L 122.55 367.16544 
" clip-path="url(#p0ca2e7925f)" style="fill: none; stroke: #464646; stroke-width: 1.5; stroke-linecap: square"/>
   </g>
   <g id="line2d_5">
    <defs>
     <path id="mc4e2cf2542" d="M -0 3.535534 
L 2.12132 0 
L -0 -3.535534 
L -2.12132 -0 
z
" style="stroke: #464646; stroke-linejoin: miter"/>
    </defs>
    <g clip-path="url(#p0ca2e7925f)">
     <use xlink:href="#mc4e2cf2542" x="113.25" y="525.05856" style="fill: #464646; stroke: #464646; stroke-linejoin: miter"/>
    </g>
   </g>
   <g id="line2d_6">
    <path d="M 159.75 448.77312 
L 159.75 500.22144 
" clip-path="url(#p0ca2e7925f)" style="fill: none; stroke: #464646; stroke-width: 1.5; stroke-linecap: square"/>
   </g>
   <g id="line2d_7">
    <path d="M 159.75 409.74336 
L 159.75 354.74688 
" clip-path="url(#p0ca2e7925f)" style="fill: none; stroke: #464646; stroke-width: 1.5; stroke-linecap: square"/>
   </g>
   <g id="line2d_8">
    <path d="M 150.45 500.22144 
L 169.05 500.22144 
" clip-path="url(#p0ca2e7925f)" style="fill: none; stroke: #464646; stroke-width: 1.5; stroke-linecap: square"/>
   </g>
   <g id="line2d_9">
    <path d="M 150.45 354.74688 
L 169.05 354.74688 
" clip-path="url(#p0ca2e7925f)" style="fill: none; stroke: #464646; stroke-width: 1.5; stroke-linecap: square"/>
   </g>
   <g id="line2d_10">
    <g clip-path="url(#p0ca2e7925f)">
     <use xlink:href="#mc4e2cf2542" x="159.75" y="517.96224" style="fill: #464646; stroke: #464646; stroke-linejoin: miter"/>
    </g>
   </g>
   <g id="line2d_11">
    <path d="M 206.25 417.72672 
L 206.25 464.73984 
" clip-path="url(#p0ca2e7925f)" style="fill: none; stroke: #464646; stroke-width: 1.5; stroke-linecap: square"/>
   </g>
   <g id="line2d_12">
    <path d="M 206.25 373.81824 
L 206.25 319.26528 
" clip-path="url(#p0ca2e7925f)" style="fill: none; stroke: #464646; stroke-width: 1.5; stroke-linecap: square"/>
   </g>
   <g id="line2d_13">
    <path d="M 196.95 464.73984 
L 215.55 464.73984 
" clip-path="url(#p0ca2e7925f)" style="fill: none; stroke: #464646; stroke-width: 1.5; stroke-linecap: square"/>
   </g>
   <g id="line2d_14">
    <path d="M 196.95 319.26528 
L 215.55 319.26528 
" clip-path="url(#p0ca2e7925f)" style="fill: none; stroke: #464646; stroke-width: 1.5; stroke-linecap: square"/>
   </g>
   <g id="line2d_15">
    <g clip-path="url(#p0ca2e7925f)">
     <use xlink:href="#mc4e2cf2542" x="206.25" y="296.20224" style="fill: #464646; stroke: #464646; stroke-linejoin: miter"/>
    </g>
   </g>
   <g id="line2d_16">
    <path d="M 252.75 363.61728 
L 252.75 397.3248 
" clip-path="url(#p0ca2e7925f)" style="fill: none; stroke: #464646; stroke-width: 1.5; stroke-linecap: square"/>
   </g>
   <g id="line2d_17">
    <path d="M 252.75 320.15232 
L 252.75 258.94656 
" clip-path="url(#p0ca2e7925f)" style="fill: none; stroke: #464646; stroke-width: 1.5; stroke-linecap: square"/>
   </g>
   <g id="line2d_18">
    <path d="M 243.45 397.3248 
L 262.05 397.3248 
" clip-path="url(#p0ca2e7925f)" style="fill: none; stroke: #464646; stroke-width: 1.5; stroke-linecap: square"/>
   </g>
   <g id="line2d_19">
    <path d="M 243.45 258.94656 
L 262.05 258.94656 
" clip-path="url(#p0ca2e7925f)" style="fill: none; stroke: #464646; stroke-width: 1.5; stroke-linecap: square"/>
   </g>
   <g id="line2d_20">
    <g clip-path="url(#p0ca2e7925f)">
     <use xlink:href="#mc4e2cf2542" x="252.75" y="251.85024" style="fill: #464646; stroke: #464646; stroke-linejoin: miter"/>
    </g>
   </g>
   <g id="line2d_21">
    <path d="M 299.25 294.42816 
L 299.25 344.1024 
" clip-path="url(#p0ca2e7925f)" style="fill: none; stroke: #464646; stroke-width: 1.5; stroke-linecap: square"/>
   </g>
   <g id="line2d_22">
    <path d="M 299.25 258.94656 
L 299.25 212.82048 
" clip-path="url(#p0ca2e7925f)" style="fill: none; stroke: #464646; stroke-width: 1.5; stroke-linecap: square"/>
   </g>
   <g id="line2d_23">
    <path d="M 289.95 344.1024 
L 308.55 344.1024 
" clip-path="url(#p0ca2e7925f)" style="fill: none; stroke: #464646; stroke-width: 1.5; stroke-linecap: square"/>
   </g>
   <g id="line2d_24">
    <path d="M 289.95 212.82048 
L 308.55 212.82048 
" clip-path="url(#p0ca2e7925f)" style="fill: none; stroke: #464646; stroke-width: 1.5; stroke-linecap: square"/>
   </g>
   <g id="line2d_25"/>
   <g id="line2d_26">
    <path d="M 345.75 241.20576 
L 345.75 282.0096 
" clip-path="url(#p0ca2e7925f)" style="fill: none; stroke: #464646; stroke-width: 1.5; stroke-linecap: square"/>
   </g>
   <g id="line2d_27">
    <path d="M 345.75 204.83712 
L 345.75 164.92032 
" clip-path="url(#p0ca2e7925f)" style="fill: none; stroke: #464646; stroke-width: 1.5; stroke-linecap: square"/>
   </g>
   <g id="line2d_28">
    <path d="M 336.45 282.0096 
L 355.05 282.0096 
" clip-path="url(#p0ca2e7925f)" style="fill: none; stroke: #464646; stroke-width: 1.5; stroke-linecap: square"/>
   </g>
   <g id="line2d_29">
    <path d="M 336.45 164.92032 
L 355.05 164.92032 
" clip-path="url(#p0ca2e7925f)" style="fill: none; stroke: #464646; stroke-width: 1.5; stroke-linecap: square"/>
   </g>
   <g id="line2d_30"/>
   <g id="line2d_31">
    <path d="M 392.25 220.80384 
L 392.25 260.72064 
" clip-path="url(#p0ca2e7925f)" style="fill: none; stroke: #464646; stroke-width: 1.5; stroke-linecap: square"/>
   </g>
   <g id="line2d_32">
    <path d="M 392.25 171.1296 
L 392.25 122.3424 
" clip-path="url(#p0ca2e7925f)" style="fill: none; stroke: #464646; stroke-width: 1.5; stroke-linecap: square"/>
   </g>
   <g id="line2d_33">
    <path d="M 382.95 260.72064 
L 401.55 260.72064 
" clip-path="url(#p0ca2e7925f)" style="fill: none; stroke: #464646; stroke-width: 1.5; stroke-linecap: square"/>
   </g>
   <g id="line2d_34">
    <path d="M 382.95 122.3424 
L 401.55 122.3424 
" clip-path="url(#p0ca2e7925f)" style="fill: none; stroke: #464646; stroke-width: 1.5; stroke-linecap: square"/>
   </g>
   <g id="line2d_35"/>
   <g id="line2d_36">
    <path d="M 438.75 223.90848 
L 438.75 264.2688 
" clip-path="url(#p0ca2e7925f)" style="fill: none; stroke: #464646; stroke-width: 1.5; stroke-linecap: square"/>
   </g>
   <g id="line2d_37">
    <path d="M 438.75 194.63616 
L 438.75 152.50176 
" clip-path="url(#p0ca2e7925f)" style="fill: none; stroke: #464646; stroke-width: 1.5; stroke-linecap: square"/>
   </g>
   <g id="line2d_38">
    <path d="M 429.45 264.2688 
L 448.05 264.2688 
" clip-path="url(#p0ca2e7925f)" style="fill: none; stroke: #464646; stroke-width: 1.5; stroke-linecap: square"/>
   </g>
   <g id="line2d_39">
    <path d="M 429.45 152.50176 
L 448.05 152.50176 
" clip-path="url(#p0ca2e7925f)" style="fill: none; stroke: #464646; stroke-width: 1.5; stroke-linecap: square"/>
   </g>
   <g id="line2d_40">
    <g clip-path="url(#p0ca2e7925f)">
     <use xlink:href="#mc4e2cf2542" x="438.75" y="140.0832" style="fill: #464646; stroke: #464646; stroke-linejoin: miter"/>
     <use xlink:href="#mc4e2cf2542" x="438.75" y="148.9536" style="fill: #464646; stroke: #464646; stroke-linejoin: miter"/>
     <use xlink:href="#mc4e2cf2542" x="438.75" y="150.72768" style="fill: #464646; stroke: #464646; stroke-linejoin: miter"/>
     <use xlink:href="#mc4e2cf2542" x="438.75" y="120.56832" style="fill: #464646; stroke: #464646; stroke-linejoin: miter"/>
    </g>
   </g>
   <g id="line2d_41">
    <path d="M 485.25 270.03456 
L 485.25 294.42816 
" clip-path="url(#p0ca2e7925f)" style="fill: none; stroke: #464646; stroke-width: 1.5; stroke-linecap: square"/>
   </g>
   <g id="line2d_42">
    <path d="M 485.25 241.20576 
L 485.25 205.72416 
" clip-path="url(#p0ca2e7925f)" style="fill: none; stroke: #464646; stroke-width: 1.5; stroke-linecap: square"/>
   </g>
   <g id="line2d_43">
    <path d="M 475.95 294.42816 
L 494.55 294.42816 
" clip-path="url(#p0ca2e7925f)" style="fill: none; stroke: #464646; stroke-width: 1.5; stroke-linecap: square"/>
   </g>
   <g id="line2d_44">
    <path d="M 475.95 205.72416 
L 494.55 205.72416 
" clip-path="url(#p0ca2e7925f)" style="fill: none; stroke: #464646; stroke-width: 1.5; stroke-linecap: square"/>
   </g>
   <g id="line2d_45"/>
   <g id="line2d_46">
    <path d="M 531.75 335.67552 
L 531.75 383.13216 
" clip-path="url(#p0ca2e7925f)" style="fill: none; stroke: #464646; stroke-width: 1.5; stroke-linecap: square"/>
   </g>
   <g id="line2d_47">
    <path d="M 531.75 299.7504 
L 531.75 269.59104 
" clip-path="url(#p0ca2e7925f)" style="fill: none; stroke: #464646; stroke-width: 1.5; stroke-linecap: square"/>
   </g>
   <g id="line2d_48">
    <path d="M 522.45 383.13216 
L 541.05 383.13216 
" clip-path="url(#p0ca2e7925f)" style="fill: none; stroke: #464646; stroke-width: 1.5; stroke-linecap: square"/>
   </g>
   <g id="line2d_49">
    <path d="M 522.45 269.59104 
L 541.05 269.59104 
" clip-path="url(#p0ca2e7925f)" style="fill: none; stroke: #464646; stroke-width: 1.5; stroke-linecap: square"/>
   </g>
   <g id="line2d_50"/>
   <g id="line2d_51">
    <path d="M 578.25 406.1952 
L 578.25 450.5472 
" clip-path="url(#p0ca2e7925f)" style="fill: none; stroke: #464646; stroke-width: 1.5; stroke-linecap: square"/>
   </g>
   <g id="line2d_52">
    <path d="M 578.25 372.04416 
L 578.25 324.58752 
" clip-path="url(#p0ca2e7925f)" style="fill: none; stroke: #464646; stroke-width: 1.5; stroke-linecap: square"/>
   </g>
   <g id="line2d_53">
    <path d="M 568.95 450.5472 
L 587.55 450.5472 
" clip-path="url(#p0ca2e7925f)" style="fill: none; stroke: #464646; stroke-width: 1.5; stroke-linecap: square"/>
   </g>
   <g id="line2d_54">
    <path d="M 568.95 324.58752 
L 587.55 324.58752 
" clip-path="url(#p0ca2e7925f)" style="fill: none; stroke: #464646; stroke-width: 1.5; stroke-linecap: square"/>
   </g>
   <g id="line2d_55"/>
   <g id="line2d_56">
    <path d="M 624.75 443.45088 
L 624.75 489.57696 
" clip-path="url(#p0ca2e7925f)" style="fill: none; stroke: #464646; stroke-width: 1.5; stroke-linecap: square"/>
   </g>
   <g id="line2d_57">
    <path d="M 624.75 407.52576 
L 624.75 367.16544 
" clip-path="url(#p0ca2e7925f)" style="fill: none; stroke: #464646; stroke-width: 1.5; stroke-linecap: square"/>
   </g>
   <g id="line2d_58">
    <path d="M 615.45 489.57696 
L 634.05 489.57696 
" clip-path="url(#p0ca2e7925f)" style="fill: none; stroke: #464646; stroke-width: 1.5; stroke-linecap: square"/>
   </g>
   <g id="line2d_59">
    <path d="M 615.45 367.16544 
L 634.05 367.16544 
" clip-path="url(#p0ca2e7925f)" style="fill: none; stroke: #464646; stroke-width: 1.5; stroke-linecap: square"/>
   </g>
   <g id="line2d_60">
    <g clip-path="url(#p0ca2e7925f)">
     <use xlink:href="#mc4e2cf2542" x="624.75" y="503.7696" style="fill: #464646; stroke: #464646; stroke-linejoin: miter"/>
     <use xlink:href="#mc4e2cf2542" x="624.75" y="498.44736" style="fill: #464646; stroke: #464646; stroke-linejoin: miter"/>
    </g>
   </g>
   <g id="line2d_61">
    <path d="M 94.65 434.58048 
L 131.85 434.58048 
" clip-path="url(#p0ca2e7925f)" style="fill: none; stroke: #464646; stroke-width: 1.5; stroke-linecap: square"/>
   </g>
   <g id="line2d_62">
    <path d="M 141.15 423.936 
L 178.35 423.936 
" clip-path="url(#p0ca2e7925f)" style="fill: none; stroke: #464646; stroke-width: 1.5; stroke-linecap: square"/>
   </g>
   <g id="line2d_63">
    <path d="M 187.65 392.00256 
L 224.85 392.00256 
" clip-path="url(#p0ca2e7925f)" style="fill: none; stroke: #464646; stroke-width: 1.5; stroke-linecap: square"/>
   </g>
   <g id="line2d_64">
    <path d="M 234.15 337.00608 
L 271.35 337.00608 
" clip-path="url(#p0ca2e7925f)" style="fill: none; stroke: #464646; stroke-width: 1.5; stroke-linecap: square"/>
   </g>
   <g id="line2d_65">
    <path d="M 280.65 282.0096 
L 317.85 282.0096 
" clip-path="url(#p0ca2e7925f)" style="fill: none; stroke: #464646; stroke-width: 1.5; stroke-linecap: square"/>
   </g>
   <g id="line2d_66">
    <path d="M 327.15 225.23904 
L 364.35 225.23904 
" clip-path="url(#p0ca2e7925f)" style="fill: none; stroke: #464646; stroke-width: 1.5; stroke-linecap: square"/>
   </g>
   <g id="line2d_67">
    <path d="M 373.65 203.95008 
L 410.85 203.95008 
" clip-path="url(#p0ca2e7925f)" style="fill: none; stroke: #464646; stroke-width: 1.5; stroke-linecap: square"/>
   </g>
   <g id="line2d_68">
    <path d="M 420.15 211.93344 
L 457.35 211.93344 
" clip-path="url(#p0ca2e7925f)" style="fill: none; stroke: #464646; stroke-width: 1.5; stroke-linecap: square"/>
   </g>
   <g id="line2d_69">
    <path d="M 466.65 255.3984 
L 503.85 255.3984 
" clip-path="url(#p0ca2e7925f)" style="fill: none; stroke: #464646; stroke-width: 1.5; stroke-linecap: square"/>
   </g>
   <g id="line2d_70">
    <path d="M 513.15 313.94304 
L 550.35 313.94304 
" clip-path="url(#p0ca2e7925f)" style="fill: none; stroke: #464646; stroke-width: 1.5; stroke-linecap: square"/>
   </g>
   <g id="line2d_71">
    <path d="M 559.65 392.00256 
L 596.85 392.00256 
" clip-path="url(#p0ca2e7925f)" style="fill: none; stroke: #464646; stroke-width: 1.5; stroke-linecap: square"/>
   </g>
   <g id="line2d_72">
    <path d="M 606.15 427.48416 
L 643.35 427.48416 
" clip-path="url(#p0ca2e7925f)" style="fill: none; stroke: #464646; stroke-width: 1.5; stroke-linecap: square"/>
   </g>
   <g id="matplotlib.axis_1">
    <g id="xtick_1">
     <g id="line2d_73">
      <defs>
       <path id="me56f28cbc6" d="M 0 0 
L 0 3.5 
" style="stroke: #555555; stroke-width: 0.8"/>
      </defs>
      <g>
       <use xlink:href="#me56f28cbc6" x="113.25" y="512.64" style="fill: #555555; stroke: #555555; stroke-width: 0.8"/>
      </g>
     </g>
     <g id="text_1">
      <!-- Jan -->
      <g style="fill: #555555" transform="translate(105.542187 527.238438) scale(0.1 -0.1)">
       <defs>
        <path id="DejaVuSans-4a" d="M 628 4666 
L 1259 4666 
L 1259 325 
Q 1259 -519 939 -900 
Q 619 -1281 -91 -1281 
L -331 -1281 
L -331 -750 
L -134 -750 
Q 284 -750 456 -515 
Q 628 -281 628 325 
L 628 4666 
z
" transform="scale(0.015625)"/>
        <path id="DejaVuSans-61" d="M 2194 1759 
Q 1497 1759 1228 1600 
Q 959 1441 959 1056 
Q 959 750 1161 570 
Q 1363 391 1709 391 
Q 2188 391 2477 730 
Q 2766 1069 2766 1631 
L 2766 1759 
L 2194 1759 
z
M 3341 1997 
L 3341 0 
L 2766 0 
L 2766 531 
Q 2569 213 2275 61 
Q 1981 -91 1556 -91 
Q 1019 -91 701 211 
Q 384 513 384 1019 
Q 384 1609 779 1909 
Q 1175 2209 1959 2209 
L 2766 2209 
L 2766 2266 
Q 2766 2663 2505 2880 
Q 2244 3097 1772 3097 
Q 1472 3097 1187 3025 
Q 903 2953 641 2809 
L 641 3341 
Q 956 3463 1253 3523 
Q 1550 3584 1831 3584 
Q 2591 3584 2966 3190 
Q 3341 2797 3341 1997 
z
" transform="scale(0.015625)"/>
        <path id="DejaVuSans-6e" d="M 3513 2113 
L 3513 0 
L 2938 0 
L 2938 2094 
Q 2938 2591 2744 2837 
Q 2550 3084 2163 3084 
Q 1697 3084 1428 2787 
Q 1159 2491 1159 1978 
L 1159 0 
L 581 0 
L 581 3500 
L 1159 3500 
L 1159 2956 
Q 1366 3272 1645 3428 
Q 1925 3584 2291 3584 
Q 2894 3584 3203 3211 
Q 3513 2838 3513 2113 
z
" transform="scale(0.015625)"/>
       </defs>
       <use xlink:href="#DejaVuSans-4a"/>
       <use xlink:href="#DejaVuSans-61" x="29.492188"/>
       <use xlink:href="#DejaVuSans-6e" x="90.771484"/>
      </g>
     </g>
    </g>
    <g id="xtick_2">
     <g id="line2d_74">
      <g>
       <use xlink:href="#me56f28cbc6" x="159.75" y="512.64" style="fill: #555555; stroke: #555555; stroke-width: 0.8"/>
      </g>
     </g>
     <g id="text_2">
      <!-- Feb -->
      <g style="fill: #555555" transform="translate(150.898438 527.238438) scale(0.1 -0.1)">
       <defs>
        <path id="DejaVuSans-46" d="M 628 4666 
L 3309 4666 
L 3309 4134 
L 1259 4134 
L 1259 2759 
L 3109 2759 
L 3109 2228 
L 1259 2228 
L 1259 0 
L 628 0 
L 628 4666 
z
" transform="scale(0.015625)"/>
        <path id="DejaVuSans-65" d="M 3597 1894 
L 3597 1613 
L 953 1613 
Q 991 1019 1311 708 
Q 1631 397 2203 397 
Q 2534 397 2845 478 
Q 3156 559 3463 722 
L 3463 178 
Q 3153 47 2828 -22 
Q 2503 -91 2169 -91 
Q 1331 -91 842 396 
Q 353 884 353 1716 
Q 353 2575 817 3079 
Q 1281 3584 2069 3584 
Q 2775 3584 3186 3129 
Q 3597 2675 3597 1894 
z
M 3022 2063 
Q 3016 2534 2758 2815 
Q 2500 3097 2075 3097 
Q 1594 3097 1305 2825 
Q 1016 2553 972 2059 
L 3022 2063 
z
" transform="scale(0.015625)"/>
        <path id="DejaVuSans-62" d="M 3116 1747 
Q 3116 2381 2855 2742 
Q 2594 3103 2138 3103 
Q 1681 3103 1420 2742 
Q 1159 2381 1159 1747 
Q 1159 1113 1420 752 
Q 1681 391 2138 391 
Q 2594 391 2855 752 
Q 3116 1113 3116 1747 
z
M 1159 2969 
Q 1341 3281 1617 3432 
Q 1894 3584 2278 3584 
Q 2916 3584 3314 3078 
Q 3713 2572 3713 1747 
Q 3713 922 3314 415 
Q 2916 -91 2278 -91 
Q 1894 -91 1617 61 
Q 1341 213 1159 525 
L 1159 0 
L 581 0 
L 581 4863 
L 1159 4863 
L 1159 2969 
z
" transform="scale(0.015625)"/>
       </defs>
       <use xlink:href="#DejaVuSans-46"/>
       <use xlink:href="#DejaVuSans-65" x="52.019531"/>
       <use xlink:href="#DejaVuSans-62" x="113.542969"/>
      </g>
     </g>
    </g>
    <g id="xtick_3">
     <g id="line2d_75">
      <g>
       <use xlink:href="#me56f28cbc6" x="206.25" y="512.64" style="fill: #555555; stroke: #555555; stroke-width: 0.8"/>
      </g>
     </g>
     <g id="text_3">
      <!-- Mar -->
      <g style="fill: #555555" transform="translate(196.816406 527.238438) scale(0.1 -0.1)">
       <defs>
        <path id="DejaVuSans-4d" d="M 628 4666 
L 1569 4666 
L 2759 1491 
L 3956 4666 
L 4897 4666 
L 4897 0 
L 4281 0 
L 4281 4097 
L 3078 897 
L 2444 897 
L 1241 4097 
L 1241 0 
L 628 0 
L 628 4666 
z
" transform="scale(0.015625)"/>
        <path id="DejaVuSans-72" d="M 2631 2963 
Q 2534 3019 2420 3045 
Q 2306 3072 2169 3072 
Q 1681 3072 1420 2755 
Q 1159 2438 1159 1844 
L 1159 0 
L 581 0 
L 581 3500 
L 1159 3500 
L 1159 2956 
Q 1341 3275 1631 3429 
Q 1922 3584 2338 3584 
Q 2397 3584 2469 3576 
Q 2541 3569 2628 3553 
L 2631 2963 
z
" transform="scale(0.015625)"/>
       </defs>
       <use xlink:href="#DejaVuSans-4d"/>
       <use xlink:href="#DejaVuSans-61" x="86.279297"/>
       <use xlink:href="#DejaVuSans-72" x="147.558594"/>
      </g>
     </g>
    </g>
    <g id="xtick_4">
     <g id="line2d_76">
      <g>
       <use xlink:href="#me56f28cbc6" x="252.75" y="512.64" style="fill: #555555; stroke: #555555; stroke-width: 0.8"/>
      </g>
     </g>
     <g id="text_4">
      <!-- Apr -->
      <g style="fill: #555555" transform="translate(244.1 527.238438) scale(0.1 -0.1)">
       <defs>
        <path id="DejaVuSans-41" d="M 2188 4044 
L 1331 1722 
L 3047 1722 
L 2188 4044 
z
M 1831 4666 
L 2547 4666 
L 4325 0 
L 3669 0 
L 3244 1197 
L 1141 1197 
L 716 0 
L 50 0 
L 1831 4666 
z
" transform="scale(0.015625)"/>
        <path id="DejaVuSans-70" d="M 1159 525 
L 1159 -1331 
L 581 -1331 
L 581 3500 
L 1159 3500 
L 1159 2969 
Q 1341 3281 1617 3432 
Q 1894 3584 2278 3584 
Q 2916 3584 3314 3078 
Q 3713 2572 3713 1747 
Q 3713 922 3314 415 
Q 2916 -91 2278 -91 
Q 1894 -91 1617 61 
Q 1341 213 1159 525 
z
M 3116 1747 
Q 3116 2381 2855 2742 
Q 2594 3103 2138 3103 
Q 1681 3103 1420 2742 
Q 1159 2381 1159 1747 
Q 1159 1113 1420 752 
Q 1681 391 2138 391 
Q 2594 391 2855 752 
Q 3116 1113 3116 1747 
z
" transform="scale(0.015625)"/>
       </defs>
       <use xlink:href="#DejaVuSans-41"/>
       <use xlink:href="#DejaVuSans-70" x="68.408203"/>
       <use xlink:href="#DejaVuSans-72" x="131.884766"/>
      </g>
     </g>
    </g>
    <g id="xtick_5">
     <g id="line2d_77">
      <g>
       <use xlink:href="#me56f28cbc6" x="299.25" y="512.64" style="fill: #555555; stroke: #555555; stroke-width: 0.8"/>
      </g>
     </g>
     <g id="text_5">
      <!-- May -->
      <g style="fill: #555555" transform="translate(288.9125 527.238438) scale(0.1 -0.1)">
       <defs>
        <path id="DejaVuSans-79" d="M 2059 -325 
Q 1816 -950 1584 -1140 
Q 1353 -1331 966 -1331 
L 506 -1331 
L 506 -850 
L 844 -850 
Q 1081 -850 1212 -737 
Q 1344 -625 1503 -206 
L 1606 56 
L 191 3500 
L 800 3500 
L 1894 763 
L 2988 3500 
L 3597 3500 
L 2059 -325 
z
" transform="scale(0.015625)"/>
       </defs>
       <use xlink:href="#DejaVuSans-4d"/>
       <use xlink:href="#DejaVuSans-61" x="86.279297"/>
       <use xlink:href="#DejaVuSans-79" x="147.558594"/>
      </g>
     </g>
    </g>
    <g id="xtick_6">
     <g id="line2d_78">
      <g>
       <use xlink:href="#me56f28cbc6" x="345.75" y="512.64" style="fill: #555555; stroke: #555555; stroke-width: 0.8"/>
      </g>
     </g>
     <g id="text_6">
      <!-- June -->
      <g style="fill: #555555" transform="translate(334.860937 527.238438) scale(0.1 -0.1)">
       <defs>
        <path id="DejaVuSans-75" d="M 544 1381 
L 544 3500 
L 1119 3500 
L 1119 1403 
Q 1119 906 1312 657 
Q 1506 409 1894 409 
Q 2359 409 2629 706 
Q 2900 1003 2900 1516 
L 2900 3500 
L 3475 3500 
L 3475 0 
L 2900 0 
L 2900 538 
Q 2691 219 2414 64 
Q 2138 -91 1772 -91 
Q 1169 -91 856 284 
Q 544 659 544 1381 
z
M 1991 3584 
L 1991 3584 
z
" transform="scale(0.015625)"/>
       </defs>
       <use xlink:href="#DejaVuSans-4a"/>
       <use xlink:href="#DejaVuSans-75" x="29.492188"/>
       <use xlink:href="#DejaVuSans-6e" x="92.871094"/>
       <use xlink:href="#DejaVuSans-65" x="156.25"/>
      </g>
     </g>
    </g>
    <g id="xtick_7">
     <g id="line2d_79">
      <g>
       <use xlink:href="#me56f28cbc6" x="392.25" y="512.64" style="fill: #555555; stroke: #555555; stroke-width: 0.8"/>
      </g>
     </g>
     <g id="text_7">
      <!-- July -->
      <g style="fill: #555555" transform="translate(383.257812 527.238438) scale(0.1 -0.1)">
       <defs>
        <path id="DejaVuSans-6c" d="M 603 4863 
L 1178 4863 
L 1178 0 
L 603 0 
L 603 4863 
z
" transform="scale(0.015625)"/>
       </defs>
       <use xlink:href="#DejaVuSans-4a"/>
       <use xlink:href="#DejaVuSans-75" x="29.492188"/>
       <use xlink:href="#DejaVuSans-6c" x="92.871094"/>
       <use xlink:href="#DejaVuSans-79" x="120.654297"/>
      </g>
     </g>
    </g>
    <g id="xtick_8">
     <g id="line2d_80">
      <g>
       <use xlink:href="#me56f28cbc6" x="438.75" y="512.64" style="fill: #555555; stroke: #555555; stroke-width: 0.8"/>
      </g>
     </g>
     <g id="text_8">
      <!-- Aug -->
      <g style="fill: #555555" transform="translate(428.986719 527.238438) scale(0.1 -0.1)">
       <defs>
        <path id="DejaVuSans-67" d="M 2906 1791 
Q 2906 2416 2648 2759 
Q 2391 3103 1925 3103 
Q 1463 3103 1205 2759 
Q 947 2416 947 1791 
Q 947 1169 1205 825 
Q 1463 481 1925 481 
Q 2391 481 2648 825 
Q 2906 1169 2906 1791 
z
M 3481 434 
Q 3481 -459 3084 -895 
Q 2688 -1331 1869 -1331 
Q 1566 -1331 1297 -1286 
Q 1028 -1241 775 -1147 
L 775 -588 
Q 1028 -725 1275 -790 
Q 1522 -856 1778 -856 
Q 2344 -856 2625 -561 
Q 2906 -266 2906 331 
L 2906 616 
Q 2728 306 2450 153 
Q 2172 0 1784 0 
Q 1141 0 747 490 
Q 353 981 353 1791 
Q 353 2603 747 3093 
Q 1141 3584 1784 3584 
Q 2172 3584 2450 3431 
Q 2728 3278 2906 2969 
L 2906 3500 
L 3481 3500 
L 3481 434 
z
" transform="scale(0.015625)"/>
       </defs>
       <use xlink:href="#DejaVuSans-41"/>
       <use xlink:href="#DejaVuSans-75" x="68.408203"/>
       <use xlink:href="#DejaVuSans-67" x="131.787109"/>
      </g>
     </g>
    </g>
    <g id="xtick_9">
     <g id="line2d_81">
      <g>
       <use xlink:href="#me56f28cbc6" x="485.25" y="512.64" style="fill: #555555; stroke: #555555; stroke-width: 0.8"/>
      </g>
     </g>
     <g id="text_9">
      <!-- Sep -->
      <g style="fill: #555555" transform="translate(475.825 527.238438) scale(0.1 -0.1)">
       <defs>
        <path id="DejaVuSans-53" d="M 3425 4513 
L 3425 3897 
Q 3066 4069 2747 4153 
Q 2428 4238 2131 4238 
Q 1616 4238 1336 4038 
Q 1056 3838 1056 3469 
Q 1056 3159 1242 3001 
Q 1428 2844 1947 2747 
L 2328 2669 
Q 3034 2534 3370 2195 
Q 3706 1856 3706 1288 
Q 3706 609 3251 259 
Q 2797 -91 1919 -91 
Q 1588 -91 1214 -16 
Q 841 59 441 206 
L 441 856 
Q 825 641 1194 531 
Q 1563 422 1919 422 
Q 2459 422 2753 634 
Q 3047 847 3047 1241 
Q 3047 1584 2836 1778 
Q 2625 1972 2144 2069 
L 1759 2144 
Q 1053 2284 737 2584 
Q 422 2884 422 3419 
Q 422 4038 858 4394 
Q 1294 4750 2059 4750 
Q 2388 4750 2728 4690 
Q 3069 4631 3425 4513 
z
" transform="scale(0.015625)"/>
       </defs>
       <use xlink:href="#DejaVuSans-53"/>
       <use xlink:href="#DejaVuSans-65" x="63.476562"/>
       <use xlink:href="#DejaVuSans-70" x="125"/>
      </g>
     </g>
    </g>
    <g id="xtick_10">
     <g id="line2d_82">
      <g>
       <use xlink:href="#me56f28cbc6" x="531.75" y="512.64" style="fill: #555555; stroke: #555555; stroke-width: 0.8"/>
      </g>
     </g>
     <g id="text_10">
      <!-- Oct -->
      <g style="fill: #555555" transform="translate(523.104687 527.238438) scale(0.1 -0.1)">
       <defs>
        <path id="DejaVuSans-4f" d="M 2522 4238 
Q 1834 4238 1429 3725 
Q 1025 3213 1025 2328 
Q 1025 1447 1429 934 
Q 1834 422 2522 422 
Q 3209 422 3611 934 
Q 4013 1447 4013 2328 
Q 4013 3213 3611 3725 
Q 3209 4238 2522 4238 
z
M 2522 4750 
Q 3503 4750 4090 4092 
Q 4678 3434 4678 2328 
Q 4678 1225 4090 567 
Q 3503 -91 2522 -91 
Q 1538 -91 948 565 
Q 359 1222 359 2328 
Q 359 3434 948 4092 
Q 1538 4750 2522 4750 
z
" transform="scale(0.015625)"/>
        <path id="DejaVuSans-63" d="M 3122 3366 
L 3122 2828 
Q 2878 2963 2633 3030 
Q 2388 3097 2138 3097 
Q 1578 3097 1268 2742 
Q 959 2388 959 1747 
Q 959 1106 1268 751 
Q 1578 397 2138 397 
Q 2388 397 2633 464 
Q 2878 531 3122 666 
L 3122 134 
Q 2881 22 2623 -34 
Q 2366 -91 2075 -91 
Q 1284 -91 818 406 
Q 353 903 353 1747 
Q 353 2603 823 3093 
Q 1294 3584 2113 3584 
Q 2378 3584 2631 3529 
Q 2884 3475 3122 3366 
z
" transform="scale(0.015625)"/>
        <path id="DejaVuSans-74" d="M 1172 4494 
L 1172 3500 
L 2356 3500 
L 2356 3053 
L 1172 3053 
L 1172 1153 
Q 1172 725 1289 603 
Q 1406 481 1766 481 
L 2356 481 
L 2356 0 
L 1766 0 
Q 1100 0 847 248 
Q 594 497 594 1153 
L 594 3053 
L 172 3053 
L 172 3500 
L 594 3500 
L 594 4494 
L 1172 4494 
z
" transform="scale(0.015625)"/>
       </defs>
       <use xlink:href="#DejaVuSans-4f"/>
       <use xlink:href="#DejaVuSans-63" x="78.710938"/>
       <use xlink:href="#DejaVuSans-74" x="133.691406"/>
      </g>
     </g>
    </g>
    <g id="xtick_11">
     <g id="line2d_83">
      <g>
       <use xlink:href="#me56f28cbc6" x="578.25" y="512.64" style="fill: #555555; stroke: #555555; stroke-width: 0.8"/>
      </g>
     </g>
     <g id="text_11">
      <!-- Nov -->
      <g style="fill: #555555" transform="translate(568.490625 527.238438) scale(0.1 -0.1)">
       <defs>
        <path id="DejaVuSans-4e" d="M 628 4666 
L 1478 4666 
L 3547 763 
L 3547 4666 
L 4159 4666 
L 4159 0 
L 3309 0 
L 1241 3903 
L 1241 0 
L 628 0 
L 628 4666 
z
" transform="scale(0.015625)"/>
        <path id="DejaVuSans-6f" d="M 1959 3097 
Q 1497 3097 1228 2736 
Q 959 2375 959 1747 
Q 959 1119 1226 758 
Q 1494 397 1959 397 
Q 2419 397 2687 759 
Q 2956 1122 2956 1747 
Q 2956 2369 2687 2733 
Q 2419 3097 1959 3097 
z
M 1959 3584 
Q 2709 3584 3137 3096 
Q 3566 2609 3566 1747 
Q 3566 888 3137 398 
Q 2709 -91 1959 -91 
Q 1206 -91 779 398 
Q 353 888 353 1747 
Q 353 2609 779 3096 
Q 1206 3584 1959 3584 
z
" transform="scale(0.015625)"/>
        <path id="DejaVuSans-76" d="M 191 3500 
L 800 3500 
L 1894 563 
L 2988 3500 
L 3597 3500 
L 2284 0 
L 1503 0 
L 191 3500 
z
" transform="scale(0.015625)"/>
       </defs>
       <use xlink:href="#DejaVuSans-4e"/>
       <use xlink:href="#DejaVuSans-6f" x="74.804688"/>
       <use xlink:href="#DejaVuSans-76" x="135.986328"/>
      </g>
     </g>
    </g>
    <g id="xtick_12">
     <g id="line2d_84">
      <g>
       <use xlink:href="#me56f28cbc6" x="624.75" y="512.64" style="fill: #555555; stroke: #555555; stroke-width: 0.8"/>
      </g>
     </g>
     <g id="text_12">
      <!-- Dec -->
      <g style="fill: #555555" transform="translate(615.074219 527.238438) scale(0.1 -0.1)">
       <defs>
        <path id="DejaVuSans-44" d="M 1259 4147 
L 1259 519 
L 2022 519 
Q 2988 519 3436 956 
Q 3884 1394 3884 2338 
Q 3884 3275 3436 3711 
Q 2988 4147 2022 4147 
L 1259 4147 
z
M 628 4666 
L 1925 4666 
Q 3281 4666 3915 4102 
Q 4550 3538 4550 2338 
Q 4550 1131 3912 565 
Q 3275 0 1925 0 
L 628 0 
L 628 4666 
z
" transform="scale(0.015625)"/>
       </defs>
       <use xlink:href="#DejaVuSans-44"/>
       <use xlink:href="#DejaVuSans-65" x="77.001953"/>
       <use xlink:href="#DejaVuSans-63" x="138.525391"/>
      </g>
     </g>
    </g>
   </g>
   <g id="matplotlib.axis_2">
    <g id="ytick_1">
     <g id="line2d_85">
      <path d="M 90 512.64 
L 648 512.64 
" clip-path="url(#p0ca2e7925f)" style="fill: none; stroke: #ffffff; stroke-width: 0.8; stroke-linecap: square"/>
     </g>
     <g id="line2d_86">
      <defs>
       <path id="m1b9eb7aef9" d="M 0 0 
L -3.5 0 
" style="stroke: #555555; stroke-width: 0.8"/>
      </defs>
      <g>
       <use xlink:href="#m1b9eb7aef9" x="90" y="512.64" style="fill: #555555; stroke: #555555; stroke-width: 0.8"/>
      </g>
     </g>
     <g id="text_13">
      <!-- 0 -->
      <g style="fill: #555555" transform="translate(76.6375 516.439219) scale(0.1 -0.1)">
       <defs>
        <path id="DejaVuSans-30" d="M 2034 4250 
Q 1547 4250 1301 3770 
Q 1056 3291 1056 2328 
Q 1056 1369 1301 889 
Q 1547 409 2034 409 
Q 2525 409 2770 889 
Q 3016 1369 3016 2328 
Q 3016 3291 2770 3770 
Q 2525 4250 2034 4250 
z
M 2034 4750 
Q 2819 4750 3233 4129 
Q 3647 3509 3647 2328 
Q 3647 1150 3233 529 
Q 2819 -91 2034 -91 
Q 1250 -91 836 529 
Q 422 1150 422 2328 
Q 422 3509 836 4129 
Q 1250 4750 2034 4750 
z
" transform="scale(0.015625)"/>
       </defs>
       <use xlink:href="#DejaVuSans-30"/>
      </g>
     </g>
    </g>
    <g id="ytick_2">
     <g id="line2d_87">
      <path d="M 90 423.936 
L 648 423.936 
" clip-path="url(#p0ca2e7925f)" style="fill: none; stroke: #ffffff; stroke-width: 0.8; stroke-linecap: square"/>
     </g>
     <g id="line2d_88">
      <g>
       <use xlink:href="#m1b9eb7aef9" x="90" y="423.936" style="fill: #555555; stroke: #555555; stroke-width: 0.8"/>
      </g>
     </g>
     <g id="text_14">
      <!-- 5 -->
      <g style="fill: #555555" transform="translate(76.6375 427.735219) scale(0.1 -0.1)">
       <defs>
        <path id="DejaVuSans-35" d="M 691 4666 
L 3169 4666 
L 3169 4134 
L 1269 4134 
L 1269 2991 
Q 1406 3038 1543 3061 
Q 1681 3084 1819 3084 
Q 2600 3084 3056 2656 
Q 3513 2228 3513 1497 
Q 3513 744 3044 326 
Q 2575 -91 1722 -91 
Q 1428 -91 1123 -41 
Q 819 9 494 109 
L 494 744 
Q 775 591 1075 516 
Q 1375 441 1709 441 
Q 2250 441 2565 725 
Q 2881 1009 2881 1497 
Q 2881 1984 2565 2268 
Q 2250 2553 1709 2553 
Q 1456 2553 1204 2497 
Q 953 2441 691 2322 
L 691 4666 
z
" transform="scale(0.015625)"/>
       </defs>
       <use xlink:href="#DejaVuSans-35"/>
      </g>
     </g>
    </g>
    <g id="ytick_3">
     <g id="line2d_89">
      <path d="M 90 335.232 
L 648 335.232 
" clip-path="url(#p0ca2e7925f)" style="fill: none; stroke: #ffffff; stroke-width: 0.8; stroke-linecap: square"/>
     </g>
     <g id="line2d_90">
      <g>
       <use xlink:href="#m1b9eb7aef9" x="90" y="335.232" style="fill: #555555; stroke: #555555; stroke-width: 0.8"/>
      </g>
     </g>
     <g id="text_15">
      <!-- 10 -->
      <g style="fill: #555555" transform="translate(70.275 339.031219) scale(0.1 -0.1)">
       <defs>
        <path id="DejaVuSans-31" d="M 794 531 
L 1825 531 
L 1825 4091 
L 703 3866 
L 703 4441 
L 1819 4666 
L 2450 4666 
L 2450 531 
L 3481 531 
L 3481 0 
L 794 0 
L 794 531 
z
" transform="scale(0.015625)"/>
       </defs>
       <use xlink:href="#DejaVuSans-31"/>
       <use xlink:href="#DejaVuSans-30" x="63.623047"/>
      </g>
     </g>
    </g>
    <g id="ytick_4">
     <g id="line2d_91">
      <path d="M 90 246.528 
L 648 246.528 
" clip-path="url(#p0ca2e7925f)" style="fill: none; stroke: #ffffff; stroke-width: 0.8; stroke-linecap: square"/>
     </g>
     <g id="line2d_92">
      <g>
       <use xlink:href="#m1b9eb7aef9" x="90" y="246.528" style="fill: #555555; stroke: #555555; stroke-width: 0.8"/>
      </g>
     </g>
     <g id="text_16">
      <!-- 15 -->
      <g style="fill: #555555" transform="translate(70.275 250.327219) scale(0.1 -0.1)">
       <use xlink:href="#DejaVuSans-31"/>
       <use xlink:href="#DejaVuSans-35" x="63.623047"/>
      </g>
     </g>
    </g>
    <g id="ytick_5">
     <g id="line2d_93">
      <path d="M 90 157.824 
L 648 157.824 
" clip-path="url(#p0ca2e7925f)" style="fill: none; stroke: #ffffff; stroke-width: 0.8; stroke-linecap: square"/>
     </g>
     <g id="line2d_94">
      <g>
       <use xlink:href="#m1b9eb7aef9" x="90" y="157.824" style="fill: #555555; stroke: #555555; stroke-width: 0.8"/>
      </g>
     </g>
     <g id="text_17">
      <!-- 20 -->
      <g style="fill: #555555" transform="translate(70.275 161.623219) scale(0.1 -0.1)">
       <defs>
        <path id="DejaVuSans-32" d="M 1228 531 
L 3431 531 
L 3431 0 
L 469 0 
L 469 531 
Q 828 903 1448 1529 
Q 2069 2156 2228 2338 
Q 2531 2678 2651 2914 
Q 2772 3150 2772 3378 
Q 2772 3750 2511 3984 
Q 2250 4219 1831 4219 
Q 1534 4219 1204 4116 
Q 875 4013 500 3803 
L 500 4441 
Q 881 4594 1212 4672 
Q 1544 4750 1819 4750 
Q 2544 4750 2975 4387 
Q 3406 4025 3406 3419 
Q 3406 3131 3298 2873 
Q 3191 2616 2906 2266 
Q 2828 2175 2409 1742 
Q 1991 1309 1228 531 
z
" transform="scale(0.015625)"/>
       </defs>
       <use xlink:href="#DejaVuSans-32"/>
       <use xlink:href="#DejaVuSans-30" x="63.623047"/>
      </g>
     </g>
    </g>
    <g id="ytick_6">
     <g id="line2d_95">
      <path d="M 90 69.12 
L 648 69.12 
" clip-path="url(#p0ca2e7925f)" style="fill: none; stroke: #ffffff; stroke-width: 0.8; stroke-linecap: square"/>
     </g>
     <g id="line2d_96">
      <g>
       <use xlink:href="#m1b9eb7aef9" x="90" y="69.12" style="fill: #555555; stroke: #555555; stroke-width: 0.8"/>
      </g>
     </g>
     <g id="text_18">
      <!-- 25 -->
      <g style="fill: #555555" transform="translate(70.275 72.919219) scale(0.1 -0.1)">
       <use xlink:href="#DejaVuSans-32"/>
       <use xlink:href="#DejaVuSans-35" x="63.623047"/>
      </g>
     </g>
    </g>
    <g id="text_19">
     <!-- Temperature (C) -->
     <g style="fill: #555555" transform="translate(63.779375 339.661875) rotate(-90) scale(0.12 -0.12)">
      <defs>
       <path id="DejaVuSans-54" d="M -19 4666 
L 3928 4666 
L 3928 4134 
L 2272 4134 
L 2272 0 
L 1638 0 
L 1638 4134 
L -19 4134 
L -19 4666 
z
" transform="scale(0.015625)"/>
       <path id="DejaVuSans-6d" d="M 3328 2828 
Q 3544 3216 3844 3400 
Q 4144 3584 4550 3584 
Q 5097 3584 5394 3201 
Q 5691 2819 5691 2113 
L 5691 0 
L 5113 0 
L 5113 2094 
Q 5113 2597 4934 2840 
Q 4756 3084 4391 3084 
Q 3944 3084 3684 2787 
Q 3425 2491 3425 1978 
L 3425 0 
L 2847 0 
L 2847 2094 
Q 2847 2600 2669 2842 
Q 2491 3084 2119 3084 
Q 1678 3084 1418 2786 
Q 1159 2488 1159 1978 
L 1159 0 
L 581 0 
L 581 3500 
L 1159 3500 
L 1159 2956 
Q 1356 3278 1631 3431 
Q 1906 3584 2284 3584 
Q 2666 3584 2933 3390 
Q 3200 3197 3328 2828 
z
" transform="scale(0.015625)"/>
       <path id="DejaVuSans-20" transform="scale(0.015625)"/>
       <path id="DejaVuSans-28" d="M 1984 4856 
Q 1566 4138 1362 3434 
Q 1159 2731 1159 2009 
Q 1159 1288 1364 580 
Q 1569 -128 1984 -844 
L 1484 -844 
Q 1016 -109 783 600 
Q 550 1309 550 2009 
Q 550 2706 781 3412 
Q 1013 4119 1484 4856 
L 1984 4856 
z
" transform="scale(0.015625)"/>
       <path id="DejaVuSans-43" d="M 4122 4306 
L 4122 3641 
Q 3803 3938 3442 4084 
Q 3081 4231 2675 4231 
Q 1875 4231 1450 3742 
Q 1025 3253 1025 2328 
Q 1025 1406 1450 917 
Q 1875 428 2675 428 
Q 3081 428 3442 575 
Q 3803 722 4122 1019 
L 4122 359 
Q 3791 134 3420 21 
Q 3050 -91 2638 -91 
Q 1578 -91 968 557 
Q 359 1206 359 2328 
Q 359 3453 968 4101 
Q 1578 4750 2638 4750 
Q 3056 4750 3426 4639 
Q 3797 4528 4122 4306 
z
" transform="scale(0.015625)"/>
       <path id="DejaVuSans-29" d="M 513 4856 
L 1013 4856 
Q 1481 4119 1714 3412 
Q 1947 2706 1947 2009 
Q 1947 1309 1714 600 
Q 1481 -109 1013 -844 
L 513 -844 
Q 928 -128 1133 580 
Q 1338 1288 1338 2009 
Q 1338 2731 1133 3434 
Q 928 4138 513 4856 
z
" transform="scale(0.015625)"/>
      </defs>
      <use xlink:href="#DejaVuSans-54"/>
      <use xlink:href="#DejaVuSans-65" x="44.083984"/>
      <use xlink:href="#DejaVuSans-6d" x="105.607422"/>
      <use xlink:href="#DejaVuSans-70" x="203.019531"/>
      <use xlink:href="#DejaVuSans-65" x="266.496094"/>
      <use xlink:href="#DejaVuSans-72" x="328.019531"/>
      <use xlink:href="#DejaVuSans-61" x="369.132812"/>
      <use xlink:href="#DejaVuSans-74" x="430.412109"/>
      <use xlink:href="#DejaVuSans-75" x="469.621094"/>
      <use xlink:href="#DejaVuSans-72" x="533"/>
      <use xlink:href="#DejaVuSans-65" x="571.863281"/>
      <use xlink:href="#DejaVuSans-20" x="633.386719"/>
      <use xlink:href="#DejaVuSans-28" x="665.173828"/>
      <use xlink:href="#DejaVuSans-43" x="704.1875"/>
      <use xlink:href="#DejaVuSans-29" x="774.011719"/>
     </g>
    </g>
   </g>
   <g id="patch_3">
    <path d="M 94.65 455.86944 
L 131.85 455.86944 
L 131.85 420.38784 
L 94.65 420.38784 
L 94.65 455.86944 
L 94.65 455.86944 
z
" clip-path="url(#p0ca2e7925f)" style="fill: none; stroke: #000000; stroke-width: 1.5; stroke-linejoin: miter"/>
   </g>
   <g id="patch_4">
    <path d="M 141.15 448.77312 
L 178.35 448.77312 
L 178.35 409.74336 
L 141.15 409.74336 
L 141.15 448.77312 
L 141.15 448.77312 
z
" clip-path="url(#p0ca2e7925f)" style="fill: none; stroke: #000000; stroke-width: 1.5; stroke-linejoin: miter"/>
   </g>
   <g id="patch_5">
    <path d="M 187.65 417.72672 
L 224.85 417.72672 
L 224.85 373.81824 
L 187.65 373.81824 
L 187.65 417.72672 
L 187.65 417.72672 
z
" clip-path="url(#p0ca2e7925f)" style="fill: none; stroke: #000000; stroke-width: 1.5; stroke-linejoin: miter"/>
   </g>
   <g id="patch_6">
    <path d="M 234.15 363.61728 
L 271.35 363.61728 
L 271.35 320.15232 
L 234.15 320.15232 
L 234.15 363.61728 
L 234.15 363.61728 
z
" clip-path="url(#p0ca2e7925f)" style="fill: none; stroke: #000000; stroke-width: 1.5; stroke-linejoin: miter"/>
   </g>
   <g id="patch_7">
    <path d="M 280.65 294.42816 
L 317.85 294.42816 
L 317.85 258.94656 
L 280.65 258.94656 
L 280.65 294.42816 
L 280.65 294.42816 
z
" clip-path="url(#p0ca2e7925f)" style="fill: none; stroke: #000000; stroke-width: 1.5; stroke-linejoin: miter"/>
   </g>
   <g id="patch_8">
    <path d="M 327.15 241.20576 
L 364.35 241.20576 
L 364.35 204.83712 
L 327.15 204.83712 
L 327.15 241.20576 
L 327.15 241.20576 
z
" clip-path="url(#p0ca2e7925f)" style="fill: none; stroke: #000000; stroke-width: 1.5; stroke-linejoin: miter"/>
   </g>
   <g id="patch_9">
    <path d="M 373.65 220.80384 
L 410.85 220.80384 
L 410.85 171.1296 
L 373.65 171.1296 
L 373.65 220.80384 
L 373.65 220.80384 
z
" clip-path="url(#p0ca2e7925f)" style="fill: none; stroke: #000000; stroke-width: 1.5; stroke-linejoin: miter"/>
   </g>
   <g id="patch_10">
    <path d="M 420.15 223.90848 
L 457.35 223.90848 
L 457.35 194.63616 
L 420.15 194.63616 
L 420.15 223.90848 
L 420.15 223.90848 
z
" clip-path="url(#p0ca2e7925f)" style="fill: none; stroke: #000000; stroke-width: 1.5; stroke-linejoin: miter"/>
   </g>
   <g id="patch_11">
    <path d="M 466.65 270.03456 
L 503.85 270.03456 
L 503.85 241.20576 
L 466.65 241.20576 
L 466.65 270.03456 
L 466.65 270.03456 
z
" clip-path="url(#p0ca2e7925f)" style="fill: none; stroke: #000000; stroke-width: 1.5; stroke-linejoin: miter"/>
   </g>
   <g id="patch_12">
    <path d="M 513.15 335.67552 
L 550.35 335.67552 
L 550.35 299.7504 
L 513.15 299.7504 
L 513.15 335.67552 
L 513.15 335.67552 
z
" clip-path="url(#p0ca2e7925f)" style="fill: none; stroke: #000000; stroke-width: 1.5; stroke-linejoin: miter"/>
   </g>
   <g id="patch_13">
    <path d="M 559.65 406.1952 
L 596.85 406.1952 
L 596.85 372.04416 
L 559.65 372.04416 
L 559.65 406.1952 
L 559.65 406.1952 
z
" clip-path="url(#p0ca2e7925f)" style="fill: none; stroke: #000000; stroke-width: 1.5; stroke-linejoin: miter"/>
   </g>
   <g id="patch_14">
    <path d="M 606.15 443.45088 
L 643.35 443.45088 
L 643.35 407.52576 
L 606.15 407.52576 
L 606.15 443.45088 
L 606.15 443.45088 
z
" clip-path="url(#p0ca2e7925f)" style="fill: none; stroke: #000000; stroke-width: 1.5; stroke-linejoin: miter"/>
   </g>
   <g id="PathCollection_1">
    <path d="M 113.25 438.453463 
C 114.277127 438.453463 115.262324 438.045381 115.988613 437.319093 
C 116.714901 436.592804 117.122983 435.607607 117.122983 434.58048 
C 117.122983 433.553353 116.714901 432.568156 115.988613 431.841867 
C 115.262324 431.115579 114.277127 430.707497 113.25 430.707497 
C 112.222873 430.707497 111.237676 431.115579 110.511387 431.841867 
C 109.785099 432.568156 109.377017 433.553353 109.377017 434.58048 
C 109.377017 435.607607 109.785099 436.592804 110.511387 437.319093 
C 111.237676 438.045381 112.222873 438.453463 113.25 438.453463 
z
" clip-path="url(#p0ca2e7925f)" style="fill: #66c2a5; stroke: #ffffff; stroke-width: 0.619677"/>
    <path d="M 159.75 363.942103 
C 160.777127 363.942103 161.762324 363.534021 162.488613 362.807733 
C 163.214901 362.081444 163.622983 361.096247 163.622983 360.06912 
C 163.622983 359.041993 163.214901 358.056796 162.488613 357.330507 
C 161.762324 356.604219 160.777127 356.196137 159.75 356.196137 
C 158.722873 356.196137 157.737676 356.604219 157.011387 357.330507 
C 156.285099 358.056796 155.877017 359.041993 155.877017 360.06912 
C 155.877017 361.096247 156.285099 362.081444 157.011387 362.807733 
C 157.737676 363.534021 158.722873 363.942103 159.75 363.942103 
z
" clip-path="url(#p0ca2e7925f)" style="fill: #66c2a5; stroke: #ffffff; stroke-width: 0.619677"/>
    <path d="M 206.25 381.682903 
C 207.277127 381.682903 208.262324 381.274821 208.988613 380.548533 
C 209.714901 379.822244 210.122983 378.837047 210.122983 377.80992 
C 210.122983 376.782793 209.714901 375.797596 208.988613 375.071307 
C 208.262324 374.345019 207.277127 373.936937 206.25 373.936937 
C 205.222873 373.936937 204.237676 374.345019 203.511387 375.071307 
C 202.785099 375.797596 202.377017 376.782793 202.377017 377.80992 
C 202.377017 378.837047 202.785099 379.822244 203.511387 380.548533 
C 204.237676 381.274821 205.222873 381.682903 206.25 381.682903 
z
" clip-path="url(#p0ca2e7925f)" style="fill: #66c2a5; stroke: #ffffff; stroke-width: 0.619677"/>
    <path d="M 252.75 314.267863 
C 253.777127 314.267863 254.762324 313.859781 255.488613 313.133493 
C 256.214901 312.407204 256.622983 311.422007 256.622983 310.39488 
C 256.622983 309.367753 256.214901 308.382556 255.488613 307.656267 
C 254.762324 306.929979 253.777127 306.521897 252.75 306.521897 
C 251.722873 306.521897 250.737676 306.929979 250.011387 307.656267 
C 249.285099 308.382556 248.877017 309.367753 248.877017 310.39488 
C 248.877017 311.422007 249.285099 312.407204 250.011387 313.133493 
C 250.737676 313.859781 251.722873 314.267863 252.75 314.267863 
z
" clip-path="url(#p0ca2e7925f)" style="fill: #66c2a5; stroke: #ffffff; stroke-width: 0.619677"/>
    <path d="M 299.25 294.752983 
C 300.277127 294.752983 301.262324 294.344901 301.988613 293.618613 
C 302.714901 292.892324 303.122983 291.907127 303.122983 290.88 
C 303.122983 289.852873 302.714901 288.867676 301.988613 288.141387 
C 301.262324 287.415099 300.277127 287.007017 299.25 287.007017 
C 298.222873 287.007017 297.237676 287.415099 296.511387 288.141387 
C 295.785099 288.867676 295.377017 289.852873 295.377017 290.88 
C 295.377017 291.907127 295.785099 292.892324 296.511387 293.618613 
C 297.237676 294.344901 298.222873 294.752983 299.25 294.752983 
z
" clip-path="url(#p0ca2e7925f)" style="fill: #66c2a5; stroke: #ffffff; stroke-width: 0.619677"/>
    <path d="M 345.75 243.304663 
C 346.777127 243.304663 347.762324 242.896581 348.488613 242.170293 
C 349.214901 241.444004 349.622983 240.458807 349.622983 239.43168 
C 349.622983 238.404553 349.214901 237.419356 348.488613 236.693067 
C 347.762324 235.966779 346.777127 235.558697 345.75 235.558697 
C 344.722873 235.558697 343.737676 235.966779 343.011387 236.693067 
C 342.285099 237.419356 341.877017 238.404553 341.877017 239.43168 
C 341.877017 240.458807 342.285099 241.444004 343.011387 242.170293 
C 343.737676 242.896581 344.722873 243.304663 345.75 243.304663 
z
" clip-path="url(#p0ca2e7925f)" style="fill: #66c2a5; stroke: #ffffff; stroke-width: 0.619677"/>
    <path d="M 392.25 168.793303 
C 393.277127 168.793303 394.262324 168.385221 394.988613 167.658933 
C 395.714901 166.932644 396.122983 165.947447 396.122983 164.92032 
C 396.122983 163.893193 395.714901 162.907996 394.988613 162.181707 
C 394.262324 161.455419 393.277127 161.047337 392.25 161.047337 
C 391.222873 161.047337 390.237676 161.455419 389.511387 162.181707 
C 388.785099 162.907996 388.377017 163.893193 388.377017 164.92032 
C 388.377017 165.947447 388.785099 166.932644 389.511387 167.658933 
C 390.237676 168.385221 391.222873 168.793303 392.25 168.793303 
z
" clip-path="url(#p0ca2e7925f)" style="fill: #66c2a5; stroke: #ffffff; stroke-width: 0.619677"/>
    <path d="M 438.75 200.726743 
C 439.777127 200.726743 440.762324 200.318661 441.488613 199.592373 
C 442.214901 198.866084 442.622983 197.880887 442.622983 196.85376 
C 442.622983 195.826633 442.214901 194.841436 441.488613 194.115147 
C 440.762324 193.388859 439.777127 192.980777 438.75 192.980777 
C 437.722873 192.980777 436.737676 193.388859 436.011387 194.115147 
C 435.285099 194.841436 434.877017 195.826633 434.877017 196.85376 
C 434.877017 197.880887 435.285099 198.866084 436.011387 199.592373 
C 436.737676 200.318661 437.722873 200.726743 438.75 200.726743 
z
" clip-path="url(#p0ca2e7925f)" style="fill: #66c2a5; stroke: #ffffff; stroke-width: 0.619677"/>
    <path d="M 485.25 245.078743 
C 486.277127 245.078743 487.262324 244.670661 487.988613 243.944373 
C 488.714901 243.218084 489.122983 242.232887 489.122983 241.20576 
C 489.122983 240.178633 488.714901 239.193436 487.988613 238.467147 
C 487.262324 237.740859 486.277127 237.332777 485.25 237.332777 
C 484.222873 237.332777 483.237676 237.740859 482.511387 238.467147 
C 481.785099 239.193436 481.377017 240.178633 481.377017 241.20576 
C 481.377017 242.232887 481.785099 243.218084 482.511387 243.944373 
C 483.237676 244.670661 484.222873 245.078743 485.25 245.078743 
z
" clip-path="url(#p0ca2e7925f)" style="fill: #66c2a5; stroke: #ffffff; stroke-width: 0.619677"/>
    <path d="M 531.75 342.653143 
C 532.777127 342.653143 533.762324 342.245061 534.488613 341.518773 
C 535.214901 340.792484 535.622983 339.807287 535.622983 338.78016 
C 535.622983 337.753033 535.214901 336.767836 534.488613 336.041547 
C 533.762324 335.315259 532.777127 334.907177 531.75 334.907177 
C 530.722873 334.907177 529.737676 335.315259 529.011387 336.041547 
C 528.285099 336.767836 527.877017 337.753033 527.877017 338.78016 
C 527.877017 339.807287 528.285099 340.792484 529.011387 341.518773 
C 529.737676 342.245061 530.722873 342.653143 531.75 342.653143 
z
" clip-path="url(#p0ca2e7925f)" style="fill: #66c2a5; stroke: #ffffff; stroke-width: 0.619677"/>
    <path d="M 578.25 422.486743 
C 579.277127 422.486743 580.262324 422.078661 580.988613 421.352373 
C 581.714901 420.626084 582.122983 419.640887 582.122983 418.61376 
C 582.122983 417.586633 581.714901 416.601436 580.988613 415.875147 
C 580.262324 415.148859 579.277127 414.740777 578.25 414.740777 
C 577.222873 414.740777 576.237676 415.148859 575.511387 415.875147 
C 574.785099 416.601436 574.377017 417.586633 574.377017 418.61376 
C 574.377017 419.640887 574.785099 420.626084 575.511387 421.352373 
C 576.237676 422.078661 577.222873 422.486743 578.25 422.486743 
z
" clip-path="url(#p0ca2e7925f)" style="fill: #66c2a5; stroke: #ffffff; stroke-width: 0.619677"/>
    <path d="M 624.75 404.745943 
C 625.777127 404.745943 626.762324 404.337861 627.488613 403.611573 
C 628.214901 402.885284 628.622983 401.900087 628.622983 400.87296 
C 628.622983 399.845833 628.214901 398.860636 627.488613 398.134347 
C 626.762324 397.408059 625.777127 396.999977 624.75 396.999977 
C 623.722873 396.999977 622.737676 397.408059 622.011387 398.134347 
C 621.285099 398.860636 620.877017 399.845833 620.877017 400.87296 
C 620.877017 401.900087 621.285099 402.885284 622.011387 403.611573 
C 622.737676 404.337861 623.722873 404.745943 624.75 404.745943 
z
" clip-path="url(#p0ca2e7925f)" style="fill: #66c2a5; stroke: #ffffff; stroke-width: 0.619677"/>
    <path d="M 111.313508 390.553303 
L 113.25 388.616812 
L 115.186492 390.553303 
L 117.122983 388.616812 
L 115.186492 386.68032 
L 117.122983 384.743828 
L 115.186492 382.807337 
L 113.25 384.743828 
L 111.313508 382.807337 
L 109.377017 384.743828 
L 111.313508 386.68032 
L 109.377017 388.616812 
z
" clip-path="url(#p0ca2e7925f)" style="fill: #fc8d62; stroke: #ffffff; stroke-width: 0.619677"/>
    <path d="M 157.813508 429.583063 
L 159.75 427.646572 
L 161.686492 429.583063 
L 163.622983 427.646572 
L 161.686492 425.71008 
L 163.622983 423.773588 
L 161.686492 421.837097 
L 159.75 423.773588 
L 157.813508 421.837097 
L 155.877017 423.773588 
L 157.813508 425.71008 
L 155.877017 427.646572 
z
" clip-path="url(#p0ca2e7925f)" style="fill: #fc8d62; stroke: #ffffff; stroke-width: 0.619677"/>
    <path d="M 204.313508 392.327383 
L 206.25 390.390892 
L 208.186492 392.327383 
L 210.122983 390.390892 
L 208.186492 388.4544 
L 210.122983 386.517908 
L 208.186492 384.581417 
L 206.25 386.517908 
L 204.313508 384.581417 
L 202.377017 386.517908 
L 204.313508 388.4544 
L 202.377017 390.390892 
z
" clip-path="url(#p0ca2e7925f)" style="fill: #fc8d62; stroke: #ffffff; stroke-width: 0.619677"/>
    <path d="M 250.813508 300.075223 
L 252.75 298.138732 
L 254.686492 300.075223 
L 256.622983 298.138732 
L 254.686492 296.20224 
L 256.622983 294.265748 
L 254.686492 292.329257 
L 252.75 294.265748 
L 250.813508 292.329257 
L 248.877017 294.265748 
L 250.813508 296.20224 
L 248.877017 298.138732 
z
" clip-path="url(#p0ca2e7925f)" style="fill: #fc8d62; stroke: #ffffff; stroke-width: 0.619677"/>
    <path d="M 297.313508 252.175063 
L 299.25 250.238572 
L 301.186492 252.175063 
L 303.122983 250.238572 
L 301.186492 248.30208 
L 303.122983 246.365588 
L 301.186492 244.429097 
L 299.25 246.365588 
L 297.313508 244.429097 
L 295.377017 246.365588 
L 297.313508 248.30208 
L 295.377017 250.238572 
z
" clip-path="url(#p0ca2e7925f)" style="fill: #fc8d62; stroke: #ffffff; stroke-width: 0.619677"/>
    <path d="M 343.813508 216.693463 
L 345.75 214.756972 
L 347.686492 216.693463 
L 349.622983 214.756972 
L 347.686492 212.82048 
L 349.622983 210.883988 
L 347.686492 208.947497 
L 345.75 210.883988 
L 343.813508 208.947497 
L 341.877017 210.883988 
L 343.813508 212.82048 
L 341.877017 214.756972 
z
" clip-path="url(#p0ca2e7925f)" style="fill: #fc8d62; stroke: #ffffff; stroke-width: 0.619677"/>
    <path d="M 390.313508 220.241623 
L 392.25 218.305132 
L 394.186492 220.241623 
L 396.122983 218.305132 
L 394.186492 216.36864 
L 396.122983 214.432148 
L 394.186492 212.495657 
L 392.25 214.432148 
L 390.313508 212.495657 
L 388.377017 214.432148 
L 390.313508 216.36864 
L 388.377017 218.305132 
z
" clip-path="url(#p0ca2e7925f)" style="fill: #fc8d62; stroke: #ffffff; stroke-width: 0.619677"/>
    <path d="M 436.813508 200.726743 
L 438.75 198.790252 
L 440.686492 200.726743 
L 442.622983 198.790252 
L 440.686492 196.85376 
L 442.622983 194.917268 
L 440.686492 192.980777 
L 438.75 194.917268 
L 436.813508 192.980777 
L 434.877017 194.917268 
L 436.813508 196.85376 
L 434.877017 198.790252 
z
" clip-path="url(#p0ca2e7925f)" style="fill: #fc8d62; stroke: #ffffff; stroke-width: 0.619677"/>
    <path d="M 483.313508 243.304663 
L 485.25 241.368172 
L 487.186492 243.304663 
L 489.122983 241.368172 
L 487.186492 239.43168 
L 489.122983 237.495188 
L 487.186492 235.558697 
L 485.25 237.495188 
L 483.313508 235.558697 
L 481.377017 237.495188 
L 483.313508 239.43168 
L 481.377017 241.368172 
z
" clip-path="url(#p0ca2e7925f)" style="fill: #fc8d62; stroke: #ffffff; stroke-width: 0.619677"/>
    <path d="M 529.813508 330.234583 
L 531.75 328.298092 
L 533.686492 330.234583 
L 535.622983 328.298092 
L 533.686492 326.3616 
L 535.622983 324.425108 
L 533.686492 322.488617 
L 531.75 324.425108 
L 529.813508 322.488617 
L 527.877017 324.425108 
L 529.813508 326.3616 
L 527.877017 328.298092 
z
" clip-path="url(#p0ca2e7925f)" style="fill: #fc8d62; stroke: #ffffff; stroke-width: 0.619677"/>
    <path d="M 576.313508 349.749463 
L 578.25 347.812972 
L 580.186492 349.749463 
L 582.122983 347.812972 
L 580.186492 345.87648 
L 582.122983 343.939988 
L 580.186492 342.003497 
L 578.25 343.939988 
L 576.313508 342.003497 
L 574.377017 343.939988 
L 576.313508 345.87648 
L 574.377017 347.812972 
z
" clip-path="url(#p0ca2e7925f)" style="fill: #fc8d62; stroke: #ffffff; stroke-width: 0.619677"/>
    <path d="M 622.813508 424.260823 
L 624.75 422.324332 
L 626.686492 424.260823 
L 628.622983 422.324332 
L 626.686492 420.38784 
L 628.622983 418.451348 
L 626.686492 416.514857 
L 624.75 418.451348 
L 622.813508 416.514857 
L 620.877017 418.451348 
L 622.813508 420.38784 
L 620.877017 422.324332 
z
" clip-path="url(#p0ca2e7925f)" style="fill: #fc8d62; stroke: #ffffff; stroke-width: 0.619677"/>
    <path d="M 110.511387 470.871627 
L 110.511387 476.348853 
L 115.988613 476.348853 
L 115.988613 470.871627 
z
" clip-path="url(#p0ca2e7925f)" style="fill: #8da0cb; stroke: #ffffff; stroke-width: 0.619677"/>
    <path d="M 157.011387 435.390027 
L 157.011387 440.867253 
L 162.488613 440.867253 
L 162.488613 435.390027 
z
" clip-path="url(#p0ca2e7925f)" style="fill: #8da0cb; stroke: #ffffff; stroke-width: 0.619677"/>
    <path d="M 203.511387 352.008267 
L 203.511387 357.485493 
L 208.988613 357.485493 
L 208.988613 352.008267 
z
" clip-path="url(#p0ca2e7925f)" style="fill: #8da0cb; stroke: #ffffff; stroke-width: 0.619677"/>
    <path d="M 250.011387 337.815627 
L 250.011387 343.292853 
L 255.488613 343.292853 
L 255.488613 337.815627 
z
" clip-path="url(#p0ca2e7925f)" style="fill: #8da0cb; stroke: #ffffff; stroke-width: 0.619677"/>
    <path d="M 296.511387 302.334027 
L 296.511387 307.811253 
L 301.988613 307.811253 
L 301.988613 302.334027 
z
" clip-path="url(#p0ca2e7925f)" style="fill: #8da0cb; stroke: #ffffff; stroke-width: 0.619677"/>
    <path d="M 343.011387 190.566987 
L 343.011387 196.044213 
L 348.488613 196.044213 
L 348.488613 190.566987 
z
" clip-path="url(#p0ca2e7925f)" style="fill: #8da0cb; stroke: #ffffff; stroke-width: 0.619677"/>
    <path d="M 389.511387 139.118667 
L 389.511387 144.595893 
L 394.988613 144.595893 
L 394.988613 139.118667 
z
" clip-path="url(#p0ca2e7925f)" style="fill: #8da0cb; stroke: #ffffff; stroke-width: 0.619677"/>
    <path d="M 436.011387 183.470667 
L 436.011387 188.947893 
L 441.488613 188.947893 
L 441.488613 183.470667 
z
" clip-path="url(#p0ca2e7925f)" style="fill: #8da0cb; stroke: #ffffff; stroke-width: 0.619677"/>
    <path d="M 482.511387 208.307787 
L 482.511387 213.785013 
L 487.988613 213.785013 
L 487.988613 208.307787 
z
" clip-path="url(#p0ca2e7925f)" style="fill: #8da0cb; stroke: #ffffff; stroke-width: 0.619677"/>
    <path d="M 529.011387 297.011787 
L 529.011387 302.489013 
L 534.488613 302.489013 
L 534.488613 297.011787 
z
" clip-path="url(#p0ca2e7925f)" style="fill: #8da0cb; stroke: #ffffff; stroke-width: 0.619677"/>
    <path d="M 575.511387 359.104587 
L 575.511387 364.581813 
L 580.988613 364.581813 
L 580.988613 359.104587 
z
" clip-path="url(#p0ca2e7925f)" style="fill: #8da0cb; stroke: #ffffff; stroke-width: 0.619677"/>
    <path d="M 622.011387 428.293707 
L 622.011387 433.770933 
L 627.488613 433.770933 
L 627.488613 428.293707 
z
" clip-path="url(#p0ca2e7925f)" style="fill: #8da0cb; stroke: #ffffff; stroke-width: 0.619677"/>
    <path d="M 111.959006 394.101463 
L 114.540994 394.101463 
L 114.540994 391.519474 
L 117.122983 391.519474 
L 117.122983 388.937486 
L 114.540994 388.937486 
L 114.540994 386.355497 
L 111.959006 386.355497 
L 111.959006 388.937486 
L 109.377017 388.937486 
L 109.377017 391.519474 
L 111.959006 391.519474 
z
" clip-path="url(#p0ca2e7925f)" style="fill: #e78ac3; stroke: #ffffff; stroke-width: 0.619677"/>
    <path d="M 158.459006 417.164503 
L 161.040994 417.164503 
L 161.040994 414.582514 
L 163.622983 414.582514 
L 163.622983 412.000526 
L 161.040994 412.000526 
L 161.040994 409.418537 
L 158.459006 409.418537 
L 158.459006 412.000526 
L 155.877017 412.000526 
L 155.877017 414.582514 
L 158.459006 414.582514 
z
" clip-path="url(#p0ca2e7925f)" style="fill: #e78ac3; stroke: #ffffff; stroke-width: 0.619677"/>
    <path d="M 204.959006 347.975383 
L 207.540994 347.975383 
L 207.540994 345.393394 
L 210.122983 345.393394 
L 210.122983 342.811406 
L 207.540994 342.811406 
L 207.540994 340.229417 
L 204.959006 340.229417 
L 204.959006 342.811406 
L 202.377017 342.811406 
L 202.377017 345.393394 
L 204.959006 345.393394 
z
" clip-path="url(#p0ca2e7925f)" style="fill: #e78ac3; stroke: #ffffff; stroke-width: 0.619677"/>
    <path d="M 251.459006 328.460503 
L 254.040994 328.460503 
L 254.040994 325.878514 
L 256.622983 325.878514 
L 256.622983 323.296526 
L 254.040994 323.296526 
L 254.040994 320.714537 
L 251.459006 320.714537 
L 251.459006 323.296526 
L 248.877017 323.296526 
L 248.877017 325.878514 
L 251.459006 325.878514 
z
" clip-path="url(#p0ca2e7925f)" style="fill: #e78ac3; stroke: #ffffff; stroke-width: 0.619677"/>
    <path d="M 297.959006 269.915863 
L 300.540994 269.915863 
L 300.540994 267.333874 
L 303.122983 267.333874 
L 303.122983 264.751886 
L 300.540994 264.751886 
L 300.540994 262.169897 
L 297.959006 262.169897 
L 297.959006 264.751886 
L 295.377017 264.751886 
L 295.377017 267.333874 
L 297.959006 267.333874 
z
" clip-path="url(#p0ca2e7925f)" style="fill: #e78ac3; stroke: #ffffff; stroke-width: 0.619677"/>
    <path d="M 344.459006 198.952663 
L 347.040994 198.952663 
L 347.040994 196.370674 
L 349.622983 196.370674 
L 349.622983 193.788686 
L 347.040994 193.788686 
L 347.040994 191.206697 
L 344.459006 191.206697 
L 344.459006 193.788686 
L 341.877017 193.788686 
L 341.877017 196.370674 
L 344.459006 196.370674 
z
" clip-path="url(#p0ca2e7925f)" style="fill: #e78ac3; stroke: #ffffff; stroke-width: 0.619677"/>
    <path d="M 390.959006 172.341463 
L 393.540994 172.341463 
L 393.540994 169.759474 
L 396.122983 169.759474 
L 396.122983 167.177486 
L 393.540994 167.177486 
L 393.540994 164.595497 
L 390.959006 164.595497 
L 390.959006 167.177486 
L 388.377017 167.177486 
L 388.377017 169.759474 
L 390.959006 169.759474 
z
" clip-path="url(#p0ca2e7925f)" style="fill: #e78ac3; stroke: #ffffff; stroke-width: 0.619677"/>
    <path d="M 437.459006 182.985943 
L 440.040994 182.985943 
L 440.040994 180.403954 
L 442.622983 180.403954 
L 442.622983 177.821966 
L 440.040994 177.821966 
L 440.040994 175.239977 
L 437.459006 175.239977 
L 437.459006 177.821966 
L 434.877017 177.821966 
L 434.877017 180.403954 
L 437.459006 180.403954 
z
" clip-path="url(#p0ca2e7925f)" style="fill: #e78ac3; stroke: #ffffff; stroke-width: 0.619677"/>
    <path d="M 483.959006 252.175063 
L 486.540994 252.175063 
L 486.540994 249.593074 
L 489.122983 249.593074 
L 489.122983 247.011086 
L 486.540994 247.011086 
L 486.540994 244.429097 
L 483.959006 244.429097 
L 483.959006 247.011086 
L 481.377017 247.011086 
L 481.377017 249.593074 
L 483.959006 249.593074 
z
" clip-path="url(#p0ca2e7925f)" style="fill: #e78ac3; stroke: #ffffff; stroke-width: 0.619677"/>
    <path d="M 530.459006 296.527063 
L 533.040994 296.527063 
L 533.040994 293.945074 
L 535.622983 293.945074 
L 535.622983 291.363086 
L 533.040994 291.363086 
L 533.040994 288.781097 
L 530.459006 288.781097 
L 530.459006 291.363086 
L 527.877017 291.363086 
L 527.877017 293.945074 
L 530.459006 293.945074 
z
" clip-path="url(#p0ca2e7925f)" style="fill: #e78ac3; stroke: #ffffff; stroke-width: 0.619677"/>
    <path d="M 576.959006 353.297623 
L 579.540994 353.297623 
L 579.540994 350.715634 
L 582.122983 350.715634 
L 582.122983 348.133646 
L 579.540994 348.133646 
L 579.540994 345.551657 
L 576.959006 345.551657 
L 576.959006 348.133646 
L 574.377017 348.133646 
L 574.377017 350.715634 
L 576.959006 350.715634 
z
" clip-path="url(#p0ca2e7925f)" style="fill: #e78ac3; stroke: #ffffff; stroke-width: 0.619677"/>
    <path d="M 623.459006 461.516503 
L 626.040994 461.516503 
L 626.040994 458.934514 
L 628.622983 458.934514 
L 628.622983 456.352526 
L 626.040994 456.352526 
L 626.040994 453.770537 
L 623.459006 453.770537 
L 623.459006 456.352526 
L 620.877017 456.352526 
L 620.877017 458.934514 
L 623.459006 458.934514 
z
" clip-path="url(#p0ca2e7925f)" style="fill: #e78ac3; stroke: #ffffff; stroke-width: 0.619677"/>
   </g>
   <g id="PathCollection_2"/>
   <g id="PathCollection_3"/>
   <g id="PathCollection_4"/>
   <g id="PathCollection_5"/>
   <g id="PathCollection_6">
    <defs>
     <path id="md17ea85d95" d="M 0 -3.872983 
L -3.872983 3.872983 
L 3.872983 3.872983 
z
" style="stroke: #ffffff; stroke-width: 0.619677"/>
    </defs>
    <g clip-path="url(#p0ca2e7925f)">
     <use xlink:href="#md17ea85d95" x="531.75" y="269.59104" style="stroke: #ffffff; stroke-width: 0.619677"/>
     <use xlink:href="#md17ea85d95" x="113.25" y="367.16544" style="stroke: #ffffff; stroke-width: 0.619677"/>
     <use xlink:href="#md17ea85d95" x="438.75" y="120.56832" style="stroke: #ffffff; stroke-width: 0.619677"/>
     <use xlink:href="#md17ea85d95" x="159.75" y="354.74688" style="stroke: #ffffff; stroke-width: 0.619677"/>
     <use xlink:href="#md17ea85d95" x="392.25" y="122.3424" style="stroke: #ffffff; stroke-width: 0.619677"/>
     <use xlink:href="#md17ea85d95" x="485.25" y="205.72416" style="stroke: #ffffff; stroke-width: 0.619677"/>
     <use xlink:href="#md17ea85d95" x="252.75" y="251.85024" style="stroke: #ffffff; stroke-width: 0.619677"/>
     <use xlink:href="#md17ea85d95" x="578.25" y="324.58752" style="stroke: #ffffff; stroke-width: 0.619677"/>
     <use xlink:href="#md17ea85d95" x="206.25" y="296.20224" style="stroke: #ffffff; stroke-width: 0.619677"/>
     <use xlink:href="#md17ea85d95" x="624.75" y="367.16544" style="stroke: #ffffff; stroke-width: 0.619677"/>
     <use xlink:href="#md17ea85d95" x="299.25" y="212.82048" style="stroke: #ffffff; stroke-width: 0.619677"/>
     <use xlink:href="#md17ea85d95" x="345.75" y="164.92032" style="stroke: #ffffff; stroke-width: 0.619677"/>
    </g>
   </g>
   <g id="patch_15">
    <path d="M 90 512.64 
L 90 69.12 
" style="fill: none; stroke: #ffffff; stroke-linejoin: miter; stroke-linecap: square"/>
   </g>
   <g id="patch_16">
    <path d="M 648 512.64 
L 648 69.12 
" style="fill: none; stroke: #ffffff; stroke-linejoin: miter; stroke-linecap: square"/>
   </g>
   <g id="patch_17">
    <path d="M 90 512.64 
L 648 512.64 
" style="fill: none; stroke: #ffffff; stroke-linejoin: miter; stroke-linecap: square"/>
   </g>
   <g id="patch_18">
    <path d="M 90 69.12 
L 648 69.12 
" style="fill: none; stroke: #ffffff; stroke-linejoin: miter; stroke-linecap: square"/>
   </g>
   <g id="patch_19">
    <path d="M 531.75 257.927875 
Q 531.75 262.758578 531.75 267.589281 
" style="fill: none; stroke: #000000; stroke-width: 0.5; stroke-linecap: round"/>
   </g>
   <g id="text_20">
    <!-- 1969 -->
    <g transform="translate(519.025 251.85024) scale(0.1 -0.1)">
     <defs>
      <path id="DejaVuSans-39" d="M 703 97 
L 703 672 
Q 941 559 1184 500 
Q 1428 441 1663 441 
Q 2288 441 2617 861 
Q 2947 1281 2994 2138 
Q 2813 1869 2534 1725 
Q 2256 1581 1919 1581 
Q 1219 1581 811 2004 
Q 403 2428 403 3163 
Q 403 3881 828 4315 
Q 1253 4750 1959 4750 
Q 2769 4750 3195 4129 
Q 3622 3509 3622 2328 
Q 3622 1225 3098 567 
Q 2575 -91 1691 -91 
Q 1453 -91 1209 -44 
Q 966 3 703 97 
z
M 1959 2075 
Q 2384 2075 2632 2365 
Q 2881 2656 2881 3163 
Q 2881 3666 2632 3958 
Q 2384 4250 1959 4250 
Q 1534 4250 1286 3958 
Q 1038 3666 1038 3163 
Q 1038 2656 1286 2365 
Q 1534 2075 1959 2075 
z
" transform="scale(0.015625)"/>
      <path id="DejaVuSans-36" d="M 2113 2584 
Q 1688 2584 1439 2293 
Q 1191 2003 1191 1497 
Q 1191 994 1439 701 
Q 1688 409 2113 409 
Q 2538 409 2786 701 
Q 3034 994 3034 1497 
Q 3034 2003 2786 2293 
Q 2538 2584 2113 2584 
z
M 3366 4563 
L 3366 3988 
Q 3128 4100 2886 4159 
Q 2644 4219 2406 4219 
Q 1781 4219 1451 3797 
Q 1122 3375 1075 2522 
Q 1259 2794 1537 2939 
Q 1816 3084 2150 3084 
Q 2853 3084 3261 2657 
Q 3669 2231 3669 1497 
Q 3669 778 3244 343 
Q 2819 -91 2113 -91 
Q 1303 -91 875 529 
Q 447 1150 447 2328 
Q 447 3434 972 4092 
Q 1497 4750 2381 4750 
Q 2619 4750 2861 4703 
Q 3103 4656 3366 4563 
z
" transform="scale(0.015625)"/>
     </defs>
     <use xlink:href="#DejaVuSans-31"/>
     <use xlink:href="#DejaVuSans-39" x="63.623047"/>
     <use xlink:href="#DejaVuSans-36" x="127.246094"/>
     <use xlink:href="#DejaVuSans-39" x="190.869141"/>
    </g>
   </g>
   <g id="patch_20">
    <path d="M 113.25 355.502275 
Q 113.25 360.332978 113.25 365.163681 
" style="fill: none; stroke: #000000; stroke-width: 0.5; stroke-linecap: round"/>
   </g>
   <g id="text_21">
    <!-- 1989 -->
    <g transform="translate(100.525 349.42464) scale(0.1 -0.1)">
     <defs>
      <path id="DejaVuSans-38" d="M 2034 2216 
Q 1584 2216 1326 1975 
Q 1069 1734 1069 1313 
Q 1069 891 1326 650 
Q 1584 409 2034 409 
Q 2484 409 2743 651 
Q 3003 894 3003 1313 
Q 3003 1734 2745 1975 
Q 2488 2216 2034 2216 
z
M 1403 2484 
Q 997 2584 770 2862 
Q 544 3141 544 3541 
Q 544 4100 942 4425 
Q 1341 4750 2034 4750 
Q 2731 4750 3128 4425 
Q 3525 4100 3525 3541 
Q 3525 3141 3298 2862 
Q 3072 2584 2669 2484 
Q 3125 2378 3379 2068 
Q 3634 1759 3634 1313 
Q 3634 634 3220 271 
Q 2806 -91 2034 -91 
Q 1263 -91 848 271 
Q 434 634 434 1313 
Q 434 1759 690 2068 
Q 947 2378 1403 2484 
z
M 1172 3481 
Q 1172 3119 1398 2916 
Q 1625 2713 2034 2713 
Q 2441 2713 2670 2916 
Q 2900 3119 2900 3481 
Q 2900 3844 2670 4047 
Q 2441 4250 2034 4250 
Q 1625 4250 1398 4047 
Q 1172 3844 1172 3481 
z
" transform="scale(0.015625)"/>
     </defs>
     <use xlink:href="#DejaVuSans-31"/>
     <use xlink:href="#DejaVuSans-39" x="63.623047"/>
     <use xlink:href="#DejaVuSans-38" x="127.246094"/>
     <use xlink:href="#DejaVuSans-39" x="190.869141"/>
    </g>
   </g>
   <g id="patch_21">
    <path d="M 438.75 108.905155 
Q 438.75 113.735858 438.75 118.566561 
" style="fill: none; stroke: #000000; stroke-width: 0.5; stroke-linecap: round"/>
   </g>
   <g id="text_22">
    <!-- 1995 -->
    <g transform="translate(426.025 102.82752) scale(0.1 -0.1)">
     <use xlink:href="#DejaVuSans-31"/>
     <use xlink:href="#DejaVuSans-39" x="63.623047"/>
     <use xlink:href="#DejaVuSans-39" x="127.246094"/>
     <use xlink:href="#DejaVuSans-35" x="190.869141"/>
    </g>
   </g>
   <g id="patch_22">
    <path d="M 159.75 343.083715 
Q 159.75 347.914418 159.75 352.745121 
" style="fill: none; stroke: #000000; stroke-width: 0.5; stroke-linecap: round"/>
   </g>
   <g id="text_23">
    <!-- 1998 -->
    <g transform="translate(147.025 337.00608) scale(0.1 -0.1)">
     <use xlink:href="#DejaVuSans-31"/>
     <use xlink:href="#DejaVuSans-39" x="63.623047"/>
     <use xlink:href="#DejaVuSans-39" x="127.246094"/>
     <use xlink:href="#DejaVuSans-38" x="190.869141"/>
    </g>
   </g>
   <g id="patch_23">
    <path d="M 392.25 110.679235 
Q 392.25 115.509938 392.25 120.340641 
" style="fill: none; stroke: #000000; stroke-width: 0.5; stroke-linecap: round"/>
   </g>
   <g id="text_24">
    <!-- 2006 -->
    <g transform="translate(379.525 104.6016) scale(0.1 -0.1)">
     <use xlink:href="#DejaVuSans-32"/>
     <use xlink:href="#DejaVuSans-30" x="63.623047"/>
     <use xlink:href="#DejaVuSans-30" x="127.246094"/>
     <use xlink:href="#DejaVuSans-36" x="190.869141"/>
    </g>
   </g>
   <g id="patch_24">
    <path d="M 485.25 194.060995 
Q 485.25 198.891698 485.25 203.722401 
" style="fill: none; stroke: #000000; stroke-width: 0.5; stroke-linecap: round"/>
   </g>
   <g id="text_25">
    <!-- 2006 -->
    <g transform="translate(472.525 187.98336) scale(0.1 -0.1)">
     <use xlink:href="#DejaVuSans-32"/>
     <use xlink:href="#DejaVuSans-30" x="63.623047"/>
     <use xlink:href="#DejaVuSans-30" x="127.246094"/>
     <use xlink:href="#DejaVuSans-36" x="190.869141"/>
    </g>
   </g>
   <g id="patch_25">
    <path d="M 252.75 240.187075 
Q 252.75 245.017778 252.75 249.848481 
" style="fill: none; stroke: #000000; stroke-width: 0.5; stroke-linecap: round"/>
   </g>
   <g id="text_26">
    <!-- 2011 -->
    <g transform="translate(240.025 234.10944) scale(0.1 -0.1)">
     <use xlink:href="#DejaVuSans-32"/>
     <use xlink:href="#DejaVuSans-30" x="63.623047"/>
     <use xlink:href="#DejaVuSans-31" x="127.246094"/>
     <use xlink:href="#DejaVuSans-31" x="190.869141"/>
    </g>
   </g>
   <g id="patch_26">
    <path d="M 578.25 312.924355 
Q 578.25 317.755058 578.25 322.585761 
" style="fill: none; stroke: #000000; stroke-width: 0.5; stroke-linecap: round"/>
   </g>
   <g id="text_27">
    <!-- 2011 -->
    <g transform="translate(565.525 306.84672) scale(0.1 -0.1)">
     <use xlink:href="#DejaVuSans-32"/>
     <use xlink:href="#DejaVuSans-30" x="63.623047"/>
     <use xlink:href="#DejaVuSans-31" x="127.246094"/>
     <use xlink:href="#DejaVuSans-31" x="190.869141"/>
    </g>
   </g>
   <g id="patch_27">
    <path d="M 206.25 284.539075 
Q 206.25 289.369778 206.25 294.200481 
" style="fill: none; stroke: #000000; stroke-width: 0.5; stroke-linecap: round"/>
   </g>
   <g id="text_28">
    <!-- 2012 -->
    <g transform="translate(193.525 278.46144) scale(0.1 -0.1)">
     <use xlink:href="#DejaVuSans-32"/>
     <use xlink:href="#DejaVuSans-30" x="63.623047"/>
     <use xlink:href="#DejaVuSans-31" x="127.246094"/>
     <use xlink:href="#DejaVuSans-32" x="190.869141"/>
    </g>
   </g>
   <g id="patch_28">
    <path d="M 624.75 355.502275 
Q 624.75 360.332978 624.75 365.163681 
" style="fill: none; stroke: #000000; stroke-width: 0.5; stroke-linecap: round"/>
   </g>
   <g id="text_29">
    <!-- 2016 -->
    <g transform="translate(612.025 349.42464) scale(0.1 -0.1)">
     <use xlink:href="#DejaVuSans-32"/>
     <use xlink:href="#DejaVuSans-30" x="63.623047"/>
     <use xlink:href="#DejaVuSans-31" x="127.246094"/>
     <use xlink:href="#DejaVuSans-36" x="190.869141"/>
    </g>
   </g>
   <g id="patch_29">
    <path d="M 299.25 201.157315 
Q 299.25 205.988018 299.25 210.818721 
" style="fill: none; stroke: #000000; stroke-width: 0.5; stroke-linecap: round"/>
   </g>
   <g id="text_30">
    <!-- 2018 -->
    <g transform="translate(286.525 195.07968) scale(0.1 -0.1)">
     <use xlink:href="#DejaVuSans-32"/>
     <use xlink:href="#DejaVuSans-30" x="63.623047"/>
     <use xlink:href="#DejaVuSans-31" x="127.246094"/>
     <use xlink:href="#DejaVuSans-38" x="190.869141"/>
    </g>
   </g>
   <g id="patch_30">
    <path d="M 345.75 153.257155 
Q 345.75 158.087858 345.75 162.918561 
" style="fill: none; stroke: #000000; stroke-width: 0.5; stroke-linecap: round"/>
   </g>
   <g id="text_31">
    <!-- 2018 -->
    <g transform="translate(333.025 147.17952) scale(0.1 -0.1)">
     <use xlink:href="#DejaVuSans-32"/>
     <use xlink:href="#DejaVuSans-30" x="63.623047"/>
     <use xlink:href="#DejaVuSans-31" x="127.246094"/>
     <use xlink:href="#DejaVuSans-38" x="190.869141"/>
    </g>
   </g>
   <g id="text_32">
    <!-- Braemar Monthly Max Temperature Boxplots 1959 - 2023 -->
    <g transform="translate(162.358875 63.12) scale(0.144 -0.144)">
     <defs>
      <path id="DejaVuSans-42" d="M 1259 2228 
L 1259 519 
L 2272 519 
Q 2781 519 3026 730 
Q 3272 941 3272 1375 
Q 3272 1813 3026 2020 
Q 2781 2228 2272 2228 
L 1259 2228 
z
M 1259 4147 
L 1259 2741 
L 2194 2741 
Q 2656 2741 2882 2914 
Q 3109 3088 3109 3444 
Q 3109 3797 2882 3972 
Q 2656 4147 2194 4147 
L 1259 4147 
z
M 628 4666 
L 2241 4666 
Q 2963 4666 3353 4366 
Q 3744 4066 3744 3513 
Q 3744 3084 3544 2831 
Q 3344 2578 2956 2516 
Q 3422 2416 3680 2098 
Q 3938 1781 3938 1306 
Q 3938 681 3513 340 
Q 3088 0 2303 0 
L 628 0 
L 628 4666 
z
" transform="scale(0.015625)"/>
      <path id="DejaVuSans-68" d="M 3513 2113 
L 3513 0 
L 2938 0 
L 2938 2094 
Q 2938 2591 2744 2837 
Q 2550 3084 2163 3084 
Q 1697 3084 1428 2787 
Q 1159 2491 1159 1978 
L 1159 0 
L 581 0 
L 581 4863 
L 1159 4863 
L 1159 2956 
Q 1366 3272 1645 3428 
Q 1925 3584 2291 3584 
Q 2894 3584 3203 3211 
Q 3513 2838 3513 2113 
z
" transform="scale(0.015625)"/>
      <path id="DejaVuSans-78" d="M 3513 3500 
L 2247 1797 
L 3578 0 
L 2900 0 
L 1881 1375 
L 863 0 
L 184 0 
L 1544 1831 
L 300 3500 
L 978 3500 
L 1906 2253 
L 2834 3500 
L 3513 3500 
z
" transform="scale(0.015625)"/>
      <path id="DejaVuSans-73" d="M 2834 3397 
L 2834 2853 
Q 2591 2978 2328 3040 
Q 2066 3103 1784 3103 
Q 1356 3103 1142 2972 
Q 928 2841 928 2578 
Q 928 2378 1081 2264 
Q 1234 2150 1697 2047 
L 1894 2003 
Q 2506 1872 2764 1633 
Q 3022 1394 3022 966 
Q 3022 478 2636 193 
Q 2250 -91 1575 -91 
Q 1294 -91 989 -36 
Q 684 19 347 128 
L 347 722 
Q 666 556 975 473 
Q 1284 391 1588 391 
Q 1994 391 2212 530 
Q 2431 669 2431 922 
Q 2431 1156 2273 1281 
Q 2116 1406 1581 1522 
L 1381 1569 
Q 847 1681 609 1914 
Q 372 2147 372 2553 
Q 372 3047 722 3315 
Q 1072 3584 1716 3584 
Q 2034 3584 2315 3537 
Q 2597 3491 2834 3397 
z
" transform="scale(0.015625)"/>
      <path id="DejaVuSans-2d" d="M 313 2009 
L 1997 2009 
L 1997 1497 
L 313 1497 
L 313 2009 
z
" transform="scale(0.015625)"/>
      <path id="DejaVuSans-33" d="M 2597 2516 
Q 3050 2419 3304 2112 
Q 3559 1806 3559 1356 
Q 3559 666 3084 287 
Q 2609 -91 1734 -91 
Q 1441 -91 1130 -33 
Q 819 25 488 141 
L 488 750 
Q 750 597 1062 519 
Q 1375 441 1716 441 
Q 2309 441 2620 675 
Q 2931 909 2931 1356 
Q 2931 1769 2642 2001 
Q 2353 2234 1838 2234 
L 1294 2234 
L 1294 2753 
L 1863 2753 
Q 2328 2753 2575 2939 
Q 2822 3125 2822 3475 
Q 2822 3834 2567 4026 
Q 2313 4219 1838 4219 
Q 1578 4219 1281 4162 
Q 984 4106 628 3988 
L 628 4550 
Q 988 4650 1302 4700 
Q 1616 4750 1894 4750 
Q 2613 4750 3031 4423 
Q 3450 4097 3450 3541 
Q 3450 3153 3228 2886 
Q 3006 2619 2597 2516 
z
" transform="scale(0.015625)"/>
     </defs>
     <use xlink:href="#DejaVuSans-42"/>
     <use xlink:href="#DejaVuSans-72" x="68.603516"/>
     <use xlink:href="#DejaVuSans-61" x="109.716797"/>
     <use xlink:href="#DejaVuSans-65" x="170.996094"/>
     <use xlink:href="#DejaVuSans-6d" x="232.519531"/>
     <use xlink:href="#DejaVuSans-61" x="329.931641"/>
     <use xlink:href="#DejaVuSans-72" x="391.210938"/>
     <use xlink:href="#DejaVuSans-20" x="432.324219"/>
     <use xlink:href="#DejaVuSans-4d" x="464.111328"/>
     <use xlink:href="#DejaVuSans-6f" x="550.390625"/>
     <use xlink:href="#DejaVuSans-6e" x="611.572266"/>
     <use xlink:href="#DejaVuSans-74" x="674.951172"/>
     <use xlink:href="#DejaVuSans-68" x="714.160156"/>
     <use xlink:href="#DejaVuSans-6c" x="777.539062"/>
     <use xlink:href="#DejaVuSans-79" x="805.322266"/>
     <use xlink:href="#DejaVuSans-20" x="864.501953"/>
     <use xlink:href="#DejaVuSans-4d" x="896.289062"/>
     <use xlink:href="#DejaVuSans-61" x="982.568359"/>
     <use xlink:href="#DejaVuSans-78" x="1043.847656"/>
     <use xlink:href="#DejaVuSans-20" x="1103.027344"/>
     <use xlink:href="#DejaVuSans-54" x="1134.814453"/>
     <use xlink:href="#DejaVuSans-65" x="1178.898438"/>
     <use xlink:href="#DejaVuSans-6d" x="1240.421875"/>
     <use xlink:href="#DejaVuSans-70" x="1337.833984"/>
     <use xlink:href="#DejaVuSans-65" x="1401.310547"/>
     <use xlink:href="#DejaVuSans-72" x="1462.833984"/>
     <use xlink:href="#DejaVuSans-61" x="1503.947266"/>
     <use xlink:href="#DejaVuSans-74" x="1565.226562"/>
     <use xlink:href="#DejaVuSans-75" x="1604.435547"/>
     <use xlink:href="#DejaVuSans-72" x="1667.814453"/>
     <use xlink:href="#DejaVuSans-65" x="1706.677734"/>
     <use xlink:href="#DejaVuSans-20" x="1768.201172"/>
     <use xlink:href="#DejaVuSans-42" x="1799.988281"/>
     <use xlink:href="#DejaVuSans-6f" x="1868.591797"/>
     <use xlink:href="#DejaVuSans-78" x="1926.648438"/>
     <use xlink:href="#DejaVuSans-70" x="1985.828125"/>
     <use xlink:href="#DejaVuSans-6c" x="2049.304688"/>
     <use xlink:href="#DejaVuSans-6f" x="2077.087891"/>
     <use xlink:href="#DejaVuSans-74" x="2138.269531"/>
     <use xlink:href="#DejaVuSans-73" x="2177.478516"/>
     <use xlink:href="#DejaVuSans-20" x="2229.578125"/>
     <use xlink:href="#DejaVuSans-31" x="2261.365234"/>
     <use xlink:href="#DejaVuSans-39" x="2324.988281"/>
     <use xlink:href="#DejaVuSans-35" x="2388.611328"/>
     <use xlink:href="#DejaVuSans-39" x="2452.234375"/>
     <use xlink:href="#DejaVuSans-20" x="2515.857422"/>
     <use xlink:href="#DejaVuSans-2d" x="2547.644531"/>
     <use xlink:href="#DejaVuSans-20" x="2583.728516"/>
     <use xlink:href="#DejaVuSans-32" x="2615.515625"/>
     <use xlink:href="#DejaVuSans-30" x="2679.138672"/>
     <use xlink:href="#DejaVuSans-32" x="2742.761719"/>
     <use xlink:href="#DejaVuSans-33" x="2806.384766"/>
    </g>
   </g>
   <g id="legend_1">
    <g id="patch_31">
     <path d="M 542.575 161.708438 
L 641 161.708438 
Q 643 161.708438 643 159.708438 
L 643 76.12 
Q 643 74.12 641 74.12 
L 542.575 74.12 
Q 540.575 74.12 540.575 76.12 
L 540.575 159.708438 
Q 540.575 161.708438 542.575 161.708438 
z
" style="fill: #e5e5e5; opacity: 0.8; stroke: #cccccc; stroke-width: 0.5; stroke-linejoin: miter"/>
    </g>
    <g id="PathCollection_7">
     <defs>
      <path id="md55057e99e" d="M 0 3 
C 0.795609 3 1.55874 2.683901 2.12132 2.12132 
C 2.683901 1.55874 3 0.795609 3 0 
C 3 -0.795609 2.683901 -1.55874 2.12132 -2.12132 
C 1.55874 -2.683901 0.795609 -3 0 -3 
C -0.795609 -3 -1.55874 -2.683901 -2.12132 -2.12132 
C -2.683901 -1.55874 -3 -0.795609 -3 0 
C -3 0.795609 -2.683901 1.55874 -2.12132 2.12132 
C -1.55874 2.683901 -0.795609 3 0 3 
z
" style="stroke: #66c2a5; stroke-width: 0.5"/>
     </defs>
     <g>
      <use xlink:href="#md55057e99e" x="554.575" y="83.093438" style="fill: #66c2a5; stroke: #66c2a5; stroke-width: 0.5"/>
     </g>
    </g>
    <g id="text_33">
     <!-- 2019 -->
     <g transform="translate(572.575 85.718438) scale(0.1 -0.1)">
      <use xlink:href="#DejaVuSans-32"/>
      <use xlink:href="#DejaVuSans-30" x="63.623047"/>
      <use xlink:href="#DejaVuSans-31" x="127.246094"/>
      <use xlink:href="#DejaVuSans-39" x="190.869141"/>
     </g>
    </g>
    <g id="PathCollection_8">
     <defs>
      <path id="m2fcb4f38d5" d="M -1.5 3 
L 0 1.5 
L 1.5 3 
L 3 1.5 
L 1.5 0 
L 3 -1.5 
L 1.5 -3 
L 0 -1.5 
L -1.5 -3 
L -3 -1.5 
L -1.5 0 
L -3 1.5 
z
" style="stroke: #fc8d62; stroke-width: 0.5"/>
     </defs>
     <g>
      <use xlink:href="#m2fcb4f38d5" x="554.575" y="97.771563" style="fill: #fc8d62; stroke: #fc8d62; stroke-width: 0.5"/>
     </g>
    </g>
    <g id="text_34">
     <!-- 2020 -->
     <g transform="translate(572.575 100.396563) scale(0.1 -0.1)">
      <use xlink:href="#DejaVuSans-32"/>
      <use xlink:href="#DejaVuSans-30" x="63.623047"/>
      <use xlink:href="#DejaVuSans-32" x="127.246094"/>
      <use xlink:href="#DejaVuSans-30" x="190.869141"/>
     </g>
    </g>
    <g id="PathCollection_9">
     <defs>
      <path id="m36718c586d" d="M -2.12132 -2.12132 
L -2.12132 2.12132 
L 2.12132 2.12132 
L 2.12132 -2.12132 
z
" style="stroke: #8da0cb; stroke-width: 0.5"/>
     </defs>
     <g>
      <use xlink:href="#m36718c586d" x="554.575" y="112.449688" style="fill: #8da0cb; stroke: #8da0cb; stroke-width: 0.5"/>
     </g>
    </g>
    <g id="text_35">
     <!-- 2021 -->
     <g transform="translate(572.575 115.074688) scale(0.1 -0.1)">
      <use xlink:href="#DejaVuSans-32"/>
      <use xlink:href="#DejaVuSans-30" x="63.623047"/>
      <use xlink:href="#DejaVuSans-32" x="127.246094"/>
      <use xlink:href="#DejaVuSans-31" x="190.869141"/>
     </g>
    </g>
    <g id="PathCollection_10">
     <defs>
      <path id="m2894291897" d="M -1 3 
L 1 3 
L 1 1 
L 3 1 
L 3 -1 
L 1 -1 
L 1 -3 
L -1 -3 
L -1 -1 
L -3 -1 
L -3 1 
L -1 1 
z
" style="stroke: #e78ac3; stroke-width: 0.5"/>
     </defs>
     <g>
      <use xlink:href="#m2894291897" x="554.575" y="127.127813" style="fill: #e78ac3; stroke: #e78ac3; stroke-width: 0.5"/>
     </g>
    </g>
    <g id="text_36">
     <!-- 2022 -->
     <g transform="translate(572.575 129.752813) scale(0.1 -0.1)">
      <use xlink:href="#DejaVuSans-32"/>
      <use xlink:href="#DejaVuSans-30" x="63.623047"/>
      <use xlink:href="#DejaVuSans-32" x="127.246094"/>
      <use xlink:href="#DejaVuSans-32" x="190.869141"/>
     </g>
    </g>
    <g id="PathCollection_11">
     <g>
      <use xlink:href="#md17ea85d95" x="554.575" y="148.444688" style="stroke: #ffffff; stroke-width: 0.619677"/>
     </g>
    </g>
    <g id="text_37">
     <!-- Year of -->
     <g transform="translate(572.575 144.430938) scale(0.1 -0.1)">
      <defs>
       <path id="DejaVuSans-59" d="M -13 4666 
L 666 4666 
L 1959 2747 
L 3244 4666 
L 3922 4666 
L 2272 2222 
L 2272 0 
L 1638 0 
L 1638 2222 
L -13 4666 
z
" transform="scale(0.015625)"/>
       <path id="DejaVuSans-66" d="M 2375 4863 
L 2375 4384 
L 1825 4384 
Q 1516 4384 1395 4259 
Q 1275 4134 1275 3809 
L 1275 3500 
L 2222 3500 
L 2222 3053 
L 1275 3053 
L 1275 0 
L 697 0 
L 697 3053 
L 147 3053 
L 147 3500 
L 697 3500 
L 697 3744 
Q 697 4328 969 4595 
Q 1241 4863 1831 4863 
L 2375 4863 
z
" transform="scale(0.015625)"/>
      </defs>
      <use xlink:href="#DejaVuSans-59"/>
      <use xlink:href="#DejaVuSans-65" x="47.833984"/>
      <use xlink:href="#DejaVuSans-61" x="109.357422"/>
      <use xlink:href="#DejaVuSans-72" x="170.636719"/>
      <use xlink:href="#DejaVuSans-20" x="211.75"/>
      <use xlink:href="#DejaVuSans-6f" x="243.537109"/>
      <use xlink:href="#DejaVuSans-66" x="304.71875"/>
     </g>
     <!-- highest temp -->
     <g transform="translate(572.575 155.62875) scale(0.1 -0.1)">
      <defs>
       <path id="DejaVuSans-69" d="M 603 3500 
L 1178 3500 
L 1178 0 
L 603 0 
L 603 3500 
z
M 603 4863 
L 1178 4863 
L 1178 4134 
L 603 4134 
L 603 4863 
z
" transform="scale(0.015625)"/>
      </defs>
      <use xlink:href="#DejaVuSans-68"/>
      <use xlink:href="#DejaVuSans-69" x="63.378906"/>
      <use xlink:href="#DejaVuSans-67" x="91.162109"/>
      <use xlink:href="#DejaVuSans-68" x="154.638672"/>
      <use xlink:href="#DejaVuSans-65" x="218.017578"/>
      <use xlink:href="#DejaVuSans-73" x="279.541016"/>
      <use xlink:href="#DejaVuSans-74" x="331.640625"/>
      <use xlink:href="#DejaVuSans-20" x="370.849609"/>
      <use xlink:href="#DejaVuSans-74" x="402.636719"/>
      <use xlink:href="#DejaVuSans-65" x="441.845703"/>
      <use xlink:href="#DejaVuSans-6d" x="503.369141"/>
      <use xlink:href="#DejaVuSans-70" x="600.78125"/>
     </g>
    </g>
   </g>
  </g>
 </g>
 <defs>
  <clipPath id="p0ca2e7925f">
   <rect x="90" y="69.12" width="558" height="443.52"/>
  </clipPath>
 </defs>
</svg>
