<?xml version="1.0" encoding="utf-8" standalone="no"?>
<!DOCTYPE svg PUBLIC "-//W3C//DTD SVG 1.1//EN"
  "http://www.w3.org/Graphics/SVG/1.1/DTD/svg11.dtd">
<svg xmlns:xlink="http://www.w3.org/1999/xlink" width="720pt" height="576pt" viewBox="0 0 720 576" xmlns="http://www.w3.org/2000/svg" version="1.1">
 <metadata>
  <rdf:RDF xmlns:dc="http://purl.org/dc/elements/1.1/" xmlns:cc="http://creativecommons.org/ns#" xmlns:rdf="http://www.w3.org/1999/02/22-rdf-syntax-ns#">
   <cc:Work>
    <dc:type rdf:resource="http://purl.org/dc/dcmitype/StillImage"/>
    <dc:date>2023-04-11T20:51:21.950084</dc:date>
    <dc:format>image/svg+xml</dc:format>
    <dc:creator>
     <cc:Agent>
      <dc:title>Matplotlib v3.7.1, https://matplotlib.org/</dc:title>
     </cc:Agent>
    </dc:creator>
   </cc:Work>
  </rdf:RDF>
 </metadata>
 <defs>
  <style type="text/css">*{stroke-linejoin: round; stroke-linecap: butt}</style>
 </defs>
 <g id="figure_1">
  <g id="patch_1">
   <path d="M 0 576 
L 720 576 
L 720 0 
L 0 0 
z
" style="fill: #ffffff"/>
  </g>
  <g id="axes_1">
   <g id="patch_2">
    <path d="M 90 512.64 
L 648 512.64 
L 648 69.12 
L 90 69.12 
z
" style="fill: #e5e5e5"/>
   </g>
   <g id="line2d_1">
    <path d="M 113.25 330.7968 
L 113.25 375.1488 
" clip-path="url(#p9eb897427d)" style="fill: none; stroke: #464646; stroke-width: 1.5; stroke-linecap: square"/>
   </g>
   <g id="line2d_2">
    <path d="M 113.25 299.7504 
L 113.25 271.6608 
" clip-path="url(#p9eb897427d)" style="fill: none; stroke: #464646; stroke-width: 1.5; stroke-linecap: square"/>
   </g>
   <g id="line2d_3">
    <path d="M 103.95 375.1488 
L 122.55 375.1488 
" clip-path="url(#p9eb897427d)" style="fill: none; stroke: #464646; stroke-width: 1.5; stroke-linecap: square"/>
   </g>
   <g id="line2d_4">
    <path d="M 103.95 271.6608 
L 122.55 271.6608 
" clip-path="url(#p9eb897427d)" style="fill: none; stroke: #464646; stroke-width: 1.5; stroke-linecap: square"/>
   </g>
   <g id="line2d_5">
    <defs>
     <path id="mc67978fee9" d="M -0 3.535534 
L 2.12132 0 
L -0 -3.535534 
L -2.12132 -0 
z
" style="stroke: #464646; stroke-linejoin: miter"/>
    </defs>
    <g clip-path="url(#p9eb897427d)">
     <use xlink:href="#mc67978fee9" x="113.25" y="418.0224" style="fill: #464646; stroke: #464646; stroke-linejoin: miter"/>
     <use xlink:href="#mc67978fee9" x="113.25" y="400.2816" style="fill: #464646; stroke: #464646; stroke-linejoin: miter"/>
     <use xlink:href="#mc67978fee9" x="113.25" y="252.4416" style="fill: #464646; stroke: #464646; stroke-linejoin: miter"/>
    </g>
   </g>
   <g id="line2d_6">
    <path d="M 159.75 333.7536 
L 159.75 388.4544 
" clip-path="url(#p9eb897427d)" style="fill: none; stroke: #464646; stroke-width: 1.5; stroke-linecap: square"/>
   </g>
   <g id="line2d_7">
    <path d="M 159.75 296.7936 
L 159.75 258.3552 
" clip-path="url(#p9eb897427d)" style="fill: none; stroke: #464646; stroke-width: 1.5; stroke-linecap: square"/>
   </g>
   <g id="line2d_8">
    <path d="M 150.45 388.4544 
L 169.05 388.4544 
" clip-path="url(#p9eb897427d)" style="fill: none; stroke: #464646; stroke-width: 1.5; stroke-linecap: square"/>
   </g>
   <g id="line2d_9">
    <path d="M 150.45 258.3552 
L 169.05 258.3552 
" clip-path="url(#p9eb897427d)" style="fill: none; stroke: #464646; stroke-width: 1.5; stroke-linecap: square"/>
   </g>
   <g id="line2d_10">
    <g clip-path="url(#p9eb897427d)">
     <use xlink:href="#mc67978fee9" x="159.75" y="418.0224" style="fill: #464646; stroke: #464646; stroke-linejoin: miter"/>
     <use xlink:href="#mc67978fee9" x="159.75" y="415.0656" style="fill: #464646; stroke: #464646; stroke-linejoin: miter"/>
     <use xlink:href="#mc67978fee9" x="159.75" y="389.9328" style="fill: #464646; stroke: #464646; stroke-linejoin: miter"/>
     <use xlink:href="#mc67978fee9" x="159.75" y="231.744" style="fill: #464646; stroke: #464646; stroke-linejoin: miter"/>
    </g>
   </g>
   <g id="line2d_11">
    <path d="M 206.25 316.0128 
L 206.25 351.4944 
" clip-path="url(#p9eb897427d)" style="fill: none; stroke: #464646; stroke-width: 1.5; stroke-linecap: square"/>
   </g>
   <g id="line2d_12">
    <path d="M 206.25 284.5968 
L 206.25 252.4416 
" clip-path="url(#p9eb897427d)" style="fill: none; stroke: #464646; stroke-width: 1.5; stroke-linecap: square"/>
   </g>
   <g id="line2d_13">
    <path d="M 196.95 351.4944 
L 215.55 351.4944 
" clip-path="url(#p9eb897427d)" style="fill: none; stroke: #464646; stroke-width: 1.5; stroke-linecap: square"/>
   </g>
   <g id="line2d_14">
    <path d="M 196.95 252.4416 
L 215.55 252.4416 
" clip-path="url(#p9eb897427d)" style="fill: none; stroke: #464646; stroke-width: 1.5; stroke-linecap: square"/>
   </g>
   <g id="line2d_15"/>
   <g id="line2d_16">
    <path d="M 252.75 287.9232 
L 252.75 311.5776 
" clip-path="url(#p9eb897427d)" style="fill: none; stroke: #464646; stroke-width: 1.5; stroke-linecap: square"/>
   </g>
   <g id="line2d_17">
    <path d="M 252.75 265.008 
L 252.75 242.0928 
" clip-path="url(#p9eb897427d)" style="fill: none; stroke: #464646; stroke-width: 1.5; stroke-linecap: square"/>
   </g>
   <g id="line2d_18">
    <path d="M 243.45 311.5776 
L 262.05 311.5776 
" clip-path="url(#p9eb897427d)" style="fill: none; stroke: #464646; stroke-width: 1.5; stroke-linecap: square"/>
   </g>
   <g id="line2d_19">
    <path d="M 243.45 242.0928 
L 262.05 242.0928 
" clip-path="url(#p9eb897427d)" style="fill: none; stroke: #464646; stroke-width: 1.5; stroke-linecap: square"/>
   </g>
   <g id="line2d_20">
    <g clip-path="url(#p9eb897427d)">
     <use xlink:href="#mc67978fee9" x="252.75" y="330.7968" style="fill: #464646; stroke: #464646; stroke-linejoin: miter"/>
    </g>
   </g>
   <g id="line2d_21">
    <path d="M 299.25 247.2672 
L 299.25 267.2256 
" clip-path="url(#p9eb897427d)" style="fill: none; stroke: #464646; stroke-width: 1.5; stroke-linecap: square"/>
   </g>
   <g id="line2d_22">
    <path d="M 299.25 227.3088 
L 299.25 197.7408 
" clip-path="url(#p9eb897427d)" style="fill: none; stroke: #464646; stroke-width: 1.5; stroke-linecap: square"/>
   </g>
   <g id="line2d_23">
    <path d="M 289.95 267.2256 
L 308.55 267.2256 
" clip-path="url(#p9eb897427d)" style="fill: none; stroke: #464646; stroke-width: 1.5; stroke-linecap: square"/>
   </g>
   <g id="line2d_24">
    <path d="M 289.95 197.7408 
L 308.55 197.7408 
" clip-path="url(#p9eb897427d)" style="fill: none; stroke: #464646; stroke-width: 1.5; stroke-linecap: square"/>
   </g>
   <g id="line2d_25"/>
   <g id="line2d_26">
    <path d="M 345.75 199.2192 
L 345.75 225.8304 
" clip-path="url(#p9eb897427d)" style="fill: none; stroke: #464646; stroke-width: 1.5; stroke-linecap: square"/>
   </g>
   <g id="line2d_27">
    <path d="M 345.75 177.7824 
L 345.75 162.2592 
" clip-path="url(#p9eb897427d)" style="fill: none; stroke: #464646; stroke-width: 1.5; stroke-linecap: square"/>
   </g>
   <g id="line2d_28">
    <path d="M 336.45 225.8304 
L 355.05 225.8304 
" clip-path="url(#p9eb897427d)" style="fill: none; stroke: #464646; stroke-width: 1.5; stroke-linecap: square"/>
   </g>
   <g id="line2d_29">
    <path d="M 336.45 162.2592 
L 355.05 162.2592 
" clip-path="url(#p9eb897427d)" style="fill: none; stroke: #464646; stroke-width: 1.5; stroke-linecap: square"/>
   </g>
   <g id="line2d_30"/>
   <g id="line2d_31">
    <path d="M 392.25 172.608 
L 392.25 194.784 
" clip-path="url(#p9eb897427d)" style="fill: none; stroke: #464646; stroke-width: 1.5; stroke-linecap: square"/>
   </g>
   <g id="line2d_32">
    <path d="M 392.25 154.8672 
L 392.25 134.1696 
" clip-path="url(#p9eb897427d)" style="fill: none; stroke: #464646; stroke-width: 1.5; stroke-linecap: square"/>
   </g>
   <g id="line2d_33">
    <path d="M 382.95 194.784 
L 401.55 194.784 
" clip-path="url(#p9eb897427d)" style="fill: none; stroke: #464646; stroke-width: 1.5; stroke-linecap: square"/>
   </g>
   <g id="line2d_34">
    <path d="M 382.95 134.1696 
L 401.55 134.1696 
" clip-path="url(#p9eb897427d)" style="fill: none; stroke: #464646; stroke-width: 1.5; stroke-linecap: square"/>
   </g>
   <g id="line2d_35"/>
   <g id="line2d_36">
    <path d="M 438.75 180.3696 
L 438.75 200.6976 
" clip-path="url(#p9eb897427d)" style="fill: none; stroke: #464646; stroke-width: 1.5; stroke-linecap: square"/>
   </g>
   <g id="line2d_37">
    <path d="M 438.75 156.3456 
L 438.75 140.0832 
" clip-path="url(#p9eb897427d)" style="fill: none; stroke: #464646; stroke-width: 1.5; stroke-linecap: square"/>
   </g>
   <g id="line2d_38">
    <path d="M 429.45 200.6976 
L 448.05 200.6976 
" clip-path="url(#p9eb897427d)" style="fill: none; stroke: #464646; stroke-width: 1.5; stroke-linecap: square"/>
   </g>
   <g id="line2d_39">
    <path d="M 429.45 140.0832 
L 448.05 140.0832 
" clip-path="url(#p9eb897427d)" style="fill: none; stroke: #464646; stroke-width: 1.5; stroke-linecap: square"/>
   </g>
   <g id="line2d_40"/>
   <g id="line2d_41">
    <path d="M 485.25 202.5456 
L 485.25 227.3088 
" clip-path="url(#p9eb897427d)" style="fill: none; stroke: #464646; stroke-width: 1.5; stroke-linecap: square"/>
   </g>
   <g id="line2d_42">
    <path d="M 485.25 185.9136 
L 485.25 162.2592 
" clip-path="url(#p9eb897427d)" style="fill: none; stroke: #464646; stroke-width: 1.5; stroke-linecap: square"/>
   </g>
   <g id="line2d_43">
    <path d="M 475.95 227.3088 
L 494.55 227.3088 
" clip-path="url(#p9eb897427d)" style="fill: none; stroke: #464646; stroke-width: 1.5; stroke-linecap: square"/>
   </g>
   <g id="line2d_44">
    <path d="M 475.95 162.2592 
L 494.55 162.2592 
" clip-path="url(#p9eb897427d)" style="fill: none; stroke: #464646; stroke-width: 1.5; stroke-linecap: square"/>
   </g>
   <g id="line2d_45">
    <g clip-path="url(#p9eb897427d)">
     <use xlink:href="#mc67978fee9" x="485.25" y="236.1792" style="fill: #464646; stroke: #464646; stroke-linejoin: miter"/>
    </g>
   </g>
   <g id="line2d_46">
    <path d="M 531.75 249.4848 
L 531.75 284.9664 
" clip-path="url(#p9eb897427d)" style="fill: none; stroke: #464646; stroke-width: 1.5; stroke-linecap: square"/>
   </g>
   <g id="line2d_47">
    <path d="M 531.75 214.0032 
L 531.75 174.0864 
" clip-path="url(#p9eb897427d)" style="fill: none; stroke: #464646; stroke-width: 1.5; stroke-linecap: square"/>
   </g>
   <g id="line2d_48">
    <path d="M 522.45 284.9664 
L 541.05 284.9664 
" clip-path="url(#p9eb897427d)" style="fill: none; stroke: #464646; stroke-width: 1.5; stroke-linecap: square"/>
   </g>
   <g id="line2d_49">
    <path d="M 522.45 174.0864 
L 541.05 174.0864 
" clip-path="url(#p9eb897427d)" style="fill: none; stroke: #464646; stroke-width: 1.5; stroke-linecap: square"/>
   </g>
   <g id="line2d_50"/>
   <g id="line2d_51">
    <path d="M 578.25 296.0544 
L 578.25 330.7968 
" clip-path="url(#p9eb897427d)" style="fill: none; stroke: #464646; stroke-width: 1.5; stroke-linecap: square"/>
   </g>
   <g id="line2d_52">
    <path d="M 578.25 267.2256 
L 578.25 234.7008 
" clip-path="url(#p9eb897427d)" style="fill: none; stroke: #464646; stroke-width: 1.5; stroke-linecap: square"/>
   </g>
   <g id="line2d_53">
    <path d="M 568.95 330.7968 
L 587.55 330.7968 
" clip-path="url(#p9eb897427d)" style="fill: none; stroke: #464646; stroke-width: 1.5; stroke-linecap: square"/>
   </g>
   <g id="line2d_54">
    <path d="M 568.95 234.7008 
L 587.55 234.7008 
" clip-path="url(#p9eb897427d)" style="fill: none; stroke: #464646; stroke-width: 1.5; stroke-linecap: square"/>
   </g>
   <g id="line2d_55">
    <g clip-path="url(#p9eb897427d)">
     <use xlink:href="#mc67978fee9" x="578.25" y="339.6672" style="fill: #464646; stroke: #464646; stroke-linejoin: miter"/>
    </g>
   </g>
   <g id="line2d_56">
    <path d="M 624.75 324.144 
L 624.75 367.7568 
" clip-path="url(#p9eb897427d)" style="fill: none; stroke: #464646; stroke-width: 1.5; stroke-linecap: square"/>
   </g>
   <g id="line2d_57">
    <path d="M 624.75 292.3584 
L 624.75 250.9632 
" clip-path="url(#p9eb897427d)" style="fill: none; stroke: #464646; stroke-width: 1.5; stroke-linecap: square"/>
   </g>
   <g id="line2d_58">
    <path d="M 615.45 367.7568 
L 634.05 367.7568 
" clip-path="url(#p9eb897427d)" style="fill: none; stroke: #464646; stroke-width: 1.5; stroke-linecap: square"/>
   </g>
   <g id="line2d_59">
    <path d="M 615.45 250.9632 
L 634.05 250.9632 
" clip-path="url(#p9eb897427d)" style="fill: none; stroke: #464646; stroke-width: 1.5; stroke-linecap: square"/>
   </g>
   <g id="line2d_60">
    <g clip-path="url(#p9eb897427d)">
     <use xlink:href="#mc67978fee9" x="624.75" y="397.3248" style="fill: #464646; stroke: #464646; stroke-linejoin: miter"/>
     <use xlink:href="#mc67978fee9" x="624.75" y="386.976" style="fill: #464646; stroke: #464646; stroke-linejoin: miter"/>
     <use xlink:href="#mc67978fee9" x="624.75" y="410.6304" style="fill: #464646; stroke: #464646; stroke-linejoin: miter"/>
    </g>
   </g>
   <g id="line2d_61">
    <path d="M 94.65 311.5776 
L 131.85 311.5776 
" clip-path="url(#p9eb897427d)" style="fill: none; stroke: #464646; stroke-width: 1.5; stroke-linecap: square"/>
   </g>
   <g id="line2d_62">
    <path d="M 141.15 313.056 
L 178.35 313.056 
" clip-path="url(#p9eb897427d)" style="fill: none; stroke: #464646; stroke-width: 1.5; stroke-linecap: square"/>
   </g>
   <g id="line2d_63">
    <path d="M 187.65 293.8368 
L 224.85 293.8368 
" clip-path="url(#p9eb897427d)" style="fill: none; stroke: #464646; stroke-width: 1.5; stroke-linecap: square"/>
   </g>
   <g id="line2d_64">
    <path d="M 234.15 273.1392 
L 271.35 273.1392 
" clip-path="url(#p9eb897427d)" style="fill: none; stroke: #464646; stroke-width: 1.5; stroke-linecap: square"/>
   </g>
   <g id="line2d_65">
    <path d="M 280.65 237.6576 
L 317.85 237.6576 
" clip-path="url(#p9eb897427d)" style="fill: none; stroke: #464646; stroke-width: 1.5; stroke-linecap: square"/>
   </g>
   <g id="line2d_66">
    <path d="M 327.15 190.3488 
L 364.35 190.3488 
" clip-path="url(#p9eb897427d)" style="fill: none; stroke: #464646; stroke-width: 1.5; stroke-linecap: square"/>
   </g>
   <g id="line2d_67">
    <path d="M 373.65 163.7376 
L 410.85 163.7376 
" clip-path="url(#p9eb897427d)" style="fill: none; stroke: #464646; stroke-width: 1.5; stroke-linecap: square"/>
   </g>
   <g id="line2d_68">
    <path d="M 420.15 169.6512 
L 457.35 169.6512 
" clip-path="url(#p9eb897427d)" style="fill: none; stroke: #464646; stroke-width: 1.5; stroke-linecap: square"/>
   </g>
   <g id="line2d_69">
    <path d="M 466.65 197.7408 
L 503.85 197.7408 
" clip-path="url(#p9eb897427d)" style="fill: none; stroke: #464646; stroke-width: 1.5; stroke-linecap: square"/>
   </g>
   <g id="line2d_70">
    <path d="M 513.15 230.2656 
L 550.35 230.2656 
" clip-path="url(#p9eb897427d)" style="fill: none; stroke: #464646; stroke-width: 1.5; stroke-linecap: square"/>
   </g>
   <g id="line2d_71">
    <path d="M 559.65 282.0096 
L 596.85 282.0096 
" clip-path="url(#p9eb897427d)" style="fill: none; stroke: #464646; stroke-width: 1.5; stroke-linecap: square"/>
   </g>
   <g id="line2d_72">
    <path d="M 606.15 307.1424 
L 643.35 307.1424 
" clip-path="url(#p9eb897427d)" style="fill: none; stroke: #464646; stroke-width: 1.5; stroke-linecap: square"/>
   </g>
   <g id="matplotlib.axis_1">
    <g id="xtick_1">
     <g id="line2d_73">
      <defs>
       <path id="m1c339ba1bf" d="M 0 0 
L 0 3.5 
" style="stroke: #555555; stroke-width: 0.8"/>
      </defs>
      <g>
       <use xlink:href="#m1c339ba1bf" x="113.25" y="512.64" style="fill: #555555; stroke: #555555; stroke-width: 0.8"/>
      </g>
     </g>
     <g id="text_1">
      <!-- Jan -->
      <g style="fill: #555555" transform="translate(105.542187 527.238438) scale(0.1 -0.1)">
       <defs>
        <path id="DejaVuSans-4a" d="M 628 4666 
L 1259 4666 
L 1259 325 
Q 1259 -519 939 -900 
Q 619 -1281 -91 -1281 
L -331 -1281 
L -331 -750 
L -134 -750 
Q 284 -750 456 -515 
Q 628 -281 628 325 
L 628 4666 
z
" transform="scale(0.015625)"/>
        <path id="DejaVuSans-61" d="M 2194 1759 
Q 1497 1759 1228 1600 
Q 959 1441 959 1056 
Q 959 750 1161 570 
Q 1363 391 1709 391 
Q 2188 391 2477 730 
Q 2766 1069 2766 1631 
L 2766 1759 
L 2194 1759 
z
M 3341 1997 
L 3341 0 
L 2766 0 
L 2766 531 
Q 2569 213 2275 61 
Q 1981 -91 1556 -91 
Q 1019 -91 701 211 
Q 384 513 384 1019 
Q 384 1609 779 1909 
Q 1175 2209 1959 2209 
L 2766 2209 
L 2766 2266 
Q 2766 2663 2505 2880 
Q 2244 3097 1772 3097 
Q 1472 3097 1187 3025 
Q 903 2953 641 2809 
L 641 3341 
Q 956 3463 1253 3523 
Q 1550 3584 1831 3584 
Q 2591 3584 2966 3190 
Q 3341 2797 3341 1997 
z
" transform="scale(0.015625)"/>
        <path id="DejaVuSans-6e" d="M 3513 2113 
L 3513 0 
L 2938 0 
L 2938 2094 
Q 2938 2591 2744 2837 
Q 2550 3084 2163 3084 
Q 1697 3084 1428 2787 
Q 1159 2491 1159 1978 
L 1159 0 
L 581 0 
L 581 3500 
L 1159 3500 
L 1159 2956 
Q 1366 3272 1645 3428 
Q 1925 3584 2291 3584 
Q 2894 3584 3203 3211 
Q 3513 2838 3513 2113 
z
" transform="scale(0.015625)"/>
       </defs>
       <use xlink:href="#DejaVuSans-4a"/>
       <use xlink:href="#DejaVuSans-61" x="29.492188"/>
       <use xlink:href="#DejaVuSans-6e" x="90.771484"/>
      </g>
     </g>
    </g>
    <g id="xtick_2">
     <g id="line2d_74">
      <g>
       <use xlink:href="#m1c339ba1bf" x="159.75" y="512.64" style="fill: #555555; stroke: #555555; stroke-width: 0.8"/>
      </g>
     </g>
     <g id="text_2">
      <!-- Feb -->
      <g style="fill: #555555" transform="translate(150.898438 527.238438) scale(0.1 -0.1)">
       <defs>
        <path id="DejaVuSans-46" d="M 628 4666 
L 3309 4666 
L 3309 4134 
L 1259 4134 
L 1259 2759 
L 3109 2759 
L 3109 2228 
L 1259 2228 
L 1259 0 
L 628 0 
L 628 4666 
z
" transform="scale(0.015625)"/>
        <path id="DejaVuSans-65" d="M 3597 1894 
L 3597 1613 
L 953 1613 
Q 991 1019 1311 708 
Q 1631 397 2203 397 
Q 2534 397 2845 478 
Q 3156 559 3463 722 
L 3463 178 
Q 3153 47 2828 -22 
Q 2503 -91 2169 -91 
Q 1331 -91 842 396 
Q 353 884 353 1716 
Q 353 2575 817 3079 
Q 1281 3584 2069 3584 
Q 2775 3584 3186 3129 
Q 3597 2675 3597 1894 
z
M 3022 2063 
Q 3016 2534 2758 2815 
Q 2500 3097 2075 3097 
Q 1594 3097 1305 2825 
Q 1016 2553 972 2059 
L 3022 2063 
z
" transform="scale(0.015625)"/>
        <path id="DejaVuSans-62" d="M 3116 1747 
Q 3116 2381 2855 2742 
Q 2594 3103 2138 3103 
Q 1681 3103 1420 2742 
Q 1159 2381 1159 1747 
Q 1159 1113 1420 752 
Q 1681 391 2138 391 
Q 2594 391 2855 752 
Q 3116 1113 3116 1747 
z
M 1159 2969 
Q 1341 3281 1617 3432 
Q 1894 3584 2278 3584 
Q 2916 3584 3314 3078 
Q 3713 2572 3713 1747 
Q 3713 922 3314 415 
Q 2916 -91 2278 -91 
Q 1894 -91 1617 61 
Q 1341 213 1159 525 
L 1159 0 
L 581 0 
L 581 4863 
L 1159 4863 
L 1159 2969 
z
" transform="scale(0.015625)"/>
       </defs>
       <use xlink:href="#DejaVuSans-46"/>
       <use xlink:href="#DejaVuSans-65" x="52.019531"/>
       <use xlink:href="#DejaVuSans-62" x="113.542969"/>
      </g>
     </g>
    </g>
    <g id="xtick_3">
     <g id="line2d_75">
      <g>
       <use xlink:href="#m1c339ba1bf" x="206.25" y="512.64" style="fill: #555555; stroke: #555555; stroke-width: 0.8"/>
      </g>
     </g>
     <g id="text_3">
      <!-- Mar -->
      <g style="fill: #555555" transform="translate(196.816406 527.238438) scale(0.1 -0.1)">
       <defs>
        <path id="DejaVuSans-4d" d="M 628 4666 
L 1569 4666 
L 2759 1491 
L 3956 4666 
L 4897 4666 
L 4897 0 
L 4281 0 
L 4281 4097 
L 3078 897 
L 2444 897 
L 1241 4097 
L 1241 0 
L 628 0 
L 628 4666 
z
" transform="scale(0.015625)"/>
        <path id="DejaVuSans-72" d="M 2631 2963 
Q 2534 3019 2420 3045 
Q 2306 3072 2169 3072 
Q 1681 3072 1420 2755 
Q 1159 2438 1159 1844 
L 1159 0 
L 581 0 
L 581 3500 
L 1159 3500 
L 1159 2956 
Q 1341 3275 1631 3429 
Q 1922 3584 2338 3584 
Q 2397 3584 2469 3576 
Q 2541 3569 2628 3553 
L 2631 2963 
z
" transform="scale(0.015625)"/>
       </defs>
       <use xlink:href="#DejaVuSans-4d"/>
       <use xlink:href="#DejaVuSans-61" x="86.279297"/>
       <use xlink:href="#DejaVuSans-72" x="147.558594"/>
      </g>
     </g>
    </g>
    <g id="xtick_4">
     <g id="line2d_76">
      <g>
       <use xlink:href="#m1c339ba1bf" x="252.75" y="512.64" style="fill: #555555; stroke: #555555; stroke-width: 0.8"/>
      </g>
     </g>
     <g id="text_4">
      <!-- Apr -->
      <g style="fill: #555555" transform="translate(244.1 527.238438) scale(0.1 -0.1)">
       <defs>
        <path id="DejaVuSans-41" d="M 2188 4044 
L 1331 1722 
L 3047 1722 
L 2188 4044 
z
M 1831 4666 
L 2547 4666 
L 4325 0 
L 3669 0 
L 3244 1197 
L 1141 1197 
L 716 0 
L 50 0 
L 1831 4666 
z
" transform="scale(0.015625)"/>
        <path id="DejaVuSans-70" d="M 1159 525 
L 1159 -1331 
L 581 -1331 
L 581 3500 
L 1159 3500 
L 1159 2969 
Q 1341 3281 1617 3432 
Q 1894 3584 2278 3584 
Q 2916 3584 3314 3078 
Q 3713 2572 3713 1747 
Q 3713 922 3314 415 
Q 2916 -91 2278 -91 
Q 1894 -91 1617 61 
Q 1341 213 1159 525 
z
M 3116 1747 
Q 3116 2381 2855 2742 
Q 2594 3103 2138 3103 
Q 1681 3103 1420 2742 
Q 1159 2381 1159 1747 
Q 1159 1113 1420 752 
Q 1681 391 2138 391 
Q 2594 391 2855 752 
Q 3116 1113 3116 1747 
z
" transform="scale(0.015625)"/>
       </defs>
       <use xlink:href="#DejaVuSans-41"/>
       <use xlink:href="#DejaVuSans-70" x="68.408203"/>
       <use xlink:href="#DejaVuSans-72" x="131.884766"/>
      </g>
     </g>
    </g>
    <g id="xtick_5">
     <g id="line2d_77">
      <g>
       <use xlink:href="#m1c339ba1bf" x="299.25" y="512.64" style="fill: #555555; stroke: #555555; stroke-width: 0.8"/>
      </g>
     </g>
     <g id="text_5">
      <!-- May -->
      <g style="fill: #555555" transform="translate(288.9125 527.238438) scale(0.1 -0.1)">
       <defs>
        <path id="DejaVuSans-79" d="M 2059 -325 
Q 1816 -950 1584 -1140 
Q 1353 -1331 966 -1331 
L 506 -1331 
L 506 -850 
L 844 -850 
Q 1081 -850 1212 -737 
Q 1344 -625 1503 -206 
L 1606 56 
L 191 3500 
L 800 3500 
L 1894 763 
L 2988 3500 
L 3597 3500 
L 2059 -325 
z
" transform="scale(0.015625)"/>
       </defs>
       <use xlink:href="#DejaVuSans-4d"/>
       <use xlink:href="#DejaVuSans-61" x="86.279297"/>
       <use xlink:href="#DejaVuSans-79" x="147.558594"/>
      </g>
     </g>
    </g>
    <g id="xtick_6">
     <g id="line2d_78">
      <g>
       <use xlink:href="#m1c339ba1bf" x="345.75" y="512.64" style="fill: #555555; stroke: #555555; stroke-width: 0.8"/>
      </g>
     </g>
     <g id="text_6">
      <!-- June -->
      <g style="fill: #555555" transform="translate(334.860937 527.238438) scale(0.1 -0.1)">
       <defs>
        <path id="DejaVuSans-75" d="M 544 1381 
L 544 3500 
L 1119 3500 
L 1119 1403 
Q 1119 906 1312 657 
Q 1506 409 1894 409 
Q 2359 409 2629 706 
Q 2900 1003 2900 1516 
L 2900 3500 
L 3475 3500 
L 3475 0 
L 2900 0 
L 2900 538 
Q 2691 219 2414 64 
Q 2138 -91 1772 -91 
Q 1169 -91 856 284 
Q 544 659 544 1381 
z
M 1991 3584 
L 1991 3584 
z
" transform="scale(0.015625)"/>
       </defs>
       <use xlink:href="#DejaVuSans-4a"/>
       <use xlink:href="#DejaVuSans-75" x="29.492188"/>
       <use xlink:href="#DejaVuSans-6e" x="92.871094"/>
       <use xlink:href="#DejaVuSans-65" x="156.25"/>
      </g>
     </g>
    </g>
    <g id="xtick_7">
     <g id="line2d_79">
      <g>
       <use xlink:href="#m1c339ba1bf" x="392.25" y="512.64" style="fill: #555555; stroke: #555555; stroke-width: 0.8"/>
      </g>
     </g>
     <g id="text_7">
      <!-- July -->
      <g style="fill: #555555" transform="translate(383.257812 527.238438) scale(0.1 -0.1)">
       <defs>
        <path id="DejaVuSans-6c" d="M 603 4863 
L 1178 4863 
L 1178 0 
L 603 0 
L 603 4863 
z
" transform="scale(0.015625)"/>
       </defs>
       <use xlink:href="#DejaVuSans-4a"/>
       <use xlink:href="#DejaVuSans-75" x="29.492188"/>
       <use xlink:href="#DejaVuSans-6c" x="92.871094"/>
       <use xlink:href="#DejaVuSans-79" x="120.654297"/>
      </g>
     </g>
    </g>
    <g id="xtick_8">
     <g id="line2d_80">
      <g>
       <use xlink:href="#m1c339ba1bf" x="438.75" y="512.64" style="fill: #555555; stroke: #555555; stroke-width: 0.8"/>
      </g>
     </g>
     <g id="text_8">
      <!-- Aug -->
      <g style="fill: #555555" transform="translate(428.986719 527.238438) scale(0.1 -0.1)">
       <defs>
        <path id="DejaVuSans-67" d="M 2906 1791 
Q 2906 2416 2648 2759 
Q 2391 3103 1925 3103 
Q 1463 3103 1205 2759 
Q 947 2416 947 1791 
Q 947 1169 1205 825 
Q 1463 481 1925 481 
Q 2391 481 2648 825 
Q 2906 1169 2906 1791 
z
M 3481 434 
Q 3481 -459 3084 -895 
Q 2688 -1331 1869 -1331 
Q 1566 -1331 1297 -1286 
Q 1028 -1241 775 -1147 
L 775 -588 
Q 1028 -725 1275 -790 
Q 1522 -856 1778 -856 
Q 2344 -856 2625 -561 
Q 2906 -266 2906 331 
L 2906 616 
Q 2728 306 2450 153 
Q 2172 0 1784 0 
Q 1141 0 747 490 
Q 353 981 353 1791 
Q 353 2603 747 3093 
Q 1141 3584 1784 3584 
Q 2172 3584 2450 3431 
Q 2728 3278 2906 2969 
L 2906 3500 
L 3481 3500 
L 3481 434 
z
" transform="scale(0.015625)"/>
       </defs>
       <use xlink:href="#DejaVuSans-41"/>
       <use xlink:href="#DejaVuSans-75" x="68.408203"/>
       <use xlink:href="#DejaVuSans-67" x="131.787109"/>
      </g>
     </g>
    </g>
    <g id="xtick_9">
     <g id="line2d_81">
      <g>
       <use xlink:href="#m1c339ba1bf" x="485.25" y="512.64" style="fill: #555555; stroke: #555555; stroke-width: 0.8"/>
      </g>
     </g>
     <g id="text_9">
      <!-- Sep -->
      <g style="fill: #555555" transform="translate(475.825 527.238438) scale(0.1 -0.1)">
       <defs>
        <path id="DejaVuSans-53" d="M 3425 4513 
L 3425 3897 
Q 3066 4069 2747 4153 
Q 2428 4238 2131 4238 
Q 1616 4238 1336 4038 
Q 1056 3838 1056 3469 
Q 1056 3159 1242 3001 
Q 1428 2844 1947 2747 
L 2328 2669 
Q 3034 2534 3370 2195 
Q 3706 1856 3706 1288 
Q 3706 609 3251 259 
Q 2797 -91 1919 -91 
Q 1588 -91 1214 -16 
Q 841 59 441 206 
L 441 856 
Q 825 641 1194 531 
Q 1563 422 1919 422 
Q 2459 422 2753 634 
Q 3047 847 3047 1241 
Q 3047 1584 2836 1778 
Q 2625 1972 2144 2069 
L 1759 2144 
Q 1053 2284 737 2584 
Q 422 2884 422 3419 
Q 422 4038 858 4394 
Q 1294 4750 2059 4750 
Q 2388 4750 2728 4690 
Q 3069 4631 3425 4513 
z
" transform="scale(0.015625)"/>
       </defs>
       <use xlink:href="#DejaVuSans-53"/>
       <use xlink:href="#DejaVuSans-65" x="63.476562"/>
       <use xlink:href="#DejaVuSans-70" x="125"/>
      </g>
     </g>
    </g>
    <g id="xtick_10">
     <g id="line2d_82">
      <g>
       <use xlink:href="#m1c339ba1bf" x="531.75" y="512.64" style="fill: #555555; stroke: #555555; stroke-width: 0.8"/>
      </g>
     </g>
     <g id="text_10">
      <!-- Oct -->
      <g style="fill: #555555" transform="translate(523.104687 527.238438) scale(0.1 -0.1)">
       <defs>
        <path id="DejaVuSans-4f" d="M 2522 4238 
Q 1834 4238 1429 3725 
Q 1025 3213 1025 2328 
Q 1025 1447 1429 934 
Q 1834 422 2522 422 
Q 3209 422 3611 934 
Q 4013 1447 4013 2328 
Q 4013 3213 3611 3725 
Q 3209 4238 2522 4238 
z
M 2522 4750 
Q 3503 4750 4090 4092 
Q 4678 3434 4678 2328 
Q 4678 1225 4090 567 
Q 3503 -91 2522 -91 
Q 1538 -91 948 565 
Q 359 1222 359 2328 
Q 359 3434 948 4092 
Q 1538 4750 2522 4750 
z
" transform="scale(0.015625)"/>
        <path id="DejaVuSans-63" d="M 3122 3366 
L 3122 2828 
Q 2878 2963 2633 3030 
Q 2388 3097 2138 3097 
Q 1578 3097 1268 2742 
Q 959 2388 959 1747 
Q 959 1106 1268 751 
Q 1578 397 2138 397 
Q 2388 397 2633 464 
Q 2878 531 3122 666 
L 3122 134 
Q 2881 22 2623 -34 
Q 2366 -91 2075 -91 
Q 1284 -91 818 406 
Q 353 903 353 1747 
Q 353 2603 823 3093 
Q 1294 3584 2113 3584 
Q 2378 3584 2631 3529 
Q 2884 3475 3122 3366 
z
" transform="scale(0.015625)"/>
        <path id="DejaVuSans-74" d="M 1172 4494 
L 1172 3500 
L 2356 3500 
L 2356 3053 
L 1172 3053 
L 1172 1153 
Q 1172 725 1289 603 
Q 1406 481 1766 481 
L 2356 481 
L 2356 0 
L 1766 0 
Q 1100 0 847 248 
Q 594 497 594 1153 
L 594 3053 
L 172 3053 
L 172 3500 
L 594 3500 
L 594 4494 
L 1172 4494 
z
" transform="scale(0.015625)"/>
       </defs>
       <use xlink:href="#DejaVuSans-4f"/>
       <use xlink:href="#DejaVuSans-63" x="78.710938"/>
       <use xlink:href="#DejaVuSans-74" x="133.691406"/>
      </g>
     </g>
    </g>
    <g id="xtick_11">
     <g id="line2d_83">
      <g>
       <use xlink:href="#m1c339ba1bf" x="578.25" y="512.64" style="fill: #555555; stroke: #555555; stroke-width: 0.8"/>
      </g>
     </g>
     <g id="text_11">
      <!-- Nov -->
      <g style="fill: #555555" transform="translate(568.490625 527.238438) scale(0.1 -0.1)">
       <defs>
        <path id="DejaVuSans-4e" d="M 628 4666 
L 1478 4666 
L 3547 763 
L 3547 4666 
L 4159 4666 
L 4159 0 
L 3309 0 
L 1241 3903 
L 1241 0 
L 628 0 
L 628 4666 
z
" transform="scale(0.015625)"/>
        <path id="DejaVuSans-6f" d="M 1959 3097 
Q 1497 3097 1228 2736 
Q 959 2375 959 1747 
Q 959 1119 1226 758 
Q 1494 397 1959 397 
Q 2419 397 2687 759 
Q 2956 1122 2956 1747 
Q 2956 2369 2687 2733 
Q 2419 3097 1959 3097 
z
M 1959 3584 
Q 2709 3584 3137 3096 
Q 3566 2609 3566 1747 
Q 3566 888 3137 398 
Q 2709 -91 1959 -91 
Q 1206 -91 779 398 
Q 353 888 353 1747 
Q 353 2609 779 3096 
Q 1206 3584 1959 3584 
z
" transform="scale(0.015625)"/>
        <path id="DejaVuSans-76" d="M 191 3500 
L 800 3500 
L 1894 563 
L 2988 3500 
L 3597 3500 
L 2284 0 
L 1503 0 
L 191 3500 
z
" transform="scale(0.015625)"/>
       </defs>
       <use xlink:href="#DejaVuSans-4e"/>
       <use xlink:href="#DejaVuSans-6f" x="74.804688"/>
       <use xlink:href="#DejaVuSans-76" x="135.986328"/>
      </g>
     </g>
    </g>
    <g id="xtick_12">
     <g id="line2d_84">
      <g>
       <use xlink:href="#m1c339ba1bf" x="624.75" y="512.64" style="fill: #555555; stroke: #555555; stroke-width: 0.8"/>
      </g>
     </g>
     <g id="text_12">
      <!-- Dec -->
      <g style="fill: #555555" transform="translate(615.074219 527.238438) scale(0.1 -0.1)">
       <defs>
        <path id="DejaVuSans-44" d="M 1259 4147 
L 1259 519 
L 2022 519 
Q 2988 519 3436 956 
Q 3884 1394 3884 2338 
Q 3884 3275 3436 3711 
Q 2988 4147 2022 4147 
L 1259 4147 
z
M 628 4666 
L 1925 4666 
Q 3281 4666 3915 4102 
Q 4550 3538 4550 2338 
Q 4550 1131 3912 565 
Q 3275 0 1925 0 
L 628 0 
L 628 4666 
z
" transform="scale(0.015625)"/>
       </defs>
       <use xlink:href="#DejaVuSans-44"/>
       <use xlink:href="#DejaVuSans-65" x="77.001953"/>
       <use xlink:href="#DejaVuSans-63" x="138.525391"/>
      </g>
     </g>
    </g>
   </g>
   <g id="matplotlib.axis_2">
    <g id="ytick_1">
     <g id="line2d_85">
      <path d="M 90 512.64 
L 648 512.64 
" clip-path="url(#p9eb897427d)" style="fill: none; stroke: #ffffff; stroke-width: 0.8; stroke-linecap: square"/>
     </g>
     <g id="line2d_86">
      <defs>
       <path id="me22346f6e7" d="M 0 0 
L -3.5 0 
" style="stroke: #555555; stroke-width: 0.8"/>
      </defs>
      <g>
       <use xlink:href="#me22346f6e7" x="90" y="512.64" style="fill: #555555; stroke: #555555; stroke-width: 0.8"/>
      </g>
     </g>
     <g id="text_13">
      <!-- −15 -->
      <g style="fill: #555555" transform="translate(61.895313 516.439219) scale(0.1 -0.1)">
       <defs>
        <path id="DejaVuSans-2212" d="M 678 2272 
L 4684 2272 
L 4684 1741 
L 678 1741 
L 678 2272 
z
" transform="scale(0.015625)"/>
        <path id="DejaVuSans-31" d="M 794 531 
L 1825 531 
L 1825 4091 
L 703 3866 
L 703 4441 
L 1819 4666 
L 2450 4666 
L 2450 531 
L 3481 531 
L 3481 0 
L 794 0 
L 794 531 
z
" transform="scale(0.015625)"/>
        <path id="DejaVuSans-35" d="M 691 4666 
L 3169 4666 
L 3169 4134 
L 1269 4134 
L 1269 2991 
Q 1406 3038 1543 3061 
Q 1681 3084 1819 3084 
Q 2600 3084 3056 2656 
Q 3513 2228 3513 1497 
Q 3513 744 3044 326 
Q 2575 -91 1722 -91 
Q 1428 -91 1123 -41 
Q 819 9 494 109 
L 494 744 
Q 775 591 1075 516 
Q 1375 441 1709 441 
Q 2250 441 2565 725 
Q 2881 1009 2881 1497 
Q 2881 1984 2565 2268 
Q 2250 2553 1709 2553 
Q 1456 2553 1204 2497 
Q 953 2441 691 2322 
L 691 4666 
z
" transform="scale(0.015625)"/>
       </defs>
       <use xlink:href="#DejaVuSans-2212"/>
       <use xlink:href="#DejaVuSans-31" x="83.789062"/>
       <use xlink:href="#DejaVuSans-35" x="147.412109"/>
      </g>
     </g>
    </g>
    <g id="ytick_2">
     <g id="line2d_87">
      <path d="M 90 438.72 
L 648 438.72 
" clip-path="url(#p9eb897427d)" style="fill: none; stroke: #ffffff; stroke-width: 0.8; stroke-linecap: square"/>
     </g>
     <g id="line2d_88">
      <g>
       <use xlink:href="#me22346f6e7" x="90" y="438.72" style="fill: #555555; stroke: #555555; stroke-width: 0.8"/>
      </g>
     </g>
     <g id="text_14">
      <!-- −10 -->
      <g style="fill: #555555" transform="translate(61.895313 442.519219) scale(0.1 -0.1)">
       <defs>
        <path id="DejaVuSans-30" d="M 2034 4250 
Q 1547 4250 1301 3770 
Q 1056 3291 1056 2328 
Q 1056 1369 1301 889 
Q 1547 409 2034 409 
Q 2525 409 2770 889 
Q 3016 1369 3016 2328 
Q 3016 3291 2770 3770 
Q 2525 4250 2034 4250 
z
M 2034 4750 
Q 2819 4750 3233 4129 
Q 3647 3509 3647 2328 
Q 3647 1150 3233 529 
Q 2819 -91 2034 -91 
Q 1250 -91 836 529 
Q 422 1150 422 2328 
Q 422 3509 836 4129 
Q 1250 4750 2034 4750 
z
" transform="scale(0.015625)"/>
       </defs>
       <use xlink:href="#DejaVuSans-2212"/>
       <use xlink:href="#DejaVuSans-31" x="83.789062"/>
       <use xlink:href="#DejaVuSans-30" x="147.412109"/>
      </g>
     </g>
    </g>
    <g id="ytick_3">
     <g id="line2d_89">
      <path d="M 90 364.8 
L 648 364.8 
" clip-path="url(#p9eb897427d)" style="fill: none; stroke: #ffffff; stroke-width: 0.8; stroke-linecap: square"/>
     </g>
     <g id="line2d_90">
      <g>
       <use xlink:href="#me22346f6e7" x="90" y="364.8" style="fill: #555555; stroke: #555555; stroke-width: 0.8"/>
      </g>
     </g>
     <g id="text_15">
      <!-- −5 -->
      <g style="fill: #555555" transform="translate(68.257812 368.599219) scale(0.1 -0.1)">
       <use xlink:href="#DejaVuSans-2212"/>
       <use xlink:href="#DejaVuSans-35" x="83.789062"/>
      </g>
     </g>
    </g>
    <g id="ytick_4">
     <g id="line2d_91">
      <path d="M 90 290.88 
L 648 290.88 
" clip-path="url(#p9eb897427d)" style="fill: none; stroke: #ffffff; stroke-width: 0.8; stroke-linecap: square"/>
     </g>
     <g id="line2d_92">
      <g>
       <use xlink:href="#me22346f6e7" x="90" y="290.88" style="fill: #555555; stroke: #555555; stroke-width: 0.8"/>
      </g>
     </g>
     <g id="text_16">
      <!-- 0 -->
      <g style="fill: #555555" transform="translate(76.6375 294.679219) scale(0.1 -0.1)">
       <use xlink:href="#DejaVuSans-30"/>
      </g>
     </g>
    </g>
    <g id="ytick_5">
     <g id="line2d_93">
      <path d="M 90 216.96 
L 648 216.96 
" clip-path="url(#p9eb897427d)" style="fill: none; stroke: #ffffff; stroke-width: 0.8; stroke-linecap: square"/>
     </g>
     <g id="line2d_94">
      <g>
       <use xlink:href="#me22346f6e7" x="90" y="216.96" style="fill: #555555; stroke: #555555; stroke-width: 0.8"/>
      </g>
     </g>
     <g id="text_17">
      <!-- 5 -->
      <g style="fill: #555555" transform="translate(76.6375 220.759219) scale(0.1 -0.1)">
       <use xlink:href="#DejaVuSans-35"/>
      </g>
     </g>
    </g>
    <g id="ytick_6">
     <g id="line2d_95">
      <path d="M 90 143.04 
L 648 143.04 
" clip-path="url(#p9eb897427d)" style="fill: none; stroke: #ffffff; stroke-width: 0.8; stroke-linecap: square"/>
     </g>
     <g id="line2d_96">
      <g>
       <use xlink:href="#me22346f6e7" x="90" y="143.04" style="fill: #555555; stroke: #555555; stroke-width: 0.8"/>
      </g>
     </g>
     <g id="text_18">
      <!-- 10 -->
      <g style="fill: #555555" transform="translate(70.275 146.839219) scale(0.1 -0.1)">
       <use xlink:href="#DejaVuSans-31"/>
       <use xlink:href="#DejaVuSans-30" x="63.623047"/>
      </g>
     </g>
    </g>
    <g id="ytick_7">
     <g id="line2d_97">
      <path d="M 90 69.12 
L 648 69.12 
" clip-path="url(#p9eb897427d)" style="fill: none; stroke: #ffffff; stroke-width: 0.8; stroke-linecap: square"/>
     </g>
     <g id="line2d_98">
      <g>
       <use xlink:href="#me22346f6e7" x="90" y="69.12" style="fill: #555555; stroke: #555555; stroke-width: 0.8"/>
      </g>
     </g>
     <g id="text_19">
      <!-- 15 -->
      <g style="fill: #555555" transform="translate(70.275 72.919219) scale(0.1 -0.1)">
       <use xlink:href="#DejaVuSans-31"/>
       <use xlink:href="#DejaVuSans-35" x="63.623047"/>
      </g>
     </g>
    </g>
    <g id="text_20">
     <!-- Temperature (C) -->
     <g style="fill: #555555" transform="translate(55.399687 339.661875) rotate(-90) scale(0.12 -0.12)">
      <defs>
       <path id="DejaVuSans-54" d="M -19 4666 
L 3928 4666 
L 3928 4134 
L 2272 4134 
L 2272 0 
L 1638 0 
L 1638 4134 
L -19 4134 
L -19 4666 
z
" transform="scale(0.015625)"/>
       <path id="DejaVuSans-6d" d="M 3328 2828 
Q 3544 3216 3844 3400 
Q 4144 3584 4550 3584 
Q 5097 3584 5394 3201 
Q 5691 2819 5691 2113 
L 5691 0 
L 5113 0 
L 5113 2094 
Q 5113 2597 4934 2840 
Q 4756 3084 4391 3084 
Q 3944 3084 3684 2787 
Q 3425 2491 3425 1978 
L 3425 0 
L 2847 0 
L 2847 2094 
Q 2847 2600 2669 2842 
Q 2491 3084 2119 3084 
Q 1678 3084 1418 2786 
Q 1159 2488 1159 1978 
L 1159 0 
L 581 0 
L 581 3500 
L 1159 3500 
L 1159 2956 
Q 1356 3278 1631 3431 
Q 1906 3584 2284 3584 
Q 2666 3584 2933 3390 
Q 3200 3197 3328 2828 
z
" transform="scale(0.015625)"/>
       <path id="DejaVuSans-20" transform="scale(0.015625)"/>
       <path id="DejaVuSans-28" d="M 1984 4856 
Q 1566 4138 1362 3434 
Q 1159 2731 1159 2009 
Q 1159 1288 1364 580 
Q 1569 -128 1984 -844 
L 1484 -844 
Q 1016 -109 783 600 
Q 550 1309 550 2009 
Q 550 2706 781 3412 
Q 1013 4119 1484 4856 
L 1984 4856 
z
" transform="scale(0.015625)"/>
       <path id="DejaVuSans-43" d="M 4122 4306 
L 4122 3641 
Q 3803 3938 3442 4084 
Q 3081 4231 2675 4231 
Q 1875 4231 1450 3742 
Q 1025 3253 1025 2328 
Q 1025 1406 1450 917 
Q 1875 428 2675 428 
Q 3081 428 3442 575 
Q 3803 722 4122 1019 
L 4122 359 
Q 3791 134 3420 21 
Q 3050 -91 2638 -91 
Q 1578 -91 968 557 
Q 359 1206 359 2328 
Q 359 3453 968 4101 
Q 1578 4750 2638 4750 
Q 3056 4750 3426 4639 
Q 3797 4528 4122 4306 
z
" transform="scale(0.015625)"/>
       <path id="DejaVuSans-29" d="M 513 4856 
L 1013 4856 
Q 1481 4119 1714 3412 
Q 1947 2706 1947 2009 
Q 1947 1309 1714 600 
Q 1481 -109 1013 -844 
L 513 -844 
Q 928 -128 1133 580 
Q 1338 1288 1338 2009 
Q 1338 2731 1133 3434 
Q 928 4138 513 4856 
z
" transform="scale(0.015625)"/>
      </defs>
      <use xlink:href="#DejaVuSans-54"/>
      <use xlink:href="#DejaVuSans-65" x="44.083984"/>
      <use xlink:href="#DejaVuSans-6d" x="105.607422"/>
      <use xlink:href="#DejaVuSans-70" x="203.019531"/>
      <use xlink:href="#DejaVuSans-65" x="266.496094"/>
      <use xlink:href="#DejaVuSans-72" x="328.019531"/>
      <use xlink:href="#DejaVuSans-61" x="369.132812"/>
      <use xlink:href="#DejaVuSans-74" x="430.412109"/>
      <use xlink:href="#DejaVuSans-75" x="469.621094"/>
      <use xlink:href="#DejaVuSans-72" x="533"/>
      <use xlink:href="#DejaVuSans-65" x="571.863281"/>
      <use xlink:href="#DejaVuSans-20" x="633.386719"/>
      <use xlink:href="#DejaVuSans-28" x="665.173828"/>
      <use xlink:href="#DejaVuSans-43" x="704.1875"/>
      <use xlink:href="#DejaVuSans-29" x="774.011719"/>
     </g>
    </g>
   </g>
   <g id="patch_3">
    <path d="M 94.65 330.7968 
L 131.85 330.7968 
L 131.85 299.7504 
L 94.65 299.7504 
L 94.65 330.7968 
L 94.65 330.7968 
z
" clip-path="url(#p9eb897427d)" style="fill: none; stroke: #000000; stroke-width: 1.5; stroke-linejoin: miter"/>
   </g>
   <g id="patch_4">
    <path d="M 141.15 333.7536 
L 178.35 333.7536 
L 178.35 296.7936 
L 141.15 296.7936 
L 141.15 333.7536 
L 141.15 333.7536 
z
" clip-path="url(#p9eb897427d)" style="fill: none; stroke: #000000; stroke-width: 1.5; stroke-linejoin: miter"/>
   </g>
   <g id="patch_5">
    <path d="M 187.65 316.0128 
L 224.85 316.0128 
L 224.85 284.5968 
L 187.65 284.5968 
L 187.65 316.0128 
L 187.65 316.0128 
z
" clip-path="url(#p9eb897427d)" style="fill: none; stroke: #000000; stroke-width: 1.5; stroke-linejoin: miter"/>
   </g>
   <g id="patch_6">
    <path d="M 234.15 287.9232 
L 271.35 287.9232 
L 271.35 265.008 
L 234.15 265.008 
L 234.15 287.9232 
L 234.15 287.9232 
z
" clip-path="url(#p9eb897427d)" style="fill: none; stroke: #000000; stroke-width: 1.5; stroke-linejoin: miter"/>
   </g>
   <g id="patch_7">
    <path d="M 280.65 247.2672 
L 317.85 247.2672 
L 317.85 227.3088 
L 280.65 227.3088 
L 280.65 247.2672 
L 280.65 247.2672 
z
" clip-path="url(#p9eb897427d)" style="fill: none; stroke: #000000; stroke-width: 1.5; stroke-linejoin: miter"/>
   </g>
   <g id="patch_8">
    <path d="M 327.15 199.2192 
L 364.35 199.2192 
L 364.35 177.7824 
L 327.15 177.7824 
L 327.15 199.2192 
L 327.15 199.2192 
z
" clip-path="url(#p9eb897427d)" style="fill: none; stroke: #000000; stroke-width: 1.5; stroke-linejoin: miter"/>
   </g>
   <g id="patch_9">
    <path d="M 373.65 172.608 
L 410.85 172.608 
L 410.85 154.8672 
L 373.65 154.8672 
L 373.65 172.608 
L 373.65 172.608 
z
" clip-path="url(#p9eb897427d)" style="fill: none; stroke: #000000; stroke-width: 1.5; stroke-linejoin: miter"/>
   </g>
   <g id="patch_10">
    <path d="M 420.15 180.3696 
L 457.35 180.3696 
L 457.35 156.3456 
L 420.15 156.3456 
L 420.15 180.3696 
L 420.15 180.3696 
z
" clip-path="url(#p9eb897427d)" style="fill: none; stroke: #000000; stroke-width: 1.5; stroke-linejoin: miter"/>
   </g>
   <g id="patch_11">
    <path d="M 466.65 202.5456 
L 503.85 202.5456 
L 503.85 185.9136 
L 466.65 185.9136 
L 466.65 202.5456 
L 466.65 202.5456 
z
" clip-path="url(#p9eb897427d)" style="fill: none; stroke: #000000; stroke-width: 1.5; stroke-linejoin: miter"/>
   </g>
   <g id="patch_12">
    <path d="M 513.15 249.4848 
L 550.35 249.4848 
L 550.35 214.0032 
L 513.15 214.0032 
L 513.15 249.4848 
L 513.15 249.4848 
z
" clip-path="url(#p9eb897427d)" style="fill: none; stroke: #000000; stroke-width: 1.5; stroke-linejoin: miter"/>
   </g>
   <g id="patch_13">
    <path d="M 559.65 296.0544 
L 596.85 296.0544 
L 596.85 267.2256 
L 559.65 267.2256 
L 559.65 296.0544 
L 559.65 296.0544 
z
" clip-path="url(#p9eb897427d)" style="fill: none; stroke: #000000; stroke-width: 1.5; stroke-linejoin: miter"/>
   </g>
   <g id="patch_14">
    <path d="M 606.15 324.144 
L 643.35 324.144 
L 643.35 292.3584 
L 606.15 292.3584 
L 606.15 324.144 
L 606.15 324.144 
z
" clip-path="url(#p9eb897427d)" style="fill: none; stroke: #000000; stroke-width: 1.5; stroke-linejoin: miter"/>
   </g>
   <g id="PathCollection_1">
    <path d="M 113.25 347.975383 
C 114.277127 347.975383 115.262324 347.567301 115.988613 346.841013 
C 116.714901 346.114724 117.122983 345.129527 117.122983 344.1024 
C 117.122983 343.075273 116.714901 342.090076 115.988613 341.363787 
C 115.262324 340.637499 114.277127 340.229417 113.25 340.229417 
C 112.222873 340.229417 111.237676 340.637499 110.511387 341.363787 
C 109.785099 342.090076 109.377017 343.075273 109.377017 344.1024 
C 109.377017 345.129527 109.785099 346.114724 110.511387 346.841013 
C 111.237676 347.567301 112.222873 347.975383 113.25 347.975383 
z
" clip-path="url(#p9eb897427d)" style="fill: #66c2a5; stroke: #ffffff; stroke-width: 0.619677"/>
    <path d="M 159.75 300.666583 
C 160.777127 300.666583 161.762324 300.258501 162.488613 299.532213 
C 163.214901 298.805924 163.622983 297.820727 163.622983 296.7936 
C 163.622983 295.766473 163.214901 294.781276 162.488613 294.054987 
C 161.762324 293.328699 160.777127 292.920617 159.75 292.920617 
C 158.722873 292.920617 157.737676 293.328699 157.011387 294.054987 
C 156.285099 294.781276 155.877017 295.766473 155.877017 296.7936 
C 155.877017 297.820727 156.285099 298.805924 157.011387 299.532213 
C 157.737676 300.258501 158.722873 300.666583 159.75 300.666583 
z
" clip-path="url(#p9eb897427d)" style="fill: #66c2a5; stroke: #ffffff; stroke-width: 0.619677"/>
    <path d="M 206.25 272.576983 
C 207.277127 272.576983 208.262324 272.168901 208.988613 271.442613 
C 209.714901 270.716324 210.122983 269.731127 210.122983 268.704 
C 210.122983 267.676873 209.714901 266.691676 208.988613 265.965387 
C 208.262324 265.239099 207.277127 264.831017 206.25 264.831017 
C 205.222873 264.831017 204.237676 265.239099 203.511387 265.965387 
C 202.785099 266.691676 202.377017 267.676873 202.377017 268.704 
C 202.377017 269.731127 202.785099 270.716324 203.511387 271.442613 
C 204.237676 272.168901 205.222873 272.576983 206.25 272.576983 
z
" clip-path="url(#p9eb897427d)" style="fill: #66c2a5; stroke: #ffffff; stroke-width: 0.619677"/>
    <path d="M 252.75 279.968983 
C 253.777127 279.968983 254.762324 279.560901 255.488613 278.834613 
C 256.214901 278.108324 256.622983 277.123127 256.622983 276.096 
C 256.622983 275.068873 256.214901 274.083676 255.488613 273.357387 
C 254.762324 272.631099 253.777127 272.223017 252.75 272.223017 
C 251.722873 272.223017 250.737676 272.631099 250.011387 273.357387 
C 249.285099 274.083676 248.877017 275.068873 248.877017 276.096 
C 248.877017 277.123127 249.285099 278.108324 250.011387 278.834613 
C 250.737676 279.560901 251.722873 279.968983 252.75 279.968983 
z
" clip-path="url(#p9eb897427d)" style="fill: #66c2a5; stroke: #ffffff; stroke-width: 0.619677"/>
    <path d="M 299.25 253.357783 
C 300.277127 253.357783 301.262324 252.949701 301.988613 252.223413 
C 302.714901 251.497124 303.122983 250.511927 303.122983 249.4848 
C 303.122983 248.457673 302.714901 247.472476 301.988613 246.746187 
C 301.262324 246.019899 300.277127 245.611817 299.25 245.611817 
C 298.222873 245.611817 297.237676 246.019899 296.511387 246.746187 
C 295.785099 247.472476 295.377017 248.457673 295.377017 249.4848 
C 295.377017 250.511927 295.785099 251.497124 296.511387 252.223413 
C 297.237676 252.949701 298.222873 253.357783 299.25 253.357783 
z
" clip-path="url(#p9eb897427d)" style="fill: #66c2a5; stroke: #ffffff; stroke-width: 0.619677"/>
    <path d="M 345.75 203.092183 
C 346.777127 203.092183 347.762324 202.684101 348.488613 201.957813 
C 349.214901 201.231524 349.622983 200.246327 349.622983 199.2192 
C 349.622983 198.192073 349.214901 197.206876 348.488613 196.480587 
C 347.762324 195.754299 346.777127 195.346217 345.75 195.346217 
C 344.722873 195.346217 343.737676 195.754299 343.011387 196.480587 
C 342.285099 197.206876 341.877017 198.192073 341.877017 199.2192 
C 341.877017 200.246327 342.285099 201.231524 343.011387 201.957813 
C 343.737676 202.684101 344.722873 203.092183 345.75 203.092183 
z
" clip-path="url(#p9eb897427d)" style="fill: #66c2a5; stroke: #ffffff; stroke-width: 0.619677"/>
    <path d="M 392.25 138.042583 
C 393.277127 138.042583 394.262324 137.634501 394.988613 136.908213 
C 395.714901 136.181924 396.122983 135.196727 396.122983 134.1696 
C 396.122983 133.142473 395.714901 132.157276 394.988613 131.430987 
C 394.262324 130.704699 393.277127 130.296617 392.25 130.296617 
C 391.222873 130.296617 390.237676 130.704699 389.511387 131.430987 
C 388.785099 132.157276 388.377017 133.142473 388.377017 134.1696 
C 388.377017 135.196727 388.785099 136.181924 389.511387 136.908213 
C 390.237676 137.634501 391.222873 138.042583 392.25 138.042583 
z
" clip-path="url(#p9eb897427d)" style="fill: #66c2a5; stroke: #ffffff; stroke-width: 0.619677"/>
    <path d="M 438.75 160.218583 
C 439.777127 160.218583 440.762324 159.810501 441.488613 159.084213 
C 442.214901 158.357924 442.622983 157.372727 442.622983 156.3456 
C 442.622983 155.318473 442.214901 154.333276 441.488613 153.606987 
C 440.762324 152.880699 439.777127 152.472617 438.75 152.472617 
C 437.722873 152.472617 436.737676 152.880699 436.011387 153.606987 
C 435.285099 154.333276 434.877017 155.318473 434.877017 156.3456 
C 434.877017 157.372727 435.285099 158.357924 436.011387 159.084213 
C 436.737676 159.810501 437.722873 160.218583 438.75 160.218583 
z
" clip-path="url(#p9eb897427d)" style="fill: #66c2a5; stroke: #ffffff; stroke-width: 0.619677"/>
    <path d="M 485.25 203.092183 
C 486.277127 203.092183 487.262324 202.684101 487.988613 201.957813 
C 488.714901 201.231524 489.122983 200.246327 489.122983 199.2192 
C 489.122983 198.192073 488.714901 197.206876 487.988613 196.480587 
C 487.262324 195.754299 486.277127 195.346217 485.25 195.346217 
C 484.222873 195.346217 483.237676 195.754299 482.511387 196.480587 
C 481.785099 197.206876 481.377017 198.192073 481.377017 199.2192 
C 481.377017 200.246327 481.785099 201.231524 482.511387 201.957813 
C 483.237676 202.684101 484.222873 203.092183 485.25 203.092183 
z
" clip-path="url(#p9eb897427d)" style="fill: #66c2a5; stroke: #ffffff; stroke-width: 0.619677"/>
    <path d="M 531.75 265.184983 
C 532.777127 265.184983 533.762324 264.776901 534.488613 264.050613 
C 535.214901 263.324324 535.622983 262.339127 535.622983 261.312 
C 535.622983 260.284873 535.214901 259.299676 534.488613 258.573387 
C 533.762324 257.847099 532.777127 257.439017 531.75 257.439017 
C 530.722873 257.439017 529.737676 257.847099 529.011387 258.573387 
C 528.285099 259.299676 527.877017 260.284873 527.877017 261.312 
C 527.877017 262.339127 528.285099 263.324324 529.011387 264.050613 
C 529.737676 264.776901 530.722873 265.184983 531.75 265.184983 
z
" clip-path="url(#p9eb897427d)" style="fill: #66c2a5; stroke: #ffffff; stroke-width: 0.619677"/>
    <path d="M 578.25 306.580183 
C 579.277127 306.580183 580.262324 306.172101 580.988613 305.445813 
C 581.714901 304.719524 582.122983 303.734327 582.122983 302.7072 
C 582.122983 301.680073 581.714901 300.694876 580.988613 299.968587 
C 580.262324 299.242299 579.277127 298.834217 578.25 298.834217 
C 577.222873 298.834217 576.237676 299.242299 575.511387 299.968587 
C 574.785099 300.694876 574.377017 301.680073 574.377017 302.7072 
C 574.377017 303.734327 574.785099 304.719524 575.511387 305.445813 
C 576.237676 306.172101 577.222873 306.580183 578.25 306.580183 
z
" clip-path="url(#p9eb897427d)" style="fill: #66c2a5; stroke: #ffffff; stroke-width: 0.619677"/>
    <path d="M 624.75 288.839383 
C 625.777127 288.839383 626.762324 288.431301 627.488613 287.705013 
C 628.214901 286.978724 628.622983 285.993527 628.622983 284.9664 
C 628.622983 283.939273 628.214901 282.954076 627.488613 282.227787 
C 626.762324 281.501499 625.777127 281.093417 624.75 281.093417 
C 623.722873 281.093417 622.737676 281.501499 622.011387 282.227787 
C 621.285099 282.954076 620.877017 283.939273 620.877017 284.9664 
C 620.877017 285.993527 621.285099 286.978724 622.011387 287.705013 
C 622.737676 288.431301 623.722873 288.839383 624.75 288.839383 
z
" clip-path="url(#p9eb897427d)" style="fill: #66c2a5; stroke: #ffffff; stroke-width: 0.619677"/>
    <path d="M 111.313508 275.533783 
L 113.25 273.597292 
L 115.186492 275.533783 
L 117.122983 273.597292 
L 115.186492 271.6608 
L 117.122983 269.724308 
L 115.186492 267.787817 
L 113.25 269.724308 
L 111.313508 267.787817 
L 109.377017 269.724308 
L 111.313508 271.6608 
L 109.377017 273.597292 
z
" clip-path="url(#p9eb897427d)" style="fill: #fc8d62; stroke: #ffffff; stroke-width: 0.619677"/>
    <path d="M 157.813508 319.885783 
L 159.75 317.949292 
L 161.686492 319.885783 
L 163.622983 317.949292 
L 161.686492 316.0128 
L 163.622983 314.076308 
L 161.686492 312.139817 
L 159.75 314.076308 
L 157.813508 312.139817 
L 155.877017 314.076308 
L 157.813508 316.0128 
L 155.877017 317.949292 
z
" clip-path="url(#p9eb897427d)" style="fill: #fc8d62; stroke: #ffffff; stroke-width: 0.619677"/>
    <path d="M 204.313508 294.752983 
L 206.25 292.816492 
L 208.186492 294.752983 
L 210.122983 292.816492 
L 208.186492 290.88 
L 210.122983 288.943508 
L 208.186492 287.007017 
L 206.25 288.943508 
L 204.313508 287.007017 
L 202.377017 288.943508 
L 204.313508 290.88 
L 202.377017 292.816492 
z
" clip-path="url(#p9eb897427d)" style="fill: #fc8d62; stroke: #ffffff; stroke-width: 0.619677"/>
    <path d="M 250.813508 300.666583 
L 252.75 298.730092 
L 254.686492 300.666583 
L 256.622983 298.730092 
L 254.686492 296.7936 
L 256.622983 294.857108 
L 254.686492 292.920617 
L 252.75 294.857108 
L 250.813508 292.920617 
L 248.877017 294.857108 
L 250.813508 296.7936 
L 248.877017 298.730092 
z
" clip-path="url(#p9eb897427d)" style="fill: #fc8d62; stroke: #ffffff; stroke-width: 0.619677"/>
    <path d="M 297.313508 240.052183 
L 299.25 238.115692 
L 301.186492 240.052183 
L 303.122983 238.115692 
L 301.186492 236.1792 
L 303.122983 234.242708 
L 301.186492 232.306217 
L 299.25 234.242708 
L 297.313508 232.306217 
L 295.377017 234.242708 
L 297.313508 236.1792 
L 295.377017 238.115692 
z
" clip-path="url(#p9eb897427d)" style="fill: #fc8d62; stroke: #ffffff; stroke-width: 0.619677"/>
    <path d="M 343.813508 177.959383 
L 345.75 176.022892 
L 347.686492 177.959383 
L 349.622983 176.022892 
L 347.686492 174.0864 
L 349.622983 172.149908 
L 347.686492 170.213417 
L 345.75 172.149908 
L 343.813508 170.213417 
L 341.877017 172.149908 
L 343.813508 174.0864 
L 341.877017 176.022892 
z
" clip-path="url(#p9eb897427d)" style="fill: #fc8d62; stroke: #ffffff; stroke-width: 0.619677"/>
    <path d="M 390.313508 182.394583 
L 392.25 180.458092 
L 394.186492 182.394583 
L 396.122983 180.458092 
L 394.186492 178.5216 
L 396.122983 176.585108 
L 394.186492 174.648617 
L 392.25 176.585108 
L 390.313508 174.648617 
L 388.377017 176.585108 
L 390.313508 178.5216 
L 388.377017 180.458092 
z
" clip-path="url(#p9eb897427d)" style="fill: #fc8d62; stroke: #ffffff; stroke-width: 0.619677"/>
    <path d="M 436.813508 160.218583 
L 438.75 158.282092 
L 440.686492 160.218583 
L 442.622983 158.282092 
L 440.686492 156.3456 
L 442.622983 154.409108 
L 440.686492 152.472617 
L 438.75 154.409108 
L 436.813508 152.472617 
L 434.877017 154.409108 
L 436.813508 156.3456 
L 434.877017 158.282092 
z
" clip-path="url(#p9eb897427d)" style="fill: #fc8d62; stroke: #ffffff; stroke-width: 0.619677"/>
    <path d="M 483.313508 213.440983 
L 485.25 211.504492 
L 487.186492 213.440983 
L 489.122983 211.504492 
L 487.186492 209.568 
L 489.122983 207.631508 
L 487.186492 205.695017 
L 485.25 207.631508 
L 483.313508 205.695017 
L 481.377017 207.631508 
L 483.313508 209.568 
L 481.377017 211.504492 
z
" clip-path="url(#p9eb897427d)" style="fill: #fc8d62; stroke: #ffffff; stroke-width: 0.619677"/>
    <path d="M 529.813508 232.660183 
L 531.75 230.723692 
L 533.686492 232.660183 
L 535.622983 230.723692 
L 533.686492 228.7872 
L 535.622983 226.850708 
L 533.686492 224.914217 
L 531.75 226.850708 
L 529.813508 224.914217 
L 527.877017 226.850708 
L 529.813508 228.7872 
L 527.877017 230.723692 
z
" clip-path="url(#p9eb897427d)" style="fill: #fc8d62; stroke: #ffffff; stroke-width: 0.619677"/>
    <path d="M 576.313508 262.228183 
L 578.25 260.291692 
L 580.186492 262.228183 
L 582.122983 260.291692 
L 580.186492 258.3552 
L 582.122983 256.418708 
L 580.186492 254.482217 
L 578.25 256.418708 
L 576.313508 254.482217 
L 574.377017 256.418708 
L 576.313508 258.3552 
L 574.377017 260.291692 
z
" clip-path="url(#p9eb897427d)" style="fill: #fc8d62; stroke: #ffffff; stroke-width: 0.619677"/>
    <path d="M 622.813508 291.796183 
L 624.75 289.859692 
L 626.686492 291.796183 
L 628.622983 289.859692 
L 626.686492 287.9232 
L 628.622983 285.986708 
L 626.686492 284.050217 
L 624.75 285.986708 
L 622.813508 284.050217 
L 620.877017 285.986708 
L 622.813508 287.9232 
L 620.877017 289.859692 
z
" clip-path="url(#p9eb897427d)" style="fill: #fc8d62; stroke: #ffffff; stroke-width: 0.619677"/>
    <path d="M 110.511387 348.755787 
L 110.511387 354.233013 
L 115.988613 354.233013 
L 115.988613 348.755787 
z
" clip-path="url(#p9eb897427d)" style="fill: #8da0cb; stroke: #ffffff; stroke-width: 0.619677"/>
    <path d="M 157.011387 328.058187 
L 157.011387 333.535413 
L 162.488613 333.535413 
L 162.488613 328.058187 
z
" clip-path="url(#p9eb897427d)" style="fill: #8da0cb; stroke: #ffffff; stroke-width: 0.619677"/>
    <path d="M 203.511387 274.835787 
L 203.511387 280.313013 
L 208.988613 280.313013 
L 208.988613 274.835787 
z
" clip-path="url(#p9eb897427d)" style="fill: #8da0cb; stroke: #ffffff; stroke-width: 0.619677"/>
    <path d="M 250.011387 328.058187 
L 250.011387 333.535413 
L 255.488613 333.535413 
L 255.488613 328.058187 
z
" clip-path="url(#p9eb897427d)" style="fill: #8da0cb; stroke: #ffffff; stroke-width: 0.619677"/>
    <path d="M 296.511387 248.224587 
L 296.511387 253.701813 
L 301.988613 253.701813 
L 301.988613 248.224587 
z
" clip-path="url(#p9eb897427d)" style="fill: #8da0cb; stroke: #ffffff; stroke-width: 0.619677"/>
    <path d="M 343.011387 183.174987 
L 343.011387 188.652213 
L 348.488613 188.652213 
L 348.488613 183.174987 
z
" clip-path="url(#p9eb897427d)" style="fill: #8da0cb; stroke: #ffffff; stroke-width: 0.619677"/>
    <path d="M 389.511387 134.387787 
L 389.511387 139.865013 
L 394.988613 139.865013 
L 394.988613 134.387787 
z
" clip-path="url(#p9eb897427d)" style="fill: #8da0cb; stroke: #ffffff; stroke-width: 0.619677"/>
    <path d="M 436.011387 162.477387 
L 436.011387 167.954613 
L 441.488613 167.954613 
L 441.488613 162.477387 
z
" clip-path="url(#p9eb897427d)" style="fill: #8da0cb; stroke: #ffffff; stroke-width: 0.619677"/>
    <path d="M 482.511387 165.434187 
L 482.511387 170.911413 
L 487.988613 170.911413 
L 487.988613 165.434187 
z
" clip-path="url(#p9eb897427d)" style="fill: #8da0cb; stroke: #ffffff; stroke-width: 0.619677"/>
    <path d="M 529.011387 208.307787 
L 529.011387 213.785013 
L 534.488613 213.785013 
L 534.488613 208.307787 
z
" clip-path="url(#p9eb897427d)" style="fill: #8da0cb; stroke: #ffffff; stroke-width: 0.619677"/>
    <path d="M 575.511387 243.789387 
L 575.511387 249.266613 
L 580.988613 249.266613 
L 580.988613 243.789387 
z
" clip-path="url(#p9eb897427d)" style="fill: #8da0cb; stroke: #ffffff; stroke-width: 0.619677"/>
    <path d="M 622.011387 314.752587 
L 622.011387 320.229813 
L 627.488613 320.229813 
L 627.488613 314.752587 
z
" clip-path="url(#p9eb897427d)" style="fill: #8da0cb; stroke: #ffffff; stroke-width: 0.619677"/>
    <path d="M 111.959006 275.533783 
L 114.540994 275.533783 
L 114.540994 272.951794 
L 117.122983 272.951794 
L 117.122983 270.369806 
L 114.540994 270.369806 
L 114.540994 267.787817 
L 111.959006 267.787817 
L 111.959006 270.369806 
L 109.377017 270.369806 
L 109.377017 272.951794 
L 111.959006 272.951794 
z
" clip-path="url(#p9eb897427d)" style="fill: #e78ac3; stroke: #ffffff; stroke-width: 0.619677"/>
    <path d="M 158.459006 299.188183 
L 161.040994 299.188183 
L 161.040994 296.606194 
L 163.622983 296.606194 
L 163.622983 294.024206 
L 161.040994 294.024206 
L 161.040994 291.442217 
L 158.459006 291.442217 
L 158.459006 294.024206 
L 155.877017 294.024206 
L 155.877017 296.606194 
L 158.459006 296.606194 
z
" clip-path="url(#p9eb897427d)" style="fill: #e78ac3; stroke: #ffffff; stroke-width: 0.619677"/>
    <path d="M 204.959006 319.885783 
L 207.540994 319.885783 
L 207.540994 317.303794 
L 210.122983 317.303794 
L 210.122983 314.721806 
L 207.540994 314.721806 
L 207.540994 312.139817 
L 204.959006 312.139817 
L 204.959006 314.721806 
L 202.377017 314.721806 
L 202.377017 317.303794 
L 204.959006 317.303794 
z
" clip-path="url(#p9eb897427d)" style="fill: #e78ac3; stroke: #ffffff; stroke-width: 0.619677"/>
    <path d="M 251.459006 281.447383 
L 254.040994 281.447383 
L 254.040994 278.865394 
L 256.622983 278.865394 
L 256.622983 276.283406 
L 254.040994 276.283406 
L 254.040994 273.701417 
L 251.459006 273.701417 
L 251.459006 276.283406 
L 248.877017 276.283406 
L 248.877017 278.865394 
L 251.459006 278.865394 
z
" clip-path="url(#p9eb897427d)" style="fill: #e78ac3; stroke: #ffffff; stroke-width: 0.619677"/>
    <path d="M 297.959006 201.613783 
L 300.540994 201.613783 
L 300.540994 199.031794 
L 303.122983 199.031794 
L 303.122983 196.449806 
L 300.540994 196.449806 
L 300.540994 193.867817 
L 297.959006 193.867817 
L 297.959006 196.449806 
L 295.377017 196.449806 
L 295.377017 199.031794 
L 297.959006 199.031794 
z
" clip-path="url(#p9eb897427d)" style="fill: #e78ac3; stroke: #ffffff; stroke-width: 0.619677"/>
    <path d="M 344.459006 176.480983 
L 347.040994 176.480983 
L 347.040994 173.898994 
L 349.622983 173.898994 
L 349.622983 171.317006 
L 347.040994 171.317006 
L 347.040994 168.735017 
L 344.459006 168.735017 
L 344.459006 171.317006 
L 341.877017 171.317006 
L 341.877017 173.898994 
L 344.459006 173.898994 
z
" clip-path="url(#p9eb897427d)" style="fill: #e78ac3; stroke: #ffffff; stroke-width: 0.619677"/>
    <path d="M 390.959006 143.956183 
L 393.540994 143.956183 
L 393.540994 141.374194 
L 396.122983 141.374194 
L 396.122983 138.792206 
L 393.540994 138.792206 
L 393.540994 136.210217 
L 390.959006 136.210217 
L 390.959006 138.792206 
L 388.377017 138.792206 
L 388.377017 141.374194 
L 390.959006 141.374194 
z
" clip-path="url(#p9eb897427d)" style="fill: #e78ac3; stroke: #ffffff; stroke-width: 0.619677"/>
    <path d="M 437.459006 170.567383 
L 440.040994 170.567383 
L 440.040994 167.985394 
L 442.622983 167.985394 
L 442.622983 165.403406 
L 440.040994 165.403406 
L 440.040994 162.821417 
L 437.459006 162.821417 
L 437.459006 165.403406 
L 434.877017 165.403406 
L 434.877017 167.985394 
L 437.459006 167.985394 
z
" clip-path="url(#p9eb897427d)" style="fill: #e78ac3; stroke: #ffffff; stroke-width: 0.619677"/>
    <path d="M 483.959006 189.786583 
L 486.540994 189.786583 
L 486.540994 187.204594 
L 489.122983 187.204594 
L 489.122983 184.622606 
L 486.540994 184.622606 
L 486.540994 182.040617 
L 483.959006 182.040617 
L 483.959006 184.622606 
L 481.377017 184.622606 
L 481.377017 187.204594 
L 483.959006 187.204594 
z
" clip-path="url(#p9eb897427d)" style="fill: #e78ac3; stroke: #ffffff; stroke-width: 0.619677"/>
    <path d="M 530.459006 200.135383 
L 533.040994 200.135383 
L 533.040994 197.553394 
L 535.622983 197.553394 
L 535.622983 194.971406 
L 533.040994 194.971406 
L 533.040994 192.389417 
L 530.459006 192.389417 
L 530.459006 194.971406 
L 527.877017 194.971406 
L 527.877017 197.553394 
L 530.459006 197.553394 
z
" clip-path="url(#p9eb897427d)" style="fill: #e78ac3; stroke: #ffffff; stroke-width: 0.619677"/>
    <path d="M 576.959006 254.836183 
L 579.540994 254.836183 
L 579.540994 252.254194 
L 582.122983 252.254194 
L 582.122983 249.672206 
L 579.540994 249.672206 
L 579.540994 247.090217 
L 576.959006 247.090217 
L 576.959006 249.672206 
L 574.377017 249.672206 
L 574.377017 252.254194 
L 576.959006 252.254194 
z
" clip-path="url(#p9eb897427d)" style="fill: #e78ac3; stroke: #ffffff; stroke-width: 0.619677"/>
    <path d="M 623.459006 340.583383 
L 626.040994 340.583383 
L 626.040994 338.001394 
L 628.622983 338.001394 
L 628.622983 335.419406 
L 626.040994 335.419406 
L 626.040994 332.837417 
L 623.459006 332.837417 
L 623.459006 335.419406 
L 620.877017 335.419406 
L 620.877017 338.001394 
L 623.459006 338.001394 
z
" clip-path="url(#p9eb897427d)" style="fill: #e78ac3; stroke: #ffffff; stroke-width: 0.619677"/>
   </g>
   <g id="PathCollection_2"/>
   <g id="PathCollection_3"/>
   <g id="PathCollection_4"/>
   <g id="PathCollection_5"/>
   <g id="PathCollection_6">
    <defs>
     <path id="mf1ba0cacb8" d="M 0 -3.872983 
L -3.872983 3.872983 
L 3.872983 3.872983 
z
" style="stroke: #ffffff; stroke-width: 0.619677"/>
    </defs>
    <g clip-path="url(#p9eb897427d)">
     <use xlink:href="#mf1ba0cacb8" x="206.25" y="351.4944" style="stroke: #ffffff; stroke-width: 0.619677"/>
     <use xlink:href="#mf1ba0cacb8" x="392.25" y="194.784" style="stroke: #ffffff; stroke-width: 0.619677"/>
     <use xlink:href="#mf1ba0cacb8" x="113.25" y="418.0224" style="stroke: #ffffff; stroke-width: 0.619677"/>
     <use xlink:href="#mf1ba0cacb8" x="159.75" y="418.0224" style="stroke: #ffffff; stroke-width: 0.619677"/>
     <use xlink:href="#mf1ba0cacb8" x="438.75" y="200.6976" style="stroke: #ffffff; stroke-width: 0.619677"/>
     <use xlink:href="#mf1ba0cacb8" x="578.25" y="339.6672" style="stroke: #ffffff; stroke-width: 0.619677"/>
     <use xlink:href="#mf1ba0cacb8" x="485.25" y="236.1792" style="stroke: #ffffff; stroke-width: 0.619677"/>
     <use xlink:href="#mf1ba0cacb8" x="531.75" y="284.9664" style="stroke: #ffffff; stroke-width: 0.619677"/>
     <use xlink:href="#mf1ba0cacb8" x="299.25" y="267.2256" style="stroke: #ffffff; stroke-width: 0.619677"/>
     <use xlink:href="#mf1ba0cacb8" x="345.75" y="225.8304" style="stroke: #ffffff; stroke-width: 0.619677"/>
     <use xlink:href="#mf1ba0cacb8" x="624.75" y="410.6304" style="stroke: #ffffff; stroke-width: 0.619677"/>
     <use xlink:href="#mf1ba0cacb8" x="206.25" y="351.4944" style="stroke: #ffffff; stroke-width: 0.619677"/>
     <use xlink:href="#mf1ba0cacb8" x="252.75" y="330.7968" style="stroke: #ffffff; stroke-width: 0.619677"/>
    </g>
   </g>
   <g id="patch_15">
    <path d="M 90 512.64 
L 90 69.12 
" style="fill: none; stroke: #ffffff; stroke-linejoin: miter; stroke-linecap: square"/>
   </g>
   <g id="patch_16">
    <path d="M 648 512.64 
L 648 69.12 
" style="fill: none; stroke: #ffffff; stroke-linejoin: miter; stroke-linecap: square"/>
   </g>
   <g id="patch_17">
    <path d="M 90 512.64 
L 648 512.64 
" style="fill: none; stroke: #ffffff; stroke-linejoin: miter; stroke-linecap: square"/>
   </g>
   <g id="patch_18">
    <path d="M 90 69.12 
L 648 69.12 
" style="fill: none; stroke: #ffffff; stroke-linejoin: miter; stroke-linecap: square"/>
   </g>
   <g id="patch_19">
    <path d="M 392.25 212.752239 
Q 392.25 204.766111 392.25 196.779984 
" style="fill: none; stroke: #000000; stroke-width: 0.5; stroke-linecap: round"/>
   </g>
   <g id="text_21">
    <!-- 1962 -->
    <g transform="translate(379.525 224.352) scale(0.1 -0.1)">
     <defs>
      <path id="DejaVuSans-39" d="M 703 97 
L 703 672 
Q 941 559 1184 500 
Q 1428 441 1663 441 
Q 2288 441 2617 861 
Q 2947 1281 2994 2138 
Q 2813 1869 2534 1725 
Q 2256 1581 1919 1581 
Q 1219 1581 811 2004 
Q 403 2428 403 3163 
Q 403 3881 828 4315 
Q 1253 4750 1959 4750 
Q 2769 4750 3195 4129 
Q 3622 3509 3622 2328 
Q 3622 1225 3098 567 
Q 2575 -91 1691 -91 
Q 1453 -91 1209 -44 
Q 966 3 703 97 
z
M 1959 2075 
Q 2384 2075 2632 2365 
Q 2881 2656 2881 3163 
Q 2881 3666 2632 3958 
Q 2384 4250 1959 4250 
Q 1534 4250 1286 3958 
Q 1038 3666 1038 3163 
Q 1038 2656 1286 2365 
Q 1534 2075 1959 2075 
z
" transform="scale(0.015625)"/>
      <path id="DejaVuSans-36" d="M 2113 2584 
Q 1688 2584 1439 2293 
Q 1191 2003 1191 1497 
Q 1191 994 1439 701 
Q 1688 409 2113 409 
Q 2538 409 2786 701 
Q 3034 994 3034 1497 
Q 3034 2003 2786 2293 
Q 2538 2584 2113 2584 
z
M 3366 4563 
L 3366 3988 
Q 3128 4100 2886 4159 
Q 2644 4219 2406 4219 
Q 1781 4219 1451 3797 
Q 1122 3375 1075 2522 
Q 1259 2794 1537 2939 
Q 1816 3084 2150 3084 
Q 2853 3084 3261 2657 
Q 3669 2231 3669 1497 
Q 3669 778 3244 343 
Q 2819 -91 2113 -91 
Q 1303 -91 875 529 
Q 447 1150 447 2328 
Q 447 3434 972 4092 
Q 1497 4750 2381 4750 
Q 2619 4750 2861 4703 
Q 3103 4656 3366 4563 
z
" transform="scale(0.015625)"/>
      <path id="DejaVuSans-32" d="M 1228 531 
L 3431 531 
L 3431 0 
L 469 0 
L 469 531 
Q 828 903 1448 1529 
Q 2069 2156 2228 2338 
Q 2531 2678 2651 2914 
Q 2772 3150 2772 3378 
Q 2772 3750 2511 3984 
Q 2250 4219 1831 4219 
Q 1534 4219 1204 4116 
Q 875 4013 500 3803 
L 500 4441 
Q 881 4594 1212 4672 
Q 1544 4750 1819 4750 
Q 2544 4750 2975 4387 
Q 3406 4025 3406 3419 
Q 3406 3131 3298 2873 
Q 3191 2616 2906 2266 
Q 2828 2175 2409 1742 
Q 1991 1309 1228 531 
z
" transform="scale(0.015625)"/>
     </defs>
     <use xlink:href="#DejaVuSans-31"/>
     <use xlink:href="#DejaVuSans-39" x="63.623047"/>
     <use xlink:href="#DejaVuSans-36" x="127.246094"/>
     <use xlink:href="#DejaVuSans-32" x="190.869141"/>
    </g>
   </g>
   <g id="patch_20">
    <path d="M 113.25 435.990639 
Q 113.25 428.004511 113.25 420.018384 
" style="fill: none; stroke: #000000; stroke-width: 0.5; stroke-linecap: round"/>
   </g>
   <g id="text_22">
    <!-- 1963 -->
    <g transform="translate(100.525 447.5904) scale(0.1 -0.1)">
     <defs>
      <path id="DejaVuSans-33" d="M 2597 2516 
Q 3050 2419 3304 2112 
Q 3559 1806 3559 1356 
Q 3559 666 3084 287 
Q 2609 -91 1734 -91 
Q 1441 -91 1130 -33 
Q 819 25 488 141 
L 488 750 
Q 750 597 1062 519 
Q 1375 441 1716 441 
Q 2309 441 2620 675 
Q 2931 909 2931 1356 
Q 2931 1769 2642 2001 
Q 2353 2234 1838 2234 
L 1294 2234 
L 1294 2753 
L 1863 2753 
Q 2328 2753 2575 2939 
Q 2822 3125 2822 3475 
Q 2822 3834 2567 4026 
Q 2313 4219 1838 4219 
Q 1578 4219 1281 4162 
Q 984 4106 628 3988 
L 628 4550 
Q 988 4650 1302 4700 
Q 1616 4750 1894 4750 
Q 2613 4750 3031 4423 
Q 3450 4097 3450 3541 
Q 3450 3153 3228 2886 
Q 3006 2619 2597 2516 
z
" transform="scale(0.015625)"/>
     </defs>
     <use xlink:href="#DejaVuSans-31"/>
     <use xlink:href="#DejaVuSans-39" x="63.623047"/>
     <use xlink:href="#DejaVuSans-36" x="127.246094"/>
     <use xlink:href="#DejaVuSans-33" x="190.869141"/>
    </g>
   </g>
   <g id="patch_21">
    <path d="M 159.75 435.990639 
Q 159.75 428.004511 159.75 420.018384 
" style="fill: none; stroke: #000000; stroke-width: 0.5; stroke-linecap: round"/>
   </g>
   <g id="text_23">
    <!-- 1963 -->
    <g transform="translate(147.025 447.5904) scale(0.1 -0.1)">
     <use xlink:href="#DejaVuSans-31"/>
     <use xlink:href="#DejaVuSans-39" x="63.623047"/>
     <use xlink:href="#DejaVuSans-36" x="127.246094"/>
     <use xlink:href="#DejaVuSans-33" x="190.869141"/>
    </g>
   </g>
   <g id="patch_22">
    <path d="M 438.75 218.665839 
Q 438.75 210.679711 438.75 202.693584 
" style="fill: none; stroke: #000000; stroke-width: 0.5; stroke-linecap: round"/>
   </g>
   <g id="text_24">
    <!-- 1966 -->
    <g transform="translate(426.025 230.2656) scale(0.1 -0.1)">
     <use xlink:href="#DejaVuSans-31"/>
     <use xlink:href="#DejaVuSans-39" x="63.623047"/>
     <use xlink:href="#DejaVuSans-36" x="127.246094"/>
     <use xlink:href="#DejaVuSans-36" x="190.869141"/>
    </g>
   </g>
   <g id="patch_23">
    <path d="M 578.25 357.635439 
Q 578.25 349.649311 578.25 341.663184 
" style="fill: none; stroke: #000000; stroke-width: 0.5; stroke-linecap: round"/>
   </g>
   <g id="text_25">
    <!-- 1969 -->
    <g transform="translate(565.525 369.2352) scale(0.1 -0.1)">
     <use xlink:href="#DejaVuSans-31"/>
     <use xlink:href="#DejaVuSans-39" x="63.623047"/>
     <use xlink:href="#DejaVuSans-36" x="127.246094"/>
     <use xlink:href="#DejaVuSans-39" x="190.869141"/>
    </g>
   </g>
   <g id="patch_24">
    <path d="M 485.25 254.147439 
Q 485.25 246.161311 485.25 238.175184 
" style="fill: none; stroke: #000000; stroke-width: 0.5; stroke-linecap: round"/>
   </g>
   <g id="text_26">
    <!-- 1972 -->
    <g transform="translate(472.525 265.7472) scale(0.1 -0.1)">
     <defs>
      <path id="DejaVuSans-37" d="M 525 4666 
L 3525 4666 
L 3525 4397 
L 1831 0 
L 1172 0 
L 2766 4134 
L 525 4134 
L 525 4666 
z
" transform="scale(0.015625)"/>
     </defs>
     <use xlink:href="#DejaVuSans-31"/>
     <use xlink:href="#DejaVuSans-39" x="63.623047"/>
     <use xlink:href="#DejaVuSans-37" x="127.246094"/>
     <use xlink:href="#DejaVuSans-32" x="190.869141"/>
    </g>
   </g>
   <g id="patch_25">
    <path d="M 531.75 302.934639 
Q 531.75 294.948511 531.75 286.962384 
" style="fill: none; stroke: #000000; stroke-width: 0.5; stroke-linecap: round"/>
   </g>
   <g id="text_27">
    <!-- 1981 -->
    <g transform="translate(519.025 314.5344) scale(0.1 -0.1)">
     <defs>
      <path id="DejaVuSans-38" d="M 2034 2216 
Q 1584 2216 1326 1975 
Q 1069 1734 1069 1313 
Q 1069 891 1326 650 
Q 1584 409 2034 409 
Q 2484 409 2743 651 
Q 3003 894 3003 1313 
Q 3003 1734 2745 1975 
Q 2488 2216 2034 2216 
z
M 1403 2484 
Q 997 2584 770 2862 
Q 544 3141 544 3541 
Q 544 4100 942 4425 
Q 1341 4750 2034 4750 
Q 2731 4750 3128 4425 
Q 3525 4100 3525 3541 
Q 3525 3141 3298 2862 
Q 3072 2584 2669 2484 
Q 3125 2378 3379 2068 
Q 3634 1759 3634 1313 
Q 3634 634 3220 271 
Q 2806 -91 2034 -91 
Q 1263 -91 848 271 
Q 434 634 434 1313 
Q 434 1759 690 2068 
Q 947 2378 1403 2484 
z
M 1172 3481 
Q 1172 3119 1398 2916 
Q 1625 2713 2034 2713 
Q 2441 2713 2670 2916 
Q 2900 3119 2900 3481 
Q 2900 3844 2670 4047 
Q 2441 4250 2034 4250 
Q 1625 4250 1398 4047 
Q 1172 3844 1172 3481 
z
" transform="scale(0.015625)"/>
     </defs>
     <use xlink:href="#DejaVuSans-31"/>
     <use xlink:href="#DejaVuSans-39" x="63.623047"/>
     <use xlink:href="#DejaVuSans-38" x="127.246094"/>
     <use xlink:href="#DejaVuSans-31" x="190.869141"/>
    </g>
   </g>
   <g id="patch_26">
    <path d="M 299.25 285.193839 
Q 299.25 277.207711 299.25 269.221584 
" style="fill: none; stroke: #000000; stroke-width: 0.5; stroke-linecap: round"/>
   </g>
   <g id="text_28">
    <!-- 1982 -->
    <g transform="translate(286.525 296.7936) scale(0.1 -0.1)">
     <use xlink:href="#DejaVuSans-31"/>
     <use xlink:href="#DejaVuSans-39" x="63.623047"/>
     <use xlink:href="#DejaVuSans-38" x="127.246094"/>
     <use xlink:href="#DejaVuSans-32" x="190.869141"/>
    </g>
   </g>
   <g id="patch_27">
    <path d="M 345.75 243.798639 
Q 345.75 235.812511 345.75 227.826384 
" style="fill: none; stroke: #000000; stroke-width: 0.5; stroke-linecap: round"/>
   </g>
   <g id="text_29">
    <!-- 1985 -->
    <g transform="translate(333.025 255.3984) scale(0.1 -0.1)">
     <use xlink:href="#DejaVuSans-31"/>
     <use xlink:href="#DejaVuSans-39" x="63.623047"/>
     <use xlink:href="#DejaVuSans-38" x="127.246094"/>
     <use xlink:href="#DejaVuSans-35" x="190.869141"/>
    </g>
   </g>
   <g id="patch_28">
    <path d="M 624.75 428.598639 
Q 624.75 420.612511 624.75 412.626384 
" style="fill: none; stroke: #000000; stroke-width: 0.5; stroke-linecap: round"/>
   </g>
   <g id="text_30">
    <!-- 2010 -->
    <g transform="translate(612.025 440.1984) scale(0.1 -0.1)">
     <use xlink:href="#DejaVuSans-32"/>
     <use xlink:href="#DejaVuSans-30" x="63.623047"/>
     <use xlink:href="#DejaVuSans-31" x="127.246094"/>
     <use xlink:href="#DejaVuSans-30" x="190.869141"/>
    </g>
   </g>
   <g id="patch_29">
    <path d="M 252.75 348.765039 
Q 252.75 340.778911 252.75 332.792784 
" style="fill: none; stroke: #000000; stroke-width: 0.5; stroke-linecap: round"/>
   </g>
   <g id="text_31">
    <!-- 2021 -->
    <g transform="translate(240.025 360.3648) scale(0.1 -0.1)">
     <use xlink:href="#DejaVuSans-32"/>
     <use xlink:href="#DejaVuSans-30" x="63.623047"/>
     <use xlink:href="#DejaVuSans-32" x="127.246094"/>
     <use xlink:href="#DejaVuSans-31" x="190.869141"/>
    </g>
   </g>
   <g id="patch_30">
    <path d="M 197.627448 369.660119 
Q 201.510333 361.47978 205.393218 353.299441 
" style="fill: none; stroke: #000000; stroke-width: 0.5; stroke-linecap: round"/>
   </g>
   <g id="text_32">
    <!-- 1962 -->
    <g transform="translate(180.8 381.0624) scale(0.1 -0.1)">
     <use xlink:href="#DejaVuSans-31"/>
     <use xlink:href="#DejaVuSans-39" x="63.623047"/>
     <use xlink:href="#DejaVuSans-36" x="127.246094"/>
     <use xlink:href="#DejaVuSans-32" x="190.869141"/>
    </g>
   </g>
   <g id="patch_31">
    <path d="M 216.296544 384.33229 
Q 211.565765 368.86938 206.834986 353.406469 
" style="fill: none; stroke: #000000; stroke-width: 0.5; stroke-linecap: round"/>
   </g>
   <g id="text_33">
    <!-- 2013 -->
    <g transform="translate(206.25 395.8464) scale(0.1 -0.1)">
     <use xlink:href="#DejaVuSans-32"/>
     <use xlink:href="#DejaVuSans-30" x="63.623047"/>
     <use xlink:href="#DejaVuSans-31" x="127.246094"/>
     <use xlink:href="#DejaVuSans-33" x="190.869141"/>
    </g>
   </g>
   <g id="text_34">
    <!-- Braemar Monthly Min Temperature Boxplots 1959 - 2023 -->
    <g transform="translate(164.469375 63.12) scale(0.144 -0.144)">
     <defs>
      <path id="DejaVuSans-42" d="M 1259 2228 
L 1259 519 
L 2272 519 
Q 2781 519 3026 730 
Q 3272 941 3272 1375 
Q 3272 1813 3026 2020 
Q 2781 2228 2272 2228 
L 1259 2228 
z
M 1259 4147 
L 1259 2741 
L 2194 2741 
Q 2656 2741 2882 2914 
Q 3109 3088 3109 3444 
Q 3109 3797 2882 3972 
Q 2656 4147 2194 4147 
L 1259 4147 
z
M 628 4666 
L 2241 4666 
Q 2963 4666 3353 4366 
Q 3744 4066 3744 3513 
Q 3744 3084 3544 2831 
Q 3344 2578 2956 2516 
Q 3422 2416 3680 2098 
Q 3938 1781 3938 1306 
Q 3938 681 3513 340 
Q 3088 0 2303 0 
L 628 0 
L 628 4666 
z
" transform="scale(0.015625)"/>
      <path id="DejaVuSans-68" d="M 3513 2113 
L 3513 0 
L 2938 0 
L 2938 2094 
Q 2938 2591 2744 2837 
Q 2550 3084 2163 3084 
Q 1697 3084 1428 2787 
Q 1159 2491 1159 1978 
L 1159 0 
L 581 0 
L 581 4863 
L 1159 4863 
L 1159 2956 
Q 1366 3272 1645 3428 
Q 1925 3584 2291 3584 
Q 2894 3584 3203 3211 
Q 3513 2838 3513 2113 
z
" transform="scale(0.015625)"/>
      <path id="DejaVuSans-69" d="M 603 3500 
L 1178 3500 
L 1178 0 
L 603 0 
L 603 3500 
z
M 603 4863 
L 1178 4863 
L 1178 4134 
L 603 4134 
L 603 4863 
z
" transform="scale(0.015625)"/>
      <path id="DejaVuSans-78" d="M 3513 3500 
L 2247 1797 
L 3578 0 
L 2900 0 
L 1881 1375 
L 863 0 
L 184 0 
L 1544 1831 
L 300 3500 
L 978 3500 
L 1906 2253 
L 2834 3500 
L 3513 3500 
z
" transform="scale(0.015625)"/>
      <path id="DejaVuSans-73" d="M 2834 3397 
L 2834 2853 
Q 2591 2978 2328 3040 
Q 2066 3103 1784 3103 
Q 1356 3103 1142 2972 
Q 928 2841 928 2578 
Q 928 2378 1081 2264 
Q 1234 2150 1697 2047 
L 1894 2003 
Q 2506 1872 2764 1633 
Q 3022 1394 3022 966 
Q 3022 478 2636 193 
Q 2250 -91 1575 -91 
Q 1294 -91 989 -36 
Q 684 19 347 128 
L 347 722 
Q 666 556 975 473 
Q 1284 391 1588 391 
Q 1994 391 2212 530 
Q 2431 669 2431 922 
Q 2431 1156 2273 1281 
Q 2116 1406 1581 1522 
L 1381 1569 
Q 847 1681 609 1914 
Q 372 2147 372 2553 
Q 372 3047 722 3315 
Q 1072 3584 1716 3584 
Q 2034 3584 2315 3537 
Q 2597 3491 2834 3397 
z
" transform="scale(0.015625)"/>
      <path id="DejaVuSans-2d" d="M 313 2009 
L 1997 2009 
L 1997 1497 
L 313 1497 
L 313 2009 
z
" transform="scale(0.015625)"/>
     </defs>
     <use xlink:href="#DejaVuSans-42"/>
     <use xlink:href="#DejaVuSans-72" x="68.603516"/>
     <use xlink:href="#DejaVuSans-61" x="109.716797"/>
     <use xlink:href="#DejaVuSans-65" x="170.996094"/>
     <use xlink:href="#DejaVuSans-6d" x="232.519531"/>
     <use xlink:href="#DejaVuSans-61" x="329.931641"/>
     <use xlink:href="#DejaVuSans-72" x="391.210938"/>
     <use xlink:href="#DejaVuSans-20" x="432.324219"/>
     <use xlink:href="#DejaVuSans-4d" x="464.111328"/>
     <use xlink:href="#DejaVuSans-6f" x="550.390625"/>
     <use xlink:href="#DejaVuSans-6e" x="611.572266"/>
     <use xlink:href="#DejaVuSans-74" x="674.951172"/>
     <use xlink:href="#DejaVuSans-68" x="714.160156"/>
     <use xlink:href="#DejaVuSans-6c" x="777.539062"/>
     <use xlink:href="#DejaVuSans-79" x="805.322266"/>
     <use xlink:href="#DejaVuSans-20" x="864.501953"/>
     <use xlink:href="#DejaVuSans-4d" x="896.289062"/>
     <use xlink:href="#DejaVuSans-69" x="982.568359"/>
     <use xlink:href="#DejaVuSans-6e" x="1010.351562"/>
     <use xlink:href="#DejaVuSans-20" x="1073.730469"/>
     <use xlink:href="#DejaVuSans-54" x="1105.517578"/>
     <use xlink:href="#DejaVuSans-65" x="1149.601562"/>
     <use xlink:href="#DejaVuSans-6d" x="1211.125"/>
     <use xlink:href="#DejaVuSans-70" x="1308.537109"/>
     <use xlink:href="#DejaVuSans-65" x="1372.013672"/>
     <use xlink:href="#DejaVuSans-72" x="1433.537109"/>
     <use xlink:href="#DejaVuSans-61" x="1474.650391"/>
     <use xlink:href="#DejaVuSans-74" x="1535.929688"/>
     <use xlink:href="#DejaVuSans-75" x="1575.138672"/>
     <use xlink:href="#DejaVuSans-72" x="1638.517578"/>
     <use xlink:href="#DejaVuSans-65" x="1677.380859"/>
     <use xlink:href="#DejaVuSans-20" x="1738.904297"/>
     <use xlink:href="#DejaVuSans-42" x="1770.691406"/>
     <use xlink:href="#DejaVuSans-6f" x="1839.294922"/>
     <use xlink:href="#DejaVuSans-78" x="1897.351562"/>
     <use xlink:href="#DejaVuSans-70" x="1956.53125"/>
     <use xlink:href="#DejaVuSans-6c" x="2020.007812"/>
     <use xlink:href="#DejaVuSans-6f" x="2047.791016"/>
     <use xlink:href="#DejaVuSans-74" x="2108.972656"/>
     <use xlink:href="#DejaVuSans-73" x="2148.181641"/>
     <use xlink:href="#DejaVuSans-20" x="2200.28125"/>
     <use xlink:href="#DejaVuSans-31" x="2232.068359"/>
     <use xlink:href="#DejaVuSans-39" x="2295.691406"/>
     <use xlink:href="#DejaVuSans-35" x="2359.314453"/>
     <use xlink:href="#DejaVuSans-39" x="2422.9375"/>
     <use xlink:href="#DejaVuSans-20" x="2486.560547"/>
     <use xlink:href="#DejaVuSans-2d" x="2518.347656"/>
     <use xlink:href="#DejaVuSans-20" x="2554.431641"/>
     <use xlink:href="#DejaVuSans-32" x="2586.21875"/>
     <use xlink:href="#DejaVuSans-30" x="2649.841797"/>
     <use xlink:href="#DejaVuSans-32" x="2713.464844"/>
     <use xlink:href="#DejaVuSans-33" x="2777.087891"/>
    </g>
   </g>
   <g id="legend_1">
    <g id="patch_32">
     <path d="M 547.301563 161.708438 
L 641 161.708438 
Q 643 161.708438 643 159.708438 
L 643 76.12 
Q 643 74.12 641 74.12 
L 547.301563 74.12 
Q 545.301563 74.12 545.301563 76.12 
L 545.301563 159.708438 
Q 545.301563 161.708438 547.301563 161.708438 
z
" style="fill: #e5e5e5; opacity: 0.8; stroke: #cccccc; stroke-width: 0.5; stroke-linejoin: miter"/>
    </g>
    <g id="PathCollection_7">
     <defs>
      <path id="m54b1d5aaa2" d="M 0 3 
C 0.795609 3 1.55874 2.683901 2.12132 2.12132 
C 2.683901 1.55874 3 0.795609 3 0 
C 3 -0.795609 2.683901 -1.55874 2.12132 -2.12132 
C 1.55874 -2.683901 0.795609 -3 0 -3 
C -0.795609 -3 -1.55874 -2.683901 -2.12132 -2.12132 
C -2.683901 -1.55874 -3 -0.795609 -3 0 
C -3 0.795609 -2.683901 1.55874 -2.12132 2.12132 
C -1.55874 2.683901 -0.795609 3 0 3 
z
" style="stroke: #66c2a5; stroke-width: 0.5"/>
     </defs>
     <g>
      <use xlink:href="#m54b1d5aaa2" x="559.301563" y="83.093438" style="fill: #66c2a5; stroke: #66c2a5; stroke-width: 0.5"/>
     </g>
    </g>
    <g id="text_35">
     <!-- 2019 -->
     <g transform="translate(577.301563 85.718438) scale(0.1 -0.1)">
      <use xlink:href="#DejaVuSans-32"/>
      <use xlink:href="#DejaVuSans-30" x="63.623047"/>
      <use xlink:href="#DejaVuSans-31" x="127.246094"/>
      <use xlink:href="#DejaVuSans-39" x="190.869141"/>
     </g>
    </g>
    <g id="PathCollection_8">
     <defs>
      <path id="m5b61387a15" d="M -1.5 3 
L 0 1.5 
L 1.5 3 
L 3 1.5 
L 1.5 0 
L 3 -1.5 
L 1.5 -3 
L 0 -1.5 
L -1.5 -3 
L -3 -1.5 
L -1.5 0 
L -3 1.5 
z
" style="stroke: #fc8d62; stroke-width: 0.5"/>
     </defs>
     <g>
      <use xlink:href="#m5b61387a15" x="559.301563" y="97.771563" style="fill: #fc8d62; stroke: #fc8d62; stroke-width: 0.5"/>
     </g>
    </g>
    <g id="text_36">
     <!-- 2020 -->
     <g transform="translate(577.301563 100.396563) scale(0.1 -0.1)">
      <use xlink:href="#DejaVuSans-32"/>
      <use xlink:href="#DejaVuSans-30" x="63.623047"/>
      <use xlink:href="#DejaVuSans-32" x="127.246094"/>
      <use xlink:href="#DejaVuSans-30" x="190.869141"/>
     </g>
    </g>
    <g id="PathCollection_9">
     <defs>
      <path id="m7c7011dc9f" d="M -2.12132 -2.12132 
L -2.12132 2.12132 
L 2.12132 2.12132 
L 2.12132 -2.12132 
z
" style="stroke: #8da0cb; stroke-width: 0.5"/>
     </defs>
     <g>
      <use xlink:href="#m7c7011dc9f" x="559.301563" y="112.449688" style="fill: #8da0cb; stroke: #8da0cb; stroke-width: 0.5"/>
     </g>
    </g>
    <g id="text_37">
     <!-- 2021 -->
     <g transform="translate(577.301563 115.074688) scale(0.1 -0.1)">
      <use xlink:href="#DejaVuSans-32"/>
      <use xlink:href="#DejaVuSans-30" x="63.623047"/>
      <use xlink:href="#DejaVuSans-32" x="127.246094"/>
      <use xlink:href="#DejaVuSans-31" x="190.869141"/>
     </g>
    </g>
    <g id="PathCollection_10">
     <defs>
      <path id="m2a7c41a0b4" d="M -1 3 
L 1 3 
L 1 1 
L 3 1 
L 3 -1 
L 1 -1 
L 1 -3 
L -1 -3 
L -1 -1 
L -3 -1 
L -3 1 
L -1 1 
z
" style="stroke: #e78ac3; stroke-width: 0.5"/>
     </defs>
     <g>
      <use xlink:href="#m2a7c41a0b4" x="559.301563" y="127.127813" style="fill: #e78ac3; stroke: #e78ac3; stroke-width: 0.5"/>
     </g>
    </g>
    <g id="text_38">
     <!-- 2022 -->
     <g transform="translate(577.301563 129.752813) scale(0.1 -0.1)">
      <use xlink:href="#DejaVuSans-32"/>
      <use xlink:href="#DejaVuSans-30" x="63.623047"/>
      <use xlink:href="#DejaVuSans-32" x="127.246094"/>
      <use xlink:href="#DejaVuSans-32" x="190.869141"/>
     </g>
    </g>
    <g id="PathCollection_11">
     <g>
      <use xlink:href="#mf1ba0cacb8" x="559.301563" y="148.444688" style="stroke: #ffffff; stroke-width: 0.619677"/>
     </g>
    </g>
    <g id="text_39">
     <!-- Year of -->
     <g transform="translate(577.301563 144.430938) scale(0.1 -0.1)">
      <defs>
       <path id="DejaVuSans-59" d="M -13 4666 
L 666 4666 
L 1959 2747 
L 3244 4666 
L 3922 4666 
L 2272 2222 
L 2272 0 
L 1638 0 
L 1638 2222 
L -13 4666 
z
" transform="scale(0.015625)"/>
       <path id="DejaVuSans-66" d="M 2375 4863 
L 2375 4384 
L 1825 4384 
Q 1516 4384 1395 4259 
Q 1275 4134 1275 3809 
L 1275 3500 
L 2222 3500 
L 2222 3053 
L 1275 3053 
L 1275 0 
L 697 0 
L 697 3053 
L 147 3053 
L 147 3500 
L 697 3500 
L 697 3744 
Q 697 4328 969 4595 
Q 1241 4863 1831 4863 
L 2375 4863 
z
" transform="scale(0.015625)"/>
      </defs>
      <use xlink:href="#DejaVuSans-59"/>
      <use xlink:href="#DejaVuSans-65" x="47.833984"/>
      <use xlink:href="#DejaVuSans-61" x="109.357422"/>
      <use xlink:href="#DejaVuSans-72" x="170.636719"/>
      <use xlink:href="#DejaVuSans-20" x="211.75"/>
      <use xlink:href="#DejaVuSans-6f" x="243.537109"/>
      <use xlink:href="#DejaVuSans-66" x="304.71875"/>
     </g>
     <!-- lowest temp -->
     <g transform="translate(577.301563 155.62875) scale(0.1 -0.1)">
      <defs>
       <path id="DejaVuSans-77" d="M 269 3500 
L 844 3500 
L 1563 769 
L 2278 3500 
L 2956 3500 
L 3675 769 
L 4391 3500 
L 4966 3500 
L 4050 0 
L 3372 0 
L 2619 2869 
L 1863 0 
L 1184 0 
L 269 3500 
z
" transform="scale(0.015625)"/>
      </defs>
      <use xlink:href="#DejaVuSans-6c"/>
      <use xlink:href="#DejaVuSans-6f" x="27.783203"/>
      <use xlink:href="#DejaVuSans-77" x="88.964844"/>
      <use xlink:href="#DejaVuSans-65" x="170.751953"/>
      <use xlink:href="#DejaVuSans-73" x="232.275391"/>
      <use xlink:href="#DejaVuSans-74" x="284.375"/>
      <use xlink:href="#DejaVuSans-20" x="323.583984"/>
      <use xlink:href="#DejaVuSans-74" x="355.371094"/>
      <use xlink:href="#DejaVuSans-65" x="394.580078"/>
      <use xlink:href="#DejaVuSans-6d" x="456.103516"/>
      <use xlink:href="#DejaVuSans-70" x="553.515625"/>
     </g>
    </g>
   </g>
  </g>
 </g>
 <defs>
  <clipPath id="p9eb897427d">
   <rect x="90" y="69.12" width="558" height="443.52"/>
  </clipPath>
 </defs>
</svg>
