<?xml version="1.0" encoding="utf-8" standalone="no"?>
<!DOCTYPE svg PUBLIC "-//W3C//DTD SVG 1.1//EN"
  "http://www.w3.org/Graphics/SVG/1.1/DTD/svg11.dtd">
<svg xmlns:xlink="http://www.w3.org/1999/xlink" width="720pt" height="432pt" viewBox="0 0 720 432" xmlns="http://www.w3.org/2000/svg" version="1.1">
 <metadata>
  <rdf:RDF xmlns:dc="http://purl.org/dc/elements/1.1/" xmlns:cc="http://creativecommons.org/ns#" xmlns:rdf="http://www.w3.org/1999/02/22-rdf-syntax-ns#">
   <cc:Work>
    <dc:type rdf:resource="http://purl.org/dc/dcmitype/StillImage"/>
    <dc:date>2023-04-11T20:50:37.926237</dc:date>
    <dc:format>image/svg+xml</dc:format>
    <dc:creator>
     <cc:Agent>
      <dc:title>Matplotlib v3.7.1, https://matplotlib.org/</dc:title>
     </cc:Agent>
    </dc:creator>
   </cc:Work>
  </rdf:RDF>
 </metadata>
 <defs>
  <style type="text/css">*{stroke-linejoin: round; stroke-linecap: butt}</style>
 </defs>
 <g id="figure_1">
  <g id="patch_1">
   <path d="M 0 432 
L 720 432 
L 720 0 
L 0 0 
z
" style="fill: #ffffff"/>
  </g>
  <g id="axes_1">
   <g id="patch_2">
    <path d="M 53.75 404.12 
L 709.2 404.12 
L 709.2 27.6 
L 53.75 27.6 
z
" style="fill: #e5e5e5"/>
   </g>
   <g id="matplotlib.axis_1">
    <g id="xtick_1">
     <g id="line2d_1">
      <path d="M 83.543182 404.12 
L 83.543182 27.6 
" clip-path="url(#p441e121ae5)" style="fill: none; stroke: #ffffff; stroke-width: 0.8; stroke-linecap: square"/>
     </g>
     <g id="line2d_2">
      <defs>
       <path id="m88e569e0ea" d="M 0 0 
L 0 3.5 
" style="stroke: #555555; stroke-width: 0.8"/>
      </defs>
      <g>
       <use xlink:href="#m88e569e0ea" x="83.543182" y="404.12" style="fill: #555555; stroke: #555555; stroke-width: 0.8"/>
      </g>
     </g>
     <g id="text_1">
      <!-- Jan -->
      <g style="fill: #555555" transform="translate(75.835369 418.718437) scale(0.1 -0.1)">
       <defs>
        <path id="DejaVuSans-4a" d="M 628 4666 
L 1259 4666 
L 1259 325 
Q 1259 -519 939 -900 
Q 619 -1281 -91 -1281 
L -331 -1281 
L -331 -750 
L -134 -750 
Q 284 -750 456 -515 
Q 628 -281 628 325 
L 628 4666 
z
" transform="scale(0.015625)"/>
        <path id="DejaVuSans-61" d="M 2194 1759 
Q 1497 1759 1228 1600 
Q 959 1441 959 1056 
Q 959 750 1161 570 
Q 1363 391 1709 391 
Q 2188 391 2477 730 
Q 2766 1069 2766 1631 
L 2766 1759 
L 2194 1759 
z
M 3341 1997 
L 3341 0 
L 2766 0 
L 2766 531 
Q 2569 213 2275 61 
Q 1981 -91 1556 -91 
Q 1019 -91 701 211 
Q 384 513 384 1019 
Q 384 1609 779 1909 
Q 1175 2209 1959 2209 
L 2766 2209 
L 2766 2266 
Q 2766 2663 2505 2880 
Q 2244 3097 1772 3097 
Q 1472 3097 1187 3025 
Q 903 2953 641 2809 
L 641 3341 
Q 956 3463 1253 3523 
Q 1550 3584 1831 3584 
Q 2591 3584 2966 3190 
Q 3341 2797 3341 1997 
z
" transform="scale(0.015625)"/>
        <path id="DejaVuSans-6e" d="M 3513 2113 
L 3513 0 
L 2938 0 
L 2938 2094 
Q 2938 2591 2744 2837 
Q 2550 3084 2163 3084 
Q 1697 3084 1428 2787 
Q 1159 2491 1159 1978 
L 1159 0 
L 581 0 
L 581 3500 
L 1159 3500 
L 1159 2956 
Q 1366 3272 1645 3428 
Q 1925 3584 2291 3584 
Q 2894 3584 3203 3211 
Q 3513 2838 3513 2113 
z
" transform="scale(0.015625)"/>
       </defs>
       <use xlink:href="#DejaVuSans-4a"/>
       <use xlink:href="#DejaVuSans-61" x="29.492188"/>
       <use xlink:href="#DejaVuSans-6e" x="90.771484"/>
      </g>
     </g>
    </g>
    <g id="xtick_2">
     <g id="line2d_3">
      <path d="M 137.712603 404.12 
L 137.712603 27.6 
" clip-path="url(#p441e121ae5)" style="fill: none; stroke: #ffffff; stroke-width: 0.8; stroke-linecap: square"/>
     </g>
     <g id="line2d_4">
      <g>
       <use xlink:href="#m88e569e0ea" x="137.712603" y="404.12" style="fill: #555555; stroke: #555555; stroke-width: 0.8"/>
      </g>
     </g>
     <g id="text_2">
      <!-- Feb -->
      <g style="fill: #555555" transform="translate(128.861041 418.718437) scale(0.1 -0.1)">
       <defs>
        <path id="DejaVuSans-46" d="M 628 4666 
L 3309 4666 
L 3309 4134 
L 1259 4134 
L 1259 2759 
L 3109 2759 
L 3109 2228 
L 1259 2228 
L 1259 0 
L 628 0 
L 628 4666 
z
" transform="scale(0.015625)"/>
        <path id="DejaVuSans-65" d="M 3597 1894 
L 3597 1613 
L 953 1613 
Q 991 1019 1311 708 
Q 1631 397 2203 397 
Q 2534 397 2845 478 
Q 3156 559 3463 722 
L 3463 178 
Q 3153 47 2828 -22 
Q 2503 -91 2169 -91 
Q 1331 -91 842 396 
Q 353 884 353 1716 
Q 353 2575 817 3079 
Q 1281 3584 2069 3584 
Q 2775 3584 3186 3129 
Q 3597 2675 3597 1894 
z
M 3022 2063 
Q 3016 2534 2758 2815 
Q 2500 3097 2075 3097 
Q 1594 3097 1305 2825 
Q 1016 2553 972 2059 
L 3022 2063 
z
" transform="scale(0.015625)"/>
        <path id="DejaVuSans-62" d="M 3116 1747 
Q 3116 2381 2855 2742 
Q 2594 3103 2138 3103 
Q 1681 3103 1420 2742 
Q 1159 2381 1159 1747 
Q 1159 1113 1420 752 
Q 1681 391 2138 391 
Q 2594 391 2855 752 
Q 3116 1113 3116 1747 
z
M 1159 2969 
Q 1341 3281 1617 3432 
Q 1894 3584 2278 3584 
Q 2916 3584 3314 3078 
Q 3713 2572 3713 1747 
Q 3713 922 3314 415 
Q 2916 -91 2278 -91 
Q 1894 -91 1617 61 
Q 1341 213 1159 525 
L 1159 0 
L 581 0 
L 581 4863 
L 1159 4863 
L 1159 2969 
z
" transform="scale(0.015625)"/>
       </defs>
       <use xlink:href="#DejaVuSans-46"/>
       <use xlink:href="#DejaVuSans-65" x="52.019531"/>
       <use xlink:href="#DejaVuSans-62" x="113.542969"/>
      </g>
     </g>
    </g>
    <g id="xtick_3">
     <g id="line2d_5">
      <path d="M 191.882025 404.12 
L 191.882025 27.6 
" clip-path="url(#p441e121ae5)" style="fill: none; stroke: #ffffff; stroke-width: 0.8; stroke-linecap: square"/>
     </g>
     <g id="line2d_6">
      <g>
       <use xlink:href="#m88e569e0ea" x="191.882025" y="404.12" style="fill: #555555; stroke: #555555; stroke-width: 0.8"/>
      </g>
     </g>
     <g id="text_3">
      <!-- Mar -->
      <g style="fill: #555555" transform="translate(182.448431 418.718437) scale(0.1 -0.1)">
       <defs>
        <path id="DejaVuSans-4d" d="M 628 4666 
L 1569 4666 
L 2759 1491 
L 3956 4666 
L 4897 4666 
L 4897 0 
L 4281 0 
L 4281 4097 
L 3078 897 
L 2444 897 
L 1241 4097 
L 1241 0 
L 628 0 
L 628 4666 
z
" transform="scale(0.015625)"/>
        <path id="DejaVuSans-72" d="M 2631 2963 
Q 2534 3019 2420 3045 
Q 2306 3072 2169 3072 
Q 1681 3072 1420 2755 
Q 1159 2438 1159 1844 
L 1159 0 
L 581 0 
L 581 3500 
L 1159 3500 
L 1159 2956 
Q 1341 3275 1631 3429 
Q 1922 3584 2338 3584 
Q 2397 3584 2469 3576 
Q 2541 3569 2628 3553 
L 2631 2963 
z
" transform="scale(0.015625)"/>
       </defs>
       <use xlink:href="#DejaVuSans-4d"/>
       <use xlink:href="#DejaVuSans-61" x="86.279297"/>
       <use xlink:href="#DejaVuSans-72" x="147.558594"/>
      </g>
     </g>
    </g>
    <g id="xtick_4">
     <g id="line2d_7">
      <path d="M 246.051446 404.12 
L 246.051446 27.6 
" clip-path="url(#p441e121ae5)" style="fill: none; stroke: #ffffff; stroke-width: 0.8; stroke-linecap: square"/>
     </g>
     <g id="line2d_8">
      <g>
       <use xlink:href="#m88e569e0ea" x="246.051446" y="404.12" style="fill: #555555; stroke: #555555; stroke-width: 0.8"/>
      </g>
     </g>
     <g id="text_4">
      <!-- Apr -->
      <g style="fill: #555555" transform="translate(237.401446 418.718437) scale(0.1 -0.1)">
       <defs>
        <path id="DejaVuSans-41" d="M 2188 4044 
L 1331 1722 
L 3047 1722 
L 2188 4044 
z
M 1831 4666 
L 2547 4666 
L 4325 0 
L 3669 0 
L 3244 1197 
L 1141 1197 
L 716 0 
L 50 0 
L 1831 4666 
z
" transform="scale(0.015625)"/>
        <path id="DejaVuSans-70" d="M 1159 525 
L 1159 -1331 
L 581 -1331 
L 581 3500 
L 1159 3500 
L 1159 2969 
Q 1341 3281 1617 3432 
Q 1894 3584 2278 3584 
Q 2916 3584 3314 3078 
Q 3713 2572 3713 1747 
Q 3713 922 3314 415 
Q 2916 -91 2278 -91 
Q 1894 -91 1617 61 
Q 1341 213 1159 525 
z
M 3116 1747 
Q 3116 2381 2855 2742 
Q 2594 3103 2138 3103 
Q 1681 3103 1420 2742 
Q 1159 2381 1159 1747 
Q 1159 1113 1420 752 
Q 1681 391 2138 391 
Q 2594 391 2855 752 
Q 3116 1113 3116 1747 
z
" transform="scale(0.015625)"/>
       </defs>
       <use xlink:href="#DejaVuSans-41"/>
       <use xlink:href="#DejaVuSans-70" x="68.408203"/>
       <use xlink:href="#DejaVuSans-72" x="131.884766"/>
      </g>
     </g>
    </g>
    <g id="xtick_5">
     <g id="line2d_9">
      <path d="M 300.220868 404.12 
L 300.220868 27.6 
" clip-path="url(#p441e121ae5)" style="fill: none; stroke: #ffffff; stroke-width: 0.8; stroke-linecap: square"/>
     </g>
     <g id="line2d_10">
      <g>
       <use xlink:href="#m88e569e0ea" x="300.220868" y="404.12" style="fill: #555555; stroke: #555555; stroke-width: 0.8"/>
      </g>
     </g>
     <g id="text_5">
      <!-- May -->
      <g style="fill: #555555" transform="translate(289.883368 418.718437) scale(0.1 -0.1)">
       <defs>
        <path id="DejaVuSans-79" d="M 2059 -325 
Q 1816 -950 1584 -1140 
Q 1353 -1331 966 -1331 
L 506 -1331 
L 506 -850 
L 844 -850 
Q 1081 -850 1212 -737 
Q 1344 -625 1503 -206 
L 1606 56 
L 191 3500 
L 800 3500 
L 1894 763 
L 2988 3500 
L 3597 3500 
L 2059 -325 
z
" transform="scale(0.015625)"/>
       </defs>
       <use xlink:href="#DejaVuSans-4d"/>
       <use xlink:href="#DejaVuSans-61" x="86.279297"/>
       <use xlink:href="#DejaVuSans-79" x="147.558594"/>
      </g>
     </g>
    </g>
    <g id="xtick_6">
     <g id="line2d_11">
      <path d="M 354.390289 404.12 
L 354.390289 27.6 
" clip-path="url(#p441e121ae5)" style="fill: none; stroke: #ffffff; stroke-width: 0.8; stroke-linecap: square"/>
     </g>
     <g id="line2d_12">
      <g>
       <use xlink:href="#m88e569e0ea" x="354.390289" y="404.12" style="fill: #555555; stroke: #555555; stroke-width: 0.8"/>
      </g>
     </g>
     <g id="text_6">
      <!-- June -->
      <g style="fill: #555555" transform="translate(343.501227 418.718437) scale(0.1 -0.1)">
       <defs>
        <path id="DejaVuSans-75" d="M 544 1381 
L 544 3500 
L 1119 3500 
L 1119 1403 
Q 1119 906 1312 657 
Q 1506 409 1894 409 
Q 2359 409 2629 706 
Q 2900 1003 2900 1516 
L 2900 3500 
L 3475 3500 
L 3475 0 
L 2900 0 
L 2900 538 
Q 2691 219 2414 64 
Q 2138 -91 1772 -91 
Q 1169 -91 856 284 
Q 544 659 544 1381 
z
M 1991 3584 
L 1991 3584 
z
" transform="scale(0.015625)"/>
       </defs>
       <use xlink:href="#DejaVuSans-4a"/>
       <use xlink:href="#DejaVuSans-75" x="29.492188"/>
       <use xlink:href="#DejaVuSans-6e" x="92.871094"/>
       <use xlink:href="#DejaVuSans-65" x="156.25"/>
      </g>
     </g>
    </g>
    <g id="xtick_7">
     <g id="line2d_13">
      <path d="M 408.559711 404.12 
L 408.559711 27.6 
" clip-path="url(#p441e121ae5)" style="fill: none; stroke: #ffffff; stroke-width: 0.8; stroke-linecap: square"/>
     </g>
     <g id="line2d_14">
      <g>
       <use xlink:href="#m88e569e0ea" x="408.559711" y="404.12" style="fill: #555555; stroke: #555555; stroke-width: 0.8"/>
      </g>
     </g>
     <g id="text_7">
      <!-- July -->
      <g style="fill: #555555" transform="translate(399.567523 418.718437) scale(0.1 -0.1)">
       <defs>
        <path id="DejaVuSans-6c" d="M 603 4863 
L 1178 4863 
L 1178 0 
L 603 0 
L 603 4863 
z
" transform="scale(0.015625)"/>
       </defs>
       <use xlink:href="#DejaVuSans-4a"/>
       <use xlink:href="#DejaVuSans-75" x="29.492188"/>
       <use xlink:href="#DejaVuSans-6c" x="92.871094"/>
       <use xlink:href="#DejaVuSans-79" x="120.654297"/>
      </g>
     </g>
    </g>
    <g id="xtick_8">
     <g id="line2d_15">
      <path d="M 462.729132 404.12 
L 462.729132 27.6 
" clip-path="url(#p441e121ae5)" style="fill: none; stroke: #ffffff; stroke-width: 0.8; stroke-linecap: square"/>
     </g>
     <g id="line2d_16">
      <g>
       <use xlink:href="#m88e569e0ea" x="462.729132" y="404.12" style="fill: #555555; stroke: #555555; stroke-width: 0.8"/>
      </g>
     </g>
     <g id="text_8">
      <!-- Aug -->
      <g style="fill: #555555" transform="translate(452.965851 418.718437) scale(0.1 -0.1)">
       <defs>
        <path id="DejaVuSans-67" d="M 2906 1791 
Q 2906 2416 2648 2759 
Q 2391 3103 1925 3103 
Q 1463 3103 1205 2759 
Q 947 2416 947 1791 
Q 947 1169 1205 825 
Q 1463 481 1925 481 
Q 2391 481 2648 825 
Q 2906 1169 2906 1791 
z
M 3481 434 
Q 3481 -459 3084 -895 
Q 2688 -1331 1869 -1331 
Q 1566 -1331 1297 -1286 
Q 1028 -1241 775 -1147 
L 775 -588 
Q 1028 -725 1275 -790 
Q 1522 -856 1778 -856 
Q 2344 -856 2625 -561 
Q 2906 -266 2906 331 
L 2906 616 
Q 2728 306 2450 153 
Q 2172 0 1784 0 
Q 1141 0 747 490 
Q 353 981 353 1791 
Q 353 2603 747 3093 
Q 1141 3584 1784 3584 
Q 2172 3584 2450 3431 
Q 2728 3278 2906 2969 
L 2906 3500 
L 3481 3500 
L 3481 434 
z
" transform="scale(0.015625)"/>
       </defs>
       <use xlink:href="#DejaVuSans-41"/>
       <use xlink:href="#DejaVuSans-75" x="68.408203"/>
       <use xlink:href="#DejaVuSans-67" x="131.787109"/>
      </g>
     </g>
    </g>
    <g id="xtick_9">
     <g id="line2d_17">
      <path d="M 516.898554 404.12 
L 516.898554 27.6 
" clip-path="url(#p441e121ae5)" style="fill: none; stroke: #ffffff; stroke-width: 0.8; stroke-linecap: square"/>
     </g>
     <g id="line2d_18">
      <g>
       <use xlink:href="#m88e569e0ea" x="516.898554" y="404.12" style="fill: #555555; stroke: #555555; stroke-width: 0.8"/>
      </g>
     </g>
     <g id="text_9">
      <!-- Sep -->
      <g style="fill: #555555" transform="translate(507.473554 418.718437) scale(0.1 -0.1)">
       <defs>
        <path id="DejaVuSans-53" d="M 3425 4513 
L 3425 3897 
Q 3066 4069 2747 4153 
Q 2428 4238 2131 4238 
Q 1616 4238 1336 4038 
Q 1056 3838 1056 3469 
Q 1056 3159 1242 3001 
Q 1428 2844 1947 2747 
L 2328 2669 
Q 3034 2534 3370 2195 
Q 3706 1856 3706 1288 
Q 3706 609 3251 259 
Q 2797 -91 1919 -91 
Q 1588 -91 1214 -16 
Q 841 59 441 206 
L 441 856 
Q 825 641 1194 531 
Q 1563 422 1919 422 
Q 2459 422 2753 634 
Q 3047 847 3047 1241 
Q 3047 1584 2836 1778 
Q 2625 1972 2144 2069 
L 1759 2144 
Q 1053 2284 737 2584 
Q 422 2884 422 3419 
Q 422 4038 858 4394 
Q 1294 4750 2059 4750 
Q 2388 4750 2728 4690 
Q 3069 4631 3425 4513 
z
" transform="scale(0.015625)"/>
       </defs>
       <use xlink:href="#DejaVuSans-53"/>
       <use xlink:href="#DejaVuSans-65" x="63.476562"/>
       <use xlink:href="#DejaVuSans-70" x="125"/>
      </g>
     </g>
    </g>
    <g id="xtick_10">
     <g id="line2d_19">
      <path d="M 571.067975 404.12 
L 571.067975 27.6 
" clip-path="url(#p441e121ae5)" style="fill: none; stroke: #ffffff; stroke-width: 0.8; stroke-linecap: square"/>
     </g>
     <g id="line2d_20">
      <g>
       <use xlink:href="#m88e569e0ea" x="571.067975" y="404.12" style="fill: #555555; stroke: #555555; stroke-width: 0.8"/>
      </g>
     </g>
     <g id="text_10">
      <!-- Oct -->
      <g style="fill: #555555" transform="translate(562.422663 418.718437) scale(0.1 -0.1)">
       <defs>
        <path id="DejaVuSans-4f" d="M 2522 4238 
Q 1834 4238 1429 3725 
Q 1025 3213 1025 2328 
Q 1025 1447 1429 934 
Q 1834 422 2522 422 
Q 3209 422 3611 934 
Q 4013 1447 4013 2328 
Q 4013 3213 3611 3725 
Q 3209 4238 2522 4238 
z
M 2522 4750 
Q 3503 4750 4090 4092 
Q 4678 3434 4678 2328 
Q 4678 1225 4090 567 
Q 3503 -91 2522 -91 
Q 1538 -91 948 565 
Q 359 1222 359 2328 
Q 359 3434 948 4092 
Q 1538 4750 2522 4750 
z
" transform="scale(0.015625)"/>
        <path id="DejaVuSans-63" d="M 3122 3366 
L 3122 2828 
Q 2878 2963 2633 3030 
Q 2388 3097 2138 3097 
Q 1578 3097 1268 2742 
Q 959 2388 959 1747 
Q 959 1106 1268 751 
Q 1578 397 2138 397 
Q 2388 397 2633 464 
Q 2878 531 3122 666 
L 3122 134 
Q 2881 22 2623 -34 
Q 2366 -91 2075 -91 
Q 1284 -91 818 406 
Q 353 903 353 1747 
Q 353 2603 823 3093 
Q 1294 3584 2113 3584 
Q 2378 3584 2631 3529 
Q 2884 3475 3122 3366 
z
" transform="scale(0.015625)"/>
        <path id="DejaVuSans-74" d="M 1172 4494 
L 1172 3500 
L 2356 3500 
L 2356 3053 
L 1172 3053 
L 1172 1153 
Q 1172 725 1289 603 
Q 1406 481 1766 481 
L 2356 481 
L 2356 0 
L 1766 0 
Q 1100 0 847 248 
Q 594 497 594 1153 
L 594 3053 
L 172 3053 
L 172 3500 
L 594 3500 
L 594 4494 
L 1172 4494 
z
" transform="scale(0.015625)"/>
       </defs>
       <use xlink:href="#DejaVuSans-4f"/>
       <use xlink:href="#DejaVuSans-63" x="78.710938"/>
       <use xlink:href="#DejaVuSans-74" x="133.691406"/>
      </g>
     </g>
    </g>
    <g id="xtick_11">
     <g id="line2d_21">
      <path d="M 625.237397 404.12 
L 625.237397 27.6 
" clip-path="url(#p441e121ae5)" style="fill: none; stroke: #ffffff; stroke-width: 0.8; stroke-linecap: square"/>
     </g>
     <g id="line2d_22">
      <g>
       <use xlink:href="#m88e569e0ea" x="625.237397" y="404.12" style="fill: #555555; stroke: #555555; stroke-width: 0.8"/>
      </g>
     </g>
     <g id="text_11">
      <!-- Nov -->
      <g style="fill: #555555" transform="translate(615.478022 418.718437) scale(0.1 -0.1)">
       <defs>
        <path id="DejaVuSans-4e" d="M 628 4666 
L 1478 4666 
L 3547 763 
L 3547 4666 
L 4159 4666 
L 4159 0 
L 3309 0 
L 1241 3903 
L 1241 0 
L 628 0 
L 628 4666 
z
" transform="scale(0.015625)"/>
        <path id="DejaVuSans-6f" d="M 1959 3097 
Q 1497 3097 1228 2736 
Q 959 2375 959 1747 
Q 959 1119 1226 758 
Q 1494 397 1959 397 
Q 2419 397 2687 759 
Q 2956 1122 2956 1747 
Q 2956 2369 2687 2733 
Q 2419 3097 1959 3097 
z
M 1959 3584 
Q 2709 3584 3137 3096 
Q 3566 2609 3566 1747 
Q 3566 888 3137 398 
Q 2709 -91 1959 -91 
Q 1206 -91 779 398 
Q 353 888 353 1747 
Q 353 2609 779 3096 
Q 1206 3584 1959 3584 
z
" transform="scale(0.015625)"/>
        <path id="DejaVuSans-76" d="M 191 3500 
L 800 3500 
L 1894 563 
L 2988 3500 
L 3597 3500 
L 2284 0 
L 1503 0 
L 191 3500 
z
" transform="scale(0.015625)"/>
       </defs>
       <use xlink:href="#DejaVuSans-4e"/>
       <use xlink:href="#DejaVuSans-6f" x="74.804688"/>
       <use xlink:href="#DejaVuSans-76" x="135.986328"/>
      </g>
     </g>
    </g>
    <g id="xtick_12">
     <g id="line2d_23">
      <path d="M 679.406818 404.12 
L 679.406818 27.6 
" clip-path="url(#p441e121ae5)" style="fill: none; stroke: #ffffff; stroke-width: 0.8; stroke-linecap: square"/>
     </g>
     <g id="line2d_24">
      <g>
       <use xlink:href="#m88e569e0ea" x="679.406818" y="404.12" style="fill: #555555; stroke: #555555; stroke-width: 0.8"/>
      </g>
     </g>
     <g id="text_12">
      <!-- Dec -->
      <g style="fill: #555555" transform="translate(669.731037 418.718437) scale(0.1 -0.1)">
       <defs>
        <path id="DejaVuSans-44" d="M 1259 4147 
L 1259 519 
L 2022 519 
Q 2988 519 3436 956 
Q 3884 1394 3884 2338 
Q 3884 3275 3436 3711 
Q 2988 4147 2022 4147 
L 1259 4147 
z
M 628 4666 
L 1925 4666 
Q 3281 4666 3915 4102 
Q 4550 3538 4550 2338 
Q 4550 1131 3912 565 
Q 3275 0 1925 0 
L 628 0 
L 628 4666 
z
" transform="scale(0.015625)"/>
       </defs>
       <use xlink:href="#DejaVuSans-44"/>
       <use xlink:href="#DejaVuSans-65" x="77.001953"/>
       <use xlink:href="#DejaVuSans-63" x="138.525391"/>
      </g>
     </g>
    </g>
   </g>
   <g id="matplotlib.axis_2">
    <g id="ytick_1">
     <g id="line2d_25">
      <path d="M 53.75 387.59392 
L 709.2 387.59392 
" clip-path="url(#p441e121ae5)" style="fill: none; stroke: #ffffff; stroke-width: 0.8; stroke-linecap: square"/>
     </g>
     <g id="line2d_26">
      <defs>
       <path id="maa2d011f53" d="M 0 0 
L -3.5 0 
" style="stroke: #555555; stroke-width: 0.8"/>
      </defs>
      <g>
       <use xlink:href="#maa2d011f53" x="53.75" y="387.59392" style="fill: #555555; stroke: #555555; stroke-width: 0.8"/>
      </g>
     </g>
     <g id="text_13">
      <!-- 0 -->
      <g style="fill: #555555" transform="translate(40.3875 391.393139) scale(0.1 -0.1)">
       <defs>
        <path id="DejaVuSans-30" d="M 2034 4250 
Q 1547 4250 1301 3770 
Q 1056 3291 1056 2328 
Q 1056 1369 1301 889 
Q 1547 409 2034 409 
Q 2525 409 2770 889 
Q 3016 1369 3016 2328 
Q 3016 3291 2770 3770 
Q 2525 4250 2034 4250 
z
M 2034 4750 
Q 2819 4750 3233 4129 
Q 3647 3509 3647 2328 
Q 3647 1150 3233 529 
Q 2819 -91 2034 -91 
Q 1250 -91 836 529 
Q 422 1150 422 2328 
Q 422 3509 836 4129 
Q 1250 4750 2034 4750 
z
" transform="scale(0.015625)"/>
       </defs>
       <use xlink:href="#DejaVuSans-30"/>
      </g>
     </g>
    </g>
    <g id="ytick_2">
     <g id="line2d_27">
      <path d="M 53.75 338.555108 
L 709.2 338.555108 
" clip-path="url(#p441e121ae5)" style="fill: none; stroke: #ffffff; stroke-width: 0.8; stroke-linecap: square"/>
     </g>
     <g id="line2d_28">
      <g>
       <use xlink:href="#maa2d011f53" x="53.75" y="338.555108" style="fill: #555555; stroke: #555555; stroke-width: 0.8"/>
      </g>
     </g>
     <g id="text_14">
      <!-- 25 -->
      <g style="fill: #555555" transform="translate(34.025 342.354327) scale(0.1 -0.1)">
       <defs>
        <path id="DejaVuSans-32" d="M 1228 531 
L 3431 531 
L 3431 0 
L 469 0 
L 469 531 
Q 828 903 1448 1529 
Q 2069 2156 2228 2338 
Q 2531 2678 2651 2914 
Q 2772 3150 2772 3378 
Q 2772 3750 2511 3984 
Q 2250 4219 1831 4219 
Q 1534 4219 1204 4116 
Q 875 4013 500 3803 
L 500 4441 
Q 881 4594 1212 4672 
Q 1544 4750 1819 4750 
Q 2544 4750 2975 4387 
Q 3406 4025 3406 3419 
Q 3406 3131 3298 2873 
Q 3191 2616 2906 2266 
Q 2828 2175 2409 1742 
Q 1991 1309 1228 531 
z
" transform="scale(0.015625)"/>
        <path id="DejaVuSans-35" d="M 691 4666 
L 3169 4666 
L 3169 4134 
L 1269 4134 
L 1269 2991 
Q 1406 3038 1543 3061 
Q 1681 3084 1819 3084 
Q 2600 3084 3056 2656 
Q 3513 2228 3513 1497 
Q 3513 744 3044 326 
Q 2575 -91 1722 -91 
Q 1428 -91 1123 -41 
Q 819 9 494 109 
L 494 744 
Q 775 591 1075 516 
Q 1375 441 1709 441 
Q 2250 441 2565 725 
Q 2881 1009 2881 1497 
Q 2881 1984 2565 2268 
Q 2250 2553 1709 2553 
Q 1456 2553 1204 2497 
Q 953 2441 691 2322 
L 691 4666 
z
" transform="scale(0.015625)"/>
       </defs>
       <use xlink:href="#DejaVuSans-32"/>
       <use xlink:href="#DejaVuSans-35" x="63.623047"/>
      </g>
     </g>
    </g>
    <g id="ytick_3">
     <g id="line2d_29">
      <path d="M 53.75 289.516296 
L 709.2 289.516296 
" clip-path="url(#p441e121ae5)" style="fill: none; stroke: #ffffff; stroke-width: 0.8; stroke-linecap: square"/>
     </g>
     <g id="line2d_30">
      <g>
       <use xlink:href="#maa2d011f53" x="53.75" y="289.516296" style="fill: #555555; stroke: #555555; stroke-width: 0.8"/>
      </g>
     </g>
     <g id="text_15">
      <!-- 50 -->
      <g style="fill: #555555" transform="translate(34.025 293.315515) scale(0.1 -0.1)">
       <use xlink:href="#DejaVuSans-35"/>
       <use xlink:href="#DejaVuSans-30" x="63.623047"/>
      </g>
     </g>
    </g>
    <g id="ytick_4">
     <g id="line2d_31">
      <path d="M 53.75 240.477484 
L 709.2 240.477484 
" clip-path="url(#p441e121ae5)" style="fill: none; stroke: #ffffff; stroke-width: 0.8; stroke-linecap: square"/>
     </g>
     <g id="line2d_32">
      <g>
       <use xlink:href="#maa2d011f53" x="53.75" y="240.477484" style="fill: #555555; stroke: #555555; stroke-width: 0.8"/>
      </g>
     </g>
     <g id="text_16">
      <!-- 75 -->
      <g style="fill: #555555" transform="translate(34.025 244.276702) scale(0.1 -0.1)">
       <defs>
        <path id="DejaVuSans-37" d="M 525 4666 
L 3525 4666 
L 3525 4397 
L 1831 0 
L 1172 0 
L 2766 4134 
L 525 4134 
L 525 4666 
z
" transform="scale(0.015625)"/>
       </defs>
       <use xlink:href="#DejaVuSans-37"/>
       <use xlink:href="#DejaVuSans-35" x="63.623047"/>
      </g>
     </g>
    </g>
    <g id="ytick_5">
     <g id="line2d_33">
      <path d="M 53.75 191.438672 
L 709.2 191.438672 
" clip-path="url(#p441e121ae5)" style="fill: none; stroke: #ffffff; stroke-width: 0.8; stroke-linecap: square"/>
     </g>
     <g id="line2d_34">
      <g>
       <use xlink:href="#maa2d011f53" x="53.75" y="191.438672" style="fill: #555555; stroke: #555555; stroke-width: 0.8"/>
      </g>
     </g>
     <g id="text_17">
      <!-- 100 -->
      <g style="fill: #555555" transform="translate(27.6625 195.23789) scale(0.1 -0.1)">
       <defs>
        <path id="DejaVuSans-31" d="M 794 531 
L 1825 531 
L 1825 4091 
L 703 3866 
L 703 4441 
L 1819 4666 
L 2450 4666 
L 2450 531 
L 3481 531 
L 3481 0 
L 794 0 
L 794 531 
z
" transform="scale(0.015625)"/>
       </defs>
       <use xlink:href="#DejaVuSans-31"/>
       <use xlink:href="#DejaVuSans-30" x="63.623047"/>
       <use xlink:href="#DejaVuSans-30" x="127.246094"/>
      </g>
     </g>
    </g>
    <g id="ytick_6">
     <g id="line2d_35">
      <path d="M 53.75 142.399859 
L 709.2 142.399859 
" clip-path="url(#p441e121ae5)" style="fill: none; stroke: #ffffff; stroke-width: 0.8; stroke-linecap: square"/>
     </g>
     <g id="line2d_36">
      <g>
       <use xlink:href="#maa2d011f53" x="53.75" y="142.399859" style="fill: #555555; stroke: #555555; stroke-width: 0.8"/>
      </g>
     </g>
     <g id="text_18">
      <!-- 125 -->
      <g style="fill: #555555" transform="translate(27.6625 146.199078) scale(0.1 -0.1)">
       <use xlink:href="#DejaVuSans-31"/>
       <use xlink:href="#DejaVuSans-32" x="63.623047"/>
       <use xlink:href="#DejaVuSans-35" x="127.246094"/>
      </g>
     </g>
    </g>
    <g id="ytick_7">
     <g id="line2d_37">
      <path d="M 53.75 93.361047 
L 709.2 93.361047 
" clip-path="url(#p441e121ae5)" style="fill: none; stroke: #ffffff; stroke-width: 0.8; stroke-linecap: square"/>
     </g>
     <g id="line2d_38">
      <g>
       <use xlink:href="#maa2d011f53" x="53.75" y="93.361047" style="fill: #555555; stroke: #555555; stroke-width: 0.8"/>
      </g>
     </g>
     <g id="text_19">
      <!-- 150 -->
      <g style="fill: #555555" transform="translate(27.6625 97.160266) scale(0.1 -0.1)">
       <use xlink:href="#DejaVuSans-31"/>
       <use xlink:href="#DejaVuSans-35" x="63.623047"/>
       <use xlink:href="#DejaVuSans-30" x="127.246094"/>
      </g>
     </g>
    </g>
    <g id="ytick_8">
     <g id="line2d_39">
      <path d="M 53.75 44.322235 
L 709.2 44.322235 
" clip-path="url(#p441e121ae5)" style="fill: none; stroke: #ffffff; stroke-width: 0.8; stroke-linecap: square"/>
     </g>
     <g id="line2d_40">
      <g>
       <use xlink:href="#maa2d011f53" x="53.75" y="44.322235" style="fill: #555555; stroke: #555555; stroke-width: 0.8"/>
      </g>
     </g>
     <g id="text_20">
      <!-- 175 -->
      <g style="fill: #555555" transform="translate(27.6625 48.121454) scale(0.1 -0.1)">
       <use xlink:href="#DejaVuSans-31"/>
       <use xlink:href="#DejaVuSans-37" x="63.623047"/>
       <use xlink:href="#DejaVuSans-35" x="127.246094"/>
      </g>
     </g>
    </g>
    <g id="text_21">
     <!-- Rain (mm) -->
     <g style="fill: #555555" transform="translate(21.166875 247.317813) rotate(-90) scale(0.12 -0.12)">
      <defs>
       <path id="DejaVuSans-52" d="M 2841 2188 
Q 3044 2119 3236 1894 
Q 3428 1669 3622 1275 
L 4263 0 
L 3584 0 
L 2988 1197 
Q 2756 1666 2539 1819 
Q 2322 1972 1947 1972 
L 1259 1972 
L 1259 0 
L 628 0 
L 628 4666 
L 2053 4666 
Q 2853 4666 3247 4331 
Q 3641 3997 3641 3322 
Q 3641 2881 3436 2590 
Q 3231 2300 2841 2188 
z
M 1259 4147 
L 1259 2491 
L 2053 2491 
Q 2509 2491 2742 2702 
Q 2975 2913 2975 3322 
Q 2975 3731 2742 3939 
Q 2509 4147 2053 4147 
L 1259 4147 
z
" transform="scale(0.015625)"/>
       <path id="DejaVuSans-69" d="M 603 3500 
L 1178 3500 
L 1178 0 
L 603 0 
L 603 3500 
z
M 603 4863 
L 1178 4863 
L 1178 4134 
L 603 4134 
L 603 4863 
z
" transform="scale(0.015625)"/>
       <path id="DejaVuSans-20" transform="scale(0.015625)"/>
       <path id="DejaVuSans-28" d="M 1984 4856 
Q 1566 4138 1362 3434 
Q 1159 2731 1159 2009 
Q 1159 1288 1364 580 
Q 1569 -128 1984 -844 
L 1484 -844 
Q 1016 -109 783 600 
Q 550 1309 550 2009 
Q 550 2706 781 3412 
Q 1013 4119 1484 4856 
L 1984 4856 
z
" transform="scale(0.015625)"/>
       <path id="DejaVuSans-6d" d="M 3328 2828 
Q 3544 3216 3844 3400 
Q 4144 3584 4550 3584 
Q 5097 3584 5394 3201 
Q 5691 2819 5691 2113 
L 5691 0 
L 5113 0 
L 5113 2094 
Q 5113 2597 4934 2840 
Q 4756 3084 4391 3084 
Q 3944 3084 3684 2787 
Q 3425 2491 3425 1978 
L 3425 0 
L 2847 0 
L 2847 2094 
Q 2847 2600 2669 2842 
Q 2491 3084 2119 3084 
Q 1678 3084 1418 2786 
Q 1159 2488 1159 1978 
L 1159 0 
L 581 0 
L 581 3500 
L 1159 3500 
L 1159 2956 
Q 1356 3278 1631 3431 
Q 1906 3584 2284 3584 
Q 2666 3584 2933 3390 
Q 3200 3197 3328 2828 
z
" transform="scale(0.015625)"/>
       <path id="DejaVuSans-29" d="M 513 4856 
L 1013 4856 
Q 1481 4119 1714 3412 
Q 1947 2706 1947 2009 
Q 1947 1309 1714 600 
Q 1481 -109 1013 -844 
L 513 -844 
Q 928 -128 1133 580 
Q 1338 1288 1338 2009 
Q 1338 2731 1133 3434 
Q 928 4138 513 4856 
z
" transform="scale(0.015625)"/>
      </defs>
      <use xlink:href="#DejaVuSans-52"/>
      <use xlink:href="#DejaVuSans-61" x="67.232422"/>
      <use xlink:href="#DejaVuSans-69" x="128.511719"/>
      <use xlink:href="#DejaVuSans-6e" x="156.294922"/>
      <use xlink:href="#DejaVuSans-20" x="219.673828"/>
      <use xlink:href="#DejaVuSans-28" x="251.460938"/>
      <use xlink:href="#DejaVuSans-6d" x="290.474609"/>
      <use xlink:href="#DejaVuSans-6d" x="387.886719"/>
      <use xlink:href="#DejaVuSans-29" x="485.298828"/>
     </g>
    </g>
   </g>
   <g id="PolyCollection_1"/>
   <g id="PolyCollection_2"/>
   <g id="PolyCollection_3"/>
   <g id="PolyCollection_4"/>
   <g id="PolyCollection_5"/>
   <g id="PolyCollection_6"/>
   <g id="PolyCollection_7"/>
   <g id="PolyCollection_8"/>
   <g id="PolyCollection_9"/>
   <g id="PolyCollection_10"/>
   <g id="PolyCollection_11"/>
   <g id="PolyCollection_12"/>
   <g id="PolyCollection_13"/>
   <g id="PolyCollection_14"/>
   <g id="PolyCollection_15"/>
   <g id="PolyCollection_16"/>
   <g id="PolyCollection_17"/>
   <g id="PolyCollection_18"/>
   <g id="PolyCollection_19"/>
   <g id="PolyCollection_20"/>
   <g id="PolyCollection_21"/>
   <g id="PolyCollection_22"/>
   <g id="PolyCollection_23"/>
   <g id="PolyCollection_24"/>
   <g id="PolyCollection_25"/>
   <g id="PolyCollection_26"/>
   <g id="PolyCollection_27"/>
   <g id="PolyCollection_28"/>
   <g id="PolyCollection_29"/>
   <g id="PolyCollection_30"/>
   <g id="PolyCollection_31"/>
   <g id="PolyCollection_32"/>
   <g id="PolyCollection_33"/>
   <g id="PolyCollection_34"/>
   <g id="PolyCollection_35"/>
   <g id="PolyCollection_36"/>
   <g id="PolyCollection_37"/>
   <g id="PolyCollection_38"/>
   <g id="PolyCollection_39"/>
   <g id="PolyCollection_40"/>
   <g id="PolyCollection_41"/>
   <g id="PolyCollection_42"/>
   <g id="PolyCollection_43"/>
   <g id="PolyCollection_44"/>
   <g id="PolyCollection_45"/>
   <g id="PolyCollection_46"/>
   <g id="PolyCollection_47"/>
   <g id="PolyCollection_48"/>
   <g id="PolyCollection_49"/>
   <g id="PolyCollection_50"/>
   <g id="PolyCollection_51"/>
   <g id="PolyCollection_52"/>
   <g id="PolyCollection_53"/>
   <g id="PolyCollection_54"/>
   <g id="PolyCollection_55"/>
   <g id="PolyCollection_56"/>
   <g id="PolyCollection_57"/>
   <g id="PolyCollection_58"/>
   <g id="PolyCollection_59"/>
   <g id="PolyCollection_60"/>
   <g id="PolyCollection_61"/>
   <g id="PolyCollection_62"/>
   <g id="PolyCollection_63"/>
   <g id="PolyCollection_64"/>
   <g id="PolyCollection_65"/>
   <g id="PolyCollection_66"/>
   <g id="PolyCollection_67"/>
   <g id="PolyCollection_68"/>
   <g id="PolyCollection_69"/>
   <g id="PolyCollection_70"/>
   <g id="PolyCollection_71"/>
   <g id="PolyCollection_72"/>
   <g id="PolyCollection_73"/>
   <g id="PolyCollection_74"/>
   <g id="PolyCollection_75"/>
   <g id="PolyCollection_76"/>
   <g id="PolyCollection_77"/>
   <g id="PolyCollection_78"/>
   <g id="PolyCollection_79"/>
   <g id="PolyCollection_80"/>
   <g id="line2d_41">
    <path d="M 83.543182 220.861959 
L 137.712603 336.593556 
L 191.882025 360.132185 
L 246.051446 318.939583 
L 300.220868 275.785428 
L 354.390289 256.169904 
L 408.559711 346.401318 
L 462.729132 256.169904 
L 516.898554 318.939583 
L 571.067975 289.516296 
L 625.237397 301.285611 
L 679.406818 264.016114 
" clip-path="url(#p441e121ae5)" style="fill: none; stroke: #808080; stroke-opacity: 0.1; stroke-width: 1.5; stroke-linecap: square"/>
   </g>
   <g id="line2d_42">
    <path d="M 83.543182 342.478213 
L 137.712603 334.632003 
L 191.882025 336.3974 
L 246.051446 320.508825 
L 300.220868 275.981584 
L 354.390289 369.939948 
L 408.559711 296.38173 
L 462.729132 336.00509 
L 516.898554 341.889747 
L 571.067975 113.761193 
L 625.237397 282.847017 
L 679.406818 322.862688 
" clip-path="url(#p441e121ae5)" style="fill: none; stroke: #808080; stroke-opacity: 0.1; stroke-width: 1.5; stroke-linecap: square"/>
   </g>
   <g id="line2d_43">
    <path d="M 83.543182 354.639838 
L 137.712603 226.354306 
L 191.882025 353.462907 
L 246.051446 280.100844 
L 300.220868 305.601026 
L 354.390289 300.108679 
L 408.559711 207.523402 
L 462.729132 252.639109 
L 516.898554 263.427648 
L 571.067975 366.212998 
L 625.237397 175.353941 
L 679.406818 308.73951 
" clip-path="url(#p441e121ae5)" style="fill: none; stroke: #808080; stroke-opacity: 0.1; stroke-width: 1.5; stroke-linecap: square"/>
   </g>
   <g id="line2d_44">
    <path d="M 83.543182 247.735228 
L 137.712603 149.461448 
L 191.882025 218.900406 
L 246.051446 268.72384 
L 300.220868 283.631638 
L 354.390289 334.828158 
L 408.559711 321.293446 
L 462.729132 200.265658 
L 516.898554 257.54299 
L 571.067975 341.497437 
L 625.237397 127.49206 
L 679.406818 315.212633 
" clip-path="url(#p441e121ae5)" style="fill: none; stroke: #808080; stroke-opacity: 0.1; stroke-width: 1.5; stroke-linecap: square"/>
   </g>
   <g id="line2d_45">
    <path d="M 83.543182 295.400953 
L 137.712603 356.012925 
L 191.882025 259.504543 
L 246.051446 309.327976 
L 300.220868 275.589273 
L 354.390289 328.747346 
L 408.559711 363.66298 
L 462.729132 263.035337 
L 516.898554 248.716004 
L 571.067975 250.677557 
L 625.237397 231.846653 
L 679.406818 258.131456 
" clip-path="url(#p441e121ae5)" style="fill: none; stroke: #808080; stroke-opacity: 0.1; stroke-width: 1.5; stroke-linecap: square"/>
   </g>
   <g id="line2d_46">
    <path d="M 83.543182 346.009008 
L 137.712603 326.001172 
L 191.882025 370.920724 
L 246.051446 282.258552 
L 300.220868 324.03962 
L 354.390289 319.331894 
L 408.559711 239.889018 
L 462.729132 311.093373 
L 516.898554 294.616332 
L 571.067975 258.719922 
L 625.237397 331.493519 
L 679.406818 361.505272 
" clip-path="url(#p441e121ae5)" style="fill: none; stroke: #808080; stroke-opacity: 0.1; stroke-width: 1.5; stroke-linecap: square"/>
   </g>
   <g id="line2d_47">
    <path d="M 83.543182 341.497437 
L 137.712603 286.573967 
L 191.882025 286.966278 
L 246.051446 370.136103 
L 300.220868 284.416259 
L 354.390289 200.657968 
L 408.559711 265.781511 
L 462.729132 215.958078 
L 516.898554 273.627721 
L 571.067975 281.473931 
L 625.237397 200.265658 
L 679.406818 296.185574 
" clip-path="url(#p441e121ae5)" style="fill: none; stroke: #808080; stroke-opacity: 0.1; stroke-width: 1.5; stroke-linecap: square"/>
   </g>
   <g id="line2d_48">
    <path d="M 83.543182 289.123985 
L 137.712603 318.939583 
L 191.882025 342.870524 
L 246.051446 373.470742 
L 300.220868 185.161704 
L 354.390289 285.397036 
L 408.559711 373.666898 
L 462.729132 352.678286 
L 516.898554 303.835629 
L 571.067975 215.565767 
L 625.237397 328.55119 
L 679.406818 295.989419 
" clip-path="url(#p441e121ae5)" style="fill: none; stroke: #808080; stroke-opacity: 0.1; stroke-width: 1.5; stroke-linecap: square"/>
   </g>
   <g id="line2d_49">
    <path d="M 83.543182 213.80037 
L 137.712603 383.08235 
L 191.882025 358.170633 
L 246.051446 330.512743 
L 300.220868 379.3554 
L 354.390289 306.189492 
L 408.559711 131.611321 
L 462.729132 192.419448 
L 516.898554 289.516296 
L 571.067975 242.242881 
L 625.237397 367.78224 
L 679.406818 249.69678 
" clip-path="url(#p441e121ae5)" style="fill: none; stroke: #808080; stroke-opacity: 0.1; stroke-width: 1.5; stroke-linecap: square"/>
   </g>
   <g id="line2d_50">
    <path d="M 83.543182 310.112597 
L 137.712603 250.677557 
L 191.882025 337.770487 
L 246.051446 376.413071 
L 300.220868 345.812852 
L 354.390289 343.655145 
L 408.559711 216.938854 
L 462.729132 218.508096 
L 516.898554 286.181657 
L 571.067975 295.400953 
L 625.237397 270.881547 
L 679.406818 305.012561 
" clip-path="url(#p441e121ae5)" style="fill: none; stroke: #808080; stroke-opacity: 0.1; stroke-width: 1.5; stroke-linecap: square"/>
   </g>
   <g id="line2d_51">
    <path d="M 83.543182 261.466095 
L 137.712603 272.450789 
L 191.882025 336.593556 
L 246.051446 329.728122 
L 300.220868 270.881547 
L 354.390289 183.003996 
L 408.559711 285.789346 
L 462.729132 240.085173 
L 516.898554 223.215822 
L 571.067975 288.143209 
L 625.237397 288.143209 
L 679.406818 220.665804 
" clip-path="url(#p441e121ae5)" style="fill: none; stroke: #808080; stroke-opacity: 0.1; stroke-width: 1.5; stroke-linecap: square"/>
   </g>
   <g id="line2d_52">
    <path d="M 83.543182 280.100844 
L 137.712603 382.886194 
L 191.882025 301.677921 
L 246.051446 283.827794 
L 300.220868 344.635921 
L 354.390289 355.81677 
L 408.559711 217.91963 
L 462.729132 333.455072 
L 516.898554 377.590003 
L 571.067975 295.597109 
L 625.237397 282.650862 
L 679.406818 239.104397 
" clip-path="url(#p441e121ae5)" style="fill: none; stroke: #808080; stroke-opacity: 0.1; stroke-width: 1.5; stroke-linecap: square"/>
   </g>
   <g id="line2d_53">
    <path d="M 83.543182 293.635556 
L 137.712603 293.439401 
L 191.882025 321.097291 
L 246.051446 363.270669 
L 300.220868 298.147127 
L 354.390289 303.639474 
L 408.559711 255.777593 
L 462.729132 268.331529 
L 516.898554 239.889018 
L 571.067975 82.572508 
L 625.237397 212.034973 
L 679.406818 276.766205 
" clip-path="url(#p441e121ae5)" style="fill: none; stroke: #808080; stroke-opacity: 0.1; stroke-width: 1.5; stroke-linecap: square"/>
   </g>
   <g id="line2d_54">
    <path d="M 83.543182 261.26994 
L 137.712603 279.512378 
L 191.882025 376.413071 
L 246.051446 287.947054 
L 300.220868 353.855218 
L 354.390289 330.316588 
L 408.559711 336.201245 
L 462.729132 294.224022 
L 516.898554 260.681474 
L 571.067975 276.177739 
L 625.237397 284.612415 
L 679.406818 213.80037 
" clip-path="url(#p441e121ae5)" style="fill: none; stroke: #808080; stroke-opacity: 0.1; stroke-width: 1.5; stroke-linecap: square"/>
   </g>
   <g id="line2d_55">
    <path d="M 83.543182 238.319776 
L 137.712603 362.878359 
L 191.882025 317.370341 
L 246.051446 305.601026 
L 300.220868 329.531967 
L 354.390289 375.62845 
L 408.559711 225.177374 
L 462.729132 283.827794 
L 516.898554 214.19268 
L 571.067975 313.839547 
L 625.237397 305.797182 
L 679.406818 284.023949 
" clip-path="url(#p441e121ae5)" style="fill: none; stroke: #808080; stroke-opacity: 0.1; stroke-width: 1.5; stroke-linecap: square"/>
   </g>
   <g id="line2d_56">
    <path d="M 83.543182 362.289893 
L 137.712603 374.647674 
L 191.882025 253.816041 
L 246.051446 285.397036 
L 300.220868 321.489601 
L 354.390289 292.850935 
L 408.559711 332.474295 
L 462.729132 282.847017 
L 516.898554 291.477848 
L 571.067975 319.528049 
L 625.237397 154.561485 
L 679.406818 356.012925 
" clip-path="url(#p441e121ae5)" style="fill: none; stroke: #808080; stroke-opacity: 0.1; stroke-width: 1.5; stroke-linecap: square"/>
   </g>
   <g id="line2d_57">
    <path d="M 83.543182 352.678286 
L 137.712603 354.639838 
L 191.882025 201.050279 
L 246.051446 243.419812 
L 300.220868 297.166351 
L 354.390289 171.626991 
L 408.559711 347.97056 
L 462.729132 346.009008 
L 516.898554 365.820688 
L 571.067975 330.316588 
L 625.237397 329.531967 
L 679.406818 328.943501 
" clip-path="url(#p441e121ae5)" style="fill: none; stroke: #808080; stroke-opacity: 0.1; stroke-width: 1.5; stroke-linecap: square"/>
   </g>
   <g id="line2d_58">
    <path d="M 83.543182 303.247163 
L 137.712603 371.313035 
L 191.882025 273.823876 
L 246.051446 299.716369 
L 300.220868 310.112597 
L 354.390289 280.493154 
L 408.559711 219.096562 
L 462.729132 277.943136 
L 516.898554 173.000078 
L 571.067975 350.716734 
L 625.237397 259.308388 
L 679.406818 216.350388 
" clip-path="url(#p441e121ae5)" style="fill: none; stroke: #808080; stroke-opacity: 0.1; stroke-width: 1.5; stroke-linecap: square"/>
   </g>
   <g id="line2d_59">
    <path d="M 83.543182 323.647309 
L 137.712603 243.615968 
L 191.882025 363.66298 
L 246.051446 194.184845 
L 300.220868 288.53552 
L 354.390289 256.758369 
L 408.559711 234.592826 
L 462.729132 218.508096 
L 516.898554 315.604944 
L 571.067975 148.088362 
L 625.237397 305.797182 
L 679.406818 264.99689 
" clip-path="url(#p441e121ae5)" style="fill: none; stroke: #808080; stroke-opacity: 0.1; stroke-width: 1.5; stroke-linecap: square"/>
   </g>
   <g id="line2d_60">
    <path d="M 83.543182 316.19341 
L 137.712603 292.262469 
L 191.882025 317.566496 
L 246.051446 301.089456 
L 300.220868 187.319411 
L 354.390289 287.554743 
L 408.559711 243.419812 
L 462.729132 294.616332 
L 516.898554 270.881547 
L 571.067975 183.984772 
L 625.237397 304.62025 
L 679.406818 281.670086 
" clip-path="url(#p441e121ae5)" style="fill: none; stroke: #808080; stroke-opacity: 0.1; stroke-width: 1.5; stroke-linecap: square"/>
   </g>
   <g id="line2d_61">
    <path d="M 83.543182 259.896853 
L 137.712603 337.966642 
L 191.882025 343.262834 
L 246.051446 300.8933 
L 300.220868 229.100479 
L 354.390289 279.904689 
L 408.559711 231.846653 
L 462.729132 253.816041 
L 516.898554 129.845923 
L 571.067975 261.662251 
L 625.237397 300.697145 
L 679.406818 240.673639 
" clip-path="url(#p441e121ae5)" style="fill: none; stroke: #808080; stroke-opacity: 0.1; stroke-width: 1.5; stroke-linecap: square"/>
   </g>
   <g id="line2d_62">
    <path d="M 83.543182 246.950607 
L 137.712603 299.324058 
L 191.882025 277.746981 
L 246.051446 347.774405 
L 300.220868 270.881547 
L 354.390289 335.416624 
L 408.559711 252.835264 
L 462.729132 205.169539 
L 516.898554 381.513108 
L 571.067975 377.590003 
L 625.237397 252.835264 
L 679.406818 297.166351 
" clip-path="url(#p441e121ae5)" style="fill: none; stroke: #808080; stroke-opacity: 0.1; stroke-width: 1.5; stroke-linecap: square"/>
   </g>
   <g id="line2d_63">
    <path d="M 83.543182 254.796817 
L 137.712603 309.327976 
L 191.882025 313.839547 
L 246.051446 270.881547 
L 300.220868 338.358953 
L 354.390289 250.089091 
L 408.559711 283.631638 
L 462.729132 282.454707 
L 516.898554 289.908606 
L 571.067975 367.193774 
L 625.237397 91.007184 
L 679.406818 312.07415 
" clip-path="url(#p441e121ae5)" style="fill: none; stroke: #808080; stroke-opacity: 0.1; stroke-width: 1.5; stroke-linecap: square"/>
   </g>
   <g id="line2d_64">
    <path d="M 83.543182 249.30447 
L 137.712603 355.032149 
L 191.882025 304.424095 
L 246.051446 294.812488 
L 300.220868 237.142844 
L 354.390289 137.103668 
L 408.559711 349.735957 
L 462.729132 261.26994 
L 516.898554 365.820688 
L 571.067975 274.608497 
L 625.237397 262.250716 
L 679.406818 346.401318 
" clip-path="url(#p441e121ae5)" style="fill: none; stroke: #808080; stroke-opacity: 0.1; stroke-width: 1.5; stroke-linecap: square"/>
   </g>
   <g id="line2d_65">
    <path d="M 83.543182 279.120068 
L 137.712603 302.462542 
L 191.882025 281.670086 
L 246.051446 312.46646 
L 300.220868 336.789711 
L 354.390289 357.386012 
L 408.559711 334.239693 
L 462.729132 357.386012 
L 516.898554 333.455072 
L 571.067975 353.659062 
L 625.237397 274.412342 
L 679.406818 256.758369 
" clip-path="url(#p441e121ae5)" style="fill: none; stroke: #808080; stroke-opacity: 0.1; stroke-width: 1.5; stroke-linecap: square"/>
   </g>
   <g id="line2d_66">
    <path d="M 83.543182 361.897583 
L 137.712603 363.074514 
L 191.882025 367.193774 
L 246.051446 273.627721 
L 300.220868 281.277775 
L 354.390289 252.639109 
L 408.559711 291.281693 
L 462.729132 307.366424 
L 516.898554 268.527684 
L 571.067975 311.877994 
L 625.237397 335.416624 
L 679.406818 285.004725 
" clip-path="url(#p441e121ae5)" style="fill: none; stroke: #808080; stroke-opacity: 0.1; stroke-width: 1.5; stroke-linecap: square"/>
   </g>
   <g id="line2d_67">
    <path d="M 83.543182 283.631638 
L 137.712603 274.216187 
L 191.882025 334.239693 
L 246.051446 357.778322 
L 300.220868 343.655145 
L 354.390289 255.777593 
L 408.559711 329.139656 
L 462.729132 254.600662 
L 516.898554 112.976572 
L 571.067975 246.558296 
L 625.237397 107.484225 
L 679.406818 320.116515 
" clip-path="url(#p441e121ae5)" style="fill: none; stroke: #808080; stroke-opacity: 0.1; stroke-width: 1.5; stroke-linecap: square"/>
   </g>
   <g id="line2d_68">
    <path d="M 83.543182 206.542626 
L 137.712603 342.478213 
L 191.882025 250.873712 
L 246.051446 302.070232 
L 300.220868 264.212269 
L 354.390289 342.085903 
L 408.559711 316.389565 
L 462.729132 361.505272 
L 516.898554 169.469284 
L 571.067975 342.085903 
L 625.237397 273.823876 
L 679.406818 330.512743 
" clip-path="url(#p441e121ae5)" style="fill: none; stroke: #808080; stroke-opacity: 0.1; stroke-width: 1.5; stroke-linecap: square"/>
   </g>
   <g id="line2d_69">
    <path d="M 83.543182 360.328341 
L 137.712603 346.205163 
L 191.882025 365.428377 
L 246.051446 368.174551 
L 300.220868 349.735957 
L 354.390289 375.23614 
L 408.559711 357.386012 
L 462.729132 355.424459 
L 516.898554 198.10795 
L 571.067975 205.169539 
L 625.237397 227.335082 
L 679.406818 245.773675 
" clip-path="url(#p441e121ae5)" style="fill: none; stroke: #808080; stroke-opacity: 0.1; stroke-width: 1.5; stroke-linecap: square"/>
   </g>
   <g id="line2d_70">
    <path d="M 83.543182 263.035337 
L 137.712603 259.504543 
L 191.882025 276.177739 
L 246.051446 323.451154 
L 300.220868 314.428013 
L 354.390289 284.80857 
L 408.559711 367.193774 
L 462.729132 92.772581 
L 516.898554 357.582167 
L 571.067975 293.243246 
L 625.237397 286.966278 
L 679.406818 278.727757 
" clip-path="url(#p441e121ae5)" style="fill: none; stroke: #808080; stroke-opacity: 0.1; stroke-width: 1.5; stroke-linecap: square"/>
   </g>
   <g id="line2d_71">
    <path d="M 83.543182 252.639109 
L 137.712603 307.366424 
L 191.882025 272.058479 
L 246.051446 298.539437 
L 300.220868 233.61205 
L 354.390289 312.858771 
L 408.559711 259.112232 
L 462.729132 282.454707 
L 516.898554 354.051373 
L 571.067975 384.455436 
L 625.237397 371.50919 
L 679.406818 174.56932 
" clip-path="url(#p441e121ae5)" style="fill: none; stroke: #808080; stroke-opacity: 0.1; stroke-width: 1.5; stroke-linecap: square"/>
   </g>
   <g id="line2d_72">
    <path d="M 83.543182 270.096926 
L 137.712603 301.285611 
L 191.882025 201.442589 
L 246.051446 235.377447 
L 300.220868 216.938854 
L 354.390289 313.839547 
L 408.559711 345.028231 
L 462.729132 322.078067 
L 516.898554 346.793629 
L 571.067975 252.835264 
L 625.237397 293.04709 
L 679.406818 209.68111 
" clip-path="url(#p441e121ae5)" style="fill: none; stroke: #808080; stroke-opacity: 0.1; stroke-width: 1.5; stroke-linecap: square"/>
   </g>
   <g id="line2d_73">
    <path d="M 83.543182 329.335811 
L 137.712603 315.408789 
L 191.882025 246.165986 
L 246.051446 345.224387 
L 300.220868 336.3974 
L 354.390289 179.277046 
L 408.559711 271.273858 
L 462.729132 285.004725 
L 516.898554 333.258916 
L 571.067975 198.304105 
L 625.237397 335.808935 
L 679.406818 322.078067 
" clip-path="url(#p441e121ae5)" style="fill: none; stroke: #808080; stroke-opacity: 0.1; stroke-width: 1.5; stroke-linecap: square"/>
   </g>
   <g id="line2d_74">
    <path d="M 83.543182 323.451154 
L 137.712603 364.251446 
L 191.882025 209.484954 
L 246.051446 324.03962 
L 300.220868 231.062032 
L 354.390289 310.112597 
L 408.559711 276.373894 
L 462.729132 298.735593 
L 516.898554 202.031055 
L 571.067975 237.535155 
L 625.237397 320.70498 
L 679.406818 220.273493 
" clip-path="url(#p441e121ae5)" style="fill: none; stroke: #808080; stroke-opacity: 0.1; stroke-width: 1.5; stroke-linecap: square"/>
   </g>
   <g id="line2d_75">
    <path d="M 83.543182 313.054926 
L 137.712603 325.608862 
L 191.882025 286.573967 
L 246.051446 342.870524 
L 300.220868 246.558296 
L 354.390289 221.64658 
L 408.559711 339.535884 
L 462.729132 309.720287 
L 516.898554 309.916442 
L 571.067975 173.588544 
L 625.237397 244.596744 
L 679.406818 262.839182 
" clip-path="url(#p441e121ae5)" style="fill: none; stroke: #808080; stroke-opacity: 0.1; stroke-width: 1.5; stroke-linecap: square"/>
   </g>
   <g id="line2d_76">
    <path d="M 83.543182 295.008643 
L 137.712603 326.785793 
L 191.882025 321.489601 
L 246.051446 188.496343 
L 300.220868 244.596744 
L 354.390289 364.05529 
L 408.559711 288.92783 
L 462.729132 365.232222 
L 516.898554 303.443319 
L 571.067975 305.797182 
L 625.237397 310.112597 
L 679.406818 287.750899 
" clip-path="url(#p441e121ae5)" style="fill: none; stroke: #808080; stroke-opacity: 0.1; stroke-width: 1.5; stroke-linecap: square"/>
   </g>
   <g id="line2d_77">
    <path d="M 83.543182 243.812123 
L 137.712603 323.058843 
L 191.882025 243.615968 
L 246.051446 377.001537 
L 300.220868 209.288799 
L 354.390289 316.781875 
L 408.559711 349.932113 
L 462.729132 333.062761 
L 516.898554 243.615968 
L 571.067975 225.177374 
L 625.237397 250.677557 
L 679.406818 276.373894 
" clip-path="url(#p441e121ae5)" style="fill: none; stroke: #808080; stroke-opacity: 0.1; stroke-width: 1.5; stroke-linecap: square"/>
   </g>
   <g id="line2d_78">
    <path d="M 83.543182 306.581803 
L 137.712603 329.139656 
L 191.882025 320.70498 
L 246.051446 322.274222 
L 300.220868 260.681474 
L 354.390289 213.211904 
L 408.559711 318.547273 
L 462.729132 272.058479 
L 516.898554 365.624532 
L 571.067975 351.501355 
L 625.237397 328.747346 
L 679.406818 229.688945 
" clip-path="url(#p441e121ae5)" style="fill: none; stroke: #808080; stroke-opacity: 0.1; stroke-width: 1.5; stroke-linecap: square"/>
   </g>
   <g id="line2d_79">
    <path d="M 83.543182 180.453978 
L 137.712603 359.151409 
L 191.882025 302.266387 
L 246.051446 268.527684 
L 300.220868 285.004725 
L 354.390289 353.855218 
L 408.559711 280.493154 
L 462.729132 256.758369 
L 516.898554 342.870524 
L 571.067975 245.57752 
L 625.237397 257.935301 
L 679.406818 268.72384 
" clip-path="url(#p441e121ae5)" style="fill: none; stroke: #808080; stroke-opacity: 0.1; stroke-width: 1.5; stroke-linecap: square"/>
   </g>
   <g id="line2d_80">
    <path d="M 83.543182 365.820688 
L 137.712603 324.03962 
L 191.882025 303.835629 
L 246.051446 309.327976 
L 300.220868 281.473931 
L 354.390289 250.481401 
L 408.559711 235.965913 
L 462.729132 275.393118 
L 516.898554 315.212633 
L 571.067975 44.714545 
L 625.237397 302.658698 
L 679.406818 359.347564 
" clip-path="url(#p441e121ae5)" style="fill: none; stroke: #808080; stroke-opacity: 0.1; stroke-width: 1.5; stroke-linecap: square"/>
   </g>
   <g id="line2d_81">
    <path d="M 83.543182 177.903959 
L 137.712603 336.593556 
L 191.882025 270.881547 
L 246.051446 333.258916 
L 300.220868 305.993337 
L 354.390289 300.697145 
L 408.559711 238.123621 
L 462.729132 268.135374 
L 516.898554 333.062761 
L 571.067975 277.158515 
L 625.237397 356.20908 
L 679.406818 370.136103 
" clip-path="url(#p441e121ae5)" style="fill: none; stroke: #808080; stroke-opacity: 0.1; stroke-width: 1.5; stroke-linecap: square"/>
   </g>
   <g id="line2d_82">
    <path d="M 83.543182 336.593556 
L 137.712603 308.73951 
L 191.882025 276.570049 
L 246.051446 261.662251 
L 300.220868 363.859135 
L 354.390289 317.958807 
L 408.559711 315.604944 
L 462.729132 278.335447 
L 516.898554 366.409153 
L 571.067975 284.023949 
L 625.237397 340.908971 
L 679.406818 153.580709 
" clip-path="url(#p441e121ae5)" style="fill: none; stroke: #808080; stroke-opacity: 0.1; stroke-width: 1.5; stroke-linecap: square"/>
   </g>
   <g id="line2d_83">
    <path d="M 83.543182 248.127538 
L 137.712603 206.542626 
L 191.882025 374.059208 
L 246.051446 329.335811 
L 300.220868 379.551555 
L 354.390289 310.112597 
L 408.559711 374.059208 
L 462.729132 335.024314 
L 516.898554 338.751263 
L 571.067975 290.104762 
L 625.237397 344.24361 
L 679.406818 286.770122 
" clip-path="url(#p441e121ae5)" style="fill: none; stroke: #808080; stroke-opacity: 0.1; stroke-width: 1.5; stroke-linecap: square"/>
   </g>
   <g id="line2d_84">
    <path d="M 83.543182 250.873712 
L 137.712603 319.528049 
L 191.882025 336.789711 
L 246.051446 284.023949 
L 300.220868 369.743793 
L 354.390289 213.80037 
L 408.559711 205.365694 
L 462.729132 336.593556 
L 516.898554 301.874077 
L 571.067975 351.305199 
L 625.237397 271.273858 
L 679.406818 364.05529 
" clip-path="url(#p441e121ae5)" style="fill: none; stroke: #808080; stroke-opacity: 0.1; stroke-width: 1.5; stroke-linecap: square"/>
   </g>
   <g id="line2d_85">
    <path d="M 83.543182 362.878359 
L 137.712603 352.874441 
L 191.882025 312.07415 
L 246.051446 275.589273 
L 300.220868 202.22721 
L 354.390289 343.458989 
L 408.559711 265.3892 
L 462.729132 221.450425 
L 516.898554 235.965913 
L 571.067975 271.077703 
L 625.237397 217.135009 
L 679.406818 317.174186 
" clip-path="url(#p441e121ae5)" style="fill: none; stroke: #808080; stroke-opacity: 0.1; stroke-width: 1.5; stroke-linecap: square"/>
   </g>
   <g id="line2d_86">
    <path d="M 83.543182 263.819958 
L 137.712603 382.886194 
L 191.882025 356.20908 
L 246.051446 239.889018 
L 300.220868 325.216551 
L 354.390289 301.481766 
L 408.559711 318.939583 
L 462.729132 340.908971 
L 516.898554 198.696416 
L 571.067975 146.322964 
L 625.237397 329.728122 
L 679.406818 242.831347 
" clip-path="url(#p441e121ae5)" style="fill: none; stroke: #808080; stroke-opacity: 0.1; stroke-width: 1.5; stroke-linecap: square"/>
   </g>
   <g id="line2d_87">
    <path d="M 83.543182 230.669721 
L 137.712603 304.031784 
L 191.882025 309.131821 
L 246.051446 284.023949 
L 300.220868 229.49279 
L 354.390289 354.247528 
L 408.559711 354.443683 
L 462.729132 324.43193 
L 516.898554 218.311941 
L 571.067975 238.515931 
L 625.237397 303.051008 
L 679.406818 263.427648 
" clip-path="url(#p441e121ae5)" style="fill: none; stroke: #808080; stroke-opacity: 0.1; stroke-width: 1.5; stroke-linecap: square"/>
   </g>
   <g id="line2d_88">
    <path d="M 83.543182 164.565402 
L 137.712603 246.558296 
L 191.882025 290.497072 
L 246.051446 354.443683 
L 300.220868 328.747346 
L 354.390289 365.820688 
L 408.559711 347.774405 
L 462.729132 387.005455 
L 516.898554 201.246434 
L 571.067975 349.932113 
L 625.237397 331.689674 
L 679.406818 225.177374 
" clip-path="url(#p441e121ae5)" style="fill: none; stroke: #808080; stroke-opacity: 0.1; stroke-width: 1.5; stroke-linecap: square"/>
   </g>
   <g id="line2d_89">
    <path d="M 83.543182 306.189492 
L 137.712603 291.477848 
L 191.882025 326.001172 
L 246.051446 338.555108 
L 300.220868 336.985866 
L 354.390289 364.05529 
L 408.559711 331.101209 
L 462.729132 297.754816 
L 516.898554 344.439766 
L 571.067975 318.154962 
L 625.237397 209.092644 
L 679.406818 362.093738 
" clip-path="url(#p441e121ae5)" style="fill: none; stroke: #808080; stroke-opacity: 0.1; stroke-width: 1.5; stroke-linecap: square"/>
   </g>
   <g id="line2d_90">
    <path d="M 83.543182 367.38993 
L 137.712603 279.512378 
L 191.882025 365.232222 
L 246.051446 368.370706 
L 300.220868 332.27814 
L 354.390289 233.415895 
L 408.559711 319.724204 
L 462.729132 249.30447 
L 516.898554 374.255363 
L 571.067975 299.520214 
L 625.237397 295.204798 
L 679.406818 294.616332 
" clip-path="url(#p441e121ae5)" style="fill: none; stroke: #808080; stroke-opacity: 0.1; stroke-width: 1.5; stroke-linecap: square"/>
   </g>
   <g id="line2d_91">
    <path d="M 83.543182 253.03142 
L 137.712603 374.647674 
L 191.882025 287.358588 
L 246.051446 225.569685 
L 300.220868 325.020396 
L 354.390289 211.838817 
L 408.559711 334.828158 
L 462.729132 355.032149 
L 516.898554 189.084809 
L 571.067975 183.984772 
L 625.237397 275.785428 
L 679.406818 291.085538 
" clip-path="url(#p441e121ae5)" style="fill: none; stroke: #808080; stroke-opacity: 0.1; stroke-width: 1.5; stroke-linecap: square"/>
   </g>
   <g id="line2d_92">
    <path d="M 83.543182 252.835264 
L 137.712603 346.205163 
L 191.882025 337.378177 
L 246.051446 318.939583 
L 300.220868 317.370341 
L 354.390289 194.969466 
L 408.559711 370.724569 
L 462.729132 142.79217 
L 516.898554 217.52732 
L 571.067975 291.085538 
L 625.237397 326.393483 
L 679.406818 236.162068 
" clip-path="url(#p441e121ae5)" style="fill: none; stroke: #808080; stroke-opacity: 0.1; stroke-width: 1.5; stroke-linecap: square"/>
   </g>
   <g id="line2d_93">
    <path d="M 83.543182 355.228304 
L 137.712603 265.585356 
L 191.882025 356.20908 
L 246.051446 192.223293 
L 300.220868 216.546543 
L 354.390289 349.932113 
L 408.559711 284.023949 
L 462.729132 324.235775 
L 516.898554 180.061667 
L 571.067975 82.768664 
L 625.237397 192.419448 
L 679.406818 242.635191 
" clip-path="url(#p441e121ae5)" style="fill: none; stroke: #808080; stroke-opacity: 0.1; stroke-width: 1.5; stroke-linecap: square"/>
   </g>
   <g id="line2d_94">
    <path d="M 83.543182 240.085173 
L 137.712603 251.069867 
L 191.882025 200.657968 
L 246.051446 257.15068 
L 300.220868 336.593556 
L 354.390289 310.897218 
L 408.559711 318.547273 
L 462.729132 232.631274 
L 516.898554 270.685392 
L 571.067975 175.353941 
L 625.237397 321.293446 
L 679.406818 352.678286 
" clip-path="url(#p441e121ae5)" style="fill: none; stroke: #808080; stroke-opacity: 0.1; stroke-width: 1.5; stroke-linecap: square"/>
   </g>
   <g id="line2d_95">
    <path d="M 83.543182 287.554743 
L 137.712603 262.054561 
L 191.882025 313.839547 
L 246.051446 312.270305 
L 300.220868 257.346835 
L 354.390289 242.046726 
L 408.559711 255.777593 
L 462.729132 316.389565 
L 516.898554 348.362871 
L 571.067975 266.762287 
L 625.237397 91.399495 
L 679.406818 154.169174 
" clip-path="url(#p441e121ae5)" style="fill: none; stroke: #808080; stroke-opacity: 0.1; stroke-width: 1.5; stroke-linecap: square"/>
   </g>
   <g id="line2d_96">
    <path d="M 83.543182 243.223657 
L 137.712603 346.793629 
L 191.882025 355.424459 
L 246.051446 328.747346 
L 300.220868 310.897218 
L 354.390289 294.224022 
L 408.559711 331.101209 
L 462.729132 367.193774 
L 516.898554 371.116879 
L 571.067975 318.547273 
L 625.237397 164.369247 
L 679.406818 286.770122 
" clip-path="url(#p441e121ae5)" style="fill: none; stroke: #808080; stroke-opacity: 0.1; stroke-width: 1.5; stroke-linecap: square"/>
   </g>
   <g id="line2d_97">
    <path d="M 83.543182 246.558296 
L 137.712603 336.201245 
L 191.882025 329.728122 
L 246.051446 252.639109 
L 300.220868 299.324058 
L 354.390289 308.3472 
L 408.559711 313.839547 
L 462.729132 176.138562 
L 516.898554 350.716734 
L 571.067975 198.10795 
L 625.237397 329.531967 
L 679.406818 296.577885 
" clip-path="url(#p441e121ae5)" style="fill: none; stroke: #808080; stroke-opacity: 0.1; stroke-width: 1.5; stroke-linecap: square"/>
   </g>
   <g id="line2d_98">
    <path d="M 83.543182 345.224387 
L 137.712603 348.951336 
L 191.882025 302.070232 
L 246.051446 328.747346 
L 300.220868 348.755181 
L 354.390289 323.647309 
L 408.559711 297.754816 
L 462.729132 304.424095 
L 516.898554 294.420177 
L 571.067975 243.615968 
L 625.237397 330.316588 
L 679.406818 300.50099 
" clip-path="url(#p441e121ae5)" style="fill: none; stroke: #808080; stroke-opacity: 0.1; stroke-width: 1.5; stroke-linecap: square"/>
   </g>
   <g id="line2d_99">
    <path d="M 83.543182 354.639838 
L 137.712603 306.777958 
L 191.882025 300.108679 
L 246.051446 322.078067 
L 300.220868 207.915712 
L 354.390289 364.447601 
L 408.559711 341.301282 
L 462.729132 252.639109 
L 516.898554 234.200516 
L 571.067975 261.26994 
L 625.237397 195.361777 
L 679.406818 262.839182 
" clip-path="url(#p441e121ae5)" style="fill: none; stroke: #808080; stroke-opacity: 0.1; stroke-width: 1.5; stroke-linecap: square"/>
   </g>
   <g id="line2d_100">
    <path d="M 83.543182 277.746981 
L 137.712603 205.365694 
L 191.882025 301.677921 
L 246.051446 380.532331 
L 300.220868 230.669721 
L 354.390289 262.446872 
L 408.559711 161.623074 
L 462.729132 307.170268 
L 516.898554 353.462907 
L 571.067975 313.447236 
L 625.237397 221.254269 
L 679.406818 300.108679 
" clip-path="url(#p441e121ae5)" style="fill: none; stroke: #808080; stroke-opacity: 0.1; stroke-width: 1.5; stroke-linecap: square"/>
   </g>
   <g id="line2d_101">
    <path d="M 83.543182 252.246799 
L 137.712603 357.386012 
L 191.882025 250.677557 
L 246.051446 263.231493 
L 300.220868 261.662251 
L 354.390289 298.147127 
L 408.559711 236.946689 
L 462.729132 261.26994 
L 516.898554 303.247163 
L 571.067975 299.324058 
L 625.237397 272.254634 
L 679.406818 306.777958 
" clip-path="url(#p441e121ae5)" style="fill: none; stroke: #808080; stroke-opacity: 0.1; stroke-width: 1.5; stroke-linecap: square"/>
   </g>
   <g id="line2d_102">
    <path d="M 83.543182 245.57752 
L 137.712603 251.069867 
L 191.882025 328.747346 
L 246.051446 332.670451 
L 300.220868 329.139656 
L 354.390289 320.901136 
L 408.559711 247.539073 
L 462.729132 309.916442 
L 516.898554 316.978031 
L 571.067975 310.308752 
L 625.237397 97.284152 
L 679.406818 221.64658 
" clip-path="url(#p441e121ae5)" style="fill: none; stroke: #808080; stroke-opacity: 0.1; stroke-width: 1.5; stroke-linecap: square"/>
   </g>
   <g id="line2d_103">
    <path d="M 83.543182 285.985501 
L 137.712603 190.654051 
L 191.882025 309.524131 
L 246.051446 342.085903 
L 300.220868 347.185939 
L 354.390289 363.270669 
L 408.559711 352.285976 
L 462.729132 213.80037 
L 516.898554 312.662615 
L 571.067975 240.869794 
L 625.237397 324.43193 
L 679.406818 345.616697 
" clip-path="url(#p441e121ae5)" style="fill: none; stroke: #808080; stroke-opacity: 0.1; stroke-width: 1.5; stroke-linecap: square"/>
   </g>
   <g id="line2d_104">
    <path d="M 83.543182 236.946689 
L 137.712603 303.639474 
L 191.882025 358.955254 
L 246.051446 382.886194 
L 300.220868 339.339729 
L 354.390289 222.823511 
L 408.559711 289.908606 
L 462.729132 252.639109 
L 516.898554 318.939583 
L 571.067975 351.501355 
L 625.237397 330.708898 
L 679.406818 264.016114 
" clip-path="url(#p441e121ae5)" style="fill: none; stroke: #808080; stroke-opacity: 0.1; stroke-width: 1.5; stroke-linecap: square"/>
   </g>
   <g id="line2d_105">
    <path d="M 83.543182 320.116515 
L 137.712603 354.639838 
L 191.882025 355.81677 
L 246.051446 194.577156 
L 300.220868 337.770487 
L 354.390289 170.253905 
L 408.559711 246.754452 
L 462.729132 316.19341 
L 516.898554 306.777958 
L 571.067975 214.19268 
L 625.237397 246.754452 
L 679.406818 199.677192 
" clip-path="url(#p441e121ae5)" style="fill: none; stroke: #808080; stroke-opacity: 0.1; stroke-width: 1.5; stroke-linecap: square"/>
   </g>
   <g id="line2d_106">
    <path d="M 83.543182 289.320141 
L 137.712603 323.254999 
L 191.882025 284.023949 
L 246.051446 320.901136 
L 300.220868 305.601026 
L 354.390289 364.839911 
L 408.559711 338.162798 
L 462.729132 323.647309 
L 516.898554 290.300917 
L 571.067975 227.923548 
L 625.237397 289.516296 
L 679.406818 194.969466 
" clip-path="url(#p441e121ae5)" style="fill: none; stroke: #808080; stroke-opacity: 0.1; stroke-width: 1.5; stroke-linecap: square"/>
   </g>
   <g id="line2d_107">
    <path d="M 83.543182 69.037796 
L 137.712603 211.446507 
L 191.882025 333.062761 
L 246.051446 273.823876 
L 300.220868 221.64658 
L 354.390289 307.562579 
L 408.559711 289.516296 
L 462.729132 196.146397 
L 516.898554 366.409153 
L 571.067975 238.515931 
L 625.237397 135.730581 
L 679.406818 313.447236 
" clip-path="url(#p441e121ae5)" style="fill: none; stroke: #808080; stroke-opacity: 0.1; stroke-width: 1.5; stroke-linecap: square"/>
   </g>
   <g id="line2d_108">
    <path d="M 83.543182 263.231493 
L 137.712603 311.877994 
L 191.882025 340.516661 
L 246.051446 355.81677 
L 300.220868 305.993337 
L 354.390289 363.66298 
L 408.559711 246.754452 
L 462.729132 158.48459 
L 516.898554 289.516296 
L 571.067975 309.524131 
L 625.237397 293.04709 
L 679.406818 310.308752 
" clip-path="url(#p441e121ae5)" style="fill: none; stroke: #808080; stroke-opacity: 0.1; stroke-width: 1.5; stroke-linecap: square"/>
   </g>
   <g id="line2d_109">
    <path d="M 83.543182 240.869794 
L 137.712603 301.677921 
L 191.882025 244.792899 
L 246.051446 295.008643 
L 300.220868 269.11615 
L 354.390289 204.384918 
L 408.559711 356.20908 
L 462.729132 345.224387 
L 516.898554 304.816405 
L 571.067975 345.224387 
L 625.237397 218.115785 
L 679.406818 367.193774 
" clip-path="url(#p441e121ae5)" style="fill: none; stroke: #808080; stroke-opacity: 0.1; stroke-width: 1.5; stroke-linecap: square"/>
   </g>
   <g id="line2d_110">
    <path d="M 83.543182 269.508461 
L 137.712603 312.662615 
L 191.882025 336.985866 
L 246.051446 378.570779 
L 300.220868 260.485319 
L 354.390289 296.577885 
L 408.559711 211.054196 
L 462.729132 272.646945 
L 516.898554 271.862324 
L 571.067975 369.547637 
L 625.237397 320.508825 
L 679.406818 228.315858 
" clip-path="url(#p441e121ae5)" style="fill: none; stroke: #808080; stroke-opacity: 0.1; stroke-width: 1.5; stroke-linecap: square"/>
   </g>
   <g id="line2d_111">
    <path d="M 83.543182 273.823876 
L 137.712603 330.708898 
L 191.882025 228.315858 
L 246.051446 259.700698 
L 300.220868 273.039255 
L 354.390289 386.809299 
L 408.559711 358.562943 
L 462.729132 293.04709 
L 516.898554 329.924277 
L 571.067975 267.939219 
L 625.237397 242.831347 
L 679.406818 268.72384 
" clip-path="url(#p441e121ae5)" style="fill: none; stroke: #808080; stroke-opacity: 0.1; stroke-width: 1.5; stroke-linecap: square"/>
   </g>
   <g id="line2d_112">
    <path d="M 83.543182 322.470378 
L 137.712603 320.508825 
L 191.882025 290.300917 
L 246.051446 362.486048 
L 300.220868 316.978031 
L 354.390289 227.138927 
L 408.559711 287.947054 
L 462.729132 321.685757 
L 516.898554 264.016114 
L 571.067975 205.561849 
L 625.237397 240.869794 
L 679.406818 211.838817 
" clip-path="url(#p441e121ae5)" style="fill: none; stroke: #808080; stroke-opacity: 0.1; stroke-width: 1.5; stroke-linecap: square"/>
   </g>
   <g id="line2d_113">
    <path d="M 83.543182 294.224022 
L 137.712603 191.830982 
L 191.882025 303.639474 
L 246.051446 312.662615 
L 300.220868 383.670815 
L 354.390289 281.670086 
L 408.559711 318.547273 
L 462.729132 273.431566 
L 516.898554 348.362871 
L 571.067975 108.661157 
L 625.237397 289.123985 
L 679.406818 245.57752 
" clip-path="url(#p441e121ae5)" style="fill: none; stroke: #808080; stroke-opacity: 0.1; stroke-width: 1.5; stroke-linecap: square"/>
   </g>
   <g id="line2d_114">
    <path d="M 83.543182 198.10795 
L 137.712603 316.19341 
L 191.882025 339.339729 
L 246.051446 373.470742 
L 300.220868 221.64658 
L 354.390289 214.584991 
L 408.559711 267.546908 
L 462.729132 304.816405 
L 516.898554 284.80857 
L 571.067975 215.761922 
L 625.237397 367.586085 
L 679.406818 247.931383 
" clip-path="url(#p441e121ae5)" style="fill: none; stroke: #808080; stroke-opacity: 0.1; stroke-width: 1.5; stroke-linecap: square"/>
   </g>
   <g id="line2d_115">
    <path d="M 83.543182 353.855218 
L 137.712603 290.300917 
L 191.882025 326.001172 
L 246.051446 355.424459 
L 300.220868 320.508825 
L 354.390289 336.593556 
L 408.559711 372.686121 
L 462.729132 280.885465 
L 516.898554 218.900406 
L 571.067975 227.923548 
L 625.237397 144.753722 
L 679.406818 289.123985 
" clip-path="url(#p441e121ae5)" style="fill: none; stroke: #808080; stroke-opacity: 0.1; stroke-width: 1.5; stroke-linecap: square"/>
   </g>
   <g id="line2d_116">
    <path d="M 83.543182 257.739146 
L 137.712603 379.3554 
" clip-path="url(#p441e121ae5)" style="fill: none; stroke: #808080; stroke-opacity: 0.1; stroke-width: 1.5; stroke-linecap: square"/>
   </g>
   <g id="line2d_117">
    <path d="M 83.543182 322.470378 
L 137.712603 320.508825 
L 191.882025 290.300917 
L 246.051446 362.486048 
L 300.220868 316.978031 
L 354.390289 227.138927 
L 408.559711 287.947054 
L 462.729132 321.685757 
L 516.898554 264.016114 
L 571.067975 205.561849 
L 625.237397 240.869794 
L 679.406818 211.838817 
" clip-path="url(#p441e121ae5)" style="fill: none; stroke: #66c2a5; stroke-width: 1.5; stroke-linecap: square"/>
   </g>
   <g id="line2d_118">
    <path d="M 83.543182 294.224022 
L 137.712603 191.830982 
L 191.882025 303.639474 
L 246.051446 312.662615 
L 300.220868 383.670815 
L 354.390289 281.670086 
L 408.559711 318.547273 
L 462.729132 273.431566 
L 516.898554 348.362871 
L 571.067975 108.661157 
L 625.237397 289.123985 
L 679.406818 245.57752 
" clip-path="url(#p441e121ae5)" style="fill: none; stroke-dasharray: 6,2.25; stroke-dashoffset: 0; stroke: #fc8d62; stroke-width: 1.5"/>
   </g>
   <g id="line2d_119">
    <path d="M 83.543182 198.10795 
L 137.712603 316.19341 
L 191.882025 339.339729 
L 246.051446 373.470742 
L 300.220868 221.64658 
L 354.390289 214.584991 
L 408.559711 267.546908 
L 462.729132 304.816405 
L 516.898554 284.80857 
L 571.067975 215.761922 
L 625.237397 367.586085 
L 679.406818 247.931383 
" clip-path="url(#p441e121ae5)" style="fill: none; stroke-dasharray: 1.5,1.5; stroke-dashoffset: 0; stroke: #8da0cb; stroke-width: 1.5"/>
   </g>
   <g id="line2d_120">
    <path d="M 83.543182 353.855218 
L 137.712603 290.300917 
L 191.882025 326.001172 
L 246.051446 355.424459 
L 300.220868 320.508825 
L 354.390289 336.593556 
L 408.559711 372.686121 
L 462.729132 280.885465 
L 516.898554 218.900406 
L 571.067975 227.923548 
L 625.237397 144.753722 
L 679.406818 289.123985 
" clip-path="url(#p441e121ae5)" style="fill: none; stroke-dasharray: 4.5,1.875,2.25,1.875; stroke-dashoffset: 0; stroke: #e78ac3; stroke-width: 1.5"/>
   </g>
   <g id="line2d_121"/>
   <g id="line2d_122"/>
   <g id="line2d_123"/>
   <g id="line2d_124"/>
   <g id="patch_3">
    <path d="M 53.75 404.12 
L 53.75 27.6 
" style="fill: none; stroke: #ffffff; stroke-linejoin: miter; stroke-linecap: square"/>
   </g>
   <g id="patch_4">
    <path d="M 709.2 404.12 
L 709.2 27.6 
" style="fill: none; stroke: #ffffff; stroke-linejoin: miter; stroke-linecap: square"/>
   </g>
   <g id="patch_5">
    <path d="M 53.75 404.12 
L 709.2 404.12 
" style="fill: none; stroke: #ffffff; stroke-linejoin: miter; stroke-linecap: square"/>
   </g>
   <g id="patch_6">
    <path d="M 53.75 27.6 
L 709.2 27.6 
" style="fill: none; stroke: #ffffff; stroke-linejoin: miter; stroke-linecap: square"/>
   </g>
   <g id="text_22">
    <!-- Heathrow Rain (mm) 1959 - 2023 -->
    <g transform="translate(260.592625 21.6) scale(0.144 -0.144)">
     <defs>
      <path id="DejaVuSans-48" d="M 628 4666 
L 1259 4666 
L 1259 2753 
L 3553 2753 
L 3553 4666 
L 4184 4666 
L 4184 0 
L 3553 0 
L 3553 2222 
L 1259 2222 
L 1259 0 
L 628 0 
L 628 4666 
z
" transform="scale(0.015625)"/>
      <path id="DejaVuSans-68" d="M 3513 2113 
L 3513 0 
L 2938 0 
L 2938 2094 
Q 2938 2591 2744 2837 
Q 2550 3084 2163 3084 
Q 1697 3084 1428 2787 
Q 1159 2491 1159 1978 
L 1159 0 
L 581 0 
L 581 4863 
L 1159 4863 
L 1159 2956 
Q 1366 3272 1645 3428 
Q 1925 3584 2291 3584 
Q 2894 3584 3203 3211 
Q 3513 2838 3513 2113 
z
" transform="scale(0.015625)"/>
      <path id="DejaVuSans-77" d="M 269 3500 
L 844 3500 
L 1563 769 
L 2278 3500 
L 2956 3500 
L 3675 769 
L 4391 3500 
L 4966 3500 
L 4050 0 
L 3372 0 
L 2619 2869 
L 1863 0 
L 1184 0 
L 269 3500 
z
" transform="scale(0.015625)"/>
      <path id="DejaVuSans-39" d="M 703 97 
L 703 672 
Q 941 559 1184 500 
Q 1428 441 1663 441 
Q 2288 441 2617 861 
Q 2947 1281 2994 2138 
Q 2813 1869 2534 1725 
Q 2256 1581 1919 1581 
Q 1219 1581 811 2004 
Q 403 2428 403 3163 
Q 403 3881 828 4315 
Q 1253 4750 1959 4750 
Q 2769 4750 3195 4129 
Q 3622 3509 3622 2328 
Q 3622 1225 3098 567 
Q 2575 -91 1691 -91 
Q 1453 -91 1209 -44 
Q 966 3 703 97 
z
M 1959 2075 
Q 2384 2075 2632 2365 
Q 2881 2656 2881 3163 
Q 2881 3666 2632 3958 
Q 2384 4250 1959 4250 
Q 1534 4250 1286 3958 
Q 1038 3666 1038 3163 
Q 1038 2656 1286 2365 
Q 1534 2075 1959 2075 
z
" transform="scale(0.015625)"/>
      <path id="DejaVuSans-2d" d="M 313 2009 
L 1997 2009 
L 1997 1497 
L 313 1497 
L 313 2009 
z
" transform="scale(0.015625)"/>
      <path id="DejaVuSans-33" d="M 2597 2516 
Q 3050 2419 3304 2112 
Q 3559 1806 3559 1356 
Q 3559 666 3084 287 
Q 2609 -91 1734 -91 
Q 1441 -91 1130 -33 
Q 819 25 488 141 
L 488 750 
Q 750 597 1062 519 
Q 1375 441 1716 441 
Q 2309 441 2620 675 
Q 2931 909 2931 1356 
Q 2931 1769 2642 2001 
Q 2353 2234 1838 2234 
L 1294 2234 
L 1294 2753 
L 1863 2753 
Q 2328 2753 2575 2939 
Q 2822 3125 2822 3475 
Q 2822 3834 2567 4026 
Q 2313 4219 1838 4219 
Q 1578 4219 1281 4162 
Q 984 4106 628 3988 
L 628 4550 
Q 988 4650 1302 4700 
Q 1616 4750 1894 4750 
Q 2613 4750 3031 4423 
Q 3450 4097 3450 3541 
Q 3450 3153 3228 2886 
Q 3006 2619 2597 2516 
z
" transform="scale(0.015625)"/>
     </defs>
     <use xlink:href="#DejaVuSans-48"/>
     <use xlink:href="#DejaVuSans-65" x="75.195312"/>
     <use xlink:href="#DejaVuSans-61" x="136.71875"/>
     <use xlink:href="#DejaVuSans-74" x="197.998047"/>
     <use xlink:href="#DejaVuSans-68" x="237.207031"/>
     <use xlink:href="#DejaVuSans-72" x="300.585938"/>
     <use xlink:href="#DejaVuSans-6f" x="339.449219"/>
     <use xlink:href="#DejaVuSans-77" x="400.630859"/>
     <use xlink:href="#DejaVuSans-20" x="482.417969"/>
     <use xlink:href="#DejaVuSans-52" x="514.205078"/>
     <use xlink:href="#DejaVuSans-61" x="581.4375"/>
     <use xlink:href="#DejaVuSans-69" x="642.716797"/>
     <use xlink:href="#DejaVuSans-6e" x="670.5"/>
     <use xlink:href="#DejaVuSans-20" x="733.878906"/>
     <use xlink:href="#DejaVuSans-28" x="765.666016"/>
     <use xlink:href="#DejaVuSans-6d" x="804.679688"/>
     <use xlink:href="#DejaVuSans-6d" x="902.091797"/>
     <use xlink:href="#DejaVuSans-29" x="999.503906"/>
     <use xlink:href="#DejaVuSans-20" x="1038.517578"/>
     <use xlink:href="#DejaVuSans-31" x="1070.304688"/>
     <use xlink:href="#DejaVuSans-39" x="1133.927734"/>
     <use xlink:href="#DejaVuSans-35" x="1197.550781"/>
     <use xlink:href="#DejaVuSans-39" x="1261.173828"/>
     <use xlink:href="#DejaVuSans-20" x="1324.796875"/>
     <use xlink:href="#DejaVuSans-2d" x="1356.583984"/>
     <use xlink:href="#DejaVuSans-20" x="1392.667969"/>
     <use xlink:href="#DejaVuSans-32" x="1424.455078"/>
     <use xlink:href="#DejaVuSans-30" x="1488.078125"/>
     <use xlink:href="#DejaVuSans-32" x="1551.701172"/>
     <use xlink:href="#DejaVuSans-33" x="1615.324219"/>
    </g>
   </g>
   <g id="legend_1">
    <g id="patch_7">
     <path d="M 60.75 94.3125 
L 118.2 94.3125 
Q 120.2 94.3125 120.2 92.3125 
L 120.2 34.6 
Q 120.2 32.6 118.2 32.6 
L 60.75 32.6 
Q 58.75 32.6 58.75 34.6 
L 58.75 92.3125 
Q 58.75 94.3125 60.75 94.3125 
z
" style="fill: #e5e5e5; opacity: 0.8; stroke: #cccccc; stroke-width: 0.5; stroke-linejoin: miter"/>
    </g>
    <g id="line2d_125">
     <path d="M 62.75 40.698438 
L 72.75 40.698438 
L 82.75 40.698438 
" style="fill: none; stroke: #66c2a5; stroke-width: 1.5; stroke-linecap: square"/>
    </g>
    <g id="text_23">
     <!-- 2019 -->
     <g transform="translate(90.75 44.198438) scale(0.1 -0.1)">
      <use xlink:href="#DejaVuSans-32"/>
      <use xlink:href="#DejaVuSans-30" x="63.623047"/>
      <use xlink:href="#DejaVuSans-31" x="127.246094"/>
      <use xlink:href="#DejaVuSans-39" x="190.869141"/>
     </g>
    </g>
    <g id="line2d_126">
     <path d="M 62.75 55.376563 
L 72.75 55.376563 
L 82.75 55.376563 
" style="fill: none; stroke-dasharray: 6,2.25; stroke-dashoffset: 0; stroke: #fc8d62; stroke-width: 1.5"/>
    </g>
    <g id="text_24">
     <!-- 2020 -->
     <g transform="translate(90.75 58.876563) scale(0.1 -0.1)">
      <use xlink:href="#DejaVuSans-32"/>
      <use xlink:href="#DejaVuSans-30" x="63.623047"/>
      <use xlink:href="#DejaVuSans-32" x="127.246094"/>
      <use xlink:href="#DejaVuSans-30" x="190.869141"/>
     </g>
    </g>
    <g id="line2d_127">
     <path d="M 62.75 70.054688 
L 72.75 70.054688 
L 82.75 70.054688 
" style="fill: none; stroke-dasharray: 1.5,1.5; stroke-dashoffset: 0; stroke: #8da0cb; stroke-width: 1.5"/>
    </g>
    <g id="text_25">
     <!-- 2021 -->
     <g transform="translate(90.75 73.554688) scale(0.1 -0.1)">
      <use xlink:href="#DejaVuSans-32"/>
      <use xlink:href="#DejaVuSans-30" x="63.623047"/>
      <use xlink:href="#DejaVuSans-32" x="127.246094"/>
      <use xlink:href="#DejaVuSans-31" x="190.869141"/>
     </g>
    </g>
    <g id="line2d_128">
     <path d="M 62.75 84.732813 
L 72.75 84.732813 
L 82.75 84.732813 
" style="fill: none; stroke-dasharray: 4.5,1.875,2.25,1.875; stroke-dashoffset: 0; stroke: #e78ac3; stroke-width: 1.5"/>
    </g>
    <g id="text_26">
     <!-- 2022 -->
     <g transform="translate(90.75 88.232813) scale(0.1 -0.1)">
      <use xlink:href="#DejaVuSans-32"/>
      <use xlink:href="#DejaVuSans-30" x="63.623047"/>
      <use xlink:href="#DejaVuSans-32" x="127.246094"/>
      <use xlink:href="#DejaVuSans-32" x="190.869141"/>
     </g>
    </g>
   </g>
  </g>
 </g>
 <defs>
  <clipPath id="p441e121ae5">
   <rect x="53.75" y="27.6" width="655.45" height="376.52"/>
  </clipPath>
 </defs>
</svg>
