<?xml version="1.0" encoding="utf-8" standalone="no"?>
<!DOCTYPE svg PUBLIC "-//W3C//DTD SVG 1.1//EN"
  "http://www.w3.org/Graphics/SVG/1.1/DTD/svg11.dtd">
<svg xmlns:xlink="http://www.w3.org/1999/xlink" width="1152pt" height="576pt" viewBox="0 0 1152 576" xmlns="http://www.w3.org/2000/svg" version="1.1">
 <metadata>
  <rdf:RDF xmlns:dc="http://purl.org/dc/elements/1.1/" xmlns:cc="http://creativecommons.org/ns#" xmlns:rdf="http://www.w3.org/1999/02/22-rdf-syntax-ns#">
   <cc:Work>
    <dc:type rdf:resource="http://purl.org/dc/dcmitype/StillImage"/>
    <dc:date>2023-04-11T20:50:48.203052</dc:date>
    <dc:format>image/svg+xml</dc:format>
    <dc:creator>
     <cc:Agent>
      <dc:title>Matplotlib v3.7.1, https://matplotlib.org/</dc:title>
     </cc:Agent>
    </dc:creator>
   </cc:Work>
  </rdf:RDF>
 </metadata>
 <defs>
  <style type="text/css">*{stroke-linejoin: round; stroke-linecap: butt}</style>
 </defs>
 <g id="figure_1">
  <g id="patch_1">
   <path d="M 0 576 
L 1152 576 
L 1152 0 
L 0 0 
z
" style="fill: #ffffff"/>
  </g>
  <g id="axes_1">
   <g id="patch_2">
    <path d="M 617.068919 283.049299 
C 616.322173 280.506117 615.215471 278.082777 613.782477 275.852995 
C 612.349483 273.623212 610.604876 271.609828 608.601726 269.874089 
L 685.472424 181.160574 
C 695.935407 190.2268 705.04795 200.743235 712.532857 212.389979 
C 720.017765 224.036722 725.798364 236.694468 729.698813 249.978178 
z
" clip-path="url(#p6e5a8399f2)" style="fill: #ffa500; stroke: #ffffff; stroke-width: 2; stroke-linejoin: miter"/>
   </g>
   <g id="patch_3">
    <path d="M 608.601726 269.874089 
C 606.598575 268.138349 604.357402 266.698034 601.946379 265.596957 
C 599.535356 264.49588 596.979182 263.745319 594.355613 263.368107 
L 606.268281 180.513682 
C 616.792952 182.026901 627.047264 185.037839 636.719289 189.454905 
C 646.391314 193.871971 655.381975 199.649918 663.417784 206.612986 
z
" clip-path="url(#p6e5a8399f2)" style="fill: #ffa500; stroke: #ffffff; stroke-width: 2; stroke-linejoin: miter"/>
   </g>
   <g id="patch_4">
    <path d="M 594.355613 263.368107 
C 591.732044 262.990895 589.067956 262.990895 586.444387 263.368107 
C 583.820818 263.745319 581.264644 264.49588 578.853621 265.596957 
L 549.296603 200.876115 
C 557.879487 196.956444 566.979088 194.28456 576.318604 192.94174 
C 585.65812 191.59892 595.14188 191.59892 604.481396 192.94174 
z
" clip-path="url(#p6e5a8399f2)" style="fill: #ffa500; stroke: #ffffff; stroke-width: 2; stroke-linejoin: miter"/>
   </g>
   <g id="patch_5">
    <path d="M 578.853621 265.596957 
C 576.442598 266.698034 574.201425 268.138349 572.198274 269.874089 
C 570.195124 271.609828 568.450517 273.623212 567.017523 275.852995 
L 498.893254 232.072185 
C 504.501241 223.345987 511.328718 215.466659 519.167996 208.673885 
C 527.007275 201.881112 535.778053 196.244475 545.213532 191.935436 
z
" clip-path="url(#p6e5a8399f2)" style="fill: #ffa500; stroke: #ffffff; stroke-width: 2; stroke-linejoin: miter"/>
   </g>
   <g id="patch_6">
    <path d="M 567.017523 275.852995 
C 565.584529 278.082777 564.477827 280.506117 563.731081 283.049299 
C 562.984336 285.592481 562.605196 288.229452 562.605196 290.88 
L 449.473068 290.88 
C 449.473068 277.44103 451.395403 264.070892 455.181599 251.176295 
C 458.967794 238.281698 464.579065 225.994729 471.84472 214.689148 
z
" clip-path="url(#p6e5a8399f2)" style="fill: #ffa500; stroke: #ffffff; stroke-width: 2; stroke-linejoin: miter"/>
   </g>
   <g id="patch_7">
    <path d="M 562.605196 290.88 
C 562.605196 293.530548 562.984336 296.167519 563.731081 298.710701 
C 564.477827 301.253883 565.584529 303.677223 567.017523 305.907005 
L 446.956177 383.065748 
C 438.165228 369.386764 431.375972 354.520367 426.794933 338.918782 
C 422.213894 323.317197 419.887999 307.140239 419.887999 290.88 
z
" clip-path="url(#p6e5a8399f2)" style="fill: #ffa500; stroke: #ffffff; stroke-width: 2; stroke-linejoin: miter"/>
   </g>
   <g id="patch_8">
    <path d="M 567.017523 305.907005 
C 568.450517 308.136788 570.195124 310.150172 572.198274 311.885911 
C 574.201425 313.621651 576.442598 315.061966 578.853621 316.163043 
L 506.111969 475.445043 
C 488.511614 467.407231 472.151148 456.892998 457.528245 444.22218 
C 442.905341 431.551362 430.169791 416.853754 419.709 400.576445 
z
" clip-path="url(#p6e5a8399f2)" style="fill: #ffa500; stroke: #ffffff; stroke-width: 2; stroke-linejoin: miter"/>
   </g>
   <g id="patch_9">
    <path d="M 578.853621 316.163043 
C 581.264644 317.26412 583.820818 318.014681 586.444387 318.391893 
C 589.067956 318.769105 591.732044 318.769105 594.355613 318.391893 
L 620.645256 501.240379 
C 600.585026 504.124604 580.214974 504.124604 560.154744 501.240379 
C 540.094513 498.356153 520.549592 492.617246 502.114522 484.198232 
z
" clip-path="url(#p6e5a8399f2)" style="fill: #ffa500; stroke: #ffffff; stroke-width: 2; stroke-linejoin: miter"/>
   </g>
   <g id="patch_10">
    <path d="M 594.355613 318.391893 
C 596.979182 318.014681 599.535356 317.26412 601.946379 316.163043 
C 604.357402 315.061966 606.598575 313.621651 608.601726 311.885911 
L 729.447601 451.349486 
C 714.145029 464.60924 697.024133 475.612172 678.605718 484.02358 
C 660.187302 492.434989 640.660039 498.168711 620.617932 501.050331 
z
" clip-path="url(#p6e5a8399f2)" style="fill: #ffa500; stroke: #ffffff; stroke-width: 2; stroke-linejoin: miter"/>
   </g>
   <g id="patch_11">
    <path d="M 608.601726 311.885911 
C 610.604876 310.150172 612.349483 308.136788 613.782477 305.907005 
C 615.215471 303.677223 616.322173 301.253883 617.068919 298.710701 
L 790.154355 349.533171 
C 784.561115 368.581998 776.271742 386.733193 765.538392 403.43461 
C 754.805043 420.136028 741.737665 435.216586 726.733759 448.217545 
z
" clip-path="url(#p6e5a8399f2)" style="fill: #ffa500; stroke: #ffffff; stroke-width: 2; stroke-linejoin: miter"/>
   </g>
   <g id="patch_12">
    <path d="M 617.068919 298.710701 
C 617.815664 296.167519 618.194804 293.530548 618.194804 290.88 
C 618.194804 288.229452 617.815664 285.592481 617.068919 283.049299 
L 763.579044 240.030045 
C 768.42816 256.544616 770.890164 273.668231 770.890164 290.88 
C 770.890164 308.091769 768.42816 325.215384 763.579044 341.729955 
z
" clip-path="url(#p6e5a8399f2)" style="fill: #ffa500; stroke: #ffffff; stroke-width: 2; stroke-linejoin: miter"/>
   </g>
   <g id="text_1">
    <!-- Mar: 113.8 -->
    <g transform="translate(717.142352 212.707712) rotate(-32.727273) scale(0.1 -0.1)">
     <defs>
      <path id="DejaVuSans-4d" d="M 628 4666 
L 1569 4666 
L 2759 1491 
L 3956 4666 
L 4897 4666 
L 4897 0 
L 4281 0 
L 4281 4097 
L 3078 897 
L 2444 897 
L 1241 4097 
L 1241 0 
L 628 0 
L 628 4666 
z
" transform="scale(0.015625)"/>
      <path id="DejaVuSans-61" d="M 2194 1759 
Q 1497 1759 1228 1600 
Q 959 1441 959 1056 
Q 959 750 1161 570 
Q 1363 391 1709 391 
Q 2188 391 2477 730 
Q 2766 1069 2766 1631 
L 2766 1759 
L 2194 1759 
z
M 3341 1997 
L 3341 0 
L 2766 0 
L 2766 531 
Q 2569 213 2275 61 
Q 1981 -91 1556 -91 
Q 1019 -91 701 211 
Q 384 513 384 1019 
Q 384 1609 779 1909 
Q 1175 2209 1959 2209 
L 2766 2209 
L 2766 2266 
Q 2766 2663 2505 2880 
Q 2244 3097 1772 3097 
Q 1472 3097 1187 3025 
Q 903 2953 641 2809 
L 641 3341 
Q 956 3463 1253 3523 
Q 1550 3584 1831 3584 
Q 2591 3584 2966 3190 
Q 3341 2797 3341 1997 
z
" transform="scale(0.015625)"/>
      <path id="DejaVuSans-72" d="M 2631 2963 
Q 2534 3019 2420 3045 
Q 2306 3072 2169 3072 
Q 1681 3072 1420 2755 
Q 1159 2438 1159 1844 
L 1159 0 
L 581 0 
L 581 3500 
L 1159 3500 
L 1159 2956 
Q 1341 3275 1631 3429 
Q 1922 3584 2338 3584 
Q 2397 3584 2469 3576 
Q 2541 3569 2628 3553 
L 2631 2963 
z
" transform="scale(0.015625)"/>
      <path id="DejaVuSans-3a" d="M 750 794 
L 1409 794 
L 1409 0 
L 750 0 
L 750 794 
z
M 750 3309 
L 1409 3309 
L 1409 2516 
L 750 2516 
L 750 3309 
z
" transform="scale(0.015625)"/>
      <path id="DejaVuSans-20" transform="scale(0.015625)"/>
      <path id="DejaVuSans-31" d="M 794 531 
L 1825 531 
L 1825 4091 
L 703 3866 
L 703 4441 
L 1819 4666 
L 2450 4666 
L 2450 531 
L 3481 531 
L 3481 0 
L 794 0 
L 794 531 
z
" transform="scale(0.015625)"/>
      <path id="DejaVuSans-33" d="M 2597 2516 
Q 3050 2419 3304 2112 
Q 3559 1806 3559 1356 
Q 3559 666 3084 287 
Q 2609 -91 1734 -91 
Q 1441 -91 1130 -33 
Q 819 25 488 141 
L 488 750 
Q 750 597 1062 519 
Q 1375 441 1716 441 
Q 2309 441 2620 675 
Q 2931 909 2931 1356 
Q 2931 1769 2642 2001 
Q 2353 2234 1838 2234 
L 1294 2234 
L 1294 2753 
L 1863 2753 
Q 2328 2753 2575 2939 
Q 2822 3125 2822 3475 
Q 2822 3834 2567 4026 
Q 2313 4219 1838 4219 
Q 1578 4219 1281 4162 
Q 984 4106 628 3988 
L 628 4550 
Q 988 4650 1302 4700 
Q 1616 4750 1894 4750 
Q 2613 4750 3031 4423 
Q 3450 4097 3450 3541 
Q 3450 3153 3228 2886 
Q 3006 2619 2597 2516 
z
" transform="scale(0.015625)"/>
      <path id="DejaVuSans-2e" d="M 684 794 
L 1344 794 
L 1344 0 
L 684 0 
L 684 794 
z
" transform="scale(0.015625)"/>
      <path id="DejaVuSans-38" d="M 2034 2216 
Q 1584 2216 1326 1975 
Q 1069 1734 1069 1313 
Q 1069 891 1326 650 
Q 1584 409 2034 409 
Q 2484 409 2743 651 
Q 3003 894 3003 1313 
Q 3003 1734 2745 1975 
Q 2488 2216 2034 2216 
z
M 1403 2484 
Q 997 2584 770 2862 
Q 544 3141 544 3541 
Q 544 4100 942 4425 
Q 1341 4750 2034 4750 
Q 2731 4750 3128 4425 
Q 3525 4100 3525 3541 
Q 3525 3141 3298 2862 
Q 3072 2584 2669 2484 
Q 3125 2378 3379 2068 
Q 3634 1759 3634 1313 
Q 3634 634 3220 271 
Q 2806 -91 2034 -91 
Q 1263 -91 848 271 
Q 434 634 434 1313 
Q 434 1759 690 2068 
Q 947 2378 1403 2484 
z
M 1172 3481 
Q 1172 3119 1398 2916 
Q 1625 2713 2034 2713 
Q 2441 2713 2670 2916 
Q 2900 3119 2900 3481 
Q 2900 3844 2670 4047 
Q 2441 4250 2034 4250 
Q 1625 4250 1398 4047 
Q 1172 3844 1172 3481 
z
" transform="scale(0.015625)"/>
     </defs>
     <use xlink:href="#DejaVuSans-4d"/>
     <use xlink:href="#DejaVuSans-61" x="86.279297"/>
     <use xlink:href="#DejaVuSans-72" x="147.558594"/>
     <use xlink:href="#DejaVuSans-3a" x="186.921875"/>
     <use xlink:href="#DejaVuSans-20" x="220.613281"/>
     <use xlink:href="#DejaVuSans-31" x="252.400391"/>
     <use xlink:href="#DejaVuSans-31" x="316.023438"/>
     <use xlink:href="#DejaVuSans-33" x="379.646484"/>
     <use xlink:href="#DejaVuSans-2e" x="443.269531"/>
     <use xlink:href="#DejaVuSans-38" x="475.056641"/>
    </g>
   </g>
   <g id="text_2">
    <!-- Feb: 71.0 -->
    <g transform="translate(640.768822 187.230118) rotate(-65.454545) scale(0.1 -0.1)">
     <defs>
      <path id="DejaVuSans-46" d="M 628 4666 
L 3309 4666 
L 3309 4134 
L 1259 4134 
L 1259 2759 
L 3109 2759 
L 3109 2228 
L 1259 2228 
L 1259 0 
L 628 0 
L 628 4666 
z
" transform="scale(0.015625)"/>
      <path id="DejaVuSans-65" d="M 3597 1894 
L 3597 1613 
L 953 1613 
Q 991 1019 1311 708 
Q 1631 397 2203 397 
Q 2534 397 2845 478 
Q 3156 559 3463 722 
L 3463 178 
Q 3153 47 2828 -22 
Q 2503 -91 2169 -91 
Q 1331 -91 842 396 
Q 353 884 353 1716 
Q 353 2575 817 3079 
Q 1281 3584 2069 3584 
Q 2775 3584 3186 3129 
Q 3597 2675 3597 1894 
z
M 3022 2063 
Q 3016 2534 2758 2815 
Q 2500 3097 2075 3097 
Q 1594 3097 1305 2825 
Q 1016 2553 972 2059 
L 3022 2063 
z
" transform="scale(0.015625)"/>
      <path id="DejaVuSans-62" d="M 3116 1747 
Q 3116 2381 2855 2742 
Q 2594 3103 2138 3103 
Q 1681 3103 1420 2742 
Q 1159 2381 1159 1747 
Q 1159 1113 1420 752 
Q 1681 391 2138 391 
Q 2594 391 2855 752 
Q 3116 1113 3116 1747 
z
M 1159 2969 
Q 1341 3281 1617 3432 
Q 1894 3584 2278 3584 
Q 2916 3584 3314 3078 
Q 3713 2572 3713 1747 
Q 3713 922 3314 415 
Q 2916 -91 2278 -91 
Q 1894 -91 1617 61 
Q 1341 213 1159 525 
L 1159 0 
L 581 0 
L 581 4863 
L 1159 4863 
L 1159 2969 
z
" transform="scale(0.015625)"/>
      <path id="DejaVuSans-37" d="M 525 4666 
L 3525 4666 
L 3525 4397 
L 1831 0 
L 1172 0 
L 2766 4134 
L 525 4134 
L 525 4666 
z
" transform="scale(0.015625)"/>
      <path id="DejaVuSans-30" d="M 2034 4250 
Q 1547 4250 1301 3770 
Q 1056 3291 1056 2328 
Q 1056 1369 1301 889 
Q 1547 409 2034 409 
Q 2525 409 2770 889 
Q 3016 1369 3016 2328 
Q 3016 3291 2770 3770 
Q 2525 4250 2034 4250 
z
M 2034 4750 
Q 2819 4750 3233 4129 
Q 3647 3509 3647 2328 
Q 3647 1150 3233 529 
Q 2819 -91 2034 -91 
Q 1250 -91 836 529 
Q 422 1150 422 2328 
Q 422 3509 836 4129 
Q 1250 4750 2034 4750 
z
" transform="scale(0.015625)"/>
     </defs>
     <use xlink:href="#DejaVuSans-46"/>
     <use xlink:href="#DejaVuSans-65" x="52.019531"/>
     <use xlink:href="#DejaVuSans-62" x="113.542969"/>
     <use xlink:href="#DejaVuSans-3a" x="177.019531"/>
     <use xlink:href="#DejaVuSans-20" x="210.710938"/>
     <use xlink:href="#DejaVuSans-37" x="242.498047"/>
     <use xlink:href="#DejaVuSans-31" x="306.121094"/>
     <use xlink:href="#DejaVuSans-2e" x="369.744141"/>
     <use xlink:href="#DejaVuSans-30" x="401.53125"/>
    </g>
   </g>
   <g id="text_3">
    <!-- Jan: 55.1 -->
    <g transform="translate(566.765582 145.888241) rotate(-278.181818) scale(0.1 -0.1)">
     <defs>
      <path id="DejaVuSans-4a" d="M 628 4666 
L 1259 4666 
L 1259 325 
Q 1259 -519 939 -900 
Q 619 -1281 -91 -1281 
L -331 -1281 
L -331 -750 
L -134 -750 
Q 284 -750 456 -515 
Q 628 -281 628 325 
L 628 4666 
z
" transform="scale(0.015625)"/>
      <path id="DejaVuSans-6e" d="M 3513 2113 
L 3513 0 
L 2938 0 
L 2938 2094 
Q 2938 2591 2744 2837 
Q 2550 3084 2163 3084 
Q 1697 3084 1428 2787 
Q 1159 2491 1159 1978 
L 1159 0 
L 581 0 
L 581 3500 
L 1159 3500 
L 1159 2956 
Q 1366 3272 1645 3428 
Q 1925 3584 2291 3584 
Q 2894 3584 3203 3211 
Q 3513 2838 3513 2113 
z
" transform="scale(0.015625)"/>
      <path id="DejaVuSans-35" d="M 691 4666 
L 3169 4666 
L 3169 4134 
L 1269 4134 
L 1269 2991 
Q 1406 3038 1543 3061 
Q 1681 3084 1819 3084 
Q 2600 3084 3056 2656 
Q 3513 2228 3513 1497 
Q 3513 744 3044 326 
Q 2575 -91 1722 -91 
Q 1428 -91 1123 -41 
Q 819 9 494 109 
L 494 744 
Q 775 591 1075 516 
Q 1375 441 1709 441 
Q 2250 441 2565 725 
Q 2881 1009 2881 1497 
Q 2881 1984 2565 2268 
Q 2250 2553 1709 2553 
Q 1456 2553 1204 2497 
Q 953 2441 691 2322 
L 691 4666 
z
" transform="scale(0.015625)"/>
     </defs>
     <use xlink:href="#DejaVuSans-4a"/>
     <use xlink:href="#DejaVuSans-61" x="29.492188"/>
     <use xlink:href="#DejaVuSans-6e" x="90.771484"/>
     <use xlink:href="#DejaVuSans-3a" x="154.150391"/>
     <use xlink:href="#DejaVuSans-20" x="187.841797"/>
     <use xlink:href="#DejaVuSans-35" x="219.628906"/>
     <use xlink:href="#DejaVuSans-35" x="283.251953"/>
     <use xlink:href="#DejaVuSans-2e" x="346.875"/>
     <use xlink:href="#DejaVuSans-31" x="378.662109"/>
    </g>
   </g>
   <g id="text_4">
    <!-- Nov: 67.6 -->
    <g transform="translate(483.365639 171.569444) rotate(-310.909091) scale(0.1 -0.1)">
     <defs>
      <path id="DejaVuSans-4e" d="M 628 4666 
L 1478 4666 
L 3547 763 
L 3547 4666 
L 4159 4666 
L 4159 0 
L 3309 0 
L 1241 3903 
L 1241 0 
L 628 0 
L 628 4666 
z
" transform="scale(0.015625)"/>
      <path id="DejaVuSans-6f" d="M 1959 3097 
Q 1497 3097 1228 2736 
Q 959 2375 959 1747 
Q 959 1119 1226 758 
Q 1494 397 1959 397 
Q 2419 397 2687 759 
Q 2956 1122 2956 1747 
Q 2956 2369 2687 2733 
Q 2419 3097 1959 3097 
z
M 1959 3584 
Q 2709 3584 3137 3096 
Q 3566 2609 3566 1747 
Q 3566 888 3137 398 
Q 2709 -91 1959 -91 
Q 1206 -91 779 398 
Q 353 888 353 1747 
Q 353 2609 779 3096 
Q 1206 3584 1959 3584 
z
" transform="scale(0.015625)"/>
      <path id="DejaVuSans-76" d="M 191 3500 
L 800 3500 
L 1894 563 
L 2988 3500 
L 3597 3500 
L 2284 0 
L 1503 0 
L 191 3500 
z
" transform="scale(0.015625)"/>
      <path id="DejaVuSans-36" d="M 2113 2584 
Q 1688 2584 1439 2293 
Q 1191 2003 1191 1497 
Q 1191 994 1439 701 
Q 1688 409 2113 409 
Q 2538 409 2786 701 
Q 3034 994 3034 1497 
Q 3034 2003 2786 2293 
Q 2538 2584 2113 2584 
z
M 3366 4563 
L 3366 3988 
Q 3128 4100 2886 4159 
Q 2644 4219 2406 4219 
Q 1781 4219 1451 3797 
Q 1122 3375 1075 2522 
Q 1259 2794 1537 2939 
Q 1816 3084 2150 3084 
Q 2853 3084 3261 2657 
Q 3669 2231 3669 1497 
Q 3669 778 3244 343 
Q 2819 -91 2113 -91 
Q 1303 -91 875 529 
Q 447 1150 447 2328 
Q 447 3434 972 4092 
Q 1497 4750 2381 4750 
Q 2619 4750 2861 4703 
Q 3103 4656 3366 4563 
z
" transform="scale(0.015625)"/>
     </defs>
     <use xlink:href="#DejaVuSans-4e"/>
     <use xlink:href="#DejaVuSans-6f" x="74.804688"/>
     <use xlink:href="#DejaVuSans-76" x="135.986328"/>
     <use xlink:href="#DejaVuSans-3a" x="189.666016"/>
     <use xlink:href="#DejaVuSans-20" x="223.357422"/>
     <use xlink:href="#DejaVuSans-36" x="255.144531"/>
     <use xlink:href="#DejaVuSans-37" x="318.767578"/>
     <use xlink:href="#DejaVuSans-2e" x="382.390625"/>
     <use xlink:href="#DejaVuSans-36" x="414.177734"/>
    </g>
   </g>
   <g id="text_5">
    <!-- Oct: 108.4 -->
    <g transform="translate(400.507938 237.998528) rotate(-343.636364) scale(0.1 -0.1)">
     <defs>
      <path id="DejaVuSans-4f" d="M 2522 4238 
Q 1834 4238 1429 3725 
Q 1025 3213 1025 2328 
Q 1025 1447 1429 934 
Q 1834 422 2522 422 
Q 3209 422 3611 934 
Q 4013 1447 4013 2328 
Q 4013 3213 3611 3725 
Q 3209 4238 2522 4238 
z
M 2522 4750 
Q 3503 4750 4090 4092 
Q 4678 3434 4678 2328 
Q 4678 1225 4090 567 
Q 3503 -91 2522 -91 
Q 1538 -91 948 565 
Q 359 1222 359 2328 
Q 359 3434 948 4092 
Q 1538 4750 2522 4750 
z
" transform="scale(0.015625)"/>
      <path id="DejaVuSans-63" d="M 3122 3366 
L 3122 2828 
Q 2878 2963 2633 3030 
Q 2388 3097 2138 3097 
Q 1578 3097 1268 2742 
Q 959 2388 959 1747 
Q 959 1106 1268 751 
Q 1578 397 2138 397 
Q 2388 397 2633 464 
Q 2878 531 3122 666 
L 3122 134 
Q 2881 22 2623 -34 
Q 2366 -91 2075 -91 
Q 1284 -91 818 406 
Q 353 903 353 1747 
Q 353 2603 823 3093 
Q 1294 3584 2113 3584 
Q 2378 3584 2631 3529 
Q 2884 3475 3122 3366 
z
" transform="scale(0.015625)"/>
      <path id="DejaVuSans-74" d="M 1172 4494 
L 1172 3500 
L 2356 3500 
L 2356 3053 
L 1172 3053 
L 1172 1153 
Q 1172 725 1289 603 
Q 1406 481 1766 481 
L 2356 481 
L 2356 0 
L 1766 0 
Q 1100 0 847 248 
Q 594 497 594 1153 
L 594 3053 
L 172 3053 
L 172 3500 
L 594 3500 
L 594 4494 
L 1172 4494 
z
" transform="scale(0.015625)"/>
      <path id="DejaVuSans-34" d="M 2419 4116 
L 825 1625 
L 2419 1625 
L 2419 4116 
z
M 2253 4666 
L 3047 4666 
L 3047 1625 
L 3713 1625 
L 3713 1100 
L 3047 1100 
L 3047 0 
L 2419 0 
L 2419 1100 
L 313 1100 
L 313 1709 
L 2253 4666 
z
" transform="scale(0.015625)"/>
     </defs>
     <use xlink:href="#DejaVuSans-4f"/>
     <use xlink:href="#DejaVuSans-63" x="78.710938"/>
     <use xlink:href="#DejaVuSans-74" x="133.691406"/>
     <use xlink:href="#DejaVuSans-3a" x="172.900391"/>
     <use xlink:href="#DejaVuSans-20" x="206.591797"/>
     <use xlink:href="#DejaVuSans-31" x="238.378906"/>
     <use xlink:href="#DejaVuSans-30" x="302.001953"/>
     <use xlink:href="#DejaVuSans-38" x="365.625"/>
     <use xlink:href="#DejaVuSans-2e" x="429.248047"/>
     <use xlink:href="#DejaVuSans-34" x="461.035156"/>
    </g>
   </g>
   <g id="text_6">
    <!-- Sep: 146.0 -->
    <g transform="translate(372.179875 357.831078) rotate(-16.363636) scale(0.1 -0.1)">
     <defs>
      <path id="DejaVuSans-53" d="M 3425 4513 
L 3425 3897 
Q 3066 4069 2747 4153 
Q 2428 4238 2131 4238 
Q 1616 4238 1336 4038 
Q 1056 3838 1056 3469 
Q 1056 3159 1242 3001 
Q 1428 2844 1947 2747 
L 2328 2669 
Q 3034 2534 3370 2195 
Q 3706 1856 3706 1288 
Q 3706 609 3251 259 
Q 2797 -91 1919 -91 
Q 1588 -91 1214 -16 
Q 841 59 441 206 
L 441 856 
Q 825 641 1194 531 
Q 1563 422 1919 422 
Q 2459 422 2753 634 
Q 3047 847 3047 1241 
Q 3047 1584 2836 1778 
Q 2625 1972 2144 2069 
L 1759 2144 
Q 1053 2284 737 2584 
Q 422 2884 422 3419 
Q 422 4038 858 4394 
Q 1294 4750 2059 4750 
Q 2388 4750 2728 4690 
Q 3069 4631 3425 4513 
z
" transform="scale(0.015625)"/>
      <path id="DejaVuSans-70" d="M 1159 525 
L 1159 -1331 
L 581 -1331 
L 581 3500 
L 1159 3500 
L 1159 2969 
Q 1341 3281 1617 3432 
Q 1894 3584 2278 3584 
Q 2916 3584 3314 3078 
Q 3713 2572 3713 1747 
Q 3713 922 3314 415 
Q 2916 -91 2278 -91 
Q 1894 -91 1617 61 
Q 1341 213 1159 525 
z
M 3116 1747 
Q 3116 2381 2855 2742 
Q 2594 3103 2138 3103 
Q 1681 3103 1420 2742 
Q 1159 2381 1159 1747 
Q 1159 1113 1420 752 
Q 1681 391 2138 391 
Q 2594 391 2855 752 
Q 3116 1113 3116 1747 
z
" transform="scale(0.015625)"/>
     </defs>
     <use xlink:href="#DejaVuSans-53"/>
     <use xlink:href="#DejaVuSans-65" x="63.476562"/>
     <use xlink:href="#DejaVuSans-70" x="125"/>
     <use xlink:href="#DejaVuSans-3a" x="188.476562"/>
     <use xlink:href="#DejaVuSans-20" x="222.167969"/>
     <use xlink:href="#DejaVuSans-31" x="253.955078"/>
     <use xlink:href="#DejaVuSans-34" x="317.578125"/>
     <use xlink:href="#DejaVuSans-36" x="381.201172"/>
     <use xlink:href="#DejaVuSans-2e" x="444.824219"/>
     <use xlink:href="#DejaVuSans-30" x="476.611328"/>
    </g>
   </g>
   <g id="text_7">
    <!-- Aug: 187.2 -->
    <g transform="translate(421.364839 490.170657) rotate(-49.090909) scale(0.1 -0.1)">
     <defs>
      <path id="DejaVuSans-41" d="M 2188 4044 
L 1331 1722 
L 3047 1722 
L 2188 4044 
z
M 1831 4666 
L 2547 4666 
L 4325 0 
L 3669 0 
L 3244 1197 
L 1141 1197 
L 716 0 
L 50 0 
L 1831 4666 
z
" transform="scale(0.015625)"/>
      <path id="DejaVuSans-75" d="M 544 1381 
L 544 3500 
L 1119 3500 
L 1119 1403 
Q 1119 906 1312 657 
Q 1506 409 1894 409 
Q 2359 409 2629 706 
Q 2900 1003 2900 1516 
L 2900 3500 
L 3475 3500 
L 3475 0 
L 2900 0 
L 2900 538 
Q 2691 219 2414 64 
Q 2138 -91 1772 -91 
Q 1169 -91 856 284 
Q 544 659 544 1381 
z
M 1991 3584 
L 1991 3584 
z
" transform="scale(0.015625)"/>
      <path id="DejaVuSans-67" d="M 2906 1791 
Q 2906 2416 2648 2759 
Q 2391 3103 1925 3103 
Q 1463 3103 1205 2759 
Q 947 2416 947 1791 
Q 947 1169 1205 825 
Q 1463 481 1925 481 
Q 2391 481 2648 825 
Q 2906 1169 2906 1791 
z
M 3481 434 
Q 3481 -459 3084 -895 
Q 2688 -1331 1869 -1331 
Q 1566 -1331 1297 -1286 
Q 1028 -1241 775 -1147 
L 775 -588 
Q 1028 -725 1275 -790 
Q 1522 -856 1778 -856 
Q 2344 -856 2625 -561 
Q 2906 -266 2906 331 
L 2906 616 
Q 2728 306 2450 153 
Q 2172 0 1784 0 
Q 1141 0 747 490 
Q 353 981 353 1791 
Q 353 2603 747 3093 
Q 1141 3584 1784 3584 
Q 2172 3584 2450 3431 
Q 2728 3278 2906 2969 
L 2906 3500 
L 3481 3500 
L 3481 434 
z
" transform="scale(0.015625)"/>
      <path id="DejaVuSans-32" d="M 1228 531 
L 3431 531 
L 3431 0 
L 469 0 
L 469 531 
Q 828 903 1448 1529 
Q 2069 2156 2228 2338 
Q 2531 2678 2651 2914 
Q 2772 3150 2772 3378 
Q 2772 3750 2511 3984 
Q 2250 4219 1831 4219 
Q 1534 4219 1204 4116 
Q 875 4013 500 3803 
L 500 4441 
Q 881 4594 1212 4672 
Q 1544 4750 1819 4750 
Q 2544 4750 2975 4387 
Q 3406 4025 3406 3419 
Q 3406 3131 3298 2873 
Q 3191 2616 2906 2266 
Q 2828 2175 2409 1742 
Q 1991 1309 1228 531 
z
" transform="scale(0.015625)"/>
     </defs>
     <use xlink:href="#DejaVuSans-41"/>
     <use xlink:href="#DejaVuSans-75" x="68.408203"/>
     <use xlink:href="#DejaVuSans-67" x="131.787109"/>
     <use xlink:href="#DejaVuSans-3a" x="195.263672"/>
     <use xlink:href="#DejaVuSans-20" x="228.955078"/>
     <use xlink:href="#DejaVuSans-31" x="260.742188"/>
     <use xlink:href="#DejaVuSans-38" x="324.365234"/>
     <use xlink:href="#DejaVuSans-37" x="387.988281"/>
     <use xlink:href="#DejaVuSans-2e" x="451.611328"/>
     <use xlink:href="#DejaVuSans-32" x="483.398438"/>
    </g>
   </g>
   <g id="text_8">
    <!-- July: 199.4 -->
    <g transform="translate(554.896428 557.202) rotate(-81.818182) scale(0.1 -0.1)">
     <defs>
      <path id="DejaVuSans-6c" d="M 603 4863 
L 1178 4863 
L 1178 0 
L 603 0 
L 603 4863 
z
" transform="scale(0.015625)"/>
      <path id="DejaVuSans-79" d="M 2059 -325 
Q 1816 -950 1584 -1140 
Q 1353 -1331 966 -1331 
L 506 -1331 
L 506 -850 
L 844 -850 
Q 1081 -850 1212 -737 
Q 1344 -625 1503 -206 
L 1606 56 
L 191 3500 
L 800 3500 
L 1894 763 
L 2988 3500 
L 3597 3500 
L 2059 -325 
z
" transform="scale(0.015625)"/>
      <path id="DejaVuSans-39" d="M 703 97 
L 703 672 
Q 941 559 1184 500 
Q 1428 441 1663 441 
Q 2288 441 2617 861 
Q 2947 1281 2994 2138 
Q 2813 1869 2534 1725 
Q 2256 1581 1919 1581 
Q 1219 1581 811 2004 
Q 403 2428 403 3163 
Q 403 3881 828 4315 
Q 1253 4750 1959 4750 
Q 2769 4750 3195 4129 
Q 3622 3509 3622 2328 
Q 3622 1225 3098 567 
Q 2575 -91 1691 -91 
Q 1453 -91 1209 -44 
Q 966 3 703 97 
z
M 1959 2075 
Q 2384 2075 2632 2365 
Q 2881 2656 2881 3163 
Q 2881 3666 2632 3958 
Q 2384 4250 1959 4250 
Q 1534 4250 1286 3958 
Q 1038 3666 1038 3163 
Q 1038 2656 1286 2365 
Q 1534 2075 1959 2075 
z
" transform="scale(0.015625)"/>
     </defs>
     <use xlink:href="#DejaVuSans-4a"/>
     <use xlink:href="#DejaVuSans-75" x="29.492188"/>
     <use xlink:href="#DejaVuSans-6c" x="92.871094"/>
     <use xlink:href="#DejaVuSans-79" x="120.654297"/>
     <use xlink:href="#DejaVuSans-3a" x="172.583984"/>
     <use xlink:href="#DejaVuSans-20" x="206.275391"/>
     <use xlink:href="#DejaVuSans-31" x="238.0625"/>
     <use xlink:href="#DejaVuSans-39" x="301.685547"/>
     <use xlink:href="#DejaVuSans-39" x="365.308594"/>
     <use xlink:href="#DejaVuSans-2e" x="428.931641"/>
     <use xlink:href="#DejaVuSans-34" x="460.71875"/>
    </g>
   </g>
   <g id="text_9">
    <!-- June: 199.1 -->
    <g transform="translate(677.635219 488.540938) rotate(-294.545455) scale(0.1 -0.1)">
     <use xlink:href="#DejaVuSans-4a"/>
     <use xlink:href="#DejaVuSans-75" x="29.492188"/>
     <use xlink:href="#DejaVuSans-6e" x="92.871094"/>
     <use xlink:href="#DejaVuSans-65" x="156.25"/>
     <use xlink:href="#DejaVuSans-3a" x="217.773438"/>
     <use xlink:href="#DejaVuSans-20" x="251.464844"/>
     <use xlink:href="#DejaVuSans-31" x="283.251953"/>
     <use xlink:href="#DejaVuSans-39" x="346.875"/>
     <use xlink:href="#DejaVuSans-39" x="410.498047"/>
     <use xlink:href="#DejaVuSans-2e" x="474.121094"/>
     <use xlink:href="#DejaVuSans-31" x="505.908203"/>
    </g>
   </g>
   <g id="text_10">
    <!-- May: 193.9 -->
    <g transform="translate(767.164225 407.759545) rotate(-327.272727) scale(0.1 -0.1)">
     <use xlink:href="#DejaVuSans-4d"/>
     <use xlink:href="#DejaVuSans-61" x="86.279297"/>
     <use xlink:href="#DejaVuSans-79" x="147.558594"/>
     <use xlink:href="#DejaVuSans-3a" x="199.488281"/>
     <use xlink:href="#DejaVuSans-20" x="233.179688"/>
     <use xlink:href="#DejaVuSans-31" x="264.966797"/>
     <use xlink:href="#DejaVuSans-39" x="328.589844"/>
     <use xlink:href="#DejaVuSans-33" x="392.212891"/>
     <use xlink:href="#DejaVuSans-2e" x="455.835938"/>
     <use xlink:href="#DejaVuSans-39" x="487.623047"/>
    </g>
   </g>
   <g id="text_11">
    <!-- Apr: 158.7 -->
    <g transform="translate(774.596138 293.639375) scale(0.1 -0.1)">
     <use xlink:href="#DejaVuSans-41"/>
     <use xlink:href="#DejaVuSans-70" x="68.408203"/>
     <use xlink:href="#DejaVuSans-72" x="131.884766"/>
     <use xlink:href="#DejaVuSans-3a" x="171.248047"/>
     <use xlink:href="#DejaVuSans-20" x="204.939453"/>
     <use xlink:href="#DejaVuSans-31" x="236.726562"/>
     <use xlink:href="#DejaVuSans-35" x="300.349609"/>
     <use xlink:href="#DejaVuSans-38" x="363.972656"/>
     <use xlink:href="#DejaVuSans-2e" x="427.595703"/>
     <use xlink:href="#DejaVuSans-37" x="459.382812"/>
    </g>
   </g>
   <g id="text_12">
    <!-- Heathrow Average Monthly Hours of Sun 1959 - 2023 -->
    <g transform="translate(397.987875 44.280938) scale(0.144 -0.144)">
     <defs>
      <path id="DejaVuSans-48" d="M 628 4666 
L 1259 4666 
L 1259 2753 
L 3553 2753 
L 3553 4666 
L 4184 4666 
L 4184 0 
L 3553 0 
L 3553 2222 
L 1259 2222 
L 1259 0 
L 628 0 
L 628 4666 
z
" transform="scale(0.015625)"/>
      <path id="DejaVuSans-68" d="M 3513 2113 
L 3513 0 
L 2938 0 
L 2938 2094 
Q 2938 2591 2744 2837 
Q 2550 3084 2163 3084 
Q 1697 3084 1428 2787 
Q 1159 2491 1159 1978 
L 1159 0 
L 581 0 
L 581 4863 
L 1159 4863 
L 1159 2956 
Q 1366 3272 1645 3428 
Q 1925 3584 2291 3584 
Q 2894 3584 3203 3211 
Q 3513 2838 3513 2113 
z
" transform="scale(0.015625)"/>
      <path id="DejaVuSans-77" d="M 269 3500 
L 844 3500 
L 1563 769 
L 2278 3500 
L 2956 3500 
L 3675 769 
L 4391 3500 
L 4966 3500 
L 4050 0 
L 3372 0 
L 2619 2869 
L 1863 0 
L 1184 0 
L 269 3500 
z
" transform="scale(0.015625)"/>
      <path id="DejaVuSans-73" d="M 2834 3397 
L 2834 2853 
Q 2591 2978 2328 3040 
Q 2066 3103 1784 3103 
Q 1356 3103 1142 2972 
Q 928 2841 928 2578 
Q 928 2378 1081 2264 
Q 1234 2150 1697 2047 
L 1894 2003 
Q 2506 1872 2764 1633 
Q 3022 1394 3022 966 
Q 3022 478 2636 193 
Q 2250 -91 1575 -91 
Q 1294 -91 989 -36 
Q 684 19 347 128 
L 347 722 
Q 666 556 975 473 
Q 1284 391 1588 391 
Q 1994 391 2212 530 
Q 2431 669 2431 922 
Q 2431 1156 2273 1281 
Q 2116 1406 1581 1522 
L 1381 1569 
Q 847 1681 609 1914 
Q 372 2147 372 2553 
Q 372 3047 722 3315 
Q 1072 3584 1716 3584 
Q 2034 3584 2315 3537 
Q 2597 3491 2834 3397 
z
" transform="scale(0.015625)"/>
      <path id="DejaVuSans-66" d="M 2375 4863 
L 2375 4384 
L 1825 4384 
Q 1516 4384 1395 4259 
Q 1275 4134 1275 3809 
L 1275 3500 
L 2222 3500 
L 2222 3053 
L 1275 3053 
L 1275 0 
L 697 0 
L 697 3053 
L 147 3053 
L 147 3500 
L 697 3500 
L 697 3744 
Q 697 4328 969 4595 
Q 1241 4863 1831 4863 
L 2375 4863 
z
" transform="scale(0.015625)"/>
      <path id="DejaVuSans-2d" d="M 313 2009 
L 1997 2009 
L 1997 1497 
L 313 1497 
L 313 2009 
z
" transform="scale(0.015625)"/>
     </defs>
     <use xlink:href="#DejaVuSans-48"/>
     <use xlink:href="#DejaVuSans-65" x="75.195312"/>
     <use xlink:href="#DejaVuSans-61" x="136.71875"/>
     <use xlink:href="#DejaVuSans-74" x="197.998047"/>
     <use xlink:href="#DejaVuSans-68" x="237.207031"/>
     <use xlink:href="#DejaVuSans-72" x="300.585938"/>
     <use xlink:href="#DejaVuSans-6f" x="339.449219"/>
     <use xlink:href="#DejaVuSans-77" x="400.630859"/>
     <use xlink:href="#DejaVuSans-20" x="482.417969"/>
     <use xlink:href="#DejaVuSans-41" x="514.205078"/>
     <use xlink:href="#DejaVuSans-76" x="576.738281"/>
     <use xlink:href="#DejaVuSans-65" x="635.917969"/>
     <use xlink:href="#DejaVuSans-72" x="697.441406"/>
     <use xlink:href="#DejaVuSans-61" x="738.554688"/>
     <use xlink:href="#DejaVuSans-67" x="799.833984"/>
     <use xlink:href="#DejaVuSans-65" x="863.310547"/>
     <use xlink:href="#DejaVuSans-20" x="924.833984"/>
     <use xlink:href="#DejaVuSans-4d" x="956.621094"/>
     <use xlink:href="#DejaVuSans-6f" x="1042.900391"/>
     <use xlink:href="#DejaVuSans-6e" x="1104.082031"/>
     <use xlink:href="#DejaVuSans-74" x="1167.460938"/>
     <use xlink:href="#DejaVuSans-68" x="1206.669922"/>
     <use xlink:href="#DejaVuSans-6c" x="1270.048828"/>
     <use xlink:href="#DejaVuSans-79" x="1297.832031"/>
     <use xlink:href="#DejaVuSans-20" x="1357.011719"/>
     <use xlink:href="#DejaVuSans-48" x="1388.798828"/>
     <use xlink:href="#DejaVuSans-6f" x="1463.994141"/>
     <use xlink:href="#DejaVuSans-75" x="1525.175781"/>
     <use xlink:href="#DejaVuSans-72" x="1588.554688"/>
     <use xlink:href="#DejaVuSans-73" x="1629.667969"/>
     <use xlink:href="#DejaVuSans-20" x="1681.767578"/>
     <use xlink:href="#DejaVuSans-6f" x="1713.554688"/>
     <use xlink:href="#DejaVuSans-66" x="1774.736328"/>
     <use xlink:href="#DejaVuSans-20" x="1809.941406"/>
     <use xlink:href="#DejaVuSans-53" x="1841.728516"/>
     <use xlink:href="#DejaVuSans-75" x="1905.205078"/>
     <use xlink:href="#DejaVuSans-6e" x="1968.583984"/>
     <use xlink:href="#DejaVuSans-20" x="2031.962891"/>
     <use xlink:href="#DejaVuSans-31" x="2063.75"/>
     <use xlink:href="#DejaVuSans-39" x="2127.373047"/>
     <use xlink:href="#DejaVuSans-35" x="2190.996094"/>
     <use xlink:href="#DejaVuSans-39" x="2254.619141"/>
     <use xlink:href="#DejaVuSans-20" x="2318.242188"/>
     <use xlink:href="#DejaVuSans-2d" x="2350.029297"/>
     <use xlink:href="#DejaVuSans-20" x="2386.113281"/>
     <use xlink:href="#DejaVuSans-32" x="2417.900391"/>
     <use xlink:href="#DejaVuSans-30" x="2481.523438"/>
     <use xlink:href="#DejaVuSans-32" x="2545.146484"/>
     <use xlink:href="#DejaVuSans-33" x="2608.769531"/>
    </g>
   </g>
  </g>
 </g>
 <defs>
  <clipPath id="p6e5a8399f2">
   <path d="M 812.16 290.88 
C 812.16 261.758744 806.423747 232.920655 795.279525 206.016122 
C 784.135303 179.111589 767.799838 154.663838 747.208 134.072 
C 726.616162 113.480162 702.168411 97.144697 675.263878 86.000475 
C 648.359345 74.856253 619.521256 69.12 590.4 69.12 
C 561.278744 69.12 532.440655 74.856253 505.536122 86.000475 
C 478.631589 97.144697 454.183838 113.480162 433.592 134.072 
C 413.000162 154.663838 396.664697 179.111589 385.520475 206.016122 
C 374.376253 232.920655 368.64 261.758744 368.64 290.88 
C 368.64 320.001256 374.376253 348.839345 385.520475 375.743878 
C 396.664697 402.648411 413.000162 427.096162 433.592 447.688 
C 454.183838 468.279838 478.631589 484.615303 505.536122 495.759525 
C 532.440655 506.903747 561.278744 512.64 590.4 512.64 
C 619.521256 512.64 648.359345 506.903747 675.263878 495.759525 
C 702.168411 484.615303 726.616162 468.279838 747.208 447.688 
C 767.799838 427.096162 784.135303 402.648411 795.279525 375.743878 
C 806.423747 348.839345 812.16 320.001256 812.16 290.88 
M 590.4 290.88 
C 590.4 290.88 590.4 290.88 590.4 290.88 
C 590.4 290.88 590.4 290.88 590.4 290.88 
C 590.4 290.88 590.4 290.88 590.4 290.88 
C 590.4 290.88 590.4 290.88 590.4 290.88 
C 590.4 290.88 590.4 290.88 590.4 290.88 
C 590.4 290.88 590.4 290.88 590.4 290.88 
C 590.4 290.88 590.4 290.88 590.4 290.88 
C 590.4 290.88 590.4 290.88 590.4 290.88 
C 590.4 290.88 590.4 290.88 590.4 290.88 
C 590.4 290.88 590.4 290.88 590.4 290.88 
C 590.4 290.88 590.4 290.88 590.4 290.88 
C 590.4 290.88 590.4 290.88 590.4 290.88 
C 590.4 290.88 590.4 290.88 590.4 290.88 
C 590.4 290.88 590.4 290.88 590.4 290.88 
C 590.4 290.88 590.4 290.88 590.4 290.88 
C 590.4 290.88 590.4 290.88 590.4 290.88 
z
"/>
  </clipPath>
 </defs>
</svg>
