<?xml version="1.0" encoding="utf-8" standalone="no"?>
<!DOCTYPE svg PUBLIC "-//W3C//DTD SVG 1.1//EN"
  "http://www.w3.org/Graphics/SVG/1.1/DTD/svg11.dtd">
<svg xmlns:xlink="http://www.w3.org/1999/xlink" width="720pt" height="576pt" viewBox="0 0 720 576" xmlns="http://www.w3.org/2000/svg" version="1.1">
 <metadata>
  <rdf:RDF xmlns:dc="http://purl.org/dc/elements/1.1/" xmlns:cc="http://creativecommons.org/ns#" xmlns:rdf="http://www.w3.org/1999/02/22-rdf-syntax-ns#">
   <cc:Work>
    <dc:type rdf:resource="http://purl.org/dc/dcmitype/StillImage"/>
    <dc:date>2023-04-11T20:50:44.798588</dc:date>
    <dc:format>image/svg+xml</dc:format>
    <dc:creator>
     <cc:Agent>
      <dc:title>Matplotlib v3.7.1, https://matplotlib.org/</dc:title>
     </cc:Agent>
    </dc:creator>
   </cc:Work>
  </rdf:RDF>
 </metadata>
 <defs>
  <style type="text/css">*{stroke-linejoin: round; stroke-linecap: butt}</style>
 </defs>
 <g id="figure_1">
  <g id="patch_1">
   <path d="M 0 576 
L 720 576 
L 720 0 
L 0 0 
z
" style="fill: #ffffff"/>
  </g>
  <g id="axes_1">
   <g id="patch_2">
    <path d="M 90 512.64 
L 648 512.64 
L 648 69.12 
L 90 69.12 
z
" style="fill: #e5e5e5"/>
   </g>
   <g id="line2d_1">
    <path d="M 113.25 351.864 
L 113.25 391.4112 
" clip-path="url(#p11144f8d7e)" style="fill: none; stroke: #464646; stroke-width: 1.5; stroke-linecap: square"/>
   </g>
   <g id="line2d_2">
    <path d="M 113.25 318.9696 
L 113.25 289.4016 
" clip-path="url(#p11144f8d7e)" style="fill: none; stroke: #464646; stroke-width: 1.5; stroke-linecap: square"/>
   </g>
   <g id="line2d_3">
    <path d="M 103.95 391.4112 
L 122.55 391.4112 
" clip-path="url(#p11144f8d7e)" style="fill: none; stroke: #464646; stroke-width: 1.5; stroke-linecap: square"/>
   </g>
   <g id="line2d_4">
    <path d="M 103.95 289.4016 
L 122.55 289.4016 
" clip-path="url(#p11144f8d7e)" style="fill: none; stroke: #464646; stroke-width: 1.5; stroke-linecap: square"/>
   </g>
   <g id="line2d_5">
    <defs>
     <path id="md9512982bf" d="M -0 3.535534 
L 2.12132 0 
L -0 -3.535534 
L -2.12132 -0 
z
" style="stroke: #464646; stroke-linejoin: miter"/>
    </defs>
    <g clip-path="url(#p11144f8d7e)">
     <use xlink:href="#md9512982bf" x="113.25" y="432.8064" style="fill: #464646; stroke: #464646; stroke-linejoin: miter"/>
     <use xlink:href="#md9512982bf" x="113.25" y="403.2384" style="fill: #464646; stroke: #464646; stroke-linejoin: miter"/>
    </g>
   </g>
   <g id="line2d_6">
    <path d="M 159.75 352.9728 
L 159.75 397.3248 
" clip-path="url(#p11144f8d7e)" style="fill: none; stroke: #464646; stroke-width: 1.5; stroke-linecap: square"/>
   </g>
   <g id="line2d_7">
    <path d="M 159.75 320.0784 
L 159.75 286.4448 
" clip-path="url(#p11144f8d7e)" style="fill: none; stroke: #464646; stroke-width: 1.5; stroke-linecap: square"/>
   </g>
   <g id="line2d_8">
    <path d="M 150.45 397.3248 
L 169.05 397.3248 
" clip-path="url(#p11144f8d7e)" style="fill: none; stroke: #464646; stroke-width: 1.5; stroke-linecap: square"/>
   </g>
   <g id="line2d_9">
    <path d="M 150.45 286.4448 
L 169.05 286.4448 
" clip-path="url(#p11144f8d7e)" style="fill: none; stroke: #464646; stroke-width: 1.5; stroke-linecap: square"/>
   </g>
   <g id="line2d_10">
    <g clip-path="url(#p11144f8d7e)">
     <use xlink:href="#md9512982bf" x="159.75" y="418.0224" style="fill: #464646; stroke: #464646; stroke-linejoin: miter"/>
     <use xlink:href="#md9512982bf" x="159.75" y="404.7168" style="fill: #464646; stroke: #464646; stroke-linejoin: miter"/>
    </g>
   </g>
   <g id="line2d_11">
    <path d="M 206.25 330.0576 
L 206.25 373.6704 
" clip-path="url(#p11144f8d7e)" style="fill: none; stroke: #464646; stroke-width: 1.5; stroke-linecap: square"/>
   </g>
   <g id="line2d_12">
    <path d="M 206.25 299.0112 
L 206.25 267.2256 
" clip-path="url(#p11144f8d7e)" style="fill: none; stroke: #464646; stroke-width: 1.5; stroke-linecap: square"/>
   </g>
   <g id="line2d_13">
    <path d="M 196.95 373.6704 
L 215.55 373.6704 
" clip-path="url(#p11144f8d7e)" style="fill: none; stroke: #464646; stroke-width: 1.5; stroke-linecap: square"/>
   </g>
   <g id="line2d_14">
    <path d="M 196.95 267.2256 
L 215.55 267.2256 
" clip-path="url(#p11144f8d7e)" style="fill: none; stroke: #464646; stroke-width: 1.5; stroke-linecap: square"/>
   </g>
   <g id="line2d_15"/>
   <g id="line2d_16">
    <path d="M 252.75 299.7504 
L 252.75 329.3184 
" clip-path="url(#p11144f8d7e)" style="fill: none; stroke: #464646; stroke-width: 1.5; stroke-linecap: square"/>
   </g>
   <g id="line2d_17">
    <path d="M 252.75 276.8352 
L 252.75 248.0064 
" clip-path="url(#p11144f8d7e)" style="fill: none; stroke: #464646; stroke-width: 1.5; stroke-linecap: square"/>
   </g>
   <g id="line2d_18">
    <path d="M 243.45 329.3184 
L 262.05 329.3184 
" clip-path="url(#p11144f8d7e)" style="fill: none; stroke: #464646; stroke-width: 1.5; stroke-linecap: square"/>
   </g>
   <g id="line2d_19">
    <path d="M 243.45 248.0064 
L 262.05 248.0064 
" clip-path="url(#p11144f8d7e)" style="fill: none; stroke: #464646; stroke-width: 1.5; stroke-linecap: square"/>
   </g>
   <g id="line2d_20">
    <g clip-path="url(#p11144f8d7e)">
     <use xlink:href="#md9512982bf" x="252.75" y="237.6576" style="fill: #464646; stroke: #464646; stroke-linejoin: miter"/>
    </g>
   </g>
   <g id="line2d_21">
    <path d="M 299.25 253.92 
L 299.25 277.5744 
" clip-path="url(#p11144f8d7e)" style="fill: none; stroke: #464646; stroke-width: 1.5; stroke-linecap: square"/>
   </g>
   <g id="line2d_22">
    <path d="M 299.25 225.8304 
L 299.25 209.568 
" clip-path="url(#p11144f8d7e)" style="fill: none; stroke: #464646; stroke-width: 1.5; stroke-linecap: square"/>
   </g>
   <g id="line2d_23">
    <path d="M 289.95 277.5744 
L 308.55 277.5744 
" clip-path="url(#p11144f8d7e)" style="fill: none; stroke: #464646; stroke-width: 1.5; stroke-linecap: square"/>
   </g>
   <g id="line2d_24">
    <path d="M 289.95 209.568 
L 308.55 209.568 
" clip-path="url(#p11144f8d7e)" style="fill: none; stroke: #464646; stroke-width: 1.5; stroke-linecap: square"/>
   </g>
   <g id="line2d_25"/>
   <g id="line2d_26">
    <path d="M 345.75 206.6112 
L 345.75 231.744 
" clip-path="url(#p11144f8d7e)" style="fill: none; stroke: #464646; stroke-width: 1.5; stroke-linecap: square"/>
   </g>
   <g id="line2d_27">
    <path d="M 345.75 184.4352 
L 345.75 159.3024 
" clip-path="url(#p11144f8d7e)" style="fill: none; stroke: #464646; stroke-width: 1.5; stroke-linecap: square"/>
   </g>
   <g id="line2d_28">
    <path d="M 336.45 231.744 
L 355.05 231.744 
" clip-path="url(#p11144f8d7e)" style="fill: none; stroke: #464646; stroke-width: 1.5; stroke-linecap: square"/>
   </g>
   <g id="line2d_29">
    <path d="M 336.45 159.3024 
L 355.05 159.3024 
" clip-path="url(#p11144f8d7e)" style="fill: none; stroke: #464646; stroke-width: 1.5; stroke-linecap: square"/>
   </g>
   <g id="line2d_30"/>
   <g id="line2d_31">
    <path d="M 392.25 177.0432 
L 392.25 191.8272 
" clip-path="url(#p11144f8d7e)" style="fill: none; stroke: #464646; stroke-width: 1.5; stroke-linecap: square"/>
   </g>
   <g id="line2d_32">
    <path d="M 392.25 154.128 
L 392.25 122.3424 
" clip-path="url(#p11144f8d7e)" style="fill: none; stroke: #464646; stroke-width: 1.5; stroke-linecap: square"/>
   </g>
   <g id="line2d_33">
    <path d="M 382.95 191.8272 
L 401.55 191.8272 
" clip-path="url(#p11144f8d7e)" style="fill: none; stroke: #464646; stroke-width: 1.5; stroke-linecap: square"/>
   </g>
   <g id="line2d_34">
    <path d="M 382.95 122.3424 
L 401.55 122.3424 
" clip-path="url(#p11144f8d7e)" style="fill: none; stroke: #464646; stroke-width: 1.5; stroke-linecap: square"/>
   </g>
   <g id="line2d_35">
    <g clip-path="url(#p11144f8d7e)">
     <use xlink:href="#md9512982bf" x="392.25" y="117.9072" style="fill: #464646; stroke: #464646; stroke-linejoin: miter"/>
    </g>
   </g>
   <g id="line2d_36">
    <path d="M 438.75 180 
L 438.75 203.6544 
" clip-path="url(#p11144f8d7e)" style="fill: none; stroke: #464646; stroke-width: 1.5; stroke-linecap: square"/>
   </g>
   <g id="line2d_37">
    <path d="M 438.75 156.3456 
L 438.75 129.7344 
" clip-path="url(#p11144f8d7e)" style="fill: none; stroke: #464646; stroke-width: 1.5; stroke-linecap: square"/>
   </g>
   <g id="line2d_38">
    <path d="M 429.45 203.6544 
L 448.05 203.6544 
" clip-path="url(#p11144f8d7e)" style="fill: none; stroke: #464646; stroke-width: 1.5; stroke-linecap: square"/>
   </g>
   <g id="line2d_39">
    <path d="M 429.45 129.7344 
L 448.05 129.7344 
" clip-path="url(#p11144f8d7e)" style="fill: none; stroke: #464646; stroke-width: 1.5; stroke-linecap: square"/>
   </g>
   <g id="line2d_40">
    <g clip-path="url(#p11144f8d7e)">
     <use xlink:href="#md9512982bf" x="438.75" y="119.3856" style="fill: #464646; stroke: #464646; stroke-linejoin: miter"/>
    </g>
   </g>
   <g id="line2d_41">
    <path d="M 485.25 211.0464 
L 485.25 231.744 
" clip-path="url(#p11144f8d7e)" style="fill: none; stroke: #464646; stroke-width: 1.5; stroke-linecap: square"/>
   </g>
   <g id="line2d_42">
    <path d="M 485.25 191.088 
L 485.25 162.2592 
" clip-path="url(#p11144f8d7e)" style="fill: none; stroke: #464646; stroke-width: 1.5; stroke-linecap: square"/>
   </g>
   <g id="line2d_43">
    <path d="M 475.95 231.744 
L 494.55 231.744 
" clip-path="url(#p11144f8d7e)" style="fill: none; stroke: #464646; stroke-width: 1.5; stroke-linecap: square"/>
   </g>
   <g id="line2d_44">
    <path d="M 475.95 162.2592 
L 494.55 162.2592 
" clip-path="url(#p11144f8d7e)" style="fill: none; stroke: #464646; stroke-width: 1.5; stroke-linecap: square"/>
   </g>
   <g id="line2d_45">
    <g clip-path="url(#p11144f8d7e)">
     <use xlink:href="#md9512982bf" x="485.25" y="252.4416" style="fill: #464646; stroke: #464646; stroke-linejoin: miter"/>
     <use xlink:href="#md9512982bf" x="485.25" y="245.0496" style="fill: #464646; stroke: #464646; stroke-linejoin: miter"/>
     <use xlink:href="#md9512982bf" x="485.25" y="150.432" style="fill: #464646; stroke: #464646; stroke-linejoin: miter"/>
    </g>
   </g>
   <g id="line2d_46">
    <path d="M 531.75 253.92 
L 531.75 280.5312 
" clip-path="url(#p11144f8d7e)" style="fill: none; stroke: #464646; stroke-width: 1.5; stroke-linecap: square"/>
   </g>
   <g id="line2d_47">
    <path d="M 531.75 233.2224 
L 531.75 202.176 
" clip-path="url(#p11144f8d7e)" style="fill: none; stroke: #464646; stroke-width: 1.5; stroke-linecap: square"/>
   </g>
   <g id="line2d_48">
    <path d="M 522.45 280.5312 
L 541.05 280.5312 
" clip-path="url(#p11144f8d7e)" style="fill: none; stroke: #464646; stroke-width: 1.5; stroke-linecap: square"/>
   </g>
   <g id="line2d_49">
    <path d="M 522.45 202.176 
L 541.05 202.176 
" clip-path="url(#p11144f8d7e)" style="fill: none; stroke: #464646; stroke-width: 1.5; stroke-linecap: square"/>
   </g>
   <g id="line2d_50">
    <g clip-path="url(#p11144f8d7e)">
     <use xlink:href="#md9512982bf" x="531.75" y="286.4448" style="fill: #464646; stroke: #464646; stroke-linejoin: miter"/>
     <use xlink:href="#md9512982bf" x="531.75" y="286.4448" style="fill: #464646; stroke: #464646; stroke-linejoin: miter"/>
     <use xlink:href="#md9512982bf" x="531.75" y="290.88" style="fill: #464646; stroke: #464646; stroke-linejoin: miter"/>
     <use xlink:href="#md9512982bf" x="531.75" y="286.4448" style="fill: #464646; stroke: #464646; stroke-linejoin: miter"/>
     <use xlink:href="#md9512982bf" x="531.75" y="197.7408" style="fill: #464646; stroke: #464646; stroke-linejoin: miter"/>
     <use xlink:href="#md9512982bf" x="531.75" y="197.7408" style="fill: #464646; stroke: #464646; stroke-linejoin: miter"/>
     <use xlink:href="#md9512982bf" x="531.75" y="199.2192" style="fill: #464646; stroke: #464646; stroke-linejoin: miter"/>
    </g>
   </g>
   <g id="line2d_51">
    <path d="M 578.25 313.056 
L 578.25 347.0592 
" clip-path="url(#p11144f8d7e)" style="fill: none; stroke: #464646; stroke-width: 1.5; stroke-linecap: square"/>
   </g>
   <g id="line2d_52">
    <path d="M 578.25 283.488 
L 578.25 240.6144 
" clip-path="url(#p11144f8d7e)" style="fill: none; stroke: #464646; stroke-width: 1.5; stroke-linecap: square"/>
   </g>
   <g id="line2d_53">
    <path d="M 568.95 347.0592 
L 587.55 347.0592 
" clip-path="url(#p11144f8d7e)" style="fill: none; stroke: #464646; stroke-width: 1.5; stroke-linecap: square"/>
   </g>
   <g id="line2d_54">
    <path d="M 568.95 240.6144 
L 587.55 240.6144 
" clip-path="url(#p11144f8d7e)" style="fill: none; stroke: #464646; stroke-width: 1.5; stroke-linecap: square"/>
   </g>
   <g id="line2d_55"/>
   <g id="line2d_56">
    <path d="M 624.75 340.4064 
L 624.75 386.976 
" clip-path="url(#p11144f8d7e)" style="fill: none; stroke: #464646; stroke-width: 1.5; stroke-linecap: square"/>
   </g>
   <g id="line2d_57">
    <path d="M 624.75 308.6208 
L 624.75 282.0096 
" clip-path="url(#p11144f8d7e)" style="fill: none; stroke: #464646; stroke-width: 1.5; stroke-linecap: square"/>
   </g>
   <g id="line2d_58">
    <path d="M 615.45 386.976 
L 634.05 386.976 
" clip-path="url(#p11144f8d7e)" style="fill: none; stroke: #464646; stroke-width: 1.5; stroke-linecap: square"/>
   </g>
   <g id="line2d_59">
    <path d="M 615.45 282.0096 
L 634.05 282.0096 
" clip-path="url(#p11144f8d7e)" style="fill: none; stroke: #464646; stroke-width: 1.5; stroke-linecap: square"/>
   </g>
   <g id="line2d_60">
    <g clip-path="url(#p11144f8d7e)">
     <use xlink:href="#md9512982bf" x="624.75" y="233.2224" style="fill: #464646; stroke: #464646; stroke-linejoin: miter"/>
    </g>
   </g>
   <g id="line2d_61">
    <path d="M 94.65 335.232 
L 131.85 335.232 
" clip-path="url(#p11144f8d7e)" style="fill: none; stroke: #464646; stroke-width: 1.5; stroke-linecap: square"/>
   </g>
   <g id="line2d_62">
    <path d="M 141.15 335.9712 
L 178.35 335.9712 
" clip-path="url(#p11144f8d7e)" style="fill: none; stroke: #464646; stroke-width: 1.5; stroke-linecap: square"/>
   </g>
   <g id="line2d_63">
    <path d="M 187.65 313.056 
L 224.85 313.056 
" clip-path="url(#p11144f8d7e)" style="fill: none; stroke: #464646; stroke-width: 1.5; stroke-linecap: square"/>
   </g>
   <g id="line2d_64">
    <path d="M 234.15 287.9232 
L 271.35 287.9232 
" clip-path="url(#p11144f8d7e)" style="fill: none; stroke: #464646; stroke-width: 1.5; stroke-linecap: square"/>
   </g>
   <g id="line2d_65">
    <path d="M 280.65 240.6144 
L 317.85 240.6144 
" clip-path="url(#p11144f8d7e)" style="fill: none; stroke: #464646; stroke-width: 1.5; stroke-linecap: square"/>
   </g>
   <g id="line2d_66">
    <path d="M 327.15 197.7408 
L 364.35 197.7408 
" clip-path="url(#p11144f8d7e)" style="fill: none; stroke: #464646; stroke-width: 1.5; stroke-linecap: square"/>
   </g>
   <g id="line2d_67">
    <path d="M 373.65 168.1728 
L 410.85 168.1728 
" clip-path="url(#p11144f8d7e)" style="fill: none; stroke: #464646; stroke-width: 1.5; stroke-linecap: square"/>
   </g>
   <g id="line2d_68">
    <path d="M 420.15 169.6512 
L 457.35 169.6512 
" clip-path="url(#p11144f8d7e)" style="fill: none; stroke: #464646; stroke-width: 1.5; stroke-linecap: square"/>
   </g>
   <g id="line2d_69">
    <path d="M 466.65 200.6976 
L 503.85 200.6976 
" clip-path="url(#p11144f8d7e)" style="fill: none; stroke: #464646; stroke-width: 1.5; stroke-linecap: square"/>
   </g>
   <g id="line2d_70">
    <path d="M 513.15 239.136 
L 550.35 239.136 
" clip-path="url(#p11144f8d7e)" style="fill: none; stroke: #464646; stroke-width: 1.5; stroke-linecap: square"/>
   </g>
   <g id="line2d_71">
    <path d="M 559.65 298.272 
L 596.85 298.272 
" clip-path="url(#p11144f8d7e)" style="fill: none; stroke: #464646; stroke-width: 1.5; stroke-linecap: square"/>
   </g>
   <g id="line2d_72">
    <path d="M 606.15 323.4048 
L 643.35 323.4048 
" clip-path="url(#p11144f8d7e)" style="fill: none; stroke: #464646; stroke-width: 1.5; stroke-linecap: square"/>
   </g>
   <g id="matplotlib.axis_1">
    <g id="xtick_1">
     <g id="line2d_73">
      <defs>
       <path id="m4217acd997" d="M 0 0 
L 0 3.5 
" style="stroke: #555555; stroke-width: 0.8"/>
      </defs>
      <g>
       <use xlink:href="#m4217acd997" x="113.25" y="512.64" style="fill: #555555; stroke: #555555; stroke-width: 0.8"/>
      </g>
     </g>
     <g id="text_1">
      <!-- Jan -->
      <g style="fill: #555555" transform="translate(105.542187 527.238438) scale(0.1 -0.1)">
       <defs>
        <path id="DejaVuSans-4a" d="M 628 4666 
L 1259 4666 
L 1259 325 
Q 1259 -519 939 -900 
Q 619 -1281 -91 -1281 
L -331 -1281 
L -331 -750 
L -134 -750 
Q 284 -750 456 -515 
Q 628 -281 628 325 
L 628 4666 
z
" transform="scale(0.015625)"/>
        <path id="DejaVuSans-61" d="M 2194 1759 
Q 1497 1759 1228 1600 
Q 959 1441 959 1056 
Q 959 750 1161 570 
Q 1363 391 1709 391 
Q 2188 391 2477 730 
Q 2766 1069 2766 1631 
L 2766 1759 
L 2194 1759 
z
M 3341 1997 
L 3341 0 
L 2766 0 
L 2766 531 
Q 2569 213 2275 61 
Q 1981 -91 1556 -91 
Q 1019 -91 701 211 
Q 384 513 384 1019 
Q 384 1609 779 1909 
Q 1175 2209 1959 2209 
L 2766 2209 
L 2766 2266 
Q 2766 2663 2505 2880 
Q 2244 3097 1772 3097 
Q 1472 3097 1187 3025 
Q 903 2953 641 2809 
L 641 3341 
Q 956 3463 1253 3523 
Q 1550 3584 1831 3584 
Q 2591 3584 2966 3190 
Q 3341 2797 3341 1997 
z
" transform="scale(0.015625)"/>
        <path id="DejaVuSans-6e" d="M 3513 2113 
L 3513 0 
L 2938 0 
L 2938 2094 
Q 2938 2591 2744 2837 
Q 2550 3084 2163 3084 
Q 1697 3084 1428 2787 
Q 1159 2491 1159 1978 
L 1159 0 
L 581 0 
L 581 3500 
L 1159 3500 
L 1159 2956 
Q 1366 3272 1645 3428 
Q 1925 3584 2291 3584 
Q 2894 3584 3203 3211 
Q 3513 2838 3513 2113 
z
" transform="scale(0.015625)"/>
       </defs>
       <use xlink:href="#DejaVuSans-4a"/>
       <use xlink:href="#DejaVuSans-61" x="29.492188"/>
       <use xlink:href="#DejaVuSans-6e" x="90.771484"/>
      </g>
     </g>
    </g>
    <g id="xtick_2">
     <g id="line2d_74">
      <g>
       <use xlink:href="#m4217acd997" x="159.75" y="512.64" style="fill: #555555; stroke: #555555; stroke-width: 0.8"/>
      </g>
     </g>
     <g id="text_2">
      <!-- Feb -->
      <g style="fill: #555555" transform="translate(150.898438 527.238438) scale(0.1 -0.1)">
       <defs>
        <path id="DejaVuSans-46" d="M 628 4666 
L 3309 4666 
L 3309 4134 
L 1259 4134 
L 1259 2759 
L 3109 2759 
L 3109 2228 
L 1259 2228 
L 1259 0 
L 628 0 
L 628 4666 
z
" transform="scale(0.015625)"/>
        <path id="DejaVuSans-65" d="M 3597 1894 
L 3597 1613 
L 953 1613 
Q 991 1019 1311 708 
Q 1631 397 2203 397 
Q 2534 397 2845 478 
Q 3156 559 3463 722 
L 3463 178 
Q 3153 47 2828 -22 
Q 2503 -91 2169 -91 
Q 1331 -91 842 396 
Q 353 884 353 1716 
Q 353 2575 817 3079 
Q 1281 3584 2069 3584 
Q 2775 3584 3186 3129 
Q 3597 2675 3597 1894 
z
M 3022 2063 
Q 3016 2534 2758 2815 
Q 2500 3097 2075 3097 
Q 1594 3097 1305 2825 
Q 1016 2553 972 2059 
L 3022 2063 
z
" transform="scale(0.015625)"/>
        <path id="DejaVuSans-62" d="M 3116 1747 
Q 3116 2381 2855 2742 
Q 2594 3103 2138 3103 
Q 1681 3103 1420 2742 
Q 1159 2381 1159 1747 
Q 1159 1113 1420 752 
Q 1681 391 2138 391 
Q 2594 391 2855 752 
Q 3116 1113 3116 1747 
z
M 1159 2969 
Q 1341 3281 1617 3432 
Q 1894 3584 2278 3584 
Q 2916 3584 3314 3078 
Q 3713 2572 3713 1747 
Q 3713 922 3314 415 
Q 2916 -91 2278 -91 
Q 1894 -91 1617 61 
Q 1341 213 1159 525 
L 1159 0 
L 581 0 
L 581 4863 
L 1159 4863 
L 1159 2969 
z
" transform="scale(0.015625)"/>
       </defs>
       <use xlink:href="#DejaVuSans-46"/>
       <use xlink:href="#DejaVuSans-65" x="52.019531"/>
       <use xlink:href="#DejaVuSans-62" x="113.542969"/>
      </g>
     </g>
    </g>
    <g id="xtick_3">
     <g id="line2d_75">
      <g>
       <use xlink:href="#m4217acd997" x="206.25" y="512.64" style="fill: #555555; stroke: #555555; stroke-width: 0.8"/>
      </g>
     </g>
     <g id="text_3">
      <!-- Mar -->
      <g style="fill: #555555" transform="translate(196.816406 527.238438) scale(0.1 -0.1)">
       <defs>
        <path id="DejaVuSans-4d" d="M 628 4666 
L 1569 4666 
L 2759 1491 
L 3956 4666 
L 4897 4666 
L 4897 0 
L 4281 0 
L 4281 4097 
L 3078 897 
L 2444 897 
L 1241 4097 
L 1241 0 
L 628 0 
L 628 4666 
z
" transform="scale(0.015625)"/>
        <path id="DejaVuSans-72" d="M 2631 2963 
Q 2534 3019 2420 3045 
Q 2306 3072 2169 3072 
Q 1681 3072 1420 2755 
Q 1159 2438 1159 1844 
L 1159 0 
L 581 0 
L 581 3500 
L 1159 3500 
L 1159 2956 
Q 1341 3275 1631 3429 
Q 1922 3584 2338 3584 
Q 2397 3584 2469 3576 
Q 2541 3569 2628 3553 
L 2631 2963 
z
" transform="scale(0.015625)"/>
       </defs>
       <use xlink:href="#DejaVuSans-4d"/>
       <use xlink:href="#DejaVuSans-61" x="86.279297"/>
       <use xlink:href="#DejaVuSans-72" x="147.558594"/>
      </g>
     </g>
    </g>
    <g id="xtick_4">
     <g id="line2d_76">
      <g>
       <use xlink:href="#m4217acd997" x="252.75" y="512.64" style="fill: #555555; stroke: #555555; stroke-width: 0.8"/>
      </g>
     </g>
     <g id="text_4">
      <!-- Apr -->
      <g style="fill: #555555" transform="translate(244.1 527.238438) scale(0.1 -0.1)">
       <defs>
        <path id="DejaVuSans-41" d="M 2188 4044 
L 1331 1722 
L 3047 1722 
L 2188 4044 
z
M 1831 4666 
L 2547 4666 
L 4325 0 
L 3669 0 
L 3244 1197 
L 1141 1197 
L 716 0 
L 50 0 
L 1831 4666 
z
" transform="scale(0.015625)"/>
        <path id="DejaVuSans-70" d="M 1159 525 
L 1159 -1331 
L 581 -1331 
L 581 3500 
L 1159 3500 
L 1159 2969 
Q 1341 3281 1617 3432 
Q 1894 3584 2278 3584 
Q 2916 3584 3314 3078 
Q 3713 2572 3713 1747 
Q 3713 922 3314 415 
Q 2916 -91 2278 -91 
Q 1894 -91 1617 61 
Q 1341 213 1159 525 
z
M 3116 1747 
Q 3116 2381 2855 2742 
Q 2594 3103 2138 3103 
Q 1681 3103 1420 2742 
Q 1159 2381 1159 1747 
Q 1159 1113 1420 752 
Q 1681 391 2138 391 
Q 2594 391 2855 752 
Q 3116 1113 3116 1747 
z
" transform="scale(0.015625)"/>
       </defs>
       <use xlink:href="#DejaVuSans-41"/>
       <use xlink:href="#DejaVuSans-70" x="68.408203"/>
       <use xlink:href="#DejaVuSans-72" x="131.884766"/>
      </g>
     </g>
    </g>
    <g id="xtick_5">
     <g id="line2d_77">
      <g>
       <use xlink:href="#m4217acd997" x="299.25" y="512.64" style="fill: #555555; stroke: #555555; stroke-width: 0.8"/>
      </g>
     </g>
     <g id="text_5">
      <!-- May -->
      <g style="fill: #555555" transform="translate(288.9125 527.238438) scale(0.1 -0.1)">
       <defs>
        <path id="DejaVuSans-79" d="M 2059 -325 
Q 1816 -950 1584 -1140 
Q 1353 -1331 966 -1331 
L 506 -1331 
L 506 -850 
L 844 -850 
Q 1081 -850 1212 -737 
Q 1344 -625 1503 -206 
L 1606 56 
L 191 3500 
L 800 3500 
L 1894 763 
L 2988 3500 
L 3597 3500 
L 2059 -325 
z
" transform="scale(0.015625)"/>
       </defs>
       <use xlink:href="#DejaVuSans-4d"/>
       <use xlink:href="#DejaVuSans-61" x="86.279297"/>
       <use xlink:href="#DejaVuSans-79" x="147.558594"/>
      </g>
     </g>
    </g>
    <g id="xtick_6">
     <g id="line2d_78">
      <g>
       <use xlink:href="#m4217acd997" x="345.75" y="512.64" style="fill: #555555; stroke: #555555; stroke-width: 0.8"/>
      </g>
     </g>
     <g id="text_6">
      <!-- June -->
      <g style="fill: #555555" transform="translate(334.860937 527.238438) scale(0.1 -0.1)">
       <defs>
        <path id="DejaVuSans-75" d="M 544 1381 
L 544 3500 
L 1119 3500 
L 1119 1403 
Q 1119 906 1312 657 
Q 1506 409 1894 409 
Q 2359 409 2629 706 
Q 2900 1003 2900 1516 
L 2900 3500 
L 3475 3500 
L 3475 0 
L 2900 0 
L 2900 538 
Q 2691 219 2414 64 
Q 2138 -91 1772 -91 
Q 1169 -91 856 284 
Q 544 659 544 1381 
z
M 1991 3584 
L 1991 3584 
z
" transform="scale(0.015625)"/>
       </defs>
       <use xlink:href="#DejaVuSans-4a"/>
       <use xlink:href="#DejaVuSans-75" x="29.492188"/>
       <use xlink:href="#DejaVuSans-6e" x="92.871094"/>
       <use xlink:href="#DejaVuSans-65" x="156.25"/>
      </g>
     </g>
    </g>
    <g id="xtick_7">
     <g id="line2d_79">
      <g>
       <use xlink:href="#m4217acd997" x="392.25" y="512.64" style="fill: #555555; stroke: #555555; stroke-width: 0.8"/>
      </g>
     </g>
     <g id="text_7">
      <!-- July -->
      <g style="fill: #555555" transform="translate(383.257812 527.238438) scale(0.1 -0.1)">
       <defs>
        <path id="DejaVuSans-6c" d="M 603 4863 
L 1178 4863 
L 1178 0 
L 603 0 
L 603 4863 
z
" transform="scale(0.015625)"/>
       </defs>
       <use xlink:href="#DejaVuSans-4a"/>
       <use xlink:href="#DejaVuSans-75" x="29.492188"/>
       <use xlink:href="#DejaVuSans-6c" x="92.871094"/>
       <use xlink:href="#DejaVuSans-79" x="120.654297"/>
      </g>
     </g>
    </g>
    <g id="xtick_8">
     <g id="line2d_80">
      <g>
       <use xlink:href="#m4217acd997" x="438.75" y="512.64" style="fill: #555555; stroke: #555555; stroke-width: 0.8"/>
      </g>
     </g>
     <g id="text_8">
      <!-- Aug -->
      <g style="fill: #555555" transform="translate(428.986719 527.238438) scale(0.1 -0.1)">
       <defs>
        <path id="DejaVuSans-67" d="M 2906 1791 
Q 2906 2416 2648 2759 
Q 2391 3103 1925 3103 
Q 1463 3103 1205 2759 
Q 947 2416 947 1791 
Q 947 1169 1205 825 
Q 1463 481 1925 481 
Q 2391 481 2648 825 
Q 2906 1169 2906 1791 
z
M 3481 434 
Q 3481 -459 3084 -895 
Q 2688 -1331 1869 -1331 
Q 1566 -1331 1297 -1286 
Q 1028 -1241 775 -1147 
L 775 -588 
Q 1028 -725 1275 -790 
Q 1522 -856 1778 -856 
Q 2344 -856 2625 -561 
Q 2906 -266 2906 331 
L 2906 616 
Q 2728 306 2450 153 
Q 2172 0 1784 0 
Q 1141 0 747 490 
Q 353 981 353 1791 
Q 353 2603 747 3093 
Q 1141 3584 1784 3584 
Q 2172 3584 2450 3431 
Q 2728 3278 2906 2969 
L 2906 3500 
L 3481 3500 
L 3481 434 
z
" transform="scale(0.015625)"/>
       </defs>
       <use xlink:href="#DejaVuSans-41"/>
       <use xlink:href="#DejaVuSans-75" x="68.408203"/>
       <use xlink:href="#DejaVuSans-67" x="131.787109"/>
      </g>
     </g>
    </g>
    <g id="xtick_9">
     <g id="line2d_81">
      <g>
       <use xlink:href="#m4217acd997" x="485.25" y="512.64" style="fill: #555555; stroke: #555555; stroke-width: 0.8"/>
      </g>
     </g>
     <g id="text_9">
      <!-- Sep -->
      <g style="fill: #555555" transform="translate(475.825 527.238438) scale(0.1 -0.1)">
       <defs>
        <path id="DejaVuSans-53" d="M 3425 4513 
L 3425 3897 
Q 3066 4069 2747 4153 
Q 2428 4238 2131 4238 
Q 1616 4238 1336 4038 
Q 1056 3838 1056 3469 
Q 1056 3159 1242 3001 
Q 1428 2844 1947 2747 
L 2328 2669 
Q 3034 2534 3370 2195 
Q 3706 1856 3706 1288 
Q 3706 609 3251 259 
Q 2797 -91 1919 -91 
Q 1588 -91 1214 -16 
Q 841 59 441 206 
L 441 856 
Q 825 641 1194 531 
Q 1563 422 1919 422 
Q 2459 422 2753 634 
Q 3047 847 3047 1241 
Q 3047 1584 2836 1778 
Q 2625 1972 2144 2069 
L 1759 2144 
Q 1053 2284 737 2584 
Q 422 2884 422 3419 
Q 422 4038 858 4394 
Q 1294 4750 2059 4750 
Q 2388 4750 2728 4690 
Q 3069 4631 3425 4513 
z
" transform="scale(0.015625)"/>
       </defs>
       <use xlink:href="#DejaVuSans-53"/>
       <use xlink:href="#DejaVuSans-65" x="63.476562"/>
       <use xlink:href="#DejaVuSans-70" x="125"/>
      </g>
     </g>
    </g>
    <g id="xtick_10">
     <g id="line2d_82">
      <g>
       <use xlink:href="#m4217acd997" x="531.75" y="512.64" style="fill: #555555; stroke: #555555; stroke-width: 0.8"/>
      </g>
     </g>
     <g id="text_10">
      <!-- Oct -->
      <g style="fill: #555555" transform="translate(523.104687 527.238438) scale(0.1 -0.1)">
       <defs>
        <path id="DejaVuSans-4f" d="M 2522 4238 
Q 1834 4238 1429 3725 
Q 1025 3213 1025 2328 
Q 1025 1447 1429 934 
Q 1834 422 2522 422 
Q 3209 422 3611 934 
Q 4013 1447 4013 2328 
Q 4013 3213 3611 3725 
Q 3209 4238 2522 4238 
z
M 2522 4750 
Q 3503 4750 4090 4092 
Q 4678 3434 4678 2328 
Q 4678 1225 4090 567 
Q 3503 -91 2522 -91 
Q 1538 -91 948 565 
Q 359 1222 359 2328 
Q 359 3434 948 4092 
Q 1538 4750 2522 4750 
z
" transform="scale(0.015625)"/>
        <path id="DejaVuSans-63" d="M 3122 3366 
L 3122 2828 
Q 2878 2963 2633 3030 
Q 2388 3097 2138 3097 
Q 1578 3097 1268 2742 
Q 959 2388 959 1747 
Q 959 1106 1268 751 
Q 1578 397 2138 397 
Q 2388 397 2633 464 
Q 2878 531 3122 666 
L 3122 134 
Q 2881 22 2623 -34 
Q 2366 -91 2075 -91 
Q 1284 -91 818 406 
Q 353 903 353 1747 
Q 353 2603 823 3093 
Q 1294 3584 2113 3584 
Q 2378 3584 2631 3529 
Q 2884 3475 3122 3366 
z
" transform="scale(0.015625)"/>
        <path id="DejaVuSans-74" d="M 1172 4494 
L 1172 3500 
L 2356 3500 
L 2356 3053 
L 1172 3053 
L 1172 1153 
Q 1172 725 1289 603 
Q 1406 481 1766 481 
L 2356 481 
L 2356 0 
L 1766 0 
Q 1100 0 847 248 
Q 594 497 594 1153 
L 594 3053 
L 172 3053 
L 172 3500 
L 594 3500 
L 594 4494 
L 1172 4494 
z
" transform="scale(0.015625)"/>
       </defs>
       <use xlink:href="#DejaVuSans-4f"/>
       <use xlink:href="#DejaVuSans-63" x="78.710938"/>
       <use xlink:href="#DejaVuSans-74" x="133.691406"/>
      </g>
     </g>
    </g>
    <g id="xtick_11">
     <g id="line2d_83">
      <g>
       <use xlink:href="#m4217acd997" x="578.25" y="512.64" style="fill: #555555; stroke: #555555; stroke-width: 0.8"/>
      </g>
     </g>
     <g id="text_11">
      <!-- Nov -->
      <g style="fill: #555555" transform="translate(568.490625 527.238438) scale(0.1 -0.1)">
       <defs>
        <path id="DejaVuSans-4e" d="M 628 4666 
L 1478 4666 
L 3547 763 
L 3547 4666 
L 4159 4666 
L 4159 0 
L 3309 0 
L 1241 3903 
L 1241 0 
L 628 0 
L 628 4666 
z
" transform="scale(0.015625)"/>
        <path id="DejaVuSans-6f" d="M 1959 3097 
Q 1497 3097 1228 2736 
Q 959 2375 959 1747 
Q 959 1119 1226 758 
Q 1494 397 1959 397 
Q 2419 397 2687 759 
Q 2956 1122 2956 1747 
Q 2956 2369 2687 2733 
Q 2419 3097 1959 3097 
z
M 1959 3584 
Q 2709 3584 3137 3096 
Q 3566 2609 3566 1747 
Q 3566 888 3137 398 
Q 2709 -91 1959 -91 
Q 1206 -91 779 398 
Q 353 888 353 1747 
Q 353 2609 779 3096 
Q 1206 3584 1959 3584 
z
" transform="scale(0.015625)"/>
        <path id="DejaVuSans-76" d="M 191 3500 
L 800 3500 
L 1894 563 
L 2988 3500 
L 3597 3500 
L 2284 0 
L 1503 0 
L 191 3500 
z
" transform="scale(0.015625)"/>
       </defs>
       <use xlink:href="#DejaVuSans-4e"/>
       <use xlink:href="#DejaVuSans-6f" x="74.804688"/>
       <use xlink:href="#DejaVuSans-76" x="135.986328"/>
      </g>
     </g>
    </g>
    <g id="xtick_12">
     <g id="line2d_84">
      <g>
       <use xlink:href="#m4217acd997" x="624.75" y="512.64" style="fill: #555555; stroke: #555555; stroke-width: 0.8"/>
      </g>
     </g>
     <g id="text_12">
      <!-- Dec -->
      <g style="fill: #555555" transform="translate(615.074219 527.238438) scale(0.1 -0.1)">
       <defs>
        <path id="DejaVuSans-44" d="M 1259 4147 
L 1259 519 
L 2022 519 
Q 2988 519 3436 956 
Q 3884 1394 3884 2338 
Q 3884 3275 3436 3711 
Q 2988 4147 2022 4147 
L 1259 4147 
z
M 628 4666 
L 1925 4666 
Q 3281 4666 3915 4102 
Q 4550 3538 4550 2338 
Q 4550 1131 3912 565 
Q 3275 0 1925 0 
L 628 0 
L 628 4666 
z
" transform="scale(0.015625)"/>
       </defs>
       <use xlink:href="#DejaVuSans-44"/>
       <use xlink:href="#DejaVuSans-65" x="77.001953"/>
       <use xlink:href="#DejaVuSans-63" x="138.525391"/>
      </g>
     </g>
    </g>
   </g>
   <g id="matplotlib.axis_2">
    <g id="ytick_1">
     <g id="line2d_85">
      <path d="M 90 512.64 
L 648 512.64 
" clip-path="url(#p11144f8d7e)" style="fill: none; stroke: #ffffff; stroke-width: 0.8; stroke-linecap: square"/>
     </g>
     <g id="line2d_86">
      <defs>
       <path id="md09880bc6e" d="M 0 0 
L -3.5 0 
" style="stroke: #555555; stroke-width: 0.8"/>
      </defs>
      <g>
       <use xlink:href="#md09880bc6e" x="90" y="512.64" style="fill: #555555; stroke: #555555; stroke-width: 0.8"/>
      </g>
     </g>
     <g id="text_13">
      <!-- −10 -->
      <g style="fill: #555555" transform="translate(61.895313 516.439219) scale(0.1 -0.1)">
       <defs>
        <path id="DejaVuSans-2212" d="M 678 2272 
L 4684 2272 
L 4684 1741 
L 678 1741 
L 678 2272 
z
" transform="scale(0.015625)"/>
        <path id="DejaVuSans-31" d="M 794 531 
L 1825 531 
L 1825 4091 
L 703 3866 
L 703 4441 
L 1819 4666 
L 2450 4666 
L 2450 531 
L 3481 531 
L 3481 0 
L 794 0 
L 794 531 
z
" transform="scale(0.015625)"/>
        <path id="DejaVuSans-30" d="M 2034 4250 
Q 1547 4250 1301 3770 
Q 1056 3291 1056 2328 
Q 1056 1369 1301 889 
Q 1547 409 2034 409 
Q 2525 409 2770 889 
Q 3016 1369 3016 2328 
Q 3016 3291 2770 3770 
Q 2525 4250 2034 4250 
z
M 2034 4750 
Q 2819 4750 3233 4129 
Q 3647 3509 3647 2328 
Q 3647 1150 3233 529 
Q 2819 -91 2034 -91 
Q 1250 -91 836 529 
Q 422 1150 422 2328 
Q 422 3509 836 4129 
Q 1250 4750 2034 4750 
z
" transform="scale(0.015625)"/>
       </defs>
       <use xlink:href="#DejaVuSans-2212"/>
       <use xlink:href="#DejaVuSans-31" x="83.789062"/>
       <use xlink:href="#DejaVuSans-30" x="147.412109"/>
      </g>
     </g>
    </g>
    <g id="ytick_2">
     <g id="line2d_87">
      <path d="M 90 438.72 
L 648 438.72 
" clip-path="url(#p11144f8d7e)" style="fill: none; stroke: #ffffff; stroke-width: 0.8; stroke-linecap: square"/>
     </g>
     <g id="line2d_88">
      <g>
       <use xlink:href="#md09880bc6e" x="90" y="438.72" style="fill: #555555; stroke: #555555; stroke-width: 0.8"/>
      </g>
     </g>
     <g id="text_14">
      <!-- −5 -->
      <g style="fill: #555555" transform="translate(68.257812 442.519219) scale(0.1 -0.1)">
       <defs>
        <path id="DejaVuSans-35" d="M 691 4666 
L 3169 4666 
L 3169 4134 
L 1269 4134 
L 1269 2991 
Q 1406 3038 1543 3061 
Q 1681 3084 1819 3084 
Q 2600 3084 3056 2656 
Q 3513 2228 3513 1497 
Q 3513 744 3044 326 
Q 2575 -91 1722 -91 
Q 1428 -91 1123 -41 
Q 819 9 494 109 
L 494 744 
Q 775 591 1075 516 
Q 1375 441 1709 441 
Q 2250 441 2565 725 
Q 2881 1009 2881 1497 
Q 2881 1984 2565 2268 
Q 2250 2553 1709 2553 
Q 1456 2553 1204 2497 
Q 953 2441 691 2322 
L 691 4666 
z
" transform="scale(0.015625)"/>
       </defs>
       <use xlink:href="#DejaVuSans-2212"/>
       <use xlink:href="#DejaVuSans-35" x="83.789062"/>
      </g>
     </g>
    </g>
    <g id="ytick_3">
     <g id="line2d_89">
      <path d="M 90 364.8 
L 648 364.8 
" clip-path="url(#p11144f8d7e)" style="fill: none; stroke: #ffffff; stroke-width: 0.8; stroke-linecap: square"/>
     </g>
     <g id="line2d_90">
      <g>
       <use xlink:href="#md09880bc6e" x="90" y="364.8" style="fill: #555555; stroke: #555555; stroke-width: 0.8"/>
      </g>
     </g>
     <g id="text_15">
      <!-- 0 -->
      <g style="fill: #555555" transform="translate(76.6375 368.599219) scale(0.1 -0.1)">
       <use xlink:href="#DejaVuSans-30"/>
      </g>
     </g>
    </g>
    <g id="ytick_4">
     <g id="line2d_91">
      <path d="M 90 290.88 
L 648 290.88 
" clip-path="url(#p11144f8d7e)" style="fill: none; stroke: #ffffff; stroke-width: 0.8; stroke-linecap: square"/>
     </g>
     <g id="line2d_92">
      <g>
       <use xlink:href="#md09880bc6e" x="90" y="290.88" style="fill: #555555; stroke: #555555; stroke-width: 0.8"/>
      </g>
     </g>
     <g id="text_16">
      <!-- 5 -->
      <g style="fill: #555555" transform="translate(76.6375 294.679219) scale(0.1 -0.1)">
       <use xlink:href="#DejaVuSans-35"/>
      </g>
     </g>
    </g>
    <g id="ytick_5">
     <g id="line2d_93">
      <path d="M 90 216.96 
L 648 216.96 
" clip-path="url(#p11144f8d7e)" style="fill: none; stroke: #ffffff; stroke-width: 0.8; stroke-linecap: square"/>
     </g>
     <g id="line2d_94">
      <g>
       <use xlink:href="#md09880bc6e" x="90" y="216.96" style="fill: #555555; stroke: #555555; stroke-width: 0.8"/>
      </g>
     </g>
     <g id="text_17">
      <!-- 10 -->
      <g style="fill: #555555" transform="translate(70.275 220.759219) scale(0.1 -0.1)">
       <use xlink:href="#DejaVuSans-31"/>
       <use xlink:href="#DejaVuSans-30" x="63.623047"/>
      </g>
     </g>
    </g>
    <g id="ytick_6">
     <g id="line2d_95">
      <path d="M 90 143.04 
L 648 143.04 
" clip-path="url(#p11144f8d7e)" style="fill: none; stroke: #ffffff; stroke-width: 0.8; stroke-linecap: square"/>
     </g>
     <g id="line2d_96">
      <g>
       <use xlink:href="#md09880bc6e" x="90" y="143.04" style="fill: #555555; stroke: #555555; stroke-width: 0.8"/>
      </g>
     </g>
     <g id="text_18">
      <!-- 15 -->
      <g style="fill: #555555" transform="translate(70.275 146.839219) scale(0.1 -0.1)">
       <use xlink:href="#DejaVuSans-31"/>
       <use xlink:href="#DejaVuSans-35" x="63.623047"/>
      </g>
     </g>
    </g>
    <g id="ytick_7">
     <g id="line2d_97">
      <path d="M 90 69.12 
L 648 69.12 
" clip-path="url(#p11144f8d7e)" style="fill: none; stroke: #ffffff; stroke-width: 0.8; stroke-linecap: square"/>
     </g>
     <g id="line2d_98">
      <g>
       <use xlink:href="#md09880bc6e" x="90" y="69.12" style="fill: #555555; stroke: #555555; stroke-width: 0.8"/>
      </g>
     </g>
     <g id="text_19">
      <!-- 20 -->
      <g style="fill: #555555" transform="translate(70.275 72.919219) scale(0.1 -0.1)">
       <defs>
        <path id="DejaVuSans-32" d="M 1228 531 
L 3431 531 
L 3431 0 
L 469 0 
L 469 531 
Q 828 903 1448 1529 
Q 2069 2156 2228 2338 
Q 2531 2678 2651 2914 
Q 2772 3150 2772 3378 
Q 2772 3750 2511 3984 
Q 2250 4219 1831 4219 
Q 1534 4219 1204 4116 
Q 875 4013 500 3803 
L 500 4441 
Q 881 4594 1212 4672 
Q 1544 4750 1819 4750 
Q 2544 4750 2975 4387 
Q 3406 4025 3406 3419 
Q 3406 3131 3298 2873 
Q 3191 2616 2906 2266 
Q 2828 2175 2409 1742 
Q 1991 1309 1228 531 
z
" transform="scale(0.015625)"/>
       </defs>
       <use xlink:href="#DejaVuSans-32"/>
       <use xlink:href="#DejaVuSans-30" x="63.623047"/>
      </g>
     </g>
    </g>
    <g id="text_20">
     <!-- Temperature (C) -->
     <g style="fill: #555555" transform="translate(55.399687 339.661875) rotate(-90) scale(0.12 -0.12)">
      <defs>
       <path id="DejaVuSans-54" d="M -19 4666 
L 3928 4666 
L 3928 4134 
L 2272 4134 
L 2272 0 
L 1638 0 
L 1638 4134 
L -19 4134 
L -19 4666 
z
" transform="scale(0.015625)"/>
       <path id="DejaVuSans-6d" d="M 3328 2828 
Q 3544 3216 3844 3400 
Q 4144 3584 4550 3584 
Q 5097 3584 5394 3201 
Q 5691 2819 5691 2113 
L 5691 0 
L 5113 0 
L 5113 2094 
Q 5113 2597 4934 2840 
Q 4756 3084 4391 3084 
Q 3944 3084 3684 2787 
Q 3425 2491 3425 1978 
L 3425 0 
L 2847 0 
L 2847 2094 
Q 2847 2600 2669 2842 
Q 2491 3084 2119 3084 
Q 1678 3084 1418 2786 
Q 1159 2488 1159 1978 
L 1159 0 
L 581 0 
L 581 3500 
L 1159 3500 
L 1159 2956 
Q 1356 3278 1631 3431 
Q 1906 3584 2284 3584 
Q 2666 3584 2933 3390 
Q 3200 3197 3328 2828 
z
" transform="scale(0.015625)"/>
       <path id="DejaVuSans-20" transform="scale(0.015625)"/>
       <path id="DejaVuSans-28" d="M 1984 4856 
Q 1566 4138 1362 3434 
Q 1159 2731 1159 2009 
Q 1159 1288 1364 580 
Q 1569 -128 1984 -844 
L 1484 -844 
Q 1016 -109 783 600 
Q 550 1309 550 2009 
Q 550 2706 781 3412 
Q 1013 4119 1484 4856 
L 1984 4856 
z
" transform="scale(0.015625)"/>
       <path id="DejaVuSans-43" d="M 4122 4306 
L 4122 3641 
Q 3803 3938 3442 4084 
Q 3081 4231 2675 4231 
Q 1875 4231 1450 3742 
Q 1025 3253 1025 2328 
Q 1025 1406 1450 917 
Q 1875 428 2675 428 
Q 3081 428 3442 575 
Q 3803 722 4122 1019 
L 4122 359 
Q 3791 134 3420 21 
Q 3050 -91 2638 -91 
Q 1578 -91 968 557 
Q 359 1206 359 2328 
Q 359 3453 968 4101 
Q 1578 4750 2638 4750 
Q 3056 4750 3426 4639 
Q 3797 4528 4122 4306 
z
" transform="scale(0.015625)"/>
       <path id="DejaVuSans-29" d="M 513 4856 
L 1013 4856 
Q 1481 4119 1714 3412 
Q 1947 2706 1947 2009 
Q 1947 1309 1714 600 
Q 1481 -109 1013 -844 
L 513 -844 
Q 928 -128 1133 580 
Q 1338 1288 1338 2009 
Q 1338 2731 1133 3434 
Q 928 4138 513 4856 
z
" transform="scale(0.015625)"/>
      </defs>
      <use xlink:href="#DejaVuSans-54"/>
      <use xlink:href="#DejaVuSans-65" x="44.083984"/>
      <use xlink:href="#DejaVuSans-6d" x="105.607422"/>
      <use xlink:href="#DejaVuSans-70" x="203.019531"/>
      <use xlink:href="#DejaVuSans-65" x="266.496094"/>
      <use xlink:href="#DejaVuSans-72" x="328.019531"/>
      <use xlink:href="#DejaVuSans-61" x="369.132812"/>
      <use xlink:href="#DejaVuSans-74" x="430.412109"/>
      <use xlink:href="#DejaVuSans-75" x="469.621094"/>
      <use xlink:href="#DejaVuSans-72" x="533"/>
      <use xlink:href="#DejaVuSans-65" x="571.863281"/>
      <use xlink:href="#DejaVuSans-20" x="633.386719"/>
      <use xlink:href="#DejaVuSans-28" x="665.173828"/>
      <use xlink:href="#DejaVuSans-43" x="704.1875"/>
      <use xlink:href="#DejaVuSans-29" x="774.011719"/>
     </g>
    </g>
   </g>
   <g id="patch_3">
    <path d="M 94.65 351.864 
L 131.85 351.864 
L 131.85 318.9696 
L 94.65 318.9696 
L 94.65 351.864 
L 94.65 351.864 
z
" clip-path="url(#p11144f8d7e)" style="fill: none; stroke: #000000; stroke-width: 1.5; stroke-linejoin: miter"/>
   </g>
   <g id="patch_4">
    <path d="M 141.15 352.9728 
L 178.35 352.9728 
L 178.35 320.0784 
L 141.15 320.0784 
L 141.15 352.9728 
L 141.15 352.9728 
z
" clip-path="url(#p11144f8d7e)" style="fill: none; stroke: #000000; stroke-width: 1.5; stroke-linejoin: miter"/>
   </g>
   <g id="patch_5">
    <path d="M 187.65 330.0576 
L 224.85 330.0576 
L 224.85 299.0112 
L 187.65 299.0112 
L 187.65 330.0576 
L 187.65 330.0576 
z
" clip-path="url(#p11144f8d7e)" style="fill: none; stroke: #000000; stroke-width: 1.5; stroke-linejoin: miter"/>
   </g>
   <g id="patch_6">
    <path d="M 234.15 299.7504 
L 271.35 299.7504 
L 271.35 276.8352 
L 234.15 276.8352 
L 234.15 299.7504 
L 234.15 299.7504 
z
" clip-path="url(#p11144f8d7e)" style="fill: none; stroke: #000000; stroke-width: 1.5; stroke-linejoin: miter"/>
   </g>
   <g id="patch_7">
    <path d="M 280.65 253.92 
L 317.85 253.92 
L 317.85 225.8304 
L 280.65 225.8304 
L 280.65 253.92 
L 280.65 253.92 
z
" clip-path="url(#p11144f8d7e)" style="fill: none; stroke: #000000; stroke-width: 1.5; stroke-linejoin: miter"/>
   </g>
   <g id="patch_8">
    <path d="M 327.15 206.6112 
L 364.35 206.6112 
L 364.35 184.4352 
L 327.15 184.4352 
L 327.15 206.6112 
L 327.15 206.6112 
z
" clip-path="url(#p11144f8d7e)" style="fill: none; stroke: #000000; stroke-width: 1.5; stroke-linejoin: miter"/>
   </g>
   <g id="patch_9">
    <path d="M 373.65 177.0432 
L 410.85 177.0432 
L 410.85 154.128 
L 373.65 154.128 
L 373.65 177.0432 
L 373.65 177.0432 
z
" clip-path="url(#p11144f8d7e)" style="fill: none; stroke: #000000; stroke-width: 1.5; stroke-linejoin: miter"/>
   </g>
   <g id="patch_10">
    <path d="M 420.15 180 
L 457.35 180 
L 457.35 156.3456 
L 420.15 156.3456 
L 420.15 180 
L 420.15 180 
z
" clip-path="url(#p11144f8d7e)" style="fill: none; stroke: #000000; stroke-width: 1.5; stroke-linejoin: miter"/>
   </g>
   <g id="patch_11">
    <path d="M 466.65 211.0464 
L 503.85 211.0464 
L 503.85 191.088 
L 466.65 191.088 
L 466.65 211.0464 
L 466.65 211.0464 
z
" clip-path="url(#p11144f8d7e)" style="fill: none; stroke: #000000; stroke-width: 1.5; stroke-linejoin: miter"/>
   </g>
   <g id="patch_12">
    <path d="M 513.15 253.92 
L 550.35 253.92 
L 550.35 233.2224 
L 513.15 233.2224 
L 513.15 253.92 
L 513.15 253.92 
z
" clip-path="url(#p11144f8d7e)" style="fill: none; stroke: #000000; stroke-width: 1.5; stroke-linejoin: miter"/>
   </g>
   <g id="patch_13">
    <path d="M 559.65 313.056 
L 596.85 313.056 
L 596.85 283.488 
L 559.65 283.488 
L 559.65 313.056 
L 559.65 313.056 
z
" clip-path="url(#p11144f8d7e)" style="fill: none; stroke: #000000; stroke-width: 1.5; stroke-linejoin: miter"/>
   </g>
   <g id="patch_14">
    <path d="M 606.15 340.4064 
L 643.35 340.4064 
L 643.35 308.6208 
L 606.15 308.6208 
L 606.15 340.4064 
L 606.15 340.4064 
z
" clip-path="url(#p11144f8d7e)" style="fill: none; stroke: #000000; stroke-width: 1.5; stroke-linejoin: miter"/>
   </g>
   <g id="PathCollection_1">
    <path d="M 113.25 339.104983 
C 114.277127 339.104983 115.262324 338.696901 115.988613 337.970613 
C 116.714901 337.244324 117.122983 336.259127 117.122983 335.232 
C 117.122983 334.204873 116.714901 333.219676 115.988613 332.493387 
C 115.262324 331.767099 114.277127 331.359017 113.25 331.359017 
C 112.222873 331.359017 111.237676 331.767099 110.511387 332.493387 
C 109.785099 333.219676 109.377017 334.204873 109.377017 335.232 
C 109.377017 336.259127 109.785099 337.244324 110.511387 337.970613 
C 111.237676 338.696901 112.222873 339.104983 113.25 339.104983 
z
" clip-path="url(#p11144f8d7e)" style="fill: #66c2a5; stroke: #ffffff; stroke-width: 0.619677"/>
    <path d="M 159.75 319.885783 
C 160.777127 319.885783 161.762324 319.477701 162.488613 318.751413 
C 163.214901 318.025124 163.622983 317.039927 163.622983 316.0128 
C 163.622983 314.985673 163.214901 314.000476 162.488613 313.274187 
C 161.762324 312.547899 160.777127 312.139817 159.75 312.139817 
C 158.722873 312.139817 157.737676 312.547899 157.011387 313.274187 
C 156.285099 314.000476 155.877017 314.985673 155.877017 316.0128 
C 155.877017 317.039927 156.285099 318.025124 157.011387 318.751413 
C 157.737676 319.477701 158.722873 319.885783 159.75 319.885783 
z
" clip-path="url(#p11144f8d7e)" style="fill: #66c2a5; stroke: #ffffff; stroke-width: 0.619677"/>
    <path d="M 206.25 282.925783 
C 207.277127 282.925783 208.262324 282.517701 208.988613 281.791413 
C 209.714901 281.065124 210.122983 280.079927 210.122983 279.0528 
C 210.122983 278.025673 209.714901 277.040476 208.988613 276.314187 
C 208.262324 275.587899 207.277127 275.179817 206.25 275.179817 
C 205.222873 275.179817 204.237676 275.587899 203.511387 276.314187 
C 202.785099 277.040476 202.377017 278.025673 202.377017 279.0528 
C 202.377017 280.079927 202.785099 281.065124 203.511387 281.791413 
C 204.237676 282.517701 205.222873 282.925783 206.25 282.925783 
z
" clip-path="url(#p11144f8d7e)" style="fill: #66c2a5; stroke: #ffffff; stroke-width: 0.619677"/>
    <path d="M 252.75 284.404183 
C 253.777127 284.404183 254.762324 283.996101 255.488613 283.269813 
C 256.214901 282.543524 256.622983 281.558327 256.622983 280.5312 
C 256.622983 279.504073 256.214901 278.518876 255.488613 277.792587 
C 254.762324 277.066299 253.777127 276.658217 252.75 276.658217 
C 251.722873 276.658217 250.737676 277.066299 250.011387 277.792587 
C 249.285099 278.518876 248.877017 279.504073 248.877017 280.5312 
C 248.877017 281.558327 249.285099 282.543524 250.011387 283.269813 
C 250.737676 283.996101 251.722873 284.404183 252.75 284.404183 
z
" clip-path="url(#p11144f8d7e)" style="fill: #66c2a5; stroke: #ffffff; stroke-width: 0.619677"/>
    <path d="M 299.25 244.487383 
C 300.277127 244.487383 301.262324 244.079301 301.988613 243.353013 
C 302.714901 242.626724 303.122983 241.641527 303.122983 240.6144 
C 303.122983 239.587273 302.714901 238.602076 301.988613 237.875787 
C 301.262324 237.149499 300.277127 236.741417 299.25 236.741417 
C 298.222873 236.741417 297.237676 237.149499 296.511387 237.875787 
C 295.785099 238.602076 295.377017 239.587273 295.377017 240.6144 
C 295.377017 241.641527 295.785099 242.626724 296.511387 243.353013 
C 297.237676 244.079301 298.222873 244.487383 299.25 244.487383 
z
" clip-path="url(#p11144f8d7e)" style="fill: #66c2a5; stroke: #ffffff; stroke-width: 0.619677"/>
    <path d="M 345.75 192.743383 
C 346.777127 192.743383 347.762324 192.335301 348.488613 191.609013 
C 349.214901 190.882724 349.622983 189.897527 349.622983 188.8704 
C 349.622983 187.843273 349.214901 186.858076 348.488613 186.131787 
C 347.762324 185.405499 346.777127 184.997417 345.75 184.997417 
C 344.722873 184.997417 343.737676 185.405499 343.011387 186.131787 
C 342.285099 186.858076 341.877017 187.843273 341.877017 188.8704 
C 341.877017 189.897527 342.285099 190.882724 343.011387 191.609013 
C 343.737676 192.335301 344.722873 192.743383 345.75 192.743383 
z
" clip-path="url(#p11144f8d7e)" style="fill: #66c2a5; stroke: #ffffff; stroke-width: 0.619677"/>
    <path d="M 392.25 148.391383 
C 393.277127 148.391383 394.262324 147.983301 394.988613 147.257013 
C 395.714901 146.530724 396.122983 145.545527 396.122983 144.5184 
C 396.122983 143.491273 395.714901 142.506076 394.988613 141.779787 
C 394.262324 141.053499 393.277127 140.645417 392.25 140.645417 
C 391.222873 140.645417 390.237676 141.053499 389.511387 141.779787 
C 388.785099 142.506076 388.377017 143.491273 388.377017 144.5184 
C 388.377017 145.545527 388.785099 146.530724 389.511387 147.257013 
C 390.237676 147.983301 391.222873 148.391383 392.25 148.391383 
z
" clip-path="url(#p11144f8d7e)" style="fill: #66c2a5; stroke: #ffffff; stroke-width: 0.619677"/>
    <path d="M 438.75 160.218583 
C 439.777127 160.218583 440.762324 159.810501 441.488613 159.084213 
C 442.214901 158.357924 442.622983 157.372727 442.622983 156.3456 
C 442.622983 155.318473 442.214901 154.333276 441.488613 153.606987 
C 440.762324 152.880699 439.777127 152.472617 438.75 152.472617 
C 437.722873 152.472617 436.737676 152.880699 436.011387 153.606987 
C 435.285099 154.333276 434.877017 155.318473 434.877017 156.3456 
C 434.877017 157.372727 435.285099 158.357924 436.011387 159.084213 
C 436.737676 159.810501 437.722873 160.218583 438.75 160.218583 
z
" clip-path="url(#p11144f8d7e)" style="fill: #66c2a5; stroke: #ffffff; stroke-width: 0.619677"/>
    <path d="M 485.25 194.221783 
C 486.277127 194.221783 487.262324 193.813701 487.988613 193.087413 
C 488.714901 192.361124 489.122983 191.375927 489.122983 190.3488 
C 489.122983 189.321673 488.714901 188.336476 487.988613 187.610187 
C 487.262324 186.883899 486.277127 186.475817 485.25 186.475817 
C 484.222873 186.475817 483.237676 186.883899 482.511387 187.610187 
C 481.785099 188.336476 481.377017 189.321673 481.377017 190.3488 
C 481.377017 191.375927 481.785099 192.361124 482.511387 193.087413 
C 483.237676 193.813701 484.222873 194.221783 485.25 194.221783 
z
" clip-path="url(#p11144f8d7e)" style="fill: #66c2a5; stroke: #ffffff; stroke-width: 0.619677"/>
    <path d="M 531.75 241.530583 
C 532.777127 241.530583 533.762324 241.122501 534.488613 240.396213 
C 535.214901 239.669924 535.622983 238.684727 535.622983 237.6576 
C 535.622983 236.630473 535.214901 235.645276 534.488613 234.918987 
C 533.762324 234.192699 532.777127 233.784617 531.75 233.784617 
C 530.722873 233.784617 529.737676 234.192699 529.011387 234.918987 
C 528.285099 235.645276 527.877017 236.630473 527.877017 237.6576 
C 527.877017 238.684727 528.285099 239.669924 529.011387 240.396213 
C 529.737676 241.122501 530.722873 241.530583 531.75 241.530583 
z
" clip-path="url(#p11144f8d7e)" style="fill: #66c2a5; stroke: #ffffff; stroke-width: 0.619677"/>
    <path d="M 578.25 305.101783 
C 579.277127 305.101783 580.262324 304.693701 580.988613 303.967413 
C 581.714901 303.241124 582.122983 302.255927 582.122983 301.2288 
C 582.122983 300.201673 581.714901 299.216476 580.988613 298.490187 
C 580.262324 297.763899 579.277127 297.355817 578.25 297.355817 
C 577.222873 297.355817 576.237676 297.763899 575.511387 298.490187 
C 574.785099 299.216476 574.377017 300.201673 574.377017 301.2288 
C 574.377017 302.255927 574.785099 303.241124 575.511387 303.967413 
C 576.237676 304.693701 577.222873 305.101783 578.25 305.101783 
z
" clip-path="url(#p11144f8d7e)" style="fill: #66c2a5; stroke: #ffffff; stroke-width: 0.619677"/>
    <path d="M 624.75 309.536983 
C 625.777127 309.536983 626.762324 309.128901 627.488613 308.402613 
C 628.214901 307.676324 628.622983 306.691127 628.622983 305.664 
C 628.622983 304.636873 628.214901 303.651676 627.488613 302.925387 
C 626.762324 302.199099 625.777127 301.791017 624.75 301.791017 
C 623.722873 301.791017 622.737676 302.199099 622.011387 302.925387 
C 621.285099 303.651676 620.877017 304.636873 620.877017 305.664 
C 620.877017 306.691127 621.285099 307.676324 622.011387 308.402613 
C 622.737676 309.128901 623.722873 309.536983 624.75 309.536983 
z
" clip-path="url(#p11144f8d7e)" style="fill: #66c2a5; stroke: #ffffff; stroke-width: 0.619677"/>
    <path d="M 111.313508 299.188183 
L 113.25 297.251692 
L 115.186492 299.188183 
L 117.122983 297.251692 
L 115.186492 295.3152 
L 117.122983 293.378708 
L 115.186492 291.442217 
L 113.25 293.378708 
L 111.313508 291.442217 
L 109.377017 293.378708 
L 111.313508 295.3152 
L 109.377017 297.251692 
z
" clip-path="url(#p11144f8d7e)" style="fill: #fc8d62; stroke: #ffffff; stroke-width: 0.619677"/>
    <path d="M 157.813508 305.101783 
L 159.75 303.165292 
L 161.686492 305.101783 
L 163.622983 303.165292 
L 161.686492 301.2288 
L 163.622983 299.292308 
L 161.686492 297.355817 
L 159.75 299.292308 
L 157.813508 297.355817 
L 155.877017 299.292308 
L 157.813508 301.2288 
L 155.877017 303.165292 
z
" clip-path="url(#p11144f8d7e)" style="fill: #fc8d62; stroke: #ffffff; stroke-width: 0.619677"/>
    <path d="M 204.313508 311.015383 
L 206.25 309.078892 
L 208.186492 311.015383 
L 210.122983 309.078892 
L 208.186492 307.1424 
L 210.122983 305.205908 
L 208.186492 303.269417 
L 206.25 305.205908 
L 204.313508 303.269417 
L 202.377017 305.205908 
L 204.313508 307.1424 
L 202.377017 309.078892 
z
" clip-path="url(#p11144f8d7e)" style="fill: #fc8d62; stroke: #ffffff; stroke-width: 0.619677"/>
    <path d="M 250.813508 272.576983 
L 252.75 270.640492 
L 254.686492 272.576983 
L 256.622983 270.640492 
L 254.686492 268.704 
L 256.622983 266.767508 
L 254.686492 264.831017 
L 252.75 266.767508 
L 250.813508 264.831017 
L 248.877017 266.767508 
L 250.813508 268.704 
L 248.877017 270.640492 
z
" clip-path="url(#p11144f8d7e)" style="fill: #fc8d62; stroke: #ffffff; stroke-width: 0.619677"/>
    <path d="M 297.313508 234.138583 
L 299.25 232.202092 
L 301.186492 234.138583 
L 303.122983 232.202092 
L 301.186492 230.2656 
L 303.122983 228.329108 
L 301.186492 226.392617 
L 299.25 228.329108 
L 297.313508 226.392617 
L 295.377017 228.329108 
L 297.313508 230.2656 
L 295.377017 232.202092 
z
" clip-path="url(#p11144f8d7e)" style="fill: #fc8d62; stroke: #ffffff; stroke-width: 0.619677"/>
    <path d="M 343.813508 182.394583 
L 345.75 180.458092 
L 347.686492 182.394583 
L 349.622983 180.458092 
L 347.686492 178.5216 
L 349.622983 176.585108 
L 347.686492 174.648617 
L 345.75 176.585108 
L 343.813508 174.648617 
L 341.877017 176.585108 
L 343.813508 178.5216 
L 341.877017 180.458092 
z
" clip-path="url(#p11144f8d7e)" style="fill: #fc8d62; stroke: #ffffff; stroke-width: 0.619677"/>
    <path d="M 390.313508 170.567383 
L 392.25 168.630892 
L 394.186492 170.567383 
L 396.122983 168.630892 
L 394.186492 166.6944 
L 396.122983 164.757908 
L 394.186492 162.821417 
L 392.25 164.757908 
L 390.313508 162.821417 
L 388.377017 164.757908 
L 390.313508 166.6944 
L 388.377017 168.630892 
z
" clip-path="url(#p11144f8d7e)" style="fill: #fc8d62; stroke: #ffffff; stroke-width: 0.619677"/>
    <path d="M 436.813508 138.042583 
L 438.75 136.106092 
L 440.686492 138.042583 
L 442.622983 136.106092 
L 440.686492 134.1696 
L 442.622983 132.233108 
L 440.686492 130.296617 
L 438.75 132.233108 
L 436.813508 130.296617 
L 434.877017 132.233108 
L 436.813508 134.1696 
L 434.877017 136.106092 
z
" clip-path="url(#p11144f8d7e)" style="fill: #fc8d62; stroke: #ffffff; stroke-width: 0.619677"/>
    <path d="M 483.313508 203.092183 
L 485.25 201.155692 
L 487.186492 203.092183 
L 489.122983 201.155692 
L 487.186492 199.2192 
L 489.122983 197.282708 
L 487.186492 195.346217 
L 485.25 197.282708 
L 483.313508 195.346217 
L 481.377017 197.282708 
L 483.313508 199.2192 
L 481.377017 201.155692 
z
" clip-path="url(#p11144f8d7e)" style="fill: #fc8d62; stroke: #ffffff; stroke-width: 0.619677"/>
    <path d="M 529.813508 238.573783 
L 531.75 236.637292 
L 533.686492 238.573783 
L 535.622983 236.637292 
L 533.686492 234.7008 
L 535.622983 232.764308 
L 533.686492 230.827817 
L 531.75 232.764308 
L 529.813508 230.827817 
L 527.877017 232.764308 
L 529.813508 234.7008 
L 527.877017 236.637292 
z
" clip-path="url(#p11144f8d7e)" style="fill: #fc8d62; stroke: #ffffff; stroke-width: 0.619677"/>
    <path d="M 576.313508 277.012183 
L 578.25 275.075692 
L 580.186492 277.012183 
L 582.122983 275.075692 
L 580.186492 273.1392 
L 582.122983 271.202708 
L 580.186492 269.266217 
L 578.25 271.202708 
L 576.313508 269.266217 
L 574.377017 271.202708 
L 576.313508 273.1392 
L 574.377017 275.075692 
z
" clip-path="url(#p11144f8d7e)" style="fill: #fc8d62; stroke: #ffffff; stroke-width: 0.619677"/>
    <path d="M 622.813508 316.928983 
L 624.75 314.992492 
L 626.686492 316.928983 
L 628.622983 314.992492 
L 626.686492 313.056 
L 628.622983 311.119508 
L 626.686492 309.183017 
L 624.75 311.119508 
L 622.813508 309.183017 
L 620.877017 311.119508 
L 622.813508 313.056 
L 620.877017 314.992492 
z
" clip-path="url(#p11144f8d7e)" style="fill: #fc8d62; stroke: #ffffff; stroke-width: 0.619677"/>
    <path d="M 110.511387 342.842187 
L 110.511387 348.319413 
L 115.988613 348.319413 
L 115.988613 342.842187 
z
" clip-path="url(#p11144f8d7e)" style="fill: #8da0cb; stroke: #ffffff; stroke-width: 0.619677"/>
    <path d="M 157.011387 316.230987 
L 157.011387 321.708213 
L 162.488613 321.708213 
L 162.488613 316.230987 
z
" clip-path="url(#p11144f8d7e)" style="fill: #8da0cb; stroke: #ffffff; stroke-width: 0.619677"/>
    <path d="M 203.511387 301.446987 
L 203.511387 306.924213 
L 208.988613 306.924213 
L 208.988613 301.446987 
z
" clip-path="url(#p11144f8d7e)" style="fill: #8da0cb; stroke: #ffffff; stroke-width: 0.619677"/>
    <path d="M 250.011387 319.187787 
L 250.011387 324.665013 
L 255.488613 324.665013 
L 255.488613 319.187787 
z
" clip-path="url(#p11144f8d7e)" style="fill: #8da0cb; stroke: #ffffff; stroke-width: 0.619677"/>
    <path d="M 296.511387 255.616587 
L 296.511387 261.093813 
L 301.988613 261.093813 
L 301.988613 255.616587 
z
" clip-path="url(#p11144f8d7e)" style="fill: #8da0cb; stroke: #ffffff; stroke-width: 0.619677"/>
    <path d="M 343.011387 165.434187 
L 343.011387 170.911413 
L 348.488613 170.911413 
L 348.488613 165.434187 
z
" clip-path="url(#p11144f8d7e)" style="fill: #8da0cb; stroke: #ffffff; stroke-width: 0.619677"/>
    <path d="M 389.511387 141.779787 
L 389.511387 147.257013 
L 394.988613 147.257013 
L 394.988613 141.779787 
z
" clip-path="url(#p11144f8d7e)" style="fill: #8da0cb; stroke: #ffffff; stroke-width: 0.619677"/>
    <path d="M 436.011387 163.955787 
L 436.011387 169.433013 
L 441.488613 169.433013 
L 441.488613 163.955787 
z
" clip-path="url(#p11144f8d7e)" style="fill: #8da0cb; stroke: #ffffff; stroke-width: 0.619677"/>
    <path d="M 482.511387 165.434187 
L 482.511387 170.911413 
L 487.988613 170.911413 
L 487.988613 165.434187 
z
" clip-path="url(#p11144f8d7e)" style="fill: #8da0cb; stroke: #ffffff; stroke-width: 0.619677"/>
    <path d="M 529.011387 218.656587 
L 529.011387 224.133813 
L 534.488613 224.133813 
L 534.488613 218.656587 
z
" clip-path="url(#p11144f8d7e)" style="fill: #8da0cb; stroke: #ffffff; stroke-width: 0.619677"/>
    <path d="M 575.511387 295.533387 
L 575.511387 301.010613 
L 580.988613 301.010613 
L 580.988613 295.533387 
z
" clip-path="url(#p11144f8d7e)" style="fill: #8da0cb; stroke: #ffffff; stroke-width: 0.619677"/>
    <path d="M 622.011387 283.706187 
L 622.011387 289.183413 
L 627.488613 289.183413 
L 627.488613 283.706187 
z
" clip-path="url(#p11144f8d7e)" style="fill: #8da0cb; stroke: #ffffff; stroke-width: 0.619677"/>
    <path d="M 111.959006 340.583383 
L 114.540994 340.583383 
L 114.540994 338.001394 
L 117.122983 338.001394 
L 117.122983 335.419406 
L 114.540994 335.419406 
L 114.540994 332.837417 
L 111.959006 332.837417 
L 111.959006 335.419406 
L 109.377017 335.419406 
L 109.377017 338.001394 
L 111.959006 338.001394 
z
" clip-path="url(#p11144f8d7e)" style="fill: #e78ac3; stroke: #ffffff; stroke-width: 0.619677"/>
    <path d="M 158.459006 309.536983 
L 161.040994 309.536983 
L 161.040994 306.954994 
L 163.622983 306.954994 
L 163.622983 304.373006 
L 161.040994 304.373006 
L 161.040994 301.791017 
L 158.459006 301.791017 
L 158.459006 304.373006 
L 155.877017 304.373006 
L 155.877017 306.954994 
L 158.459006 306.954994 
z
" clip-path="url(#p11144f8d7e)" style="fill: #e78ac3; stroke: #ffffff; stroke-width: 0.619677"/>
    <path d="M 204.959006 296.231383 
L 207.540994 296.231383 
L 207.540994 293.649394 
L 210.122983 293.649394 
L 210.122983 291.067406 
L 207.540994 291.067406 
L 207.540994 288.485417 
L 204.959006 288.485417 
L 204.959006 291.067406 
L 202.377017 291.067406 
L 202.377017 293.649394 
L 204.959006 293.649394 
z
" clip-path="url(#p11144f8d7e)" style="fill: #e78ac3; stroke: #ffffff; stroke-width: 0.619677"/>
    <path d="M 251.459006 284.404183 
L 254.040994 284.404183 
L 254.040994 281.822194 
L 256.622983 281.822194 
L 256.622983 279.240206 
L 254.040994 279.240206 
L 254.040994 276.658217 
L 251.459006 276.658217 
L 251.459006 279.240206 
L 248.877017 279.240206 
L 248.877017 281.822194 
L 251.459006 281.822194 
z
" clip-path="url(#p11144f8d7e)" style="fill: #e78ac3; stroke: #ffffff; stroke-width: 0.619677"/>
    <path d="M 297.959006 219.354583 
L 300.540994 219.354583 
L 300.540994 216.772594 
L 303.122983 216.772594 
L 303.122983 214.190606 
L 300.540994 214.190606 
L 300.540994 211.608617 
L 297.959006 211.608617 
L 297.959006 214.190606 
L 295.377017 214.190606 
L 295.377017 216.772594 
L 297.959006 216.772594 
z
" clip-path="url(#p11144f8d7e)" style="fill: #e78ac3; stroke: #ffffff; stroke-width: 0.619677"/>
    <path d="M 344.459006 192.743383 
L 347.040994 192.743383 
L 347.040994 190.161394 
L 349.622983 190.161394 
L 349.622983 187.579406 
L 347.040994 187.579406 
L 347.040994 184.997417 
L 344.459006 184.997417 
L 344.459006 187.579406 
L 341.877017 187.579406 
L 341.877017 190.161394 
L 344.459006 190.161394 
z
" clip-path="url(#p11144f8d7e)" style="fill: #e78ac3; stroke: #ffffff; stroke-width: 0.619677"/>
    <path d="M 390.959006 139.520983 
L 393.540994 139.520983 
L 393.540994 136.938994 
L 396.122983 136.938994 
L 396.122983 134.357006 
L 393.540994 134.357006 
L 393.540994 131.775017 
L 390.959006 131.775017 
L 390.959006 134.357006 
L 388.377017 134.357006 
L 388.377017 136.938994 
L 390.959006 136.938994 
z
" clip-path="url(#p11144f8d7e)" style="fill: #e78ac3; stroke: #ffffff; stroke-width: 0.619677"/>
    <path d="M 437.459006 133.607383 
L 440.040994 133.607383 
L 440.040994 131.025394 
L 442.622983 131.025394 
L 442.622983 128.443406 
L 440.040994 128.443406 
L 440.040994 125.861417 
L 437.459006 125.861417 
L 437.459006 128.443406 
L 434.877017 128.443406 
L 434.877017 131.025394 
L 437.459006 131.025394 
z
" clip-path="url(#p11144f8d7e)" style="fill: #e78ac3; stroke: #ffffff; stroke-width: 0.619677"/>
    <path d="M 483.959006 194.221783 
L 486.540994 194.221783 
L 486.540994 191.639794 
L 489.122983 191.639794 
L 489.122983 189.057806 
L 486.540994 189.057806 
L 486.540994 186.475817 
L 483.959006 186.475817 
L 483.959006 189.057806 
L 481.377017 189.057806 
L 481.377017 191.639794 
L 483.959006 191.639794 
z
" clip-path="url(#p11144f8d7e)" style="fill: #e78ac3; stroke: #ffffff; stroke-width: 0.619677"/>
    <path d="M 530.459006 214.919383 
L 533.040994 214.919383 
L 533.040994 212.337394 
L 535.622983 212.337394 
L 535.622983 209.755406 
L 533.040994 209.755406 
L 533.040994 207.173417 
L 530.459006 207.173417 
L 530.459006 209.755406 
L 527.877017 209.755406 
L 527.877017 212.337394 
L 530.459006 212.337394 
z
" clip-path="url(#p11144f8d7e)" style="fill: #e78ac3; stroke: #ffffff; stroke-width: 0.619677"/>
    <path d="M 576.959006 256.314583 
L 579.540994 256.314583 
L 579.540994 253.732594 
L 582.122983 253.732594 
L 582.122983 251.150606 
L 579.540994 251.150606 
L 579.540994 248.568617 
L 576.959006 248.568617 
L 576.959006 251.150606 
L 574.377017 251.150606 
L 574.377017 253.732594 
L 576.959006 253.732594 
z
" clip-path="url(#p11144f8d7e)" style="fill: #e78ac3; stroke: #ffffff; stroke-width: 0.619677"/>
    <path d="M 623.459006 343.540183 
L 626.040994 343.540183 
L 626.040994 340.958194 
L 628.622983 340.958194 
L 628.622983 338.376206 
L 626.040994 338.376206 
L 626.040994 335.794217 
L 623.459006 335.794217 
L 623.459006 338.376206 
L 620.877017 338.376206 
L 620.877017 340.958194 
L 623.459006 340.958194 
z
" clip-path="url(#p11144f8d7e)" style="fill: #e78ac3; stroke: #ffffff; stroke-width: 0.619677"/>
   </g>
   <g id="PathCollection_2"/>
   <g id="PathCollection_3"/>
   <g id="PathCollection_4"/>
   <g id="PathCollection_5"/>
   <g id="PathCollection_6">
    <defs>
     <path id="m8097446a98" d="M 0 -3.872983 
L -3.872983 3.872983 
L 3.872983 3.872983 
z
" style="stroke: #ffffff; stroke-width: 0.619677"/>
    </defs>
    <g clip-path="url(#p11144f8d7e)">
     <use xlink:href="#m8097446a98" x="485.25" y="252.4416" style="stroke: #ffffff; stroke-width: 0.619677"/>
     <use xlink:href="#m8097446a98" x="392.25" y="191.8272" style="stroke: #ffffff; stroke-width: 0.619677"/>
     <use xlink:href="#m8097446a98" x="159.75" y="418.0224" style="stroke: #ffffff; stroke-width: 0.619677"/>
     <use xlink:href="#m8097446a98" x="252.75" y="329.3184" style="stroke: #ffffff; stroke-width: 0.619677"/>
     <use xlink:href="#m8097446a98" x="438.75" y="203.6544" style="stroke: #ffffff; stroke-width: 0.619677"/>
     <use xlink:href="#m8097446a98" x="206.25" y="373.6704" style="stroke: #ffffff; stroke-width: 0.619677"/>
     <use xlink:href="#m8097446a98" x="113.25" y="432.8064" style="stroke: #ffffff; stroke-width: 0.619677"/>
     <use xlink:href="#m8097446a98" x="392.25" y="191.8272" style="stroke: #ffffff; stroke-width: 0.619677"/>
     <use xlink:href="#m8097446a98" x="345.75" y="231.744" style="stroke: #ffffff; stroke-width: 0.619677"/>
     <use xlink:href="#m8097446a98" x="531.75" y="290.88" style="stroke: #ffffff; stroke-width: 0.619677"/>
     <use xlink:href="#m8097446a98" x="624.75" y="386.976" style="stroke: #ffffff; stroke-width: 0.619677"/>
     <use xlink:href="#m8097446a98" x="578.25" y="347.0592" style="stroke: #ffffff; stroke-width: 0.619677"/>
     <use xlink:href="#m8097446a98" x="299.25" y="277.5744" style="stroke: #ffffff; stroke-width: 0.619677"/>
     <use xlink:href="#m8097446a98" x="624.75" y="386.976" style="stroke: #ffffff; stroke-width: 0.619677"/>
    </g>
   </g>
   <g id="patch_15">
    <path d="M 90 512.64 
L 90 69.12 
" style="fill: none; stroke: #ffffff; stroke-linejoin: miter; stroke-linecap: square"/>
   </g>
   <g id="patch_16">
    <path d="M 648 512.64 
L 648 69.12 
" style="fill: none; stroke: #ffffff; stroke-linejoin: miter; stroke-linecap: square"/>
   </g>
   <g id="patch_17">
    <path d="M 90 512.64 
L 648 512.64 
" style="fill: none; stroke: #ffffff; stroke-linejoin: miter; stroke-linecap: square"/>
   </g>
   <g id="patch_18">
    <path d="M 90 69.12 
L 648 69.12 
" style="fill: none; stroke: #ffffff; stroke-linejoin: miter; stroke-linecap: square"/>
   </g>
   <g id="patch_19">
    <path d="M 485.25 270.409839 
Q 485.25 262.423711 485.25 254.437584 
" style="fill: none; stroke: #000000; stroke-width: 0.5; stroke-linecap: round"/>
   </g>
   <g id="text_21">
    <!-- 1952 -->
    <g transform="translate(472.525 282.0096) scale(0.1 -0.1)">
     <defs>
      <path id="DejaVuSans-39" d="M 703 97 
L 703 672 
Q 941 559 1184 500 
Q 1428 441 1663 441 
Q 2288 441 2617 861 
Q 2947 1281 2994 2138 
Q 2813 1869 2534 1725 
Q 2256 1581 1919 1581 
Q 1219 1581 811 2004 
Q 403 2428 403 3163 
Q 403 3881 828 4315 
Q 1253 4750 1959 4750 
Q 2769 4750 3195 4129 
Q 3622 3509 3622 2328 
Q 3622 1225 3098 567 
Q 2575 -91 1691 -91 
Q 1453 -91 1209 -44 
Q 966 3 703 97 
z
M 1959 2075 
Q 2384 2075 2632 2365 
Q 2881 2656 2881 3163 
Q 2881 3666 2632 3958 
Q 2384 4250 1959 4250 
Q 1534 4250 1286 3958 
Q 1038 3666 1038 3163 
Q 1038 2656 1286 2365 
Q 1534 2075 1959 2075 
z
" transform="scale(0.015625)"/>
     </defs>
     <use xlink:href="#DejaVuSans-31"/>
     <use xlink:href="#DejaVuSans-39" x="63.623047"/>
     <use xlink:href="#DejaVuSans-35" x="127.246094"/>
     <use xlink:href="#DejaVuSans-32" x="190.869141"/>
    </g>
   </g>
   <g id="patch_20">
    <path d="M 159.75 435.990639 
Q 159.75 428.004511 159.75 420.018384 
" style="fill: none; stroke: #000000; stroke-width: 0.5; stroke-linecap: round"/>
   </g>
   <g id="text_22">
    <!-- 1956 -->
    <g transform="translate(147.025 447.5904) scale(0.1 -0.1)">
     <defs>
      <path id="DejaVuSans-36" d="M 2113 2584 
Q 1688 2584 1439 2293 
Q 1191 2003 1191 1497 
Q 1191 994 1439 701 
Q 1688 409 2113 409 
Q 2538 409 2786 701 
Q 3034 994 3034 1497 
Q 3034 2003 2786 2293 
Q 2538 2584 2113 2584 
z
M 3366 4563 
L 3366 3988 
Q 3128 4100 2886 4159 
Q 2644 4219 2406 4219 
Q 1781 4219 1451 3797 
Q 1122 3375 1075 2522 
Q 1259 2794 1537 2939 
Q 1816 3084 2150 3084 
Q 2853 3084 3261 2657 
Q 3669 2231 3669 1497 
Q 3669 778 3244 343 
Q 2819 -91 2113 -91 
Q 1303 -91 875 529 
Q 447 1150 447 2328 
Q 447 3434 972 4092 
Q 1497 4750 2381 4750 
Q 2619 4750 2861 4703 
Q 3103 4656 3366 4563 
z
" transform="scale(0.015625)"/>
     </defs>
     <use xlink:href="#DejaVuSans-31"/>
     <use xlink:href="#DejaVuSans-39" x="63.623047"/>
     <use xlink:href="#DejaVuSans-35" x="127.246094"/>
     <use xlink:href="#DejaVuSans-36" x="190.869141"/>
    </g>
   </g>
   <g id="patch_21">
    <path d="M 252.75 347.286639 
Q 252.75 339.300511 252.75 331.314384 
" style="fill: none; stroke: #000000; stroke-width: 0.5; stroke-linecap: round"/>
   </g>
   <g id="text_23">
    <!-- 1956 -->
    <g transform="translate(240.025 358.8864) scale(0.1 -0.1)">
     <use xlink:href="#DejaVuSans-31"/>
     <use xlink:href="#DejaVuSans-39" x="63.623047"/>
     <use xlink:href="#DejaVuSans-35" x="127.246094"/>
     <use xlink:href="#DejaVuSans-36" x="190.869141"/>
    </g>
   </g>
   <g id="patch_22">
    <path d="M 438.75 221.622639 
Q 438.75 213.636511 438.75 205.650384 
" style="fill: none; stroke: #000000; stroke-width: 0.5; stroke-linecap: round"/>
   </g>
   <g id="text_24">
    <!-- 1956 -->
    <g transform="translate(426.025 233.2224) scale(0.1 -0.1)">
     <use xlink:href="#DejaVuSans-31"/>
     <use xlink:href="#DejaVuSans-39" x="63.623047"/>
     <use xlink:href="#DejaVuSans-35" x="127.246094"/>
     <use xlink:href="#DejaVuSans-36" x="190.869141"/>
    </g>
   </g>
   <g id="patch_23">
    <path d="M 206.25 391.638639 
Q 206.25 383.652511 206.25 375.666384 
" style="fill: none; stroke: #000000; stroke-width: 0.5; stroke-linecap: round"/>
   </g>
   <g id="text_25">
    <!-- 1962 -->
    <g transform="translate(193.525 403.2384) scale(0.1 -0.1)">
     <use xlink:href="#DejaVuSans-31"/>
     <use xlink:href="#DejaVuSans-39" x="63.623047"/>
     <use xlink:href="#DejaVuSans-36" x="127.246094"/>
     <use xlink:href="#DejaVuSans-32" x="190.869141"/>
    </g>
   </g>
   <g id="patch_24">
    <path d="M 113.25 450.774639 
Q 113.25 442.788511 113.25 434.802384 
" style="fill: none; stroke: #000000; stroke-width: 0.5; stroke-linecap: round"/>
   </g>
   <g id="text_26">
    <!-- 1963 -->
    <g transform="translate(100.525 462.3744) scale(0.1 -0.1)">
     <defs>
      <path id="DejaVuSans-33" d="M 2597 2516 
Q 3050 2419 3304 2112 
Q 3559 1806 3559 1356 
Q 3559 666 3084 287 
Q 2609 -91 1734 -91 
Q 1441 -91 1130 -33 
Q 819 25 488 141 
L 488 750 
Q 750 597 1062 519 
Q 1375 441 1716 441 
Q 2309 441 2620 675 
Q 2931 909 2931 1356 
Q 2931 1769 2642 2001 
Q 2353 2234 1838 2234 
L 1294 2234 
L 1294 2753 
L 1863 2753 
Q 2328 2753 2575 2939 
Q 2822 3125 2822 3475 
Q 2822 3834 2567 4026 
Q 2313 4219 1838 4219 
Q 1578 4219 1281 4162 
Q 984 4106 628 3988 
L 628 4550 
Q 988 4650 1302 4700 
Q 1616 4750 1894 4750 
Q 2613 4750 3031 4423 
Q 3450 4097 3450 3541 
Q 3450 3153 3228 2886 
Q 3006 2619 2597 2516 
z
" transform="scale(0.015625)"/>
     </defs>
     <use xlink:href="#DejaVuSans-31"/>
     <use xlink:href="#DejaVuSans-39" x="63.623047"/>
     <use xlink:href="#DejaVuSans-36" x="127.246094"/>
     <use xlink:href="#DejaVuSans-33" x="190.869141"/>
    </g>
   </g>
   <g id="patch_25">
    <path d="M 345.75 249.712239 
Q 345.75 241.726111 345.75 233.739984 
" style="fill: none; stroke: #000000; stroke-width: 0.5; stroke-linecap: round"/>
   </g>
   <g id="text_27">
    <!-- 1972 -->
    <g transform="translate(333.025 261.312) scale(0.1 -0.1)">
     <defs>
      <path id="DejaVuSans-37" d="M 525 4666 
L 3525 4666 
L 3525 4397 
L 1831 0 
L 1172 0 
L 2766 4134 
L 525 4134 
L 525 4666 
z
" transform="scale(0.015625)"/>
     </defs>
     <use xlink:href="#DejaVuSans-31"/>
     <use xlink:href="#DejaVuSans-39" x="63.623047"/>
     <use xlink:href="#DejaVuSans-37" x="127.246094"/>
     <use xlink:href="#DejaVuSans-32" x="190.869141"/>
    </g>
   </g>
   <g id="patch_26">
    <path d="M 531.75 308.848239 
Q 531.75 300.862111 531.75 292.875984 
" style="fill: none; stroke: #000000; stroke-width: 0.5; stroke-linecap: round"/>
   </g>
   <g id="text_28">
    <!-- 1974 -->
    <g transform="translate(519.025 320.448) scale(0.1 -0.1)">
     <defs>
      <path id="DejaVuSans-34" d="M 2419 4116 
L 825 1625 
L 2419 1625 
L 2419 4116 
z
M 2253 4666 
L 3047 4666 
L 3047 1625 
L 3713 1625 
L 3713 1100 
L 3047 1100 
L 3047 0 
L 2419 0 
L 2419 1100 
L 313 1100 
L 313 1709 
L 2253 4666 
z
" transform="scale(0.015625)"/>
     </defs>
     <use xlink:href="#DejaVuSans-31"/>
     <use xlink:href="#DejaVuSans-39" x="63.623047"/>
     <use xlink:href="#DejaVuSans-37" x="127.246094"/>
     <use xlink:href="#DejaVuSans-34" x="190.869141"/>
    </g>
   </g>
   <g id="patch_27">
    <path d="M 578.25 365.027439 
Q 578.25 357.041311 578.25 349.055184 
" style="fill: none; stroke: #000000; stroke-width: 0.5; stroke-linecap: round"/>
   </g>
   <g id="text_29">
    <!-- 1985 -->
    <g transform="translate(565.525 376.6272) scale(0.1 -0.1)">
     <defs>
      <path id="DejaVuSans-38" d="M 2034 2216 
Q 1584 2216 1326 1975 
Q 1069 1734 1069 1313 
Q 1069 891 1326 650 
Q 1584 409 2034 409 
Q 2484 409 2743 651 
Q 3003 894 3003 1313 
Q 3003 1734 2745 1975 
Q 2488 2216 2034 2216 
z
M 1403 2484 
Q 997 2584 770 2862 
Q 544 3141 544 3541 
Q 544 4100 942 4425 
Q 1341 4750 2034 4750 
Q 2731 4750 3128 4425 
Q 3525 4100 3525 3541 
Q 3525 3141 3298 2862 
Q 3072 2584 2669 2484 
Q 3125 2378 3379 2068 
Q 3634 1759 3634 1313 
Q 3634 634 3220 271 
Q 2806 -91 2034 -91 
Q 1263 -91 848 271 
Q 434 634 434 1313 
Q 434 1759 690 2068 
Q 947 2378 1403 2484 
z
M 1172 3481 
Q 1172 3119 1398 2916 
Q 1625 2713 2034 2713 
Q 2441 2713 2670 2916 
Q 2900 3119 2900 3481 
Q 2900 3844 2670 4047 
Q 2441 4250 2034 4250 
Q 1625 4250 1398 4047 
Q 1172 3844 1172 3481 
z
" transform="scale(0.015625)"/>
     </defs>
     <use xlink:href="#DejaVuSans-31"/>
     <use xlink:href="#DejaVuSans-39" x="63.623047"/>
     <use xlink:href="#DejaVuSans-38" x="127.246094"/>
     <use xlink:href="#DejaVuSans-35" x="190.869141"/>
    </g>
   </g>
   <g id="patch_28">
    <path d="M 299.25 295.542639 
Q 299.25 287.556511 299.25 279.570384 
" style="fill: none; stroke: #000000; stroke-width: 0.5; stroke-linecap: round"/>
   </g>
   <g id="text_30">
    <!-- 1996 -->
    <g transform="translate(286.525 307.1424) scale(0.1 -0.1)">
     <use xlink:href="#DejaVuSans-31"/>
     <use xlink:href="#DejaVuSans-39" x="63.623047"/>
     <use xlink:href="#DejaVuSans-39" x="127.246094"/>
     <use xlink:href="#DejaVuSans-36" x="190.869141"/>
    </g>
   </g>
   <g id="patch_29">
    <path d="M 633.372552 405.141719 
Q 629.489667 396.96138 625.606782 388.781041 
" style="fill: none; stroke: #000000; stroke-width: 0.5; stroke-linecap: round"/>
   </g>
   <g id="text_31">
    <!-- 1981 -->
    <g transform="translate(624.75 416.544) scale(0.1 -0.1)">
     <use xlink:href="#DejaVuSans-31"/>
     <use xlink:href="#DejaVuSans-39" x="63.623047"/>
     <use xlink:href="#DejaVuSans-38" x="127.246094"/>
     <use xlink:href="#DejaVuSans-31" x="190.869141"/>
    </g>
   </g>
   <g id="patch_30">
    <path d="M 614.703456 419.81389 
Q 619.434235 404.35098 624.165014 388.888069 
" style="fill: none; stroke: #000000; stroke-width: 0.5; stroke-linecap: round"/>
   </g>
   <g id="text_32">
    <!-- 2010 -->
    <g transform="translate(599.3 431.328) scale(0.1 -0.1)">
     <use xlink:href="#DejaVuSans-32"/>
     <use xlink:href="#DejaVuSans-30" x="63.623047"/>
     <use xlink:href="#DejaVuSans-31" x="127.246094"/>
     <use xlink:href="#DejaVuSans-30" x="190.869141"/>
    </g>
   </g>
   <g id="patch_31">
    <path d="M 383.627448 209.992919 
Q 387.510333 201.81258 391.393218 193.632241 
" style="fill: none; stroke: #000000; stroke-width: 0.5; stroke-linecap: round"/>
   </g>
   <g id="text_33">
    <!-- 1954 -->
    <g transform="translate(366.8 221.3952) scale(0.1 -0.1)">
     <use xlink:href="#DejaVuSans-31"/>
     <use xlink:href="#DejaVuSans-39" x="63.623047"/>
     <use xlink:href="#DejaVuSans-35" x="127.246094"/>
     <use xlink:href="#DejaVuSans-34" x="190.869141"/>
    </g>
   </g>
   <g id="patch_32">
    <path d="M 402.296544 224.66509 
Q 397.565765 209.20218 392.834986 193.739269 
" style="fill: none; stroke: #000000; stroke-width: 0.5; stroke-linecap: round"/>
   </g>
   <g id="text_34">
    <!-- 1965 -->
    <g transform="translate(392.25 236.1792) scale(0.1 -0.1)">
     <use xlink:href="#DejaVuSans-31"/>
     <use xlink:href="#DejaVuSans-39" x="63.623047"/>
     <use xlink:href="#DejaVuSans-36" x="127.246094"/>
     <use xlink:href="#DejaVuSans-35" x="190.869141"/>
    </g>
   </g>
   <g id="text_35">
    <!-- Heathrow Monthly Min Temperature Boxplots 1959 - 2023 -->
    <g transform="translate(160.862625 63.12) scale(0.144 -0.144)">
     <defs>
      <path id="DejaVuSans-48" d="M 628 4666 
L 1259 4666 
L 1259 2753 
L 3553 2753 
L 3553 4666 
L 4184 4666 
L 4184 0 
L 3553 0 
L 3553 2222 
L 1259 2222 
L 1259 0 
L 628 0 
L 628 4666 
z
" transform="scale(0.015625)"/>
      <path id="DejaVuSans-68" d="M 3513 2113 
L 3513 0 
L 2938 0 
L 2938 2094 
Q 2938 2591 2744 2837 
Q 2550 3084 2163 3084 
Q 1697 3084 1428 2787 
Q 1159 2491 1159 1978 
L 1159 0 
L 581 0 
L 581 4863 
L 1159 4863 
L 1159 2956 
Q 1366 3272 1645 3428 
Q 1925 3584 2291 3584 
Q 2894 3584 3203 3211 
Q 3513 2838 3513 2113 
z
" transform="scale(0.015625)"/>
      <path id="DejaVuSans-77" d="M 269 3500 
L 844 3500 
L 1563 769 
L 2278 3500 
L 2956 3500 
L 3675 769 
L 4391 3500 
L 4966 3500 
L 4050 0 
L 3372 0 
L 2619 2869 
L 1863 0 
L 1184 0 
L 269 3500 
z
" transform="scale(0.015625)"/>
      <path id="DejaVuSans-69" d="M 603 3500 
L 1178 3500 
L 1178 0 
L 603 0 
L 603 3500 
z
M 603 4863 
L 1178 4863 
L 1178 4134 
L 603 4134 
L 603 4863 
z
" transform="scale(0.015625)"/>
      <path id="DejaVuSans-42" d="M 1259 2228 
L 1259 519 
L 2272 519 
Q 2781 519 3026 730 
Q 3272 941 3272 1375 
Q 3272 1813 3026 2020 
Q 2781 2228 2272 2228 
L 1259 2228 
z
M 1259 4147 
L 1259 2741 
L 2194 2741 
Q 2656 2741 2882 2914 
Q 3109 3088 3109 3444 
Q 3109 3797 2882 3972 
Q 2656 4147 2194 4147 
L 1259 4147 
z
M 628 4666 
L 2241 4666 
Q 2963 4666 3353 4366 
Q 3744 4066 3744 3513 
Q 3744 3084 3544 2831 
Q 3344 2578 2956 2516 
Q 3422 2416 3680 2098 
Q 3938 1781 3938 1306 
Q 3938 681 3513 340 
Q 3088 0 2303 0 
L 628 0 
L 628 4666 
z
" transform="scale(0.015625)"/>
      <path id="DejaVuSans-78" d="M 3513 3500 
L 2247 1797 
L 3578 0 
L 2900 0 
L 1881 1375 
L 863 0 
L 184 0 
L 1544 1831 
L 300 3500 
L 978 3500 
L 1906 2253 
L 2834 3500 
L 3513 3500 
z
" transform="scale(0.015625)"/>
      <path id="DejaVuSans-73" d="M 2834 3397 
L 2834 2853 
Q 2591 2978 2328 3040 
Q 2066 3103 1784 3103 
Q 1356 3103 1142 2972 
Q 928 2841 928 2578 
Q 928 2378 1081 2264 
Q 1234 2150 1697 2047 
L 1894 2003 
Q 2506 1872 2764 1633 
Q 3022 1394 3022 966 
Q 3022 478 2636 193 
Q 2250 -91 1575 -91 
Q 1294 -91 989 -36 
Q 684 19 347 128 
L 347 722 
Q 666 556 975 473 
Q 1284 391 1588 391 
Q 1994 391 2212 530 
Q 2431 669 2431 922 
Q 2431 1156 2273 1281 
Q 2116 1406 1581 1522 
L 1381 1569 
Q 847 1681 609 1914 
Q 372 2147 372 2553 
Q 372 3047 722 3315 
Q 1072 3584 1716 3584 
Q 2034 3584 2315 3537 
Q 2597 3491 2834 3397 
z
" transform="scale(0.015625)"/>
      <path id="DejaVuSans-2d" d="M 313 2009 
L 1997 2009 
L 1997 1497 
L 313 1497 
L 313 2009 
z
" transform="scale(0.015625)"/>
     </defs>
     <use xlink:href="#DejaVuSans-48"/>
     <use xlink:href="#DejaVuSans-65" x="75.195312"/>
     <use xlink:href="#DejaVuSans-61" x="136.71875"/>
     <use xlink:href="#DejaVuSans-74" x="197.998047"/>
     <use xlink:href="#DejaVuSans-68" x="237.207031"/>
     <use xlink:href="#DejaVuSans-72" x="300.585938"/>
     <use xlink:href="#DejaVuSans-6f" x="339.449219"/>
     <use xlink:href="#DejaVuSans-77" x="400.630859"/>
     <use xlink:href="#DejaVuSans-20" x="482.417969"/>
     <use xlink:href="#DejaVuSans-4d" x="514.205078"/>
     <use xlink:href="#DejaVuSans-6f" x="600.484375"/>
     <use xlink:href="#DejaVuSans-6e" x="661.666016"/>
     <use xlink:href="#DejaVuSans-74" x="725.044922"/>
     <use xlink:href="#DejaVuSans-68" x="764.253906"/>
     <use xlink:href="#DejaVuSans-6c" x="827.632812"/>
     <use xlink:href="#DejaVuSans-79" x="855.416016"/>
     <use xlink:href="#DejaVuSans-20" x="914.595703"/>
     <use xlink:href="#DejaVuSans-4d" x="946.382812"/>
     <use xlink:href="#DejaVuSans-69" x="1032.662109"/>
     <use xlink:href="#DejaVuSans-6e" x="1060.445312"/>
     <use xlink:href="#DejaVuSans-20" x="1123.824219"/>
     <use xlink:href="#DejaVuSans-54" x="1155.611328"/>
     <use xlink:href="#DejaVuSans-65" x="1199.695312"/>
     <use xlink:href="#DejaVuSans-6d" x="1261.21875"/>
     <use xlink:href="#DejaVuSans-70" x="1358.630859"/>
     <use xlink:href="#DejaVuSans-65" x="1422.107422"/>
     <use xlink:href="#DejaVuSans-72" x="1483.630859"/>
     <use xlink:href="#DejaVuSans-61" x="1524.744141"/>
     <use xlink:href="#DejaVuSans-74" x="1586.023438"/>
     <use xlink:href="#DejaVuSans-75" x="1625.232422"/>
     <use xlink:href="#DejaVuSans-72" x="1688.611328"/>
     <use xlink:href="#DejaVuSans-65" x="1727.474609"/>
     <use xlink:href="#DejaVuSans-20" x="1788.998047"/>
     <use xlink:href="#DejaVuSans-42" x="1820.785156"/>
     <use xlink:href="#DejaVuSans-6f" x="1889.388672"/>
     <use xlink:href="#DejaVuSans-78" x="1947.445312"/>
     <use xlink:href="#DejaVuSans-70" x="2006.625"/>
     <use xlink:href="#DejaVuSans-6c" x="2070.101562"/>
     <use xlink:href="#DejaVuSans-6f" x="2097.884766"/>
     <use xlink:href="#DejaVuSans-74" x="2159.066406"/>
     <use xlink:href="#DejaVuSans-73" x="2198.275391"/>
     <use xlink:href="#DejaVuSans-20" x="2250.375"/>
     <use xlink:href="#DejaVuSans-31" x="2282.162109"/>
     <use xlink:href="#DejaVuSans-39" x="2345.785156"/>
     <use xlink:href="#DejaVuSans-35" x="2409.408203"/>
     <use xlink:href="#DejaVuSans-39" x="2473.03125"/>
     <use xlink:href="#DejaVuSans-20" x="2536.654297"/>
     <use xlink:href="#DejaVuSans-2d" x="2568.441406"/>
     <use xlink:href="#DejaVuSans-20" x="2604.525391"/>
     <use xlink:href="#DejaVuSans-32" x="2636.3125"/>
     <use xlink:href="#DejaVuSans-30" x="2699.935547"/>
     <use xlink:href="#DejaVuSans-32" x="2763.558594"/>
     <use xlink:href="#DejaVuSans-33" x="2827.181641"/>
    </g>
   </g>
   <g id="legend_1">
    <g id="patch_33">
     <path d="M 547.301563 161.708438 
L 641 161.708438 
Q 643 161.708438 643 159.708438 
L 643 76.12 
Q 643 74.12 641 74.12 
L 547.301563 74.12 
Q 545.301563 74.12 545.301563 76.12 
L 545.301563 159.708438 
Q 545.301563 161.708438 547.301563 161.708438 
z
" style="fill: #e5e5e5; opacity: 0.8; stroke: #cccccc; stroke-width: 0.5; stroke-linejoin: miter"/>
    </g>
    <g id="PathCollection_7">
     <defs>
      <path id="me0054be206" d="M 0 3 
C 0.795609 3 1.55874 2.683901 2.12132 2.12132 
C 2.683901 1.55874 3 0.795609 3 0 
C 3 -0.795609 2.683901 -1.55874 2.12132 -2.12132 
C 1.55874 -2.683901 0.795609 -3 0 -3 
C -0.795609 -3 -1.55874 -2.683901 -2.12132 -2.12132 
C -2.683901 -1.55874 -3 -0.795609 -3 0 
C -3 0.795609 -2.683901 1.55874 -2.12132 2.12132 
C -1.55874 2.683901 -0.795609 3 0 3 
z
" style="stroke: #66c2a5; stroke-width: 0.5"/>
     </defs>
     <g>
      <use xlink:href="#me0054be206" x="559.301563" y="83.093438" style="fill: #66c2a5; stroke: #66c2a5; stroke-width: 0.5"/>
     </g>
    </g>
    <g id="text_36">
     <!-- 2019 -->
     <g transform="translate(577.301563 85.718438) scale(0.1 -0.1)">
      <use xlink:href="#DejaVuSans-32"/>
      <use xlink:href="#DejaVuSans-30" x="63.623047"/>
      <use xlink:href="#DejaVuSans-31" x="127.246094"/>
      <use xlink:href="#DejaVuSans-39" x="190.869141"/>
     </g>
    </g>
    <g id="PathCollection_8">
     <defs>
      <path id="m5effd25502" d="M -1.5 3 
L 0 1.5 
L 1.5 3 
L 3 1.5 
L 1.5 0 
L 3 -1.5 
L 1.5 -3 
L 0 -1.5 
L -1.5 -3 
L -3 -1.5 
L -1.5 0 
L -3 1.5 
z
" style="stroke: #fc8d62; stroke-width: 0.5"/>
     </defs>
     <g>
      <use xlink:href="#m5effd25502" x="559.301563" y="97.771563" style="fill: #fc8d62; stroke: #fc8d62; stroke-width: 0.5"/>
     </g>
    </g>
    <g id="text_37">
     <!-- 2020 -->
     <g transform="translate(577.301563 100.396563) scale(0.1 -0.1)">
      <use xlink:href="#DejaVuSans-32"/>
      <use xlink:href="#DejaVuSans-30" x="63.623047"/>
      <use xlink:href="#DejaVuSans-32" x="127.246094"/>
      <use xlink:href="#DejaVuSans-30" x="190.869141"/>
     </g>
    </g>
    <g id="PathCollection_9">
     <defs>
      <path id="m6738f5c4ab" d="M -2.12132 -2.12132 
L -2.12132 2.12132 
L 2.12132 2.12132 
L 2.12132 -2.12132 
z
" style="stroke: #8da0cb; stroke-width: 0.5"/>
     </defs>
     <g>
      <use xlink:href="#m6738f5c4ab" x="559.301563" y="112.449688" style="fill: #8da0cb; stroke: #8da0cb; stroke-width: 0.5"/>
     </g>
    </g>
    <g id="text_38">
     <!-- 2021 -->
     <g transform="translate(577.301563 115.074688) scale(0.1 -0.1)">
      <use xlink:href="#DejaVuSans-32"/>
      <use xlink:href="#DejaVuSans-30" x="63.623047"/>
      <use xlink:href="#DejaVuSans-32" x="127.246094"/>
      <use xlink:href="#DejaVuSans-31" x="190.869141"/>
     </g>
    </g>
    <g id="PathCollection_10">
     <defs>
      <path id="meb47c9ae98" d="M -1 3 
L 1 3 
L 1 1 
L 3 1 
L 3 -1 
L 1 -1 
L 1 -3 
L -1 -3 
L -1 -1 
L -3 -1 
L -3 1 
L -1 1 
z
" style="stroke: #e78ac3; stroke-width: 0.5"/>
     </defs>
     <g>
      <use xlink:href="#meb47c9ae98" x="559.301563" y="127.127813" style="fill: #e78ac3; stroke: #e78ac3; stroke-width: 0.5"/>
     </g>
    </g>
    <g id="text_39">
     <!-- 2022 -->
     <g transform="translate(577.301563 129.752813) scale(0.1 -0.1)">
      <use xlink:href="#DejaVuSans-32"/>
      <use xlink:href="#DejaVuSans-30" x="63.623047"/>
      <use xlink:href="#DejaVuSans-32" x="127.246094"/>
      <use xlink:href="#DejaVuSans-32" x="190.869141"/>
     </g>
    </g>
    <g id="PathCollection_11">
     <g>
      <use xlink:href="#m8097446a98" x="559.301563" y="148.444688" style="stroke: #ffffff; stroke-width: 0.619677"/>
     </g>
    </g>
    <g id="text_40">
     <!-- Year of -->
     <g transform="translate(577.301563 144.430938) scale(0.1 -0.1)">
      <defs>
       <path id="DejaVuSans-59" d="M -13 4666 
L 666 4666 
L 1959 2747 
L 3244 4666 
L 3922 4666 
L 2272 2222 
L 2272 0 
L 1638 0 
L 1638 2222 
L -13 4666 
z
" transform="scale(0.015625)"/>
       <path id="DejaVuSans-66" d="M 2375 4863 
L 2375 4384 
L 1825 4384 
Q 1516 4384 1395 4259 
Q 1275 4134 1275 3809 
L 1275 3500 
L 2222 3500 
L 2222 3053 
L 1275 3053 
L 1275 0 
L 697 0 
L 697 3053 
L 147 3053 
L 147 3500 
L 697 3500 
L 697 3744 
Q 697 4328 969 4595 
Q 1241 4863 1831 4863 
L 2375 4863 
z
" transform="scale(0.015625)"/>
      </defs>
      <use xlink:href="#DejaVuSans-59"/>
      <use xlink:href="#DejaVuSans-65" x="47.833984"/>
      <use xlink:href="#DejaVuSans-61" x="109.357422"/>
      <use xlink:href="#DejaVuSans-72" x="170.636719"/>
      <use xlink:href="#DejaVuSans-20" x="211.75"/>
      <use xlink:href="#DejaVuSans-6f" x="243.537109"/>
      <use xlink:href="#DejaVuSans-66" x="304.71875"/>
     </g>
     <!-- lowest temp -->
     <g transform="translate(577.301563 155.62875) scale(0.1 -0.1)">
      <use xlink:href="#DejaVuSans-6c"/>
      <use xlink:href="#DejaVuSans-6f" x="27.783203"/>
      <use xlink:href="#DejaVuSans-77" x="88.964844"/>
      <use xlink:href="#DejaVuSans-65" x="170.751953"/>
      <use xlink:href="#DejaVuSans-73" x="232.275391"/>
      <use xlink:href="#DejaVuSans-74" x="284.375"/>
      <use xlink:href="#DejaVuSans-20" x="323.583984"/>
      <use xlink:href="#DejaVuSans-74" x="355.371094"/>
      <use xlink:href="#DejaVuSans-65" x="394.580078"/>
      <use xlink:href="#DejaVuSans-6d" x="456.103516"/>
      <use xlink:href="#DejaVuSans-70" x="553.515625"/>
     </g>
    </g>
   </g>
  </g>
 </g>
 <defs>
  <clipPath id="p11144f8d7e">
   <rect x="90" y="69.12" width="558" height="443.52"/>
  </clipPath>
 </defs>
</svg>
